<?xml version="1.0" encoding="UTF-8"?>
<svg width="16px" height="12px" viewBox="0 0 16 12" version="1.1" xmlns="http://www.w3.org/2000/svg" xmlns:xlink="http://www.w3.org/1999/xlink">
    <title>envelope</title>
    <g id="Page-1" stroke="none" stroke-width="1" fill="none" fill-rule="evenodd" opacity="0.800000012">
        <g id="Home---List" transform="translate(-1061.000000, -1084.000000)" fill="#0F202F" fill-rule="nonzero">
            <g id="footer" transform="translate(0.000000, 1041.000000)">
                <g id="envelope" transform="translate(1061.000000, 43.000000)">
                    <path d="M15.696875,4.03964856 C15.81875,3.94370342 16,4.03345855 16,4.18511377 L16,10.5143979 C16,11.334574 15.328125,12 14.5,12 L1.5,12 C0.671875,12 0,11.334574 0,10.5143979 L0,4.18820877 C0,4.03345855 0.178125,3.94679843 0.303125,4.04274357 C1.003125,4.58127434 1.93125,5.26527032 5.11875,7.55866862 C5.778125,8.0352993 6.890625,9.03808074 8,9.03189073 C9.115625,9.04117575 10.25,8.01672928 10.884375,7.55866862 C14.071875,5.26527032 14.996875,4.57817933 15.696875,4.03964856 Z M8,8 C8.725,8.0125 9.76875,7.0875 10.29375,6.70625 C14.440625,3.696875 14.75625,3.434375 15.7125,2.684375 C15.89375,2.54375 16,2.325 16,2.09375 L16,1.5 C16,0.671875 15.328125,8.8817842e-16 14.5,8.8817842e-16 L1.5,8.8817842e-16 C0.671875,8.8817842e-16 0,0.671875 0,1.5 L0,2.09375 C0,2.325 0.10625,2.540625 0.2875,2.684375 C1.24375,3.43125 1.559375,3.696875 5.70625,6.70625 C6.23125,7.0875 7.275,8.0125 8,8 Z" id="Shape"></path>
                </g>
            </g>
        </g>
    </g>
</svg>