<svg width="16" height="16" xmlns="http://www.w3.org/2000/svg"><path d="M16 8a7.999 7.999 0 01-10.368 7.642c.326-.532.813-1.403.994-2.097l.497-1.903c.26.497 1.022.92 1.832.92 2.413 0 4.151-2.22 4.151-4.978 0-2.642-2.158-4.62-4.932-4.62-3.451 0-5.287 2.317-5.287 4.842 0 1.175.626 2.636 1.623 3.1.151.071.232.04.267-.106.026-.11.162-.655.223-.906a.24.24 0 00-.055-.23c-.326-.403-.59-1.138-.59-1.825 0-1.765 1.335-3.471 3.613-3.471 1.964 0 3.342 1.338 3.342 3.255 0 2.164-1.094 3.664-2.516 3.664-.784 0-1.375-.648-1.184-1.445.225-.952.661-1.977.661-2.665 0-.612-.33-1.125-1.013-1.125-.803 0-1.448.829-1.448 1.942 0 .71.238 1.187.238 1.187s-.79 3.348-.935 3.974c-.161.69-.097 1.664-.03 2.297A8.003 8.003 0 010 8c0-4.42 3.58-8 8-8s8 3.58 8 8z" fill-rule="nonzero"/></svg>