<?xml version="1.0" encoding="UTF-8"?>
<svg width="19px" height="13px" viewBox="0 0 19 13" version="1.1" xmlns="http://www.w3.org/2000/svg" xmlns:xlink="http://www.w3.org/1999/xlink">
    <title>youtube</title>
    <g id="Page-1" stroke="none" stroke-width="1" fill="none" fill-rule="evenodd" opacity="0.800000012">
        <g id="Home---List" transform="translate(-1214.000000, -1083.000000)" fill="#0F202F" fill-rule="nonzero">
            <g id="footer" transform="translate(0.000000, 1041.000000)">
                <g id="youtube" transform="translate(1214.000000, 42.000000)">
                    <path d="M17.6238725,2.0340599 C17.4168574,1.23340885 16.8069192,0.602841146 16.0324829,0.388848958 C14.6287614,0 9,0 9,0 C9,0 3.37127152,0 1.96751713,0.388848958 C1.19308082,0.602875 0.583142599,1.23340885 0.376127471,2.0340599 C-3.98500677e-14,3.48528646 -3.98500677e-14,6.51313542 -3.98500677e-14,6.51313542 C-3.98500677e-14,6.51313542 -3.98500677e-14,9.54098438 0.376127471,10.9922109 C0.583142599,11.792862 1.19308082,12.3971589 1.96751713,12.611151 C3.37127152,13 9,13 9,13 C9,13 14.6287285,13 16.0324829,12.611151 C16.8069192,12.3971589 17.4168574,11.792862 17.6238725,10.9922109 C18,9.54098437 18,6.51313542 18,6.51313542 C18,6.51313542 18,3.48528646 17.6238725,2.0340599 Z M7,9 L7,4 L12,6.50006157 L7,9 Z" id="Shape"></path>
                </g>
            </g>
        </g>
    </g>
</svg>