<?xml version="1.0" standalone="no"?>
<!DOCTYPE svg PUBLIC "-//W3C//DTD SVG 20010904//EN"
 "http://www.w3.org/TR/2001/REC-SVG-20010904/DTD/svg10.dtd">
<svg version="1.0" xmlns="http://www.w3.org/2000/svg"
 width="1200.000000pt" height="1200.000000pt" viewBox="0 0 1200.000000 1200.000000"
 preserveAspectRatio="xMidYMid meet">
<metadata>
Created by potrace 1.11, written by Peter Selinger 2001-2013
</metadata>
<g transform="translate(0.000000,1200.000000) scale(0.100000,-0.100000)"
fill="#000000" stroke="none">
<path d="M50 11993 c-8 -3 -23 -15 -32 -27 -17 -20 -18 -348 -18 -5959 0
-5187 2 -5942 15 -5966 8 -16 25 -31 37 -35 13 -3 2691 -6 5951 -6 5183 0
5932 2 5956 15 16 8 31 22 35 30 3 9 6 2687 6 5951 0 5184 -2 5939 -15 5963
-8 16 -25 31 -37 35 -28 7 -11877 7 -11898 -1z m9550 -5993 l0 -3600 -3600 0
-3600 0 0 3600 0 3600 3600 0 3600 0 0 -3600z"/>
</g>
</svg>
