<svg width="16" height="12" xmlns="http://www.w3.org/2000/svg"><path d="M15.697 4.04a.188.188 0 01.303.145v6.33c0 .82-.672 1.485-1.5 1.485h-13C.672 12 0 11.335 0 10.514V4.188c0-.155.178-.241.303-.145.7.538 1.628 1.222 4.816 3.516.66.476 1.772 1.48 2.881 1.473 1.116.01 2.25-1.015 2.884-1.473 3.188-2.294 4.113-2.98 4.813-3.52zM8 8c.725.012 1.769-.912 2.294-1.294 4.147-3.01 4.462-3.272 5.418-4.022a.748.748 0 00.288-.59V1.5A1.5 1.5 0 0014.5 0h-13A1.5 1.5 0 000 1.5v.594c0 .231.106.447.287.59.957.747 1.272 1.013 5.42 4.022C6.23 7.087 7.274 8.012 8 8z" fill-rule="nonzero" opacity=".8"/></svg>