<svg width="16" height="16" xmlns="http://www.w3.org/2000/svg"><path d="M8 0a8 8 0 110 16A8 8 0 018 0zM6.37 4.046c-.638.03-1.206.177-1.675.645-.47.467-.614 1.035-.646 1.676a48.44 48.44 0 000 3.3c.03.64.176 1.208.646 1.675.47.468 1.035.614 1.676.646.66.038 2.64.038 3.3 0 .64-.03 1.208-.176 1.675-.646.468-.467.614-1.035.646-1.675.038-.66.038-2.638 0-3.299-.03-.64-.176-1.208-.646-1.675-.467-.468-1.035-.614-1.675-.647a48.44 48.44 0 00-3.3 0zm1.651.693c.582 0 1.833-.046 2.358.16.35.14.62.41.76.76.21.527.161 1.777.161 2.358 0 .582.048 1.833-.16 2.358-.14.35-.41.62-.76.76-.527.21-1.777.161-2.359.161-.581 0-1.832.046-2.357-.16a1.35 1.35 0 01-.76-.76c-.21-.527-.161-1.777-.161-2.359 0-.581-.046-1.832.16-2.357.14-.35.41-.62.76-.76.527-.21 1.777-.161 2.358-.161zm0 1.228c-1.135 0-2.05.915-2.05 2.05 0 1.136.915 2.051 2.05 2.051 1.136 0 2.051-.915 2.051-2.05 0-1.136-.915-2.051-2.05-2.051zm0 .717c.736 0 1.334.598 1.334 1.333 0 .736-.6 1.334-1.334 1.334a1.336 1.336 0 01-1.333-1.334c0-.735.598-1.333 1.333-1.333zm2.135-1.28a.478.478 0 100 .957.478.478 0 000-.956z" fill-rule="evenodd"/></svg>