<?xml version="1.0" encoding="UTF-8"?>
<svg width="16px" height="16px" viewBox="0 0 16 16" version="1.1" xmlns="http://www.w3.org/2000/svg" xmlns:xlink="http://www.w3.org/1999/xlink">
    <title>linkedin-in</title>
    <g id="Page-1" stroke="none" stroke-width="1" fill="none" fill-rule="evenodd" opacity="0.800000012">
        <g id="Home---List" transform="translate(-1174.000000, -1081.000000)" fill="#0F202F" fill-rule="nonzero">
            <g id="footer" transform="translate(0.000000, 1041.000000)">
                <g id="linkedin-in" transform="translate(1174.000000, 40.000000)">
                    <path d="M3,16 L2.0783375e-13,16 L2.0783375e-13,5 L3,5 L3,16 Z M2,4 C0.895705521,4 0,3.08964751 0,1.9905634 C0,0.891205588 0.895430512,3.62353376e-14 2,3.62353376e-14 C3.10456949,3.62353376e-14 4,0.891205588 4,1.9905634 C4,3.08964751 3.10392266,4 2,4 Z M15.9965462,16 L12.7956068,16 L12.7956068,10.7762557 C12.7956068,9.53131115 12.7714305,7.93476843 11.1277889,7.93476843 C9.45997099,7.93476843 9.20439318,9.28734508 9.20439318,10.6865623 L9.20439318,16 L6,16 L6,5.26908023 L9.07660427,5.26908023 L9.07660427,6.73287671 L9.12150307,6.73287671 C9.5497686,5.88975864 10.5959108,5 12.1566623,5 C15.4031913,5 16,7.22080887 16,10.105349 L16,16 L15.9965462,16 Z" id="Shape"></path>
                </g>
            </g>
        </g>
    </g>
</svg>