<svg width="16" height="16" xmlns="http://www.w3.org/2000/svg"><path d="M6.242 9.597a.8.8 0 11-.008-1.599.8.8 0 01.008 1.599zM16 8c0 4.42-3.58 8-8 8s-8-3.58-8-8 3.58-8 8-8 8 3.58 8 8zm-4.268-1.329a1.08 1.08 0 00-.767.323c-.723-.5-1.697-.823-2.778-.859l.561-2.525 1.787.403c0 .439.359.793.794.793a.805.805 0 00.803-.803.805.805 0 00-.803-.803.807.807 0 00-.713.445l-1.974-.439c-.097-.025-.197.046-.223.142l-.616 2.787c-1.07.046-2.035.365-2.758.865a1.069 1.069 0 00-.777-.329c-1.126 0-1.494 1.513-.465 2.026a2.328 2.328 0 00-.055.5c0 1.697 1.91 3.07 4.258 3.07 2.359 0 4.268-1.373 4.268-3.07 0-.171-.02-.349-.061-.51 1.01-.516.639-2.016-.48-2.016zM9.51 10.419c-.587.587-2.455.578-3.02 0a.195.195 0 00-.267 0c-.081.081-.081.207 0 .278.735.735 2.816.735 3.554 0 .081-.071.081-.197 0-.278a.195.195 0 00-.267 0zM9.758 8a.797.797 0 00-.793.803A.8.8 0 109.759 8z" fill-rule="nonzero"/></svg>