<svg width="16" height="16" xmlns="http://www.w3.org/2000/svg"><path d="M8 0a8 8 0 110 16A8 8 0 018 0zm1.923 4.002c-1.136 0-2.05.92-2.05 2.05 0 .158.02.316.05.469a5.826 5.826 0 01-4.225-2.145 2.048 2.048 0 00.635 2.741 2.064 2.064 0 01-.927-.26v.025A2.05 2.05 0 005.05 8.894a2.168 2.168 0 01-.926.038 2.053 2.053 0 001.916 1.421 4.105 4.105 0 01-2.544.876A4.24 4.24 0 013 11.203c.907.584 1.986.92 3.147.92 3.77 0 5.831-3.121 5.831-5.83 0-.09 0-.178-.006-.267.4-.292.749-.654 1.028-1.06a4.109 4.109 0 01-1.18.317c.425-.253.748-.653.9-1.13a4.035 4.035 0 01-1.3.496 2.045 2.045 0 00-1.497-.647z" fill-rule="evenodd"/></svg>