<?xml version="1.0" standalone="no"?>
<!DOCTYPE svg PUBLIC "-//W3C//DTD SVG 1.1//EN" "http://www.w3.org/Graphics/SVG/1.1/DTD/svg11.dtd" >
<svg xmlns="http://www.w3.org/2000/svg" xmlns:xlink="http://www.w3.org/1999/xlink" version="1.1">
<metadata>
Created by FontForge 20170731 at Fri Jul 11 15:29:12 2014
 By Aleksey,,,
Copyright (c) 2014 by Jonathan Hill. All rights reserved.
</metadata>
<defs>
<font id="Loew-Regular" horiz-adv-x="660" >
  <font-face 
    font-family="Loew"
    font-weight="400"
    font-stretch="normal"
    units-per-em="1000"
    panose-1="0 0 5 0 0 0 0 0 0 0"
    ascent="775"
    descent="-225"
    x-height="500"
    cap-height="700"
    bbox="-61 -245 1276 1130"
    underline-thickness="50"
    underline-position="-200"
    unicode-range="U+0020-FB02"
  />
<missing-glyph horiz-adv-x="500" 
d="M500 0h-500v700h500v-700zM80 650l170 -255l170 255h-340zM450 605l-170 -255l170 -255v510zM250 305l-170 -255h340zM220 350l-170 255v-510z" />
    <glyph glyph-name="fi" unicode="fi" horiz-adv-x="667" 
d="M284 710q40 0 85 -14l-10 -44q-31 11 -57 11q-53 0 -87 -35t-34 -93v-35h389v-500h-67v448h-322v-448h-68v448h-86v52h86v37q0 80 47.5 126.5t123.5 46.5z" />
    <glyph glyph-name="fl" unicode="fl" horiz-adv-x="646" 
d="M284 710q34 0 67 -10h212v-700h-67v652h-137q-31 11 -57 11q-52 0 -86.5 -34.5t-34.5 -93.5v-35h168v-52h-168v-448h-68v448h-86v52h86v37q0 80 47.5 126.5t123.5 46.5z" />
    <glyph glyph-name="f_f" unicode="ff" horiz-adv-x="796" 
d="M284 710q40 0 85 -14l-10 -44q-31 11 -57 11q-52 0 -86.5 -34.5t-34.5 -93.5v-35h330v37q0 80 47.5 126.5t123.5 46.5q40 0 85 -14l-10 -44q-31 11 -57 11q-52 0 -86.5 -34.5t-34.5 -93.5v-35h168v-52h-168v-448h-68v448h-330v-448h-68v448h-86v52h86v37q0 80 47.5 126.5
t123.5 46.5z" />
    <glyph glyph-name="f_f_i" unicode="ffi" horiz-adv-x="1065" 
d="M284 710q40 0 85 -14l-10 -44q-31 11 -57 11q-53 0 -87 -35t-34 -93v-35h330v37q0 80 47.5 126.5t123.5 46.5q40 0 85 -14l-10 -44q-31 11 -57 11q-53 0 -87 -35t-34 -93v-35h389v-500h-67v448h-322v-448h-68v448h-330v-448h-68v448h-86v52h86v37q0 80 47.5 126.5
t123.5 46.5z" />
    <glyph glyph-name="f_f_l" unicode="ffl" horiz-adv-x="1044" 
d="M284 710q40 0 85 -14l-10 -44q-31 11 -57 11q-52 0 -86.5 -34.5t-34.5 -93.5v-35h330v37q0 82 48.5 127.5t122.5 45.5q34 0 67 -10h212v-700h-67v652h-137q-31 11 -57 11q-52 0 -86.5 -34.5t-34.5 -93.5v-35h168v-52h-168v-448h-68v448h-330v-448h-68v448h-86v52h86v37
q0 80 47.5 126.5t123.5 46.5z" />
    <glyph glyph-name=".notdef" horiz-adv-x="500" 
d="M500 0h-500v700h500v-700zM80 650l170 -255l170 255h-340zM450 605l-170 -255l170 -255v510zM250 305l-170 -255h340zM220 350l-170 255v-510z" />
    <glyph glyph-name=".null" horiz-adv-x="0" 
 />
    <glyph glyph-name="nonmarkingreturn" horiz-adv-x="333" 
 />
    <glyph glyph-name="space" unicode=" " horiz-adv-x="250" 
 />
    <glyph glyph-name="exclam" unicode="!" horiz-adv-x="175" 
d="M126 700l-6 -539h-65l-6 539h77zM58 51q12 11 29.5 11t29.5 -11q12 -10 12 -25.5t-12 -25.5q-12 -11 -29.5 -11t-29.5 11q-12 10 -12 25.5t12 25.5z" />
    <glyph glyph-name="quotedbl" unicode="&#x22;" horiz-adv-x="308" 
d="M101 710l-5 -252h-47l-5 252h57zM264 710l-6 -252h-46l-5 252h57z" />
    <glyph glyph-name="numbersign" unicode="#" horiz-adv-x="745" 
d="M613 700l-32 -181h123l-10 -53h-122l-39 -221h122l-9 -53h-123l-33 -192h-55l34 192h-248l-34 -192h-55l34 192h-125l10 53h125l39 221h-125l9 53h125l32 181h55l-32 -181h247l32 181h55zM517 466h-248l-38 -221h247z" />
    <glyph glyph-name="dollar" unicode="$" horiz-adv-x="704" 
d="M318 818h61v-110q128 -7 223 -72l-32 -55q-104 67 -231 67q-71 0 -114 -32.5t-43 -93.5q0 -43 33 -68q35 -26 134 -54q3 0 6.5 -1.5t9 -3t9.5 -2.5q20 -5 44 -13l40 -12q11 -3 37 -13q50 -22 60 -31q32 -22 42 -42q25 -40 25 -97q0 -89 -66 -139q-67 -51 -168 -55h-9
v-109h-61v111q-145 13 -243 84l34 54q116 -79 265 -79q73 0 122.5 32t49.5 93q0 38 -11 58q-6 11 -8.5 15t-9.5 10.5t-16 11.5q-29 18 -56 26q-9 3 -81 25l-36 10q-124 35 -173 72q-50 38 -50 109q0 91 59 139t154 54v111z" />
    <glyph glyph-name="percent" unicode="%" horiz-adv-x="837" 
d="M717 717l-537 -734h-64l538 734h63zM83 657q44 50 117 50q74 0 116 -50q43 -49 43 -133t-43 -133q-42 -49 -116 -49t-117 49q-42 49 -42 133t42 133zM200 386q51 0 80 37.5t29 101.5q0 62 -29 100t-80 38q-50 0 -80 -38q-29 -38 -29 -101t29.5 -100.5t79.5 -37.5z
M521 308q44 50 117 50q74 0 116 -50q43 -49 43 -133t-43 -133q-42 -49 -116 -49t-117 49q-42 49 -42 133q0 83 42 133zM717 276q-29 38 -79 38t-80 -38q-29 -38 -29 -101t29 -101q30 -37 80 -37q51 0 79 37q30 38 30 101t-30 101z" />
    <glyph glyph-name="ampersand" unicode="&#x26;" horiz-adv-x="752" 
d="M365 710q69 0 119 -42q50 -41 50 -107q-2 -65 -29.5 -102.5t-79.5 -62.5l-71 -34l191 -216q54 60 89 163l50 -22q-37 -111 -99 -182l71 -78l-51 -38l-62 69q-87 -78 -206 -82q-105 -5 -181 46q-75 52 -79 140q-6 115 156 197l31 15l-25 30q-37 43 -50 68q-13 26 -13 65
q0 80 58 127.5t131 45.5zM364 661q-51 0 -90 -33t-39 -88q0 -31 10 -50q7 -13 43 -56l29 -33l79 38q41 20 61 47t20 72q0 44 -33 73.5t-80 29.5zM502 104l-200 228l-34 -17q-126 -62 -122 -147q3 -64 57 -102q55 -36 134 -33q99 5 165 71z" />
    <glyph glyph-name="quotesingle" unicode="'" horiz-adv-x="145" 
d="M101 710l-5 -252h-47l-5 252h57z" />
    <glyph glyph-name="parenleft" unicode="(" horiz-adv-x="241" 
d="M153 729l58 -29q-39 -73 -67 -182q-27 -106 -27 -206q0 -104 28 -210q28 -107 69 -184l-59 -29q-45 81 -79 198q-32 117 -32 225q0 109 31 221q31 115 78 196z" />
    <glyph glyph-name="parenright" unicode=")" horiz-adv-x="241" 
d="M30 700l58 29q45 -79 77 -195.5t31 -221.5q0 -108 -32 -225q-31 -112 -79 -198l-58 29q40 75 68.5 184t28.5 210q0 100 -27 206q-28 109 -67 182z" />
    <glyph glyph-name="asterisk" unicode="*" horiz-adv-x="396" 
d="M221 710l-2 -126l120 41l14 -43l-121 -38l76 -101l-37 -26l-73 103l-72 -103l-37 26l76 101l-121 38l14 43l120 -41l-2 126h45z" />
    <glyph glyph-name="plus" unicode="+" horiz-adv-x="479" 
d="M435 295v-54h-169v-169h-53v169h-169v54h169v168h53v-168h169z" />
    <glyph glyph-name="comma" unicode="," horiz-adv-x="183" 
d="M139 26q0 -10 -5 -20l-84 -128l-23 10l53 105q-23 9 -23 33q0 15 12 25.5t29 10.5t29 -10.5t12 -25.5z" />
    <glyph glyph-name="hyphen" unicode="-" horiz-adv-x="431" 
d="M387 288v-57h-343v57h343z" />
    <glyph glyph-name="period" unicode="." horiz-adv-x="171" 
d="M85 62q18 0 30 -10t12 -26q0 -25 -25.5 -34.5t-45.5 8.5q-19 16 -8 39t37 23z" />
    <glyph glyph-name="slash" unicode="/" horiz-adv-x="479" 
d="M446 717l-350 -734h-62l350 734h62z" />
    <glyph glyph-name="zero" unicode="0" horiz-adv-x="740" 
d="M370 690q141 0 222 -95t81 -255t-81 -255t-222 -95t-222 95t-81 255q0 159 81.5 254.5t221.5 95.5zM537 548q-62 77 -167 77q-106 0 -168 -77q-61 -76 -61 -208t61 -208q62 -77 168 -77q105 0 167 77t62 208t-62 208z" />
    <glyph glyph-name="one" unicode="1" horiz-adv-x="358" 
d="M257 680v-680h-72v616l-136 -31l-11 56l161 39h58z" />
    <glyph glyph-name="two" unicode="2" horiz-adv-x="595" 
d="M301 690q93 0 160 -53q67 -52 67 -143q-2 -56 -31 -98.5t-112 -118.5l-223 -217h383v-60h-492v58l302 276q56 53 78 86q21 33 21 69q0 62 -46 99q-46 38 -111 38q-67 0 -114 -27t-88 -86l-47 39q92 138 253 138z" />
    <glyph glyph-name="three" unicode="3" horiz-adv-x="615" 
d="M518 680v-56l-243 -247q44 8 85 5q85 -7 136 -53t51 -118q0 -102 -72 -162q-71 -59 -188 -59q-122 0 -239 81l43 48q92 -67 193 -67q87 1 139 44.5t52 117.5q0 60 -46.5 94.5t-122.5 33.5q-55 0 -115 -20l-13 41l252 257h-342v60h430z" />
    <glyph glyph-name="four" unicode="4" horiz-adv-x="650" 
d="M485 680v-438h124v-55h-124v-187h-72v187h-365l-8 60l362 433h83zM413 596l-296 -354h296v354z" />
    <glyph glyph-name="five" unicode="5" horiz-adv-x="611" 
d="M508 680v-60h-354l-1 -240q64 49 158 49q101 0 169 -57q68 -56 68 -155q0 -101 -74 -164t-182 -63q-152 0 -244 101l39 42q79 -82 199 -82q81 1 135 48q55 48 55 122q0 71 -51 114q-52 44 -126 44q-105 0 -169 -64l-47 26l6 339h419z" />
    <glyph glyph-name="six" unicode="6" horiz-adv-x="634" 
d="M350 690q114 0 209 -69l-31 -46q-76 57 -170 57q-101 0 -157 -73.5t-59 -206.5v-29q27 53 84 83.5t131 30.5q104 0 166 -61q63 -60 63 -155q0 -99 -68 -165t-178 -66q-127 0 -195 77q-30 34 -47 79q-31 81 -31 179q0 174 73.5 270.5t209.5 94.5zM144 246
q24 -201 196 -201q78 0 128 47q50 48 50 125t-50 125t-128 48t-131.5 -39.5t-64.5 -104.5z" />
    <glyph glyph-name="seven" unicode="7" horiz-adv-x="565" 
d="M540 680v-60l-359 -620h-82l360 617h-418v63h499z" />
    <glyph glyph-name="eight" unicode="8" horiz-adv-x="663" 
d="M332 690q103 0 172 -48.5t69 -122.5q0 -58 -36.5 -98t-101.5 -58q76 -18 119 -65t43 -115q0 -82 -74 -138q-73 -55 -191 -55t-191 55q-74 56 -74 138q0 68 43 115t119 65q-65 18 -101.5 58t-36.5 98q0 74 68 122q68 49 173 49zM332 637q-75 0 -124 -36.5t-49 -90.5
q0 -60 47.5 -94.5t125.5 -34.5q79 0 126 34.5t47 94.5q0 54 -49 90q-49 37 -124 37zM332 336q-29 0 -58.5 -6t-62 -20.5t-52.5 -45.5t-20 -74q0 -63 53 -105q55 -41 140 -41q86 0 139 41q54 42 54 105q0 67 -52 106.5t-141 39.5z" />
    <glyph glyph-name="nine" unicode="9" horiz-adv-x="634" 
d="M293 690q128 0 195 -77q30 -33 48 -80q31 -79 31 -177q0 -173 -73.5 -269.5t-210.5 -96.5q-115 0 -209 69l32 47q77 -57 169 -57q101 0 157 72.5t59 203.5q1 17 0 33q-26 -54 -83 -84.5t-131 -30.5q-103 0 -166 60q-63 61 -63 156q0 99 68 165t177 66zM294 635
q-78 0 -128 -48q-50 -47 -50 -124t50 -125q50 -47 128 -47t131.5 39t64.5 105q-11 86 -57 143t-139 57z" />
    <glyph glyph-name="colon" unicode=":" horiz-adv-x="168" 
d="M83 512q16 0 28.5 -11t12.5 -26q0 -24 -26 -34t-45 8q-19 17 -8.5 40t38.5 23zM53 51q12 11 29.5 11t29.5 -11q12 -10 12 -25.5t-12 -25.5q-12 -11 -29.5 -11t-29.5 11q-12 10 -12 25.5t12 25.5z" />
    <glyph glyph-name="semicolon" unicode=";" horiz-adv-x="183" 
d="M98 512q25 0 35.5 -18.5t0 -37t-35.5 -18.5q-17 0 -29 11t-12 26t12 26t29 11zM139 26q0 -10 -5 -20l-84 -128l-23 10l53 105q-23 9 -23 33q0 15 12 25.5t29 10.5t29 -10.5t12 -25.5z" />
    <glyph glyph-name="less" unicode="&#x3c;" horiz-adv-x="571" 
d="M526 573v-68l-414 -200l414 -199v-68l-482 231v73z" />
    <glyph glyph-name="equal" unicode="=" horiz-adv-x="594" 
d="M550 413v-53h-506v53h506zM550 215v-54h-506v54h506z" />
    <glyph glyph-name="greater" unicode="&#x3e;" horiz-adv-x="571" 
d="M44 573l482 -231v-73l-482 -231v68l415 199l-415 200v68z" />
    <glyph glyph-name="question" unicode="?" horiz-adv-x="553" 
d="M283 710q99 0 158 -52q60 -51 60 -141q0 -49 -22.5 -85.5t-73.5 -81.5q-16 -13 -41 -38q-23 -20 -30 -33q-25 -37 -25 -86v-32h-62l-1 41q-3 53 30 108q10 16 36 39q27 22 48 45q37 32 52 58t15 61q0 63 -40.5 99t-109.5 36q-67 0 -111.5 -38t-51.5 -103l-66 6
q10 91 75 144t160 53zM249 51q12 11 29 11t29 -11q12 -10 12 -25.5t-12 -25.5q-12 -11 -29 -11t-29 11q-12 10 -12 25.5t12 25.5z" />
    <glyph glyph-name="at" unicode="@" horiz-adv-x="1063" 
d="M983 245q0 -109 -61 -171q-60 -62 -155 -62q-69 0 -124 31v55q-58 -64 -145 -64q-84 0 -141 59q-56 61 -56 146q0 86 56 145q57 60 141 60q87 0 145 -64v62h54v-365q30 -15 68 -15q71 0 115 50q45 50 45 132q3 181 -105 297t-289 115q-182 0 -287.5 -114.5t-105.5 -297.5
t106 -298t287 -115q61 0 120 15l14 -52q-63 -16 -134 -16q-205 -1 -329.5 130t-121.5 337q-3 205 120 335.5t331 129.5q208 1 332 -130t120 -335zM514 399q-65 0 -114 -47q-47 -47 -47 -113q0 -65 48 -112.5t113 -47.5q80 0 130 65v190q-50 65 -130 65z" />
    <glyph glyph-name="A" unicode="A" horiz-adv-x="804" 
d="M449 700l314 -700h-85l-83 185h-385l-83 -185h-86l314 700h94zM402 621l-172 -377h344z" />
    <glyph glyph-name="B" unicode="B" horiz-adv-x="762" 
d="M117 0v700h318q110 0 169.5 -44.5t59.5 -129.5q0 -62 -33 -102.5t-94 -56.5q82 -15 123 -63t41 -117q0 -80 -57 -133.5t-184 -53.5h-343zM189 640v-254h228q84 0 128 32.5t44 94.5q1 62 -43.5 94.5t-128.5 32.5h-228zM189 335v-275h256q91 0 136 37t45 100t-45 100.5
t-136 37.5h-256z" />
    <glyph glyph-name="C" unicode="C" horiz-adv-x="793" 
d="M450 710q84 0 158.5 -35t125.5 -98l-61 -37q-86 102 -222 102q-121 0 -206.5 -85t-85.5 -207t85 -207t207 -85q136 0 222 102l61 -37q-50 -62 -124.5 -97.5t-159.5 -35.5q-97 -2 -182.5 47t-135.5 133t-48 180q-2 96 48 180t135.5 133t182.5 47z" />
    <glyph glyph-name="D" unicode="D" horiz-adv-x="838" 
d="M117 0v700h269q150 3 260.5 -101t107.5 -250q3 -144 -107.5 -248t-260.5 -101h-269zM383 635h-194v-570h194q125 0 210 82q87 83 87 203t-87 203q-85 82 -210 82z" />
    <glyph glyph-name="E" unicode="E" horiz-adv-x="703" 
d="M636 700v-65h-447v-250h412v-62h-412v-258h457v-65h-529v700h519z" />
    <glyph glyph-name="F" unicode="F" horiz-adv-x="669" 
d="M611 700v-65h-422v-268h386v-62h-386v-305h-72v700h494z" />
    <glyph glyph-name="G" unicode="G" horiz-adv-x="851" 
d="M457 710q145 0 254 -95l-47 -50q-88 79 -207 79q-121 2 -210.5 -85t-87.5 -209q0 -122 85 -207t209 -85q127 0 220 78v169h-216v53h286v-261q-121 -107 -290 -107q-98 -2 -184 47t-136.5 133t-48.5 180q-2 100 50 184.5t138.5 131t184.5 44.5z" />
    <glyph glyph-name="H" unicode="H" horiz-adv-x="843" 
d="M726 700v-700h-72v321h-465v-321h-72v700h72v-314h465v314h72z" />
    <glyph glyph-name="I" unicode="I" horiz-adv-x="306" 
d="M189 700v-700h-72v700h72z" />
    <glyph glyph-name="J" unicode="J" horiz-adv-x="612" 
d="M423 700h72v-450q0 -130 -63 -195t-177 -65q-143 0 -221 96l57 39q65 -69 161 -69q78 0 124.5 49t46.5 145v450z" />
    <glyph glyph-name="K" unicode="K" horiz-adv-x="750" 
d="M693 700l-270 -278l285 -422h-91l-242 366l-185 -186v-180h-72v700h72v-415l406 415h97z" />
    <glyph glyph-name="L" unicode="L" horiz-adv-x="628" 
d="M189 700v-635h398v-65h-470v700h72z" />
    <glyph glyph-name="M" unicode="M" horiz-adv-x="1040" 
d="M923 700v-700h-71v608l-318 -536h-32l-319 536v-608h-71v700h97l309 -517l308 517h97z" />
    <glyph glyph-name="N" unicode="N" horiz-adv-x="826" 
d="M717 700v-700h-80l-458 588v-588h-71v700h79l459 -588v588h71z" />
    <glyph glyph-name="O" unicode="O" horiz-adv-x="905" 
d="M453 710q100 0 184.5 -48t133.5 -131q50 -83 50 -181t-50 -181q-49 -83 -133.5 -131t-184.5 -48q-98 -2 -184 47t-136.5 133t-48.5 180q0 149 108 254.5t261 105.5zM453 642q-121 2 -208.5 -85.5t-85.5 -206.5q0 -122 85 -207t208 -85t208 85q86 86 86 207q0 120 -86 206
t-207 86z" />
    <glyph glyph-name="P" unicode="P" horiz-adv-x="752" 
d="M117 0v700h280q149 0 218 -57t69 -177q0 -118 -69.5 -174t-215.5 -56h-210v-236h-72zM395 637h-206v-344h207q110 0 161.5 41t51.5 130q0 90 -51.5 131.5t-162.5 41.5z" />
    <glyph glyph-name="Q" unicode="Q" horiz-adv-x="914" 
d="M453 710q149 3 260 -105.5t108 -254.5q0 -148 -106 -251l115 -115l-40 -37l-117 116q-97 -73 -220 -73q-98 -2 -184 47t-136.5 133t-48.5 180q0 149 108 254.5t261 105.5zM453 58q95 0 168 57l-116 116l41 37l115 -116q85 82 85 198q0 120 -86 206t-208 86t-208 -86
q-85 -85 -85 -206q0 -122 85 -207t209 -85z" />
    <glyph glyph-name="R" unicode="R" horiz-adv-x="767" 
d="M117 0v700h298q152 0 218.5 -51.5t66.5 -165.5q0 -89 -40 -138.5t-128 -66.5l194 -278h-84l-185 268q-34 -2 -57 -2h-211v-266h-72zM418 635h-229v-312h229q111 0 159 36t48 120t-48 120t-159 36z" />
    <glyph glyph-name="S" unicode="S" horiz-adv-x="704" 
d="M345 710q158 0 273 -74l-32 -55q-116 67 -248 67q-75 0 -124 -31.5t-49 -94.5q0 -42 36 -68q38 -26 145 -54q151 -40 189 -58q83 -38 99 -111q4 -19 4 -46q0 -94 -76.5 -144.5t-194.5 -50.5q-85 0 -167 23t-142 64l33 54q58 -37 133.5 -58t149.5 -21q79 0 134 32
q54 32 54 93q0 41 -12 58q-14 26 -36 37q-30 17 -62 26l-39 12l-48 12q-5 2 -18.5 5t-20.5 6q-133 35 -185 72q-53 38 -53 109q0 97 72.5 146.5t184.5 49.5z" />
    <glyph glyph-name="T" unicode="T" horiz-adv-x="642" 
d="M601 700v-62h-244v-638h-72v638h-244v62h560z" />
    <glyph glyph-name="U" unicode="U" horiz-adv-x="835" 
d="M654 700h72v-390q0 -154 -83 -237t-222 -83t-222 83q-82 82 -82 237v390h72v-390q0 -122 63.5 -188t169.5 -66q107 0 169.5 66.5t62.5 187.5v390z" />
    <glyph glyph-name="V" unicode="V" horiz-adv-x="785" 
d="M744 700l-305 -700h-94l-304 700h86l265 -617l267 617h85z" />
    <glyph glyph-name="W" unicode="W" horiz-adv-x="1110" 
d="M1068 700l-240 -700h-78l-195 593l-195 -593h-79l-240 700h80l202 -593l194 593h76l193 -593l202 593h80z" />
    <glyph glyph-name="X" unicode="X" horiz-adv-x="744" 
d="M691 700l-272 -344l284 -356h-89l-243 301l-242 -301h-88l284 358l-272 342h89l231 -286l231 286h87z" />
    <glyph glyph-name="Y" unicode="Y" horiz-adv-x="759" 
d="M718 700l-302 -444v-256h-73v255l-302 445h87l252 -368l252 368h86z" />
    <glyph glyph-name="Z" unicode="Z" horiz-adv-x="688" 
d="M617 700v-55l-459 -581h470v-64h-570v56l456 580h-438v64h541z" />
    <glyph glyph-name="bracketleft" unicode="[" horiz-adv-x="287" 
d="M260 727v-49h-151v-737h151v-49h-216v835h216z" />
    <glyph glyph-name="backslash" unicode="\" horiz-adv-x="479" 
d="M34 717h62l350 -734h-62z" />
    <glyph glyph-name="bracketright" unicode="]" horiz-adv-x="287" 
d="M243 727v-835h-216v49h151v737h-151v49h216z" />
    <glyph glyph-name="asciicircum" unicode="^" horiz-adv-x="478" 
d="M282 710l152 -348h-67l-128 293l-129 -293h-66l153 348h85z" />
    <glyph glyph-name="underscore" unicode="_" horiz-adv-x="674" 
d="M630 -88v-43h-586v43h586z" />
    <glyph glyph-name="grave" unicode="`" horiz-adv-x="271" 
d="M119 715l109 -154h-61l-123 154h75z" />
    <glyph glyph-name="a" unicode="a" horiz-adv-x="607" 
d="M317 510q96 0 151.5 -47.5t55.5 -139.5v-323h-67v64q-94 -74 -224 -74q-76 0 -126 44q-49 45 -49 117q0 71 51.5 109.5t144.5 38.5h203v18q0 69 -41.5 104.5t-114.5 35.5q-97 0 -182 -62l-22 44q101 71 220 71zM457 94v175h-180q-73 0 -113 -28.5t-40 -83.5
q0 -56 37.5 -90t97.5 -34q119 0 198 61z" />
    <glyph glyph-name="b" unicode="b" 
d="M91 700h68v-273q75 83 186 83q104 2 177.5 -75.5t71.5 -184.5q0 -108 -72 -185q-70 -75 -177 -75q-111 0 -186 83v-73h-68v700zM323 452q-49 0 -92.5 -22t-71.5 -60v-239q28 -39 71.5 -61t92.5 -22q83 0 144 59q61 58 61 143t-61 143q-61 59 -144 59z" />
    <glyph glyph-name="c" unicode="c" horiz-adv-x="605" 
d="M332 510q61 0 115 -25t91 -69l-51 -30q-62 66 -152 66q-83 0 -144 -59q-60 -59 -60 -143t60 -143q61 -59 144 -59q96 0 157 73l52 -30q-82 -101 -212 -101q-110 0 -189 76q-78 76 -78 184t78 184q79 76 189 76z" />
    <glyph glyph-name="d" unicode="d" 
d="M500 700h67v-700h-67v73q-75 -83 -186 -83q-106 0 -178 75q-71 77 -71 185t71 184q72 76 178 76q111 0 186 -83v273zM336 452q-85 0 -145 -59.5t-60 -142.5q0 -84 60 -143q61 -59 145 -59q49 0 92.5 22t71.5 61v239q-28 38 -71.5 60t-92.5 22z" />
    <glyph glyph-name="e" unicode="e" horiz-adv-x="637" 
d="M320 510q115 1 186.5 -74.5t69.5 -185.5v-22h-446q5 -81 62 -134q58 -54 138 -54q100 0 170 69l37 -33q-89 -86 -212 -86q-108 0 -184 76t-76 184q0 107 74 184q75 76 181 76zM321 461q-78 0 -135 -58q-56 -59 -56 -140h382q0 85 -52 141.5t-139 56.5z" />
    <glyph glyph-name="f" unicode="f" horiz-adv-x="398" 
d="M284 710q40 0 85 -14l-10 -44q-31 11 -57 11q-52 0 -86.5 -34.5t-34.5 -93.5v-35h168v-52h-168v-448h-68v448h-86v52h86v37q0 80 47.5 126.5t123.5 46.5z" />
    <glyph glyph-name="g" unicode="g" horiz-adv-x="676" 
d="M313 510q117 0 203 -80v70h67v-450q0 -123 -70.5 -189.5t-190.5 -66.5q-125 2 -230 72l22 44q91 -62 196 -64q95 0 150.5 53t55.5 151v52q-75 -102 -203 -102q-106 0 -176 73t-70 181t70 181q71 75 176 75zM334 452q-83 0 -141 -58q-59 -59 -59 -141q0 -81 59 -140
q58 -58 141 -58q57 0 106 29t76 78v213q-74 77 -182 77z" />
    <glyph glyph-name="h" unicode="h" horiz-adv-x="665" 
d="M96 700h68v-277q104 87 233 87q83 0 134.5 -49.5t51.5 -140.5v-320h-68v303q0 72 -37.5 112t-103.5 40q-122 0 -210 -82v-373h-68v700z" />
    <glyph glyph-name="i" unicode="i" horiz-adv-x="269" 
d="M137 675q16 0 28 -10.5t12 -24.5q0 -24 -24.5 -33.5t-44.5 7.5q-18 17 -8 39t37 22zM171 500v-500h-67v500h67z" />
    <glyph glyph-name="j" unicode="j" horiz-adv-x="273" 
d="M113 664q23 22 51 4q25 -16 17 -38q-2 -9 -11 -16q-11 -10 -28 -10t-29 10q-11 11 -11 25.5t11 24.5zM109 500h67v-533q0 -79 -48 -126q-47 -46 -119 -46q-37 0 -70 11l8 40q18 -6 40 -6q52 0 87 36.5t35 94.5v529z" />
    <glyph glyph-name="k" unicode="k" horiz-adv-x="599" 
d="M164 700v-497l312 297h82l-189 -188l206 -312h-74l-179 264l-158 -146v-118h-68v700h68z" />
    <glyph glyph-name="l" unicode="l" horiz-adv-x="248" 
d="M164 700v-700h-67v700h67z" />
    <glyph glyph-name="m" unicode="m" horiz-adv-x="1022" 
d="M371 510q113 0 157 -89q104 89 230 89q83 0 132 -50t49 -140v-320h-67v303q0 71 -37 111.5t-101 40.5q-111 0 -196 -76q11 -39 11 -82v-297h-67v303q0 72 -37 112t-101 40q-51 0 -93 -17.5t-92 -59.5v-378h-68v500h68v-76q103 86 212 86z" />
    <glyph glyph-name="n" unicode="n" 
d="M392 510q85 0 135.5 -50t50.5 -140v-320h-68v303q0 72 -37.5 112t-103.5 40q-122 0 -210 -82v-373h-68v500h68v-77q104 87 233 87z" />
    <glyph glyph-name="o" unicode="o" horiz-adv-x="675" 
d="M144 434q79 76 192 76t192 -76q80 -77 80 -184t-80 -184q-79 -76 -192 -76t-192 76t-79 184t79 184zM131 250q0 -83 60 -142.5t145 -59.5q83 0 144 59q61 58 61 143t-61 143q-61 59 -145 59q-83 0 -144 -59q-60 -59 -60 -143z" />
    <glyph glyph-name="p" unicode="p" horiz-adv-x="668" 
d="M350 510q104 2 177.5 -75.5t71.5 -184.5q0 -108 -72 -185q-71 -75 -177 -75q-111 0 -186 83v-268h-68v695h68v-73q75 83 186 83zM328 452q-49 0 -92.5 -22t-71.5 -60v-239q28 -39 71.5 -61t92.5 -22q83 0 144 59q61 58 61 143t-61 143q-61 59 -144 59z" />
    <glyph glyph-name="q" unicode="q" 
d="M314 510q111 0 186 -83v73h67v-695h-67v268q-75 -83 -186 -83q-106 0 -178 75q-71 77 -71 185t71 184q72 76 178 76zM336 452q-85 0 -145 -59.5t-60 -142.5q0 -84 60 -143q61 -59 145 -59q49 0 92.5 22t71.5 61v239q-28 38 -71.5 60t-92.5 22z" />
    <glyph glyph-name="r" unicode="r" horiz-adv-x="418" 
d="M394 510v-55q-133 0 -235 -106v-349h-68v500h68v-96q104 106 235 106z" />
    <glyph glyph-name="s" unicode="s" horiz-adv-x="530" 
d="M253 510q112 0 197 -53l-24 -42q-80 48 -173 48q-56 0 -89.5 -23t-33.5 -66q0 -30 25 -48q24 -17 99 -37l18 -5q18 -5 49 -14q18 -5 41 -13q27 -8 37 -15q40 -23 51 -43q17 -30 17 -69q0 -67 -56 -105q-56 -37 -142 -35q-132 0 -225 63l25 41q87 -57 199 -57
q61 -1 98.5 22t37.5 66q0 36 -20 58q-8 9 -29 17q-17 7 -36 13l-50 14l-30 8q-97 25 -132.5 52t-39.5 82q0 68 51 104.5t135 36.5z" />
    <glyph glyph-name="t" unicode="t" horiz-adv-x="450" 
d="M187 648v-148h162v-52h-162v-274q0 -58 35 -93.5t87 -35.5q38 0 72 19l11 -47q-51 -27 -106 -27q-71 0 -119 47t-48 126v285h-92v52h92v148h68z" />
    <glyph glyph-name="u" unicode="u" horiz-adv-x="652" 
d="M82 500h67v-303q0 -72 38.5 -112t103.5 -40q122 0 210 82v373h67v-500h-67v77q-103 -87 -234 -87q-85 0 -135 50t-50 140v320z" />
    <glyph glyph-name="v" unicode="v" horiz-adv-x="571" 
d="M547 500l-220 -500h-83l-220 500h72l190 -432l189 432h72z" />
    <glyph glyph-name="w" unicode="w" horiz-adv-x="821" 
d="M797 500l-176 -500h-74l-136 405l-136 -405h-75l-176 500h68l148 -428l142 428h58l141 -428l149 428h67z" />
    <glyph glyph-name="x" unicode="x" horiz-adv-x="544" 
d="M507 500l-194 -242l208 -258h-78l-172 213l-170 -213h-77l208 260l-193 240h78l157 -196l156 196h77z" />
    <glyph glyph-name="y" unicode="y" horiz-adv-x="564" 
d="M470 500h70l-233 -551q-35 -82 -79.5 -117.5t-105.5 -36.5q-44 0 -98 20l20 46q40 -17 72 -15q43 2 73 27.5t58 86.5l11 24l-229 516h71l189 -432z" />
    <glyph glyph-name="z" unicode="z" horiz-adv-x="539" 
d="M467 500v-48l-329 -397h341v-55h-433v48l329 397h-307v55h399z" />
    <glyph glyph-name="braceleft" unicode="{" horiz-adv-x="336" 
d="M310 727v-47h-29q-77 0 -77 -70v-229q0 -50 -40 -72q40 -22 40 -72v-229q0 -70 77 -70h29v-46h-51q-120 0 -120 109v236q0 21 -13 34t-34 13h-48v50h48q21 0 34 13.5t13 33.5v236q0 110 120 110h51z" />
    <glyph glyph-name="bar" unicode="|" horiz-adv-x="303" 
d="M186 750v-903h-69v903h69z" />
    <glyph glyph-name="braceright" unicode="}" horiz-adv-x="336" 
d="M27 680v47h51q119 0 119 -110v-236q0 -20 13.5 -33.5t34.5 -13.5h48v-50h-48q-21 0 -34.5 -13.5t-13.5 -33.5v-236q0 -109 -119 -109h-51v46h29q77 0 77 70v229q0 50 40 72q-40 22 -40 72v229q0 70 -77 70h-29z" />
    <glyph glyph-name="asciitilde" unicode="~" horiz-adv-x="590" 
d="M169 375q28 0 51.5 -9.5t66.5 -36.5q26 -16 49 -29q36 -19 63 -20q39 -3 67.5 20t40.5 70l37 -5q-7 -66 -43 -104.5t-90 -37.5q-21 0 -42 7t-33 13.5t-48 27.5q-50 32 -66 38q-18 7 -41 9q-37 3 -63.5 -21.5t-35.5 -72.5l-37 4q4 69 38 108.5t86 38.5z" />
    <glyph glyph-name="exclamdown" unicode="&#xa1;" horiz-adv-x="175" 
d="M58 499q12 11 29.5 11t29.5 -11q12 -10 12 -25.5t-12 -26.5q-12 -10 -29.5 -10t-29.5 10q-12 11 -12 26.5t12 25.5zM118 338l8 -539h-77l8 539h61z" />
    <glyph glyph-name="cent" unicode="&#xa2;" horiz-adv-x="605" 
d="M303 618h55v-111q110 -9 180 -91l-51 -30q-62 66 -152 66q-83 0 -144 -59q-60 -59 -60 -143t60 -143t144 -59q96 0 157 73l52 -30q-73 -89 -186 -98v-111h-55v112q-102 9 -170 82q-68 74 -68 174q0 99 68 173q69 74 170 83v112z" />
    <glyph glyph-name="sterling" unicode="&#xa3;" horiz-adv-x="661" 
d="M397 710q133 0 200 -102l-41 -41q-52 81 -155 81q-77 0 -119 -42t-42 -125v-120h245v-50h-245v-252h361v-59h-516v59h83v252h-83v50h83v127q0 110 60 166t169 56z" />
    <glyph glyph-name="currency" unicode="&#xa4;" horiz-adv-x="600" 
 />
    <glyph glyph-name="yen" unicode="&#xa5;" horiz-adv-x="759" 
d="M718 700l-221 -321h145v-50h-176l-50 -73v-66h226v-51h-226v-139h-73v139h-232v51h232v65l-51 74h-181v50h151l-221 321h87l252 -368l252 368h86z" />
    <glyph glyph-name="brokenbar" unicode="&#xa6;" horiz-adv-x="303" 
d="M186 750v-348h-69v348h69zM186 195v-348h-69v348h69z" />
    <glyph glyph-name="section" unicode="&#xa7;" horiz-adv-x="625" 
d="M306 710q135 0 234 -63l-28 -50q-96 58 -212 58q-66 0 -106.5 -27t-40.5 -79q0 -36 31 -58q32 -21 123 -45l23 -6q32 -8 45 -12l40 -12q38 -12 68 -27q21 -10 47 -38q29 -29 29 -92q0 -81 -73 -126q73 -40 73 -126q0 -82 -67 -125q-67 -44 -168 -44q-158 0 -266 75l29 48
q106 -68 244 -68q71 0 116 28.5t45 78.5q0 54 -31 74q-27 19 -55 27q-7 2 -13.5 4t-13.5 4t-10 3q-11 4 -46 12l-34 9q-111 30 -159 62q-46 33 -46 94q0 97 90 137q-49 22 -69.5 48.5t-20.5 67.5q0 83 63 125.5t159 42.5zM309 380l-66 16q-42 -10 -66 -35.5t-24 -64.5
q0 -36 29.5 -56.5t122.5 -45.5q98 -26 115 -32q72 27 72 90q0 53 -29 72q-25 19 -51 27q-15 5 -38.5 11.5t-36.5 10.5q-5 1 -13.5 3.5t-14.5 3.5z" />
    <glyph glyph-name="dieresis" unicode="&#xa8;" horiz-adv-x="334" 
d="M63 614q-14 0 -23.5 9.5t-9.5 24.5q0 21 20.5 30t35.5 -7q16 -15 7 -36t-30 -21zM305 648q0 -15 -9.5 -24.5t-23.5 -9.5q-15 0 -24 9.5t-9 24.5q-2 20 15.5 28.5t34.5 0t16 -28.5z" />
    <glyph glyph-name="copyright" unicode="&#xa9;" horiz-adv-x="850" 
d="M784 350q3 -146 -105.5 -255t-254.5 -105q-95 -2 -179 47t-133 133t-47 180q0 149 105 254.5t254 105.5q150 0 255 -105.5t105 -254.5zM111 351q0 -129 92 -223q92 -92 221 -92q130 0 222 92q92 94 92 223q3 127 -92 222t-222 92q-125 3 -220.5 -92t-92.5 -222zM427 540
q95 0 153 -73l-38 -23q-43 55 -115 55q-61 0 -105 -44q-43 -43 -43 -105q0 -64 43 -107q44 -43 105 -42q72 0 115 55l38 -23q-58 -73 -153 -73q-79 0 -137 56q-57 56 -57 134t57 134q58 56 137 56z" />
    <glyph glyph-name="ordfeminine" unicode="&#xaa;" horiz-adv-x="401" 
d="M215 706q65 0 102 -32t37 -94v-216h-48v41q-62 -48 -147 -48q-52 0 -85.5 30.5t-33.5 78.5t35 73.5t98 25.5h133v12q0 91 -102 91q-64 0 -122 -41l-16 31q68 48 149 48zM306 428v115h-118q-101 0 -101 -73q0 -37 25 -59.5t64 -22.5q78 0 130 40z" />
    <glyph glyph-name="guillemotleft" unicode="&#xab;" horiz-adv-x="502" 
d="M204 461l50 -28l-136 -168l136 -168l-51 -27l-159 195zM425 461l51 -28l-137 -168l137 -168l-51 -27l-159 195z" />
    <glyph glyph-name="logicalnot" unicode="&#xac;" horiz-adv-x="700" 
 />
    <glyph glyph-name="registered" unicode="&#xae;" horiz-adv-x="850" 
d="M784 350q3 -146 -105.5 -255t-254.5 -105q-95 -2 -179 47t-133 133t-47 180q0 149 105 254.5t254 105.5q150 0 255 -105.5t105 -254.5zM111 351q0 -129 92 -223q92 -92 221 -92q130 0 222 92q92 94 92 223q3 127 -92 222t-222 92q-125 3 -220.5 -92t-92.5 -222zM281 174
v356h152q77 0 111.5 -26.5t34.5 -84.5q0 -86 -83 -104l99 -141h-47l-94 135q-8 -1 -28 -1h-105v-134h-40zM321 494v-153h114q56 0 79 17.5t23 58.5q0 42 -23 59.5t-79 17.5h-114z" />
    <glyph glyph-name="overscore" unicode="&#xaf;" horiz-adv-x="372" 
d="M329 670v-45h-285v45h285z" />
    <glyph glyph-name="degree" unicode="&#xb0;" horiz-adv-x="420" 
d="M210 759q68 0 117 -48.5t49 -115.5q0 -68 -49 -116q-48 -48 -117 -48q-68 0 -117 48.5t-49 115.5q0 68 48 116q50 48 118 48zM87 595q0 -51 36.5 -87.5t86.5 -36.5q51 0 87 36q36 37 36 88t-36 87q-36 37 -87 37t-87 -37q-36 -36 -36 -87z" />
    <glyph glyph-name="plusminus" unicode="&#xb1;" horiz-adv-x="479" 
d="M266 391h169v-53h-169v-162h-53v162h-169v53h169v162h53v-162zM44 -27v53h391v-53h-391z" />
    <glyph glyph-name="twosuperior" unicode="&#xb2;" horiz-adv-x="310" 
d="M150 746q50 0 85 -28.5t35 -74.5q0 -26 -14.5 -49t-54.5 -59l-106 -104h183v-39h-258v35l153 139q29 28 38.5 42.5t9.5 32.5q0 28 -21.5 46t-52.5 18q-32 0 -54.5 -14t-44.5 -45l-32 25q46 75 134 75z" />
    <glyph glyph-name="threesuperior" unicode="&#xb3;" horiz-adv-x="320" 
d="M264 740v-34l-114 -117q17 3 31 2q45 -4 71.5 -28t26.5 -62q0 -53 -37.5 -84t-98.5 -31q-65 0 -127 44l26 29q46 -34 97 -34q42 0 67 20.5t25 56.5q0 30 -22 46.5t-58 14.5q-27 0 -58 -11l-9 27l122 122h-168v39h226z" />
    <glyph glyph-name="acute" unicode="&#xb4;" horiz-adv-x="271" 
d="M228 715l-123 -154h-61l109 154h75z" />
    <glyph glyph-name="paragraph" unicode="&#xb6;" horiz-adv-x="770" 
d="M324 700h328v-856h-59v803h-154v-803h-58v437h-65q-121 0 -185 58q-63 59 -63 151q0 96 66 153t190 57z" />
    <glyph glyph-name="middot" unicode="&#xb7;" horiz-adv-x="171" 
d="M56 326q12 11 29.5 11t29.5 -11t12 -26t-12 -26t-29.5 -11t-29.5 11t-12 26t12 26z" />
    <glyph glyph-name="cedilla" unicode="&#xb8;" horiz-adv-x="295" 
d="M121 9h38l-30 -59q19 9 44 7q34 -3 56.5 -25t22.5 -56q0 -40 -31 -65t-78 -25q-55 0 -99 23l12 28q34 -17 77 -17q32 0 53.5 18t21.5 45q0 25 -17 40.5t-43 16.5q-32 0 -51 -19l-14 12z" />
    <glyph glyph-name="onesuperior" unicode="&#xb9;" horiz-adv-x="186" 
d="M130 740v-350h-48v307l-68 -15l-6 37l86 21h36z" />
    <glyph glyph-name="ordmasculine" unicode="&#xba;" horiz-adv-x="457" 
d="M99 655q54 51 129 51q76 0 129 -51q54 -51 54 -124q0 -72 -54 -123q-53 -51 -129 -51q-75 0 -129 51q-53 51 -53 123q0 73 53 124zM324 626q-40 39 -96 39t-96 -39q-39 -39 -39 -95q0 -55 39 -94q40 -39 96 -39t96 39t40 94q0 56 -40 95z" />
    <glyph glyph-name="guillemotright" unicode="&#xbb;" horiz-adv-x="502" 
d="M78 461l159 -196l-159 -195l-51 27l136 168l-136 168zM299 461l159 -196l-159 -195l-51 27l137 168l-137 168z" />
    <glyph glyph-name="onequarter" unicode="&#xbc;" horiz-adv-x="652" 
d="M537 717l-462 -734h-58l462 734h58zM138 700v-350h-48v307l-68 -15l-7 37l87 21h36zM566 349v-218h62v-37h-62v-94h-46v94h-184l-5 35l184 220h51zM520 298l-140 -167h140v167z" />
    <glyph glyph-name="onehalf" unicode="&#xbd;" horiz-adv-x="672" 
d="M537 717l-462 -734h-58l462 734h58zM138 700v-350h-48v307l-68 -15l-7 37l87 21h36zM513 354q50 0 84.5 -28.5t34.5 -73.5q0 -27 -14.5 -49.5t-53.5 -58.5l-107 -105h184v-39h-258v36l152 138q29 29 38.5 43.5t9.5 31.5q0 29 -21 46.5t-52 17.5q-59 0 -99 -59l-32 26
q47 74 134 74z" />
    <glyph glyph-name="threequarters" unicode="&#xbe;" horiz-adv-x="741" 
d="M626 717l-462 -734h-58l463 734h57zM264 700v-34l-114 -117q17 3 31 2q45 -4 71.5 -28t26.5 -62q0 -53 -37.5 -84t-98.5 -31q-65 0 -127 44l26 29q46 -34 97 -34q42 0 67 20.5t25 56.5q0 29 -22 45.5t-58 15.5q-27 0 -58 -11l-9 27l122 122h-168v39h226zM654 349v-218h62
v-37h-62v-94h-46v94h-184l-5 35l184 220h51zM608 298l-139 -167h139v167z" />
    <glyph glyph-name="questiondown" unicode="&#xbf;" horiz-adv-x="553" 
d="M245 505q22 22 50 5q26 -16 19 -40q-2 -9 -11 -17q-12 -11 -29 -11t-29 11t-12 26.5t12 25.5zM243 344h62l1 -42q0 -51 -22 -95q-9 -17 -39 -47l-26 -24l-27 -25q-37 -32 -52 -58t-15 -61q0 -63 40.5 -99t109.5 -36q67 0 111.5 38t51.5 103l66 -7q-10 -90 -74.5 -143
t-160.5 -53q-100 0 -159 52t-59 141q0 48 22.5 85.5t73.5 81.5l24 21q10 9 38 39q10 10 25 40q9 19 9 57v32z" />
    <glyph glyph-name="Agrave" unicode="&#xc0;" horiz-adv-x="804" 
d="M329 915l109 -154h-60l-123 154h74zM449 700l314 -700h-85l-83 185h-385l-83 -185h-86l314 700h94zM402 621l-172 -377h344z" />
    <glyph glyph-name="Aacute" unicode="&#xc1;" horiz-adv-x="804" 
d="M548 915l-123 -154h-60l109 154h74zM449 700l314 -700h-85l-83 185h-385l-83 -185h-86l314 700h94zM402 621l-172 -377h344z" />
    <glyph glyph-name="Acircumflex" unicode="&#xc2;" horiz-adv-x="804" 
d="M449 700l314 -700h-85l-83 185h-385l-83 -185h-86l314 700h94zM402 621l-172 -377h344zM438 915l121 -154h-58l-99 117l-98 -117h-59l121 154h72z" />
    <glyph glyph-name="Atilde" unicode="&#xc3;" horiz-adv-x="804" 
d="M316 906q34 0 79 -30q48 -30 76 -33q53 -5 70 60l31 -5q-4 -47 -29.5 -74.5t-62.5 -27.5q-35 0 -84 32l-8 4q-42 26 -64 27q-21 2 -37.5 -14t-22.5 -45l-31 4q3 48 25 75t58 27zM449 700l314 -700h-85l-83 185h-385l-83 -185h-86l314 700h94zM402 621l-172 -377h344z" />
    <glyph glyph-name="Adieresis" unicode="&#xc4;" horiz-adv-x="804" 
d="M274 871q15 15 33 8.5t22.5 -23.5t-8.5 -33q-9 -9 -23 -9t-24 9q-9 10 -9 24.5t9 23.5zM482 871q15 15 33.5 8.5t23 -23.5t-8.5 -33q-9 -9 -23.5 -9t-24.5 9q-9 10 -9 24.5t9 23.5zM449 700l314 -700h-85l-83 185h-385l-83 -185h-86l314 700h94zM402 621l-172 -377h344z
" />
    <glyph glyph-name="Aring" unicode="&#xc5;" horiz-adv-x="804" 
d="M318 926q34 34 84 34q49 0 83 -34q35 -33 35 -81q0 -47 -35 -82q-35 -33 -83 -33q-50 0 -84 33q-34 34 -34 82t34 81zM402 924q-33 2 -56.5 -23t-23.5 -56t23 -56q26 -23 57 -23t56.5 23t24.5 56q0 33 -24 56t-57 23zM449 700l314 -700h-85l-83 185h-385l-83 -185h-86
l314 700h94zM402 621l-172 -377h344z" />
    <glyph glyph-name="AE" unicode="&#xc6;" horiz-adv-x="988" 
d="M920 700v-65h-446v-250h412v-62h-412v-258h456v-65h-528v185h-192l-83 -185h-86l314 700h565zM402 621l-172 -377h172v377z" />
    <glyph glyph-name="Ccedilla" unicode="&#xc7;" horiz-adv-x="793" 
d="M450 -10q-31 0 -56 4l-22 -44q19 9 44 7q34 -3 56.5 -25.5t22.5 -55.5q0 -40 -31 -65t-78 -25q-55 0 -99 23l12 28q34 -17 77 -17q32 0 53.5 18t21.5 45q0 24 -17 39.5t-43 17.5q-32 0 -51 -19l-14 12l34 68q-120 30 -198 127q-78 98 -78 222q-2 96 48 180t135.5 133
t182.5 47q84 0 158.5 -35t125.5 -98l-61 -37q-86 102 -222 102q-121 0 -206.5 -85t-85.5 -207t85 -207t207 -85q136 0 222 102l61 -37q-50 -62 -124.5 -97.5t-159.5 -35.5z" />
    <glyph glyph-name="Egrave" unicode="&#xc8;" horiz-adv-x="703" 
d="M636 700v-65h-447v-250h412v-62h-412v-258h457v-65h-529v700h519zM309 915l109 -154h-61l-123 154h75z" />
    <glyph glyph-name="Eacute" unicode="&#xc9;" horiz-adv-x="703" 
d="M528 915l-123 -154h-60l109 154h74zM636 700v-65h-447v-250h412v-62h-412v-258h457v-65h-529v700h519z" />
    <glyph glyph-name="Ecircumflex" unicode="&#xca;" horiz-adv-x="703" 
d="M418 915l121 -154h-59l-98 117l-99 -117h-58l121 154h72zM636 700v-65h-447v-250h412v-62h-412v-258h457v-65h-529v700h519z" />
    <glyph glyph-name="Edieresis" unicode="&#xcb;" horiz-adv-x="703" 
d="M278 814q-15 0 -24.5 9.5t-9.5 24.5q0 21 21 30t36 -7q16 -15 7 -36t-30 -21zM486 814q-14 0 -23.5 9.5t-9.5 24.5q0 21 20.5 30t35.5 -7q16 -15 7 -36t-30 -21zM636 700v-65h-447v-250h412v-62h-412v-258h457v-65h-529v700h519z" />
    <glyph glyph-name="Igrave" unicode="&#xcc;" horiz-adv-x="306" 
d="M81 915l109 -154h-60l-123 154h74zM188 700v-700h-72v700h72z" />
    <glyph glyph-name="Iacute" unicode="&#xcd;" horiz-adv-x="306" 
d="M302 915l-124 -154h-60l109 154h75zM189 700v-700h-72v700h72z" />
    <glyph glyph-name="Icircumflex" unicode="&#xce;" horiz-adv-x="306" 
d="M193 915l120 -154h-58l-99 117l-98 -117h-59l121 154h73zM190 700v-700h-72v700h72z" />
    <glyph glyph-name="Idieresis" unicode="&#xcf;" horiz-adv-x="306" 
d="M50 881q20 0 28.5 -16.5t0 -33.5t-28.5 -17t-28.5 17t0 33.5t28.5 16.5zM234 871q15 15 33.5 8.5t23 -23.5t-8.5 -33q-9 -9 -23.5 -9t-24.5 9q-9 10 -9 24.5t9 23.5zM188 700v-700h-72v700h72z" />
    <glyph glyph-name="Eth" unicode="&#xd0;" horiz-adv-x="840" 
d="M119 379v321h268q151 3 261.5 -101t107.5 -250q3 -145 -107.5 -248.5t-261.5 -100.5h-268v321h-81v58h81zM191 321v-256h194q125 0 210 82q87 83 87 203q2 118 -87 203t-210 82h-194v-256h192v-58h-192z" />
    <glyph glyph-name="Ntilde" unicode="&#xd1;" horiz-adv-x="826" 
d="M332 906q34 0 79 -30q48 -30 76 -33q53 -5 70 60l31 -5q-4 -47 -29.5 -74.5t-62.5 -27.5q-35 0 -84 32l-8 4q-42 26 -64 27q-21 2 -38 -14t-21 -45l-32 4q3 48 25.5 75t57.5 27zM717 700v-700h-80l-458 588v-588h-71v700h79l459 -588v588h71z" />
    <glyph glyph-name="Ograve" unicode="&#xd2;" horiz-adv-x="905" 
d="M380 915l108 -154h-60l-123 154h75zM453 710q100 0 184.5 -48t133.5 -131q50 -83 50 -181t-50 -181q-49 -83 -133.5 -131t-184.5 -48q-98 -2 -184 47t-136.5 133t-48.5 180q0 149 108 254.5t261 105.5zM453 642q-121 2 -208.5 -85.5t-85.5 -206.5q0 -122 85 -207t208 -85
t208 85q86 86 86 207q0 120 -86 206t-207 86z" />
    <glyph glyph-name="Oacute" unicode="&#xd3;" horiz-adv-x="905" 
d="M599 915l-123 -154h-60l108 154h75zM268 662q85 48 185 48t184.5 -48t133.5 -131q50 -83 50 -181t-49.5 -181t-134.5 -131q-84 -48 -184 -48q-99 0 -185 48q-85 48 -135 131q-49 82 -49 181q0 98 49.5 181t134.5 131zM453 642q-121 2 -208.5 -85.5t-85.5 -206.5
q0 -122 85 -207t208 -85t208 85q86 86 86 207q0 120 -86 206t-207 86z" />
    <glyph glyph-name="Ocircumflex" unicode="&#xd4;" horiz-adv-x="905" 
d="M489 915l121 -154h-59l-98 117l-99 -117h-59l121 154h73zM268 662q85 48 185 48t184.5 -48t133.5 -131q50 -83 50 -181t-49.5 -181t-134.5 -131q-84 -48 -184 -48q-99 0 -185 48q-85 48 -135 131q-49 82 -49 181q0 98 49.5 181t134.5 131zM660 556q-86 86 -208 86
t-208 -86q-85 -85 -85 -206q0 -122 85 -207t208 -85t208 85q86 86 86 207q0 120 -86 206z" />
    <glyph glyph-name="Otilde" unicode="&#xd5;" horiz-adv-x="905" 
d="M366 906q32 0 80 -30q46 -30 75 -33q56 -5 70 60l32 -5q-4 -47 -29.5 -74.5t-62.5 -27.5q-36 0 -85 32l-2 2q-3 1 -5 2q-44 26 -64 27q-48 3 -60 -59l-31 4q2 48 24 75t58 27zM268 662q85 48 185 48t184.5 -48t133.5 -131q50 -83 50 -181t-49.5 -181t-134.5 -131
q-84 -48 -184 -48q-99 0 -185 48q-85 48 -135 131q-49 82 -49 181q0 98 49.5 181t134.5 131zM453 642q-123 0 -209 -86q-85 -85 -85 -206q0 -122 85 -207t208 -85t208 85q86 86 86 207q3 119 -85 206.5t-208 85.5z" />
    <glyph glyph-name="Odieresis" unicode="&#xd6;" horiz-adv-x="905" 
d="M324 871q15 15 33.5 8.5t23 -23.5t-8.5 -33q-9 -9 -23.5 -9t-24.5 9q-9 10 -9 24.5t9 23.5zM533 871q15 15 33 8.5t22.5 -23.5t-8.5 -33q-9 -9 -23 -9t-24 9q-9 10 -9 24.5t9 23.5zM268 662q85 48 185 48t184.5 -48t133.5 -131q50 -83 50 -181t-49.5 -181t-134.5 -131
q-84 -48 -184 -48q-99 0 -185 48q-85 48 -135 131q-49 82 -49 181q0 98 49.5 181t134.5 131zM660 556q-86 86 -208 86t-208 -86q-85 -85 -85 -206q0 -122 85 -207t208 -85t208 85q86 86 86 207q0 120 -86 206z" />
    <glyph glyph-name="multiply" unicode="&#xd7;" horiz-adv-x="402" 
d="M321 425l38 -38l-120 -119l120 -119l-38 -38l-120 119l-119 -119l-38 38l120 119l-120 119l38 38l119 -119z" />
    <glyph glyph-name="Oslash" unicode="&#xd8;" horiz-adv-x="905" 
d="M612 750h62l-41 -86q86 -47 137 -131t51 -183q2 -96 -48.5 -180t-136.5 -133t-183 -47q-67 0 -130 23l-30 -63h-62l41 86q-86 47 -137 131t-51 183q-2 96 48.5 180t136.5 133t184 47q66 0 129 -23zM159 350q0 -78 38.5 -145.5t104.5 -105.5l251 526q-51 17 -100 17
q-123 0 -209 -86q-85 -85 -85 -206zM453 58q122 0 207 85q86 86 86 207q0 78 -38.5 145.5t-104.5 105.5l-250 -526q49 -17 100 -17z" />
    <glyph glyph-name="Ugrave" unicode="&#xd9;" horiz-adv-x="835" 
d="M345 915l109 -154h-60l-123 154h74zM654 700h72v-390q0 -154 -83 -237t-222 -83t-222 83q-82 82 -82 237v390h72v-390q0 -122 63.5 -188t169.5 -66q107 0 169.5 66.5t62.5 187.5v390z" />
    <glyph glyph-name="Uacute" unicode="&#xda;" horiz-adv-x="835" 
d="M564 915l-123 -154h-60l109 154h74zM654 700h72v-390q0 -154 -83 -237t-222 -83t-222 83q-82 82 -82 237v390h72v-390q0 -122 63.5 -188t169.5 -66q107 0 169.5 66.5t62.5 187.5v390z" />
    <glyph glyph-name="Ucircumflex" unicode="&#xdb;" horiz-adv-x="835" 
d="M454 915l121 -154h-58l-99 117l-99 -117h-58l121 154h72zM654 700h72v-390q0 -154 -83 -237t-222 -83t-222 83q-82 82 -82 237v390h72v-390q0 -122 63.5 -188t169.5 -66q107 0 169.5 66.5t62.5 187.5v390z" />
    <glyph glyph-name="Udieresis" unicode="&#xdc;" horiz-adv-x="835" 
d="M290 871q15 15 33 8.5t22.5 -23.5t-8.5 -33q-9 -9 -23 -9t-24 9q-9 10 -9 24.5t9 23.5zM498 871q15 15 33.5 8.5t23 -23.5t-8.5 -33q-9 -9 -23.5 -9t-24.5 9q-9 10 -9 24.5t9 23.5zM654 700h72v-390q0 -154 -83 -237t-222 -83t-222 83q-82 82 -82 237v390h72v-390
q0 -122 63.5 -188t169.5 -66q107 0 169.5 66.5t62.5 187.5v390z" />
    <glyph glyph-name="Yacute" unicode="&#xdd;" horiz-adv-x="759" 
d="M526 915l-123 -154h-60l108 154h75zM718 700l-302 -444v-256h-73v255l-302 445h87l252 -368l252 368h86z" />
    <glyph glyph-name="Thorn" unicode="&#xde;" horiz-adv-x="752" 
d="M189 700v-101h208q149 0 218 -57t69 -177q0 -119 -69.5 -174.5t-215.5 -55.5h-210v-135h-72v700h72zM395 536h-206v-344h207q110 0 161.5 41t51.5 129q0 91 -50.5 132.5t-163.5 41.5z" />
    <glyph glyph-name="germandbls" unicode="&#xdf;" horiz-adv-x="684" 
d="M339 710q103 0 170 -49q68 -50 68 -127q0 -57 -33 -98t-93 -59q82 -17 128 -66.5t46 -122.5q0 -88 -73 -143q-71 -55 -189 -55q-58 0 -105 19l9 55q44 -20 98 -18q86 2 136 43q52 42 52 107q0 69 -51.5 109.5t-138.5 40.5h-99v50h77q76 0 122 35t46 95q0 56 -47.5 92
t-120.5 36q-82 0 -124.5 -42t-42.5 -122v-490h-72v476q0 114 60.5 174t176.5 60z" />
    <glyph glyph-name="agrave" unicode="&#xe0;" horiz-adv-x="607" 
d="M239 715l109 -154h-60l-123 154h74zM317 510q96 0 151.5 -47.5t55.5 -139.5v-323h-67v64q-94 -74 -224 -74q-76 0 -126 44q-49 45 -49 117q0 71 51.5 109.5t144.5 38.5h203v18q0 69 -41.5 104.5t-114.5 35.5q-97 0 -182 -62l-22 44q101 71 220 71zM457 94v175h-180
q-73 0 -113 -29t-40 -83q0 -56 37.5 -90t97.5 -34q119 0 198 61z" />
    <glyph glyph-name="aacute" unicode="&#xe1;" horiz-adv-x="607" 
d="M459 715l-124 -154h-60l109 154h75zM317 510q96 0 151.5 -47.5t55.5 -139.5v-323h-67v64q-94 -74 -224 -74q-76 0 -126 44q-49 45 -49 117q0 71 51.5 109.5t144.5 38.5h203v18q0 69 -41.5 104.5t-114.5 35.5q-97 0 -182 -62l-22 44q101 71 220 71zM457 94v175h-180
q-73 0 -113 -29t-40 -83q0 -56 37.5 -90t97.5 -34q119 0 198 61z" />
    <glyph glyph-name="acircumflex" unicode="&#xe2;" horiz-adv-x="607" 
d="M349 715l120 -154h-58l-99 117l-98 -117h-59l121 154h73zM317 510q96 0 151.5 -47.5t55.5 -139.5v-323h-67v64q-94 -74 -224 -74q-76 0 -126 44q-49 45 -49 117q0 71 51.5 109.5t144.5 38.5h203v18q0 69 -41.5 104.5t-114.5 35.5q-97 0 -182 -62l-22 44q101 71 220 71z
M457 94v175h-180q-73 0 -113 -29t-40 -83q0 -56 37.5 -90t97.5 -34q119 0 198 61z" />
    <glyph glyph-name="atilde" unicode="&#xe3;" horiz-adv-x="607" 
d="M226 706q32 0 80 -30q46 -30 75 -33q53 -5 70 60l31 -5q-4 -47 -29.5 -74.5t-61.5 -27.5t-85 32l-8 4q-30 18 -38.5 22t-24.5 5q-49 2 -60 -59l-32 4q3 48 25 75t58 27zM317 510q96 0 151.5 -47.5t55.5 -139.5v-323h-67v64q-94 -74 -224 -74q-76 0 -126 44
q-49 45 -49 117q0 71 51.5 109.5t144.5 38.5h203v18q0 69 -41.5 104.5t-114.5 35.5q-97 0 -182 -62l-22 44q101 71 220 71zM457 94v175h-180q-73 0 -113 -29t-40 -83q0 -56 37.5 -90t97.5 -34q119 0 198 61z" />
    <glyph glyph-name="adieresis" unicode="&#xe4;" horiz-adv-x="607" 
d="M208 614q-14 0 -23.5 9.5t-9.5 24.5q0 21 20.5 30t35.5 -7q16 -15 7 -36t-30 -21zM450 648q0 -15 -9.5 -24.5t-23.5 -9.5q-15 0 -24.5 9.5t-9.5 24.5q0 20 16.5 28.5t33.5 0t17 -28.5zM317 510q96 0 151.5 -47.5t55.5 -139.5v-323h-67v64q-94 -74 -224 -74q-76 0 -126 44
q-49 45 -49 117q0 71 51.5 109.5t144.5 38.5h203v18q0 69 -41.5 104.5t-114.5 35.5q-97 0 -182 -62l-22 44q101 71 220 71zM457 94v175h-180q-73 0 -113 -28.5t-40 -83.5q0 -56 37.5 -90t97.5 -34q119 0 198 61z" />
    <glyph glyph-name="aring" unicode="&#xe5;" horiz-adv-x="607" 
d="M430 645q0 -47 -35 -81t-83 -34t-83 33q-34 34 -34 82t34 81q34 34 83 34t83 -34q35 -33 35 -81zM312 724q-33 2 -56.5 -23t-23.5 -56t23 -56q26 -23 57 -23t56.5 23t24.5 56q0 33 -24 56t-57 23zM317 510q96 0 151.5 -47.5t55.5 -139.5v-323h-67v64q-94 -74 -224 -74
q-76 0 -126 44q-49 45 -49 117q0 71 51.5 109.5t144.5 38.5h203v18q0 69 -41.5 104.5t-114.5 35.5q-97 0 -182 -62l-22 44q101 71 220 71zM457 94v175h-180q-73 0 -113 -28.5t-40 -83.5q0 -56 37.5 -90t97.5 -34q119 0 198 61z" />
    <glyph glyph-name="ae" unicode="&#xe6;" horiz-adv-x="1051" 
d="M989 250v-22h-445q3 -80 61.5 -134t138.5 -54q100 0 170 69l36 -33q-89 -86 -211 -86q-65 0 -121.5 30.5t-93.5 82.5v-103h-67v64q-94 -74 -224 -74q-76 0 -126 44q-49 45 -49 117q0 71 51.5 109.5t144.5 38.5h203v18q0 70 -42 105t-114 35q-97 0 -182 -62l-22 44
q101 71 220 71q164 0 199 -124q35 57 92.5 90.5t125.5 33.5q117 0 186 -75q69 -74 69 -185zM544 263h382q0 85 -52 141.5t-139 56.5q-80 0 -135 -58q-56 -59 -56 -140zM457 94v175h-180q-73 0 -113 -29t-40 -83q0 -56 37.5 -90t97.5 -34q119 0 198 61z" />
    <glyph glyph-name="ccedilla" unicode="&#xe7;" horiz-adv-x="605" 
d="M332 -10q-11 0 -31 2l-21 -42q19 9 44 7q34 -3 56 -25.5t22 -55.5q0 -41 -30.5 -65.5t-77.5 -24.5q-55 0 -99 23l12 28q32 -17 76 -17q32 0 53.5 18.5t21.5 44.5q1 25 -16 40.5t-43 16.5q-32 0 -52 -19l-13 12l32 65q-89 23 -145 92q-56 71 -56 160q0 108 78 184
q79 76 189 76q61 0 115 -25t91 -69l-51 -30q-62 66 -152 66q-83 0 -144 -59q-60 -59 -60 -143t60 -143q61 -59 144 -59q96 0 157 73l52 -30q-82 -101 -212 -101z" />
    <glyph glyph-name="egrave" unicode="&#xe8;" horiz-adv-x="637" 
d="M246 715l108 -154h-60l-123 154h75zM320 510q115 1 186.5 -74.5t69.5 -185.5v-22h-446q5 -81 62 -134q58 -54 138 -54q100 0 170 69l37 -33q-89 -86 -212 -86q-108 0 -184 76t-76 184q0 107 74 184q75 76 181 76zM321 461q-78 0 -135 -58q-56 -59 -56 -140h382
q0 85 -51.5 141.5t-139.5 56.5z" />
    <glyph glyph-name="eacute" unicode="&#xe9;" horiz-adv-x="637" 
d="M465 715l-123 -154h-60l108 154h75zM320 510q115 1 186.5 -74.5t69.5 -185.5v-22h-446q5 -81 62 -134q58 -54 138 -54q100 0 170 69l37 -33q-89 -86 -212 -86q-108 0 -184 76t-76 184q0 107 74 184q75 76 181 76zM321 461q-78 0 -135 -58q-56 -59 -56 -140h382
q0 85 -52 141.5t-139 56.5z" />
    <glyph glyph-name="ecircumflex" unicode="&#xea;" horiz-adv-x="637" 
d="M355 715l121 -154h-59l-98 117l-99 -117h-59l121 154h73zM320 510q115 1 186.5 -74.5t69.5 -185.5v-22h-446q5 -81 62 -134q58 -54 138 -54q100 0 170 69l37 -33q-89 -86 -212 -86q-108 0 -184 76t-76 184q0 107 74 184q75 76 181 76zM321 461q-78 0 -135 -58
q-56 -59 -56 -140h382q0 85 -51.5 141.5t-139.5 56.5z" />
    <glyph glyph-name="edieresis" unicode="&#xeb;" horiz-adv-x="637" 
d="M214 614q-14 0 -23.5 9.5t-9.5 24.5q0 21 21 30t36 -7q16 -15 7.5 -36t-31.5 -21zM423 614q-15 0 -24 9.5t-9 24.5q0 21 20.5 30t35.5 -7q16 -15 7 -36t-30 -21zM320 510q115 1 186.5 -74.5t69.5 -185.5v-22h-446q5 -81 62 -134q58 -54 138 -54q100 0 170 69l37 -33
q-89 -86 -212 -86q-108 0 -184 76t-76 184q0 107 74 184q75 76 181 76zM321 461q-78 0 -135 -58q-56 -59 -56 -140h382q0 85 -52 141.5t-139 56.5z" />
    <glyph glyph-name="igrave" unicode="&#xec;" horiz-adv-x="267" 
d="M66 715l109 -154h-61l-123 154h75zM172 500v-500h-67v500h67z" />
    <glyph glyph-name="iacute" unicode="&#xed;" horiz-adv-x="267" 
d="M283 715l-123 -154h-60l109 154h74zM170 500v-500h-67v500h67z" />
    <glyph glyph-name="icircumflex" unicode="&#xee;" horiz-adv-x="267" 
d="M174 715l121 -154h-59l-98 117l-99 -117h-58l120 154h73zM171 500v-500h-67v500h67z" />
    <glyph glyph-name="idieresis" unicode="&#xef;" horiz-adv-x="267" 
d="M9 671q15 15 33.5 8.5t23 -23.5t-8.5 -33q-9 -9 -23.5 -9t-24.5 9q-9 10 -9 24.5t9 23.5zM242 614q-14 0 -23.5 9.5t-9.5 24.5q0 21 20.5 30t35.5 -7q16 -15 7 -36t-30 -21zM171 500v-500h-67v500h67z" />
    <glyph glyph-name="eth" unicode="&#xf0;" horiz-adv-x="652" 
d="M556 746l24 -37l-98 -60q86 -110 86 -316q0 -103 -31 -182q-55 -157 -242 -161q-109 0 -178 70q-68 71 -68 177q0 101 63 166t166 65q71 0 127 -27.5t88 -78.5v10q-1 157 -68 243l-121 -74l-24 38l114 69q-60 50 -148 49q-67 0 -128 -29l-21 48q75 35 157 35
q119 2 196 -69zM295 45q186 0 199 241q-20 60 -73.5 95t-125.5 35q-79 0 -128 -52q-50 -52 -50 -134q0 -81 50 -134q49 -51 128 -51z" />
    <glyph glyph-name="ntilde" unicode="&#xf1;" 
d="M244 706q32 0 80 -30q46 -30 75 -33q53 -5 70 60l31 -5q-4 -47 -29 -74.5t-62 -27.5q-34 0 -85 32l-8 4q-42 26 -63 27q-22 2 -39 -14t-21 -45l-32 4q3 48 25.5 75t57.5 27zM392 510q85 0 135.5 -50t50.5 -140v-320h-68v303q0 72 -38.5 112t-102.5 40q-122 0 -210 -82
v-373h-68v500h68v-77q104 87 233 87z" />
    <glyph glyph-name="ograve" unicode="&#xf2;" horiz-adv-x="675" 
d="M263 715l109 -154h-60l-123 154h74zM144 434q79 76 192 76t192 -76q80 -77 80 -184t-80 -184q-79 -76 -192 -76t-192 76t-79 184t79 184zM336 452q-84 0 -144.5 -59t-60.5 -143t60 -143q61 -59 144 -59q84 0 145 59q61 58 61 143t-61 143q-61 59 -144 59z" />
    <glyph glyph-name="oacute" unicode="&#xf3;" horiz-adv-x="675" 
d="M483 715l-123 -154h-61l109 154h75zM144 434q79 76 192 76t192 -76q80 -77 80 -184t-80 -184q-79 -76 -192 -76t-192 76t-79 184t79 184zM336 452q-84 0 -144.5 -59t-60.5 -143t60 -143q61 -59 144 -59q84 0 145 59q61 58 61 143t-61 143q-61 59 -144 59z" />
    <glyph glyph-name="ocircumflex" unicode="&#xf4;" horiz-adv-x="675" 
d="M373 715l120 -154h-58l-99 117l-98 -117h-59l121 154h73zM144 434q79 76 192 76t192 -76q80 -77 80 -184t-80 -184q-79 -76 -192 -76t-192 76t-79 184t79 184zM131 250q0 -83 60 -142.5t145 -59.5q83 0 144 59q61 58 61 143t-61 143q-61 59 -145 59q-83 0 -144 -59
q-60 -59 -60 -143z" />
    <glyph glyph-name="otilde" unicode="&#xf5;" horiz-adv-x="675" 
d="M250 706q32 0 80 -30q46 -30 75 -33q53 -5 70 60l31 -5q-4 -47 -29 -74.5t-62 -27.5q-34 0 -85 32l-8 4q-42 26 -63 27q-49 2 -60 -59l-32 4q3 48 25.5 75t57.5 27zM144 434q79 76 192 76t192 -76q80 -77 80 -184t-80 -184q-79 -76 -192 -76t-192 76t-79 184t79 184z
M480 393q-61 59 -145 59q-83 0 -144 -59q-60 -59 -60 -143t60 -143q61 -59 144 -59q84 0 145 59q61 58 61 143t-61 143z" />
    <glyph glyph-name="odieresis" unicode="&#xf6;" horiz-adv-x="675" 
d="M208 671q15 15 33 8.5t22.5 -23.5t-8.5 -33q-9 -9 -23 -9t-24 9q-9 10 -9 24.5t9 23.5zM416 671q15 15 33.5 8.5t23 -23.5t-8.5 -33q-9 -9 -23.5 -9t-24.5 9q-9 10 -9 24.5t9 23.5zM144 434q79 76 192 76t192 -76q80 -77 80 -184t-80 -184q-79 -76 -192 -76t-192 76
t-79 184t79 184zM131 250q0 -83 60 -142.5t145 -59.5q83 0 144 59q61 58 61 143t-61 143q-61 59 -145 59q-83 0 -144 -59q-60 -59 -60 -143z" />
    <glyph glyph-name="divide" unicode="&#xf7;" horiz-adv-x="571" 
d="M257 522q12 11 29 11t29 -11t12 -26.5t-12 -26.5q-12 -10 -29.5 -10t-29.5 10q-11 11 -11 26.5t12 26.5zM527 318v-53h-483v53h483zM256 113q12 11 29.5 11t29.5 -11t12 -26.5t-12 -26.5q-12 -10 -29 -10t-29 10q-12 11 -12 26.5t11 26.5z" />
    <glyph glyph-name="oslash" unicode="&#xf8;" horiz-adv-x="675" 
d="M456 550h47l-35 -73q64 -34 102 -95t38 -132q0 -107 -80 -184q-79 -76 -192 -76q-49 0 -93 16l-26 -56h-47l34 73q-64 34 -101.5 95t-37.5 132q0 108 79 184t192 76q49 0 93 -16zM131 250q0 -53 26.5 -99.5t72.5 -73.5l174 364q-35 11 -68 11q-85 0 -145 -59.5
t-60 -142.5zM336 48q83 0 144 59q61 58 61 143q0 53 -26.5 99.5t-72.5 73.5l-173 -364q33 -11 67 -11z" />
    <glyph glyph-name="ugrave" unicode="&#xf9;" horiz-adv-x="652" 
d="M253 715l108 -154h-60l-123 154h75zM568 500v-500h-67v77q-103 -87 -234 -87q-85 0 -135 50t-50 140v320h67v-303q0 -72 38 -112t104 -40q122 0 210 82v373h67z" />
    <glyph glyph-name="uacute" unicode="&#xfa;" horiz-adv-x="652" 
d="M472 715l-123 -154h-60l108 154h75zM568 500v-500h-67v77q-103 -87 -234 -87q-85 0 -135 50t-50 140v320h67v-303q0 -72 38.5 -112t103.5 -40q122 0 210 82v373h67z" />
    <glyph glyph-name="ucircumflex" unicode="&#xfb;" horiz-adv-x="652" 
d="M362 715l121 -154h-59l-98 117l-99 -117h-59l121 154h73zM82 500h67v-303q0 -72 38 -112t104 -40q122 0 210 82v373h67v-500h-67v77q-103 -87 -234 -87q-85 0 -135 50t-50 140v320z" />
    <glyph glyph-name="udieresis" unicode="&#xfc;" horiz-adv-x="652" 
d="M221 681q23 0 31.5 -20.5t-7.5 -37.5q-15 -15 -36 -6t-21 31q0 14 10 23.5t23 9.5zM406 671q15 15 33 8.5t22.5 -23.5t-8.5 -33q-9 -9 -23 -9t-24 9q-9 10 -9 24.5t9 23.5zM82 500h67v-303q0 -72 38.5 -112t103.5 -40q122 0 210 82v373h67v-500h-67v77q-103 -87 -234 -87
q-85 0 -135 50t-50 140v320z" />
    <glyph glyph-name="yacute" unicode="&#xfd;" horiz-adv-x="564" 
d="M432 715l-123 -154h-60l109 154h74zM100 500l189 -432l181 432h70l-233 -551q-35 -82 -79.5 -117.5t-105.5 -36.5q-44 0 -98 20l20 46q40 -17 72 -15q41 2 71.5 26.5t59.5 87.5l11 24l-229 516h71z" />
    <glyph glyph-name="thorn" unicode="&#xfe;" horiz-adv-x="668" 
d="M96 700h68v-273q75 83 186 83q104 2 177.5 -75.5t71.5 -184.5q0 -108 -72 -185q-71 -75 -177 -75q-111 0 -186 83v-268h-68v895zM328 452q-102 0 -164 -82v-239q28 -39 71.5 -61t92.5 -22q83 0 144 59q61 58 61 143t-61 143q-61 59 -144 59z" />
    <glyph glyph-name="ydieresis" unicode="&#xff;" horiz-adv-x="564" 
d="M182 614q-15 0 -24 9.5t-9 24.5q0 22 20 31t36 -8q16 -15 7 -36t-30 -21zM390 614q-14 0 -23.5 9.5t-9.5 24.5q0 21 20.5 30t35.5 -7q16 -15 7 -36t-30 -21zM470 500h70l-233 -551q-35 -82 -79.5 -117.5t-105.5 -36.5q-44 0 -98 20l20 46q40 -17 72 -15q43 2 73 27.5
t58 86.5l11 24l-229 516h71l189 -432z" />
    <glyph glyph-name="Amacron" unicode="&#x100;" horiz-adv-x="804" 
d="M544 870v-45h-284v45h284zM449 700l314 -700h-85l-83 185h-385l-83 -185h-86l314 700h94zM402 621l-172 -377h344z" />
    <glyph glyph-name="amacron" unicode="&#x101;" horiz-adv-x="607" 
d="M453 670v-45h-284v45h284zM317 510q96 0 151.5 -47.5t55.5 -139.5v-323h-67v64q-94 -74 -224 -74q-76 0 -126 44q-49 45 -49 117q0 71 51.5 109.5t144.5 38.5h203v18q0 69 -41.5 104.5t-114.5 35.5q-97 0 -182 -62l-22 44q101 71 220 71zM457 94v175h-180
q-73 0 -113 -28.5t-40 -83.5q0 -56 37.5 -90t97.5 -34q119 0 198 61z" />
    <glyph glyph-name="Abreve" unicode="&#x102;" horiz-adv-x="804" 
d="M518 913l48 -1q-3 -63 -48.5 -102t-114.5 -39t-114 38.5t-49 102.5l49 1q2 -45 33.5 -71.5t80.5 -26.5q50 0 81 26t34 72zM449 700l314 -700h-85l-83 185h-385l-83 -185h-86l314 700h94zM402 621l-172 -377h344z" />
    <glyph glyph-name="abreve" unicode="&#x103;" horiz-adv-x="607" 
d="M427 713l48 -1q-3 -64 -48 -102.5t-115 -38.5q-68 0 -113.5 38.5t-48.5 102.5l48 1q3 -45 34 -71.5t80 -26.5t80.5 26t34.5 72zM317 510q96 0 151.5 -47.5t55.5 -139.5v-323h-67v64q-94 -74 -224 -74q-76 0 -126 44q-49 45 -49 117q0 71 51.5 109.5t144.5 38.5h203v18
q0 69 -41.5 104.5t-114.5 35.5q-97 0 -182 -62l-22 44q101 71 220 71zM457 94v175h-180q-73 0 -113 -29t-40 -83q0 -56 37.5 -90t97.5 -34q119 0 198 61z" />
    <glyph glyph-name="Aogonek" unicode="&#x104;" horiz-adv-x="804" 
d="M449 700l314 -700l-43 -2l-23 -29q-32 -43 -29 -77q1 -27 20.5 -43.5t49.5 -17.5q34 -1 61 21l13 -33q-38 -27 -85 -27q-42 0 -70.5 21t-32.5 55q-9 47 33 106l21 26l-83 185h-385l-83 -185h-86l314 700h94zM402 621l-172 -377h344z" />
    <glyph glyph-name="aogonek" unicode="&#x105;" horiz-adv-x="607" 
d="M317 510q96 0 151.5 -47.5t55.5 -139.5v-323l-27 -4l-21 -27q-32 -42 -30 -77q2 -27 22 -44t49 -17q32 -1 60 20l14 -33q-38 -26 -85 -26q-42 0 -71 21t-32 55q-9 46 33 105l21 27v64q-94 -74 -224 -74q-76 0 -126 44q-49 45 -49 117q0 71 51.5 109.5t144.5 38.5h203v18
q0 69 -41.5 104.5t-114.5 35.5q-97 0 -182 -62l-22 44q101 71 220 71zM457 94v175h-180q-73 0 -113 -29t-40 -83q0 -56 37.5 -90t97.5 -34q119 0 198 61z" />
    <glyph glyph-name="Cacute" unicode="&#x106;" horiz-adv-x="793" 
d="M584 915l-123 -154h-60l109 154h74zM450 710q85 0 159.5 -35.5t124.5 -97.5l-61 -37q-86 102 -222 102q-121 0 -207 -86q-85 -85 -85 -206q0 -122 85 -207t207 -85q136 0 222 102l61 -37q-50 -62 -124.5 -97.5t-159.5 -35.5q-97 -2 -182.5 47t-135.5 133t-48 180
q-2 96 48 180t135.5 133t182.5 47z" />
    <glyph glyph-name="cacute" unicode="&#x107;" horiz-adv-x="605" 
d="M465 715l-123 -154h-60l109 154h74zM332 510q61 0 115 -25t91 -69l-51 -30q-62 66 -152 66q-83 0 -144 -59q-60 -59 -60 -143t60 -143q61 -59 144 -59q96 0 157 73l52 -30q-82 -101 -212 -101q-110 0 -189 76q-78 76 -78 184t78 184q79 76 189 76z" />
    <glyph glyph-name="Cdotaccent" unicode="&#x10a;" horiz-adv-x="793" 
d="M438 814q-14 0 -23.5 9.5t-9.5 24.5q0 21 20.5 30t35.5 -7q16 -15 7 -36t-30 -21zM450 710q84 0 158.5 -35t125.5 -98l-61 -37q-86 102 -222 102q-121 0 -206.5 -85t-85.5 -207t85 -207t207 -85q136 0 222 102l61 -37q-50 -62 -124.5 -97.5t-159.5 -35.5
q-97 -2 -182.5 47t-135.5 133t-48 180q-2 96 48 180t135.5 133t182.5 47z" />
    <glyph glyph-name="cdotaccent" unicode="&#x10b;" horiz-adv-x="605" 
d="M352 648q0 -15 -9.5 -24.5t-23.5 -9.5q-22 0 -30.5 21t6.5 36q16 16 36.5 7.5t20.5 -30.5zM332 510q61 0 115 -25t91 -69l-51 -30q-62 66 -152 66q-83 0 -144 -59q-60 -59 -60 -143t60 -143q61 -59 144 -59q96 0 157 73l52 -30q-82 -101 -212 -101q-110 0 -189 76
q-78 76 -78 184t78 184q79 76 189 76z" />
    <glyph glyph-name="Ccaron" unicode="&#x10c;" horiz-adv-x="793" 
d="M595 915l-121 -154h-72l-121 154h58l99 -117l98 117h59zM450 710q85 0 159.5 -35.5t124.5 -97.5l-61 -37q-86 102 -222 102q-121 0 -207 -86q-85 -85 -85 -206q0 -122 85 -207t207 -85q136 0 222 102l61 -37q-51 -63 -125.5 -98t-158.5 -35q-97 -2 -182.5 47t-135.5 133
t-48 180q-2 96 48 180t135.5 133t182.5 47z" />
    <glyph glyph-name="ccaron" unicode="&#x10d;" horiz-adv-x="605" 
d="M476 715l-121 -154h-72l-121 154h58l99 -117l98 117h59zM332 510q61 0 115 -25t91 -69l-51 -30q-62 66 -152 66q-83 0 -144 -59q-60 -59 -60 -143t60 -143q61 -59 144 -59q96 0 157 73l52 -30q-82 -101 -212 -101q-110 0 -189 76q-78 76 -78 184t78 184q79 76 189 76z
" />
    <glyph glyph-name="Dcaron" unicode="&#x10e;" horiz-adv-x="838" 
d="M537 915l-121 -154h-73l-121 154h59l98 -117l99 117h59zM117 0v700h269q150 3 260.5 -101t107.5 -250q3 -144 -107.5 -248t-260.5 -101h-269zM383 635h-194v-570h194q125 0 210 82q87 83 87 203t-87 203q-85 82 -210 82z" />
    <glyph glyph-name="dcaron" unicode="&#x10f;" horiz-adv-x="761" 
d="M760 677q0 -10 -5 -18l-78 -121l-21 10l51 99q-21 9 -21 30q-1 20 18 28.5t38 0t18 -28.5zM500 700h67v-700h-67v73q-75 -83 -186 -83q-106 0 -178 75q-71 77 -71 185t71 184q72 76 178 76q111 0 186 -83v273zM336 452q-84 0 -145 -59q-60 -59 -60 -143t60 -143
q61 -59 145 -59q49 0 92.5 22t71.5 61v239q-28 38 -71.5 60t-92.5 22z" />
    <glyph glyph-name="Dcroat" unicode="&#x110;" horiz-adv-x="840" 
d="M119 379v321h268q151 3 261.5 -101t107.5 -250q3 -145 -107.5 -248.5t-261.5 -100.5h-268v321h-81v58h81zM191 321v-256h194q125 0 210 82q87 83 87 203q2 118 -87 203t-210 82h-194v-256h192v-58h-192z" />
    <glyph glyph-name="dslash" unicode="&#x111;" 
d="M655 628v-44h-88v-584h-67v73q-75 -83 -186 -83q-106 0 -178 75q-71 77 -71 185t71 184q72 76 178 76q111 0 186 -83v157h-129v44h129v72h67v-72h88zM500 131v239q-28 38 -71.5 60t-92.5 22q-84 0 -145 -59q-60 -59 -60 -143q0 -83 60 -142.5t145 -59.5q49 0 92.5 22
t71.5 61z" />
    <glyph glyph-name="Emacron" unicode="&#x112;" horiz-adv-x="703" 
d="M515 870v-45h-284v45h284zM636 700v-65h-447v-250h412v-62h-412v-258h457v-65h-529v700h519z" />
    <glyph glyph-name="emacron" unicode="&#x113;" horiz-adv-x="637" 
d="M461 670v-45h-285v45h285zM320 510q115 1 186.5 -74.5t69.5 -185.5v-22h-446q5 -81 62 -134q58 -54 138 -54q100 0 170 69l37 -33q-89 -86 -212 -86q-108 0 -184 76t-76 184q0 107 74 184q75 76 181 76zM321 461q-78 0 -135 -58q-56 -59 -56 -140h382q0 85 -52 141.5
t-139 56.5z" />
    <glyph glyph-name="Edotaccent" unicode="&#x116;" horiz-adv-x="703" 
d="M349 871q15 15 33 8.5t22.5 -23.5t-8.5 -33q-9 -9 -23 -9t-24 9q-9 10 -9 24.5t9 23.5zM636 700v-65h-447v-250h412v-62h-412v-258h457v-65h-529v700h519z" />
    <glyph glyph-name="edotaccent" unicode="&#x117;" horiz-adv-x="637" 
d="M294 671q15 15 33.5 8.5t23 -23.5t-8.5 -33q-9 -9 -23.5 -9t-24.5 9q-9 10 -9 24.5t9 23.5zM320 510q115 1 186.5 -74.5t69.5 -185.5v-22h-446q5 -81 62 -134q58 -54 138 -54q100 0 170 69l37 -33q-89 -86 -212 -86q-108 0 -184 76t-76 184q0 107 74 184q75 76 181 76z
M321 461q-78 0 -135 -58q-56 -59 -56 -140h382q0 85 -51.5 141.5t-139.5 56.5z" />
    <glyph glyph-name="Eogonek" unicode="&#x118;" horiz-adv-x="703" 
d="M636 700v-65h-447v-250h412v-62h-412v-258h457v-65h-73l-21 -26q-30 -40 -27 -74q1 -27 21 -44t50 -17q32 -1 60 20l13 -33q-38 -26 -85 -26q-42 0 -70.5 21t-32.5 55q-8 47 32 103l16 21h-412v700h519z" />
    <glyph glyph-name="eogonek" unicode="&#x119;" horiz-adv-x="637" 
d="M320 510q117 0 186 -75q70 -73 70 -185v-22h-446q5 -81 62 -134q58 -54 138 -54q100 0 170 69l37 -33q-41 -39 -90 -60l-21 -26q-32 -43 -29 -77q1 -27 21 -44t50 -17q32 -1 60 20l14 -33q-37 -27 -86 -27q-41 0 -70 21.5t-32 55.5q-8 42 27 95l11 15q-34 -9 -70 -9
q-110 3 -183 78q-74 76 -74 182q0 107 74 184q75 76 181 76zM321 461q-78 0 -135 -58q-56 -59 -56 -140h382q0 85 -52 141.5t-139 56.5z" />
    <glyph glyph-name="Ecaron" unicode="&#x11a;" horiz-adv-x="703" 
d="M530 915l-121 -154h-72l-121 154h58l99 -117l99 117h58zM636 700v-65h-447v-250h412v-62h-412v-258h457v-65h-529v700h519z" />
    <glyph glyph-name="ecaron" unicode="&#x11b;" horiz-adv-x="637" 
d="M476 715l-121 -154h-73l-121 154h59l98 -117l99 117h59zM320 510q117 0 186 -75q70 -73 70 -185v-22h-446q5 -81 62 -134q58 -54 138 -54q100 0 170 69l37 -33q-89 -86 -212 -86q-108 0 -184 76t-76 184q0 107 74 184q75 76 181 76zM321 461q-78 0 -135 -58
q-56 -59 -56 -140h382q0 85 -52 141.5t-139 56.5z" />
    <glyph glyph-name="Gbreve" unicode="&#x11e;" horiz-adv-x="851" 
d="M543 913l48 -1q-3 -64 -48 -102.5t-115 -38.5q-69 0 -114 39t-48 102l48 1q3 -45 34 -71.5t80 -26.5t80.5 26t34.5 72zM457 710q145 0 254 -95l-48 -50q-88 79 -206 79q-125 -2 -211 -86q-87 -84 -87 -208q0 -122 85 -207t209 -85q127 0 220 78v169h-216v53h286v-261
q-121 -107 -290 -107q-98 -2 -184 47t-136.5 133t-48.5 180q-2 100 50 184.5t138.5 131t184.5 44.5z" />
    <glyph glyph-name="gbreve" unicode="&#x11f;" horiz-adv-x="676" 
d="M459 713l48 -1q-3 -64 -48 -102.5t-115 -38.5q-69 0 -114 39t-48 102l48 1q3 -45 34 -71.5t80 -26.5q50 0 81 26t34 72zM313 510q117 0 203 -80v70h67v-450q0 -123 -70.5 -189.5t-190.5 -66.5q-125 2 -230 72l22 44q91 -62 196 -64q95 0 150.5 53t55.5 151v52
q-34 -47 -88 -74.5t-115 -27.5q-106 0 -176 73t-70 181t70 181q71 75 176 75zM334 452q-83 0 -141 -58q-59 -59 -59 -141q0 -81 59 -140q58 -58 141 -58q57 0 106 29t76 78v213q-74 77 -182 77z" />
    <glyph glyph-name="Gdotaccent" unicode="&#x120;" horiz-adv-x="851" 
d="M427 814q-14 0 -23.5 9.5t-9.5 24.5q0 21 21 30t36 -7q16 -15 7.5 -36t-31.5 -21zM457 710q145 0 254 -95l-47 -50q-88 79 -207 79q-121 2 -210.5 -85t-87.5 -209q0 -122 85 -207t209 -85q127 0 220 78v169h-216v53h286v-261q-121 -107 -290 -107q-98 -2 -184 47
t-136.5 133t-48.5 180q-2 100 50 184.5t138.5 131t184.5 44.5z" />
    <glyph glyph-name="gdotaccent" unicode="&#x121;" horiz-adv-x="676" 
d="M319 671q15 15 33.5 8.5t23 -23.5t-8.5 -33q-9 -9 -23.5 -9t-24.5 9q-9 10 -9 24.5t9 23.5zM313 510q117 0 203 -80v70h67v-450q0 -123 -70.5 -189.5t-190.5 -66.5q-125 2 -230 72l22 44q91 -62 196 -64q95 0 150.5 53t55.5 151v52q-75 -102 -203 -102q-106 0 -176 73
t-70 181t70 181q71 75 176 75zM334 452q-83 0 -141 -58q-59 -59 -59 -141q0 -81 59 -140q58 -58 141 -58q57 0 106 29t76 78v213q-74 77 -182 77z" />
    <glyph glyph-name="Gcommaaccent" unicode="&#x122;" horiz-adv-x="851" 
d="M457 710q145 0 254 -95l-47 -50q-88 79 -207 79q-121 2 -210.5 -85t-87.5 -209q0 -122 85 -207t209 -85q127 0 220 78v169h-216v53h286v-261q-121 -107 -290 -107q-98 -2 -184 47t-136.5 133t-48.5 180q-2 100 50 184.5t138.5 131t184.5 44.5zM448 -73q15 0 26 -10
t11 -23q0 -10 -5 -18l-78 -121l-21 10l51 99q-21 9 -21 30q0 14 10.5 23.5t26.5 9.5z" />
    <glyph glyph-name="gcommaaccent" unicode="&#x123;" horiz-adv-x="676" 
d="M379 798l20 -9l-50 -99q21 -9 21 -30q0 -14 -11 -24t-27 -10q-15 0 -26 10t-11 24q0 10 6 17zM313 510q117 0 203 -80v70h67v-450q0 -123 -70.5 -189.5t-190.5 -66.5q-125 2 -230 72l22 44q91 -62 196 -64q95 0 150.5 53t55.5 151v52q-75 -102 -203 -102q-106 0 -176 73
t-70 181t70 181q71 75 176 75zM334 452q-83 0 -141 -58q-59 -59 -59 -141q0 -81 59 -140q58 -58 141 -58q57 0 106 29t76 78v213q-74 77 -182 77z" />
    <glyph glyph-name="Hbar" unicode="&#x126;" horiz-adv-x="843" 
d="M802 582v-48h-76v-534h-72v321h-465v-321h-72v534h-76v48h76v118h72v-118h465v118h72v-118h76zM654 386v148h-465v-148h465z" />
    <glyph glyph-name="hbar" unicode="&#x127;" horiz-adv-x="665" 
d="M396 510q85 0 135.5 -50t50.5 -140v-320h-68v303q0 72 -37.5 112t-103.5 40q-122 0 -210 -82v-373h-68v584h-81v44h81v72h68v-72h177v-44h-177v-161q103 87 233 87z" />
    <glyph glyph-name="Itilde" unicode="&#x128;" horiz-adv-x="306" 
d="M70 906q32 0 80 -30q46 -30 75 -33q53 -5 70 60l31 -5q-4 -47 -29 -74.5t-62 -27.5q-36 0 -85 32l-8 4q-42 26 -63 27q-22 2 -39 -14t-21 -45l-32 4q3 48 25.5 75t57.5 27zM190 700v-700h-72v700h72z" />
    <glyph glyph-name="itilde" unicode="&#x129;" horiz-adv-x="267" 
d="M51 706q32 0 80 -30q47 -30 75 -33q54 -5 71 60l31 -5q-4 -47 -29.5 -74.5t-62.5 -27.5q-34 0 -85 32q-3 2 -7 4q-42 26 -64 27q-22 2 -38 -13.5t-22 -45.5l-31 4q2 48 24 75t58 27zM171 500v-500h-67v500h67z" />
    <glyph glyph-name="Imacron" unicode="&#x12a;" horiz-adv-x="306" 
d="M297 870v-45h-284v45h284zM189 700v-700h-72v700h72z" />
    <glyph glyph-name="imacron" unicode="&#x12b;" horiz-adv-x="267" 
d="M280 670v-45h-284v45h284zM171 500v-500h-67v500h67z" />
    <glyph glyph-name="Iogonek" unicode="&#x12e;" horiz-adv-x="306" 
d="M197 700v-703l-22 -29q-32 -42 -30 -77q1 -27 21 -44t50 -17q33 -2 60 21l14 -34q-38 -26 -85 -26q-43 0 -71.5 20.5t-31.5 55.5q-9 46 33 106l15 20l-25 7v700h72z" />
    <glyph glyph-name="iogonek" unicode="&#x12f;" horiz-adv-x="267" 
d="M123 671q15 15 33 8.5t22.5 -23.5t-8.5 -33q-9 -9 -23 -9t-24 9q-9 10 -9 24.5t9 23.5zM180 500v-504l-22 -28q-32 -43 -29 -77q0 -27 20.5 -44t49.5 -17q34 -1 61 21l13 -34q-38 -26 -85 -26q-42 0 -70.5 21t-32.5 55q-9 46 33 106l12 15l-17 12v500h67z" />
    <glyph glyph-name="Idot" unicode="&#x130;" horiz-adv-x="306" 
d="M131 871q15 15 33.5 8.5t23 -23.5t-8.5 -33q-9 -9 -23.5 -9t-24.5 9q-9 10 -9 24.5t9 23.5zM189 700v-700h-72v700h72z" />
    <glyph glyph-name="dotlessi" unicode="&#x131;" horiz-adv-x="267" 
d="M170 500v-500h-67v500h67z" />
    <glyph glyph-name="IJ" unicode="&#x132;" horiz-adv-x="918" 
d="M729 700h72v-450q0 -130 -62.5 -195t-176.5 -65q-144 0 -221 96l57 39q63 -69 160 -69q80 0 125.5 50t45.5 144v450zM189 700v-700h-72v700h72z" />
    <glyph glyph-name="ij" unicode="&#x133;" horiz-adv-x="543" 
d="M137 675q16 0 28 -10.5t12 -24.5q0 -24 -24.5 -33.5t-44.5 7.5q-18 17 -8 39t37 22zM410 675q17 0 28.5 -10.5t11.5 -24.5q0 -24 -24.5 -33t-43.5 7q-19 17 -8.5 39t36.5 22zM171 500v-500h-67v500h67zM377 500h67v-533q0 -79 -48 -126q-46 -46 -118 -46q-38 0 -71 11
l8 40q19 -6 40 -6q53 0 87.5 36.5t34.5 94.5v529z" />
    <glyph glyph-name="Kcommaaccent" unicode="&#x136;" horiz-adv-x="750" 
d="M693 700l-270 -278l285 -422h-91l-242 366l-185 -186v-180h-72v700h72v-415l406 415h97zM428 -106q0 -10 -6 -18l-78 -121l-20 10l50 99q-20 9 -20 30q-1 20 18 28.5t38 0t18 -28.5z" />
    <glyph glyph-name="kcommaaccent" unicode="&#x137;" horiz-adv-x="599" 
d="M164 700v-497l312 297h82l-189 -188l206 -312h-74l-179 264l-158 -146v-118h-68v700h68zM354 -106q0 -10 -5 -18l-79 -121l-20 10l51 99q-21 9 -21 30q-1 20 18 28.5t38 0t18 -28.5z" />
    <glyph glyph-name="Lacute" unicode="&#x139;" horiz-adv-x="628" 
d="M462 915l-123 -154h-60l109 154h74zM189 700v-635h398v-65h-470v700h72z" />
    <glyph glyph-name="lacute" unicode="&#x13a;" horiz-adv-x="248" 
d="M281 915l-123 -154h-61l109 154h75zM165 700v-700h-67v700h67z" />
    <glyph glyph-name="Lcommaaccent" unicode="&#x13b;" horiz-adv-x="628" 
d="M189 700v-635h398v-65h-470v700h72zM368 -106q0 -10 -5 -18l-78 -121l-21 10l51 99q-21 9 -21 30q-1 20 18 28.5t38 0t18 -28.5z" />
    <glyph glyph-name="lcommaaccent" unicode="&#x13c;" horiz-adv-x="248" 
d="M184 -106q0 -10 -5 -18l-78 -121l-21 10l51 99q-21 9 -21 30q-1 20 18 28.5t38 0t18 -28.5zM165 700v-700h-67v700h67z" />
    <glyph glyph-name="Lcaron" unicode="&#x13d;" horiz-adv-x="628" 
d="M466 710q15 0 26 -10t11 -23q0 -10 -5 -18l-79 -121l-20 10l50 99q-20 9 -20 30q0 14 10.5 23.5t26.5 9.5zM189 700v-635h398v-65h-470v700h72z" />
    <glyph glyph-name="lcaron" unicode="&#x13e;" horiz-adv-x="358" 
d="M320 710q16 0 26.5 -9.5t10.5 -23.5q0 -10 -5 -18l-78 -121l-21 10l51 99q-21 9 -21 30q0 14 11 23.5t26 9.5zM164 700v-700h-67v700h67z" />
    <glyph glyph-name="Ldot" unicode="&#x13f;" horiz-adv-x="628" 
d="M189 700v-635h398v-65h-470v700h72zM417 394q22 22 50 5q26 -16 19 -40q-2 -9 -11 -17q-12 -10 -29 -10t-29 10q-12 11 -12 26.5t12 25.5z" />
    <glyph glyph-name="ldot" unicode="&#x140;" horiz-adv-x="388" 
d="M164 700v-700h-67v700h67zM357 368q0 -15 -12 -25.5t-29 -10.5q-28 0 -39 23t9 39q20 18 45.5 8.5t25.5 -34.5z" />
    <glyph glyph-name="Lslash" unicode="&#x141;" horiz-adv-x="675" 
d="M226 65h398v-65h-471v338l-121 -84v69l121 84v293h73v-242l136 94v-69l-136 -94v-324z" />
    <glyph glyph-name="lslash" unicode="&#x142;" horiz-adv-x="360" 
d="M327 552v-69l-119 -83v-400h-67v352l-109 -76v69l109 77v278h67v-231z" />
    <glyph glyph-name="Nacute" unicode="&#x143;" horiz-adv-x="826" 
d="M564 915l-123 -154h-60l109 154h74zM717 700v-700h-80l-458 588v-588h-71v700h79l459 -588v588h71z" />
    <glyph glyph-name="nacute" unicode="&#x144;" 
d="M477 715l-124 -154h-60l109 154h75zM392 510q85 0 135.5 -50t50.5 -140v-320h-68v303q0 72 -38 112t-103 40q-122 0 -210 -82v-373h-68v500h68v-77q104 87 233 87z" />
    <glyph glyph-name="Ncommaaccent" unicode="&#x145;" horiz-adv-x="826" 
d="M717 700v-700h-80l-458 588v-588h-71v700h79l459 -588v588h71zM433 -73q15 0 26 -10t11 -23q0 -10 -5 -18l-78 -121l-21 10l51 99q-21 9 -21 30q0 14 11 23.5t26 9.5z" />
    <glyph glyph-name="ncommaaccent" unicode="&#x146;" 
d="M392 510q85 0 135.5 -50t50.5 -140v-320h-68v303q0 72 -37.5 112t-103.5 40q-122 0 -210 -82v-373h-68v500h68v-77q104 87 233 87zM382 -106q0 -10 -5 -18l-78 -121l-21 10l51 99q-21 9 -21 30q-1 20 18 28.5t38 0t18 -28.5z" />
    <glyph glyph-name="Ncaron" unicode="&#x147;" horiz-adv-x="826" 
d="M575 915l-121 -154h-72l-121 154h58l99 -117l99 117h58zM717 700v-700h-80l-458 588v-588h-71v700h79l459 -588v588h71z" />
    <glyph glyph-name="ncaron" unicode="&#x148;" 
d="M487 715l-121 -154h-72l-121 154h58l99 -117l99 117h58zM392 510q85 0 135.5 -50t50.5 -140v-320h-68v303q0 72 -38 112t-103 40q-122 0 -210 -82v-373h-68v500h68v-77q104 87 233 87z" />
    <glyph glyph-name="Eng" unicode="&#x14a;" horiz-adv-x="826" 
d="M646 700h71v-659q0 -132 -63.5 -195.5t-175.5 -63.5q-142 0 -219 96l56 38q65 -68 160 -68q71 0 115 39t53 113h-6l-458 588v-588h-71v700h79l458 -587l1 25v562z" />
    <glyph glyph-name="eng" unicode="&#x14b;" 
d="M392 510q85 0 135.5 -50t50.5 -140v-353q0 -79 -48 -126q-47 -46 -119 -46q-38 0 -71 11l8 40q20 -6 40 -6q53 0 87.5 36.5t34.5 94.5v332q0 72 -37.5 112t-103.5 40q-122 0 -210 -82v-373h-68v500h68v-77q104 87 233 87z" />
    <glyph glyph-name="Omacron" unicode="&#x14c;" horiz-adv-x="905" 
d="M595 870v-45h-285v45h285zM268 662q85 48 185 48t184.5 -48t133.5 -131q50 -83 50 -181t-49.5 -181t-134.5 -131q-84 -48 -184 -48q-99 0 -185 48q-85 48 -135 131q-49 82 -49 181q0 98 49.5 181t134.5 131zM660 556q-86 86 -208 86t-208 -86q-85 -85 -85 -206
q0 -122 85 -207t208 -85t208 85q86 86 86 207q0 120 -86 206z" />
    <glyph glyph-name="omacron" unicode="&#x14d;" horiz-adv-x="675" 
d="M478 670v-45h-284v45h284zM144 434q79 76 192 76t192 -76q80 -77 80 -184t-80 -184q-79 -76 -192 -76t-192 76t-79 184t79 184zM131 250q0 -83 60 -142.5t145 -59.5q83 0 144 59q61 58 61 143t-61 143q-61 59 -145 59q-83 0 -144 -59q-60 -59 -60 -143z" />
    <glyph glyph-name="Ohungarumlaut" unicode="&#x150;" horiz-adv-x="905" 
d="M517 915l-123 -154h-60l108 154h75zM704 915l-123 -154h-60l109 154h74zM268 662q85 48 185 48t184.5 -48t133.5 -131q50 -83 50 -181t-49.5 -181t-134.5 -131q-84 -48 -184 -48q-99 0 -185 48q-85 48 -135 131q-49 82 -49 181q0 98 49.5 181t134.5 131zM660 556
q-86 86 -208 86t-208 -86q-85 -85 -85 -206q0 -122 85 -207t208 -85t208 85q86 86 86 207q0 120 -86 206z" />
    <glyph glyph-name="ohungarumlaut" unicode="&#x151;" horiz-adv-x="675" 
d="M401 715l-123 -154h-61l109 154h75zM588 715l-123 -154h-60l108 154h75zM144 434q79 76 192 76t192 -76q80 -77 80 -184t-80 -184q-79 -76 -192 -76t-192 76t-79 184t79 184zM131 250q0 -83 60 -142.5t145 -59.5q83 0 144 59q61 58 61 143t-61 143q-61 59 -145 59
q-83 0 -144 -59q-60 -59 -60 -143z" />
    <glyph glyph-name="OE" unicode="&#x152;" horiz-adv-x="1334" 
d="M820 65h456v-65h-528v135q-52 -68 -129.5 -106.5t-165.5 -38.5q-98 -2 -184 47t-136.5 133t-48.5 180q-2 96 48.5 180t136.5 133t184 47q88 0 165.5 -38.5t129.5 -106.5v135h518v-65h-446v-250h412v-62h-412v-258zM453 642q-121 2 -208.5 -85.5t-85.5 -206.5
q0 -122 85 -207t208 -85t208 85q86 86 86 207q0 120 -86 206t-207 86z" />
    <glyph glyph-name="oe" unicode="&#x153;" horiz-adv-x="1116" 
d="M1054 250v-22h-445q5 -81 62 -134q59 -54 138 -54q99 0 170 69l36 -33q-89 -86 -211 -86q-72 0 -133.5 36.5t-95.5 99.5q-35 -63 -99.5 -99.5t-139.5 -36.5q-113 0 -192 76t-79 184t79 184t192 76q75 0 138.5 -36.5t100.5 -98.5q34 62 93 98.5t131 36.5q117 0 186 -75
q69 -74 69 -185zM609 263h382q0 86 -52 141q-53 57 -139 57q-80 0 -135 -58q-56 -59 -56 -140zM191 107q61 -59 144 -59q84 0 145 59q61 58 61 143t-61 143q-61 59 -145 59q-83 0 -144 -59q-60 -59 -60 -143t60 -143z" />
    <glyph glyph-name="Racute" unicode="&#x154;" horiz-adv-x="767" 
d="M537 915l-123 -154h-60l109 154h74zM117 0v700h298q152 0 218.5 -51t66.5 -166q0 -89 -40 -138.5t-128 -66.5l194 -278h-84l-185 268q-34 -2 -57 -2h-211v-266h-72zM418 635h-229v-312h229q111 0 159 36t48 120q0 83 -47.5 119.5t-159.5 36.5z" />
    <glyph glyph-name="racute" unicode="&#x155;" horiz-adv-x="418" 
d="M359 715l-124 -154h-60l109 154h75zM394 510v-55q-133 0 -235 -106v-349h-68v500h68v-96q104 106 235 106z" />
    <glyph glyph-name="Rcommaaccent" unicode="&#x156;" horiz-adv-x="767" 
d="M117 0v700h298q152 0 218.5 -51.5t66.5 -165.5q0 -89 -40 -138.5t-128 -66.5l194 -278h-84l-185 268q-34 -2 -57 -2h-211v-266h-72zM418 635h-229v-312h229q111 0 159 36t48 120t-48 120t-159 36zM443 -106q0 -10 -5 -18l-79 -121l-20 10l50 99q-20 9 -20 30
q-1 20 18 28.5t38 0t18 -28.5z" />
    <glyph glyph-name="rcommaaccent" unicode="&#x157;" horiz-adv-x="418" 
d="M394 510v-55q-133 0 -235 -106v-349h-68v500h68v-96q104 106 235 106zM227 -73q16 0 26.5 -9.5t10.5 -23.5q0 -10 -5 -18l-78 -121l-21 10l51 99q-21 9 -21 30q0 13 11 23t26 10z" />
    <glyph glyph-name="Rcaron" unicode="&#x158;" horiz-adv-x="767" 
d="M548 915l-121 -154h-73l-121 154h59l99 -117l98 117h59zM117 0v700h298q152 0 218.5 -51.5t66.5 -165.5q0 -89 -40 -138.5t-128 -66.5l194 -278h-84l-185 268q-34 -2 -57 -2h-211v-266h-72zM418 635h-229v-312h229q111 0 159 36t48 120t-48 120t-159 36z" />
    <glyph glyph-name="rcaron" unicode="&#x159;" horiz-adv-x="418" 
d="M368 715l-121 -154h-72l-121 154h58l99 -117l99 117h58zM393 510v-55q-133 0 -235 -106v-349h-68v500h68v-96q106 106 235 106z" />
    <glyph glyph-name="Sacute" unicode="&#x15a;" horiz-adv-x="704" 
d="M499 915l-123 -154h-60l109 154h74zM345 710q158 0 273 -74l-32 -55q-116 67 -248 67q-78 0 -125.5 -32.5t-47.5 -93.5q0 -42 36 -68q38 -26 145 -54q151 -40 189 -58q83 -38 99 -111q4 -19 4 -46q0 -94 -76.5 -144.5t-194.5 -50.5q-85 0 -167 23t-142 64l33 54
q58 -37 133.5 -58t149.5 -21q79 0 134 32q54 32 54 93q0 41 -12 58q-14 26 -36 37q-30 17 -62 26l-39 12l-48 12l-39 11q-133 35 -185 72q-53 38 -53 109q0 97 72.5 146.5t184.5 49.5z" />
    <glyph glyph-name="sacute" unicode="&#x15b;" horiz-adv-x="530" 
d="M410 715l-123 -154h-60l108 154h75zM253 510q112 0 197 -53l-24 -42q-80 48 -173 48q-56 0 -89.5 -23t-33.5 -66q0 -30 25 -48q24 -17 99 -37l18 -5q18 -5 49 -14q18 -5 41 -13q27 -8 37 -15q40 -23 51 -43q17 -30 17 -69q0 -67 -56 -105q-56 -37 -142 -35
q-132 0 -225 63l25 41q87 -57 199 -57q61 -1 98.5 22t37.5 66q0 36 -20 58q-8 9 -29 17q-17 7 -36 13l-50 14l-30 8q-97 26 -134 53q-38 29 -38 81q0 70 52.5 105.5t133.5 35.5z" />
    <glyph glyph-name="Scedilla" unicode="&#x15e;" horiz-adv-x="704" 
d="M345 710q158 0 273 -74l-32 -55q-116 67 -248 67q-78 0 -125.5 -32.5t-47.5 -93.5q0 -42 36 -68q38 -26 145 -54q151 -40 189 -58q83 -38 99 -111q4 -19 4 -46q0 -89 -71 -139t-178 -54l-31 -1l-20 -41q18 9 43 7q34 -3 56.5 -25.5t22.5 -55.5q0 -40 -31 -65t-78 -25
q-55 0 -99 23l12 28q34 -17 77 -17q32 0 53.5 18t21.5 45q0 25 -16.5 40t-43.5 17q-32 0 -51 -19l-14 12l29 59q-156 12 -262 85l33 54q58 -37 133.5 -58t149.5 -21q79 0 134 32q54 32 54 93q0 41 -12 58q-14 26 -36 37q-30 17 -62 26l-39 12l-48 12q-5 2 -18.5 5t-20.5 6
q-133 35 -185 72q-53 38 -53 109q0 97 72.5 146.5t184.5 49.5z" />
    <glyph glyph-name="scedilla" unicode="&#x15f;" horiz-adv-x="530" 
d="M253 510q112 0 197 -53l-24 -42q-80 48 -173 48q-56 0 -89.5 -23t-33.5 -66q0 -30 25 -48q24 -17 99 -37l18 -5q18 -5 49 -14q18 -5 41 -13q27 -8 37 -15q40 -23 51 -43q17 -30 17 -69q0 -66 -52.5 -101.5t-133.5 -37.5h-14l-20 -41q19 9 43 7q34 -3 56.5 -25.5
t22.5 -55.5q0 -40 -31 -65t-78 -25q-55 0 -99 23l12 28q34 -17 77 -17q33 0 54 18t21 45q0 25 -17 40.5t-43 16.5q-32 0 -51 -19l-14 12l29 59q-109 9 -185 61l25 41q87 -57 199 -57q61 -1 98.5 22t37.5 66q0 36 -20 58q-8 9 -29 17q-17 7 -36 13l-50 14l-30 8
q-97 25 -132.5 52t-39.5 82q0 68 51 104.5t135 36.5z" />
    <glyph glyph-name="Scaron" unicode="&#x160;" horiz-adv-x="704" 
d="M510 915l-121 -154h-73l-121 154h59l99 -117l98 117h59zM345 710q159 0 273 -74l-32 -55q-116 67 -248 67q-78 0 -125.5 -32.5t-47.5 -93.5q0 -42 36 -68q38 -26 145 -54q151 -40 189 -58q83 -38 99 -111q4 -19 4 -46q0 -94 -76.5 -144.5t-194.5 -50.5q-85 0 -167 23
t-142 64l33 54q58 -37 133.5 -58t149.5 -21q79 0 134 32q54 32 54 93q0 41 -12 58q-14 26 -36 37q-30 17 -62 26l-39 12l-48 12q-7 3 -19.5 6t-19.5 5q-133 35 -185 72q-53 38 -53 109q0 97 72.5 146.5t184.5 49.5z" />
    <glyph glyph-name="scaron" unicode="&#x161;" horiz-adv-x="530" 
d="M421 715l-121 -154h-73l-121 154h59l98 -117l99 117h59zM253 510q112 0 197 -53l-24 -42q-80 48 -173 48q-56 0 -89.5 -23t-33.5 -66q0 -30 25 -48q24 -17 99 -37l18 -5q18 -5 49 -14q18 -5 41 -13q27 -8 37 -15q40 -23 51 -43q17 -30 17 -69q0 -67 -56 -105
q-56 -37 -142 -35q-132 0 -225 63l25 41q87 -57 199 -57q61 -1 98.5 22t37.5 66q0 36 -20 58q-8 9 -29 17q-17 7 -36 13l-50 14l-30 8q-97 25 -132.5 52t-39.5 82q0 68 51 104.5t135 36.5z" />
    <glyph glyph-name="Tcedilla" unicode="&#x162;" horiz-adv-x="642" 
d="M601 700v-62h-244v-641l-21 -4l-23 -47q22 8 43 7q34 -3 56.5 -26t22.5 -56q0 -39 -31 -64t-77 -25q-55 0 -99 23l12 28q32 -17 76 -17q33 0 54 18t21 44q0 25 -17 41t-42 16q-33 0 -52 -19l-13 12l31 65l-13 7v638h-244v62h560z" />
    <glyph glyph-name="tcedilla" unicode="&#x163;" horiz-adv-x="450" 
d="M187 648v-148h162v-52h-162v-274q0 -58 35 -93.5t87 -35.5q38 0 72 19l11 -47q-38 -20 -79 -23q-40 -3 -77 11l-27 -55q19 9 44 7q34 -3 56 -25.5t22 -55.5q0 -41 -30.5 -65.5t-77.5 -24.5q-55 0 -99 23l12 28q32 -17 76 -17q33 0 54 18t21 45q1 25 -16 40.5t-43 16.5
q-32 0 -52 -19l-13 12l39 79q-83 46 -83 151v285h-92v52h92v148h68z" />
    <glyph glyph-name="Tcaron" unicode="&#x164;" horiz-adv-x="642" 
d="M476 915l-121 -154h-72l-121 154h58l99 -117l99 117h58zM601 700v-62h-244v-638h-72v638h-244v62h560z" />
    <glyph glyph-name="tcaron" unicode="&#x165;" horiz-adv-x="484" 
d="M389 704q0 -9 -5 -17l-78 -121l-21 9l51 99q-21 9 -21 30q-1 20 18 28.5t38 0t18 -28.5zM187 648v-148h162v-52h-162v-274q0 -58 34.5 -93.5t87.5 -35.5q38 0 72 19l11 -47q-52 -27 -106 -27q-72 0 -119 46q-48 46 -48 127v285h-92v52h92v148h68z" />
    <glyph glyph-name="Tbar" unicode="&#x166;" horiz-adv-x="642" 
d="M601 638h-244v-255h106v-44h-106v-339h-72v339h-106v44h106v255h-244v62h560v-62z" />
    <glyph glyph-name="tbar" unicode="&#x167;" horiz-adv-x="450" 
d="M381 64l11 -47q-51 -27 -106 -27q-71 0 -119 47t-48 126v81h-76v44h76v160h-92v52h92v148h68v-148h162v-52h-162v-160h141v-44h-141v-70q0 -58 35 -93.5t87 -35.5q38 0 72 19z" />
    <glyph glyph-name="Utilde" unicode="&#x168;" horiz-adv-x="835" 
d="M331 906q34 0 80 -30q47 -30 75 -33q54 -5 71 60l31 -5q-4 -47 -29.5 -74.5t-62.5 -27.5q-33 0 -85 32q-3 2 -7 4q-42 26 -64 27t-38 -14.5t-22 -44.5l-31 4q2 48 24 75t58 27zM654 700h72v-390q0 -154 -83 -237t-222 -83t-222 83q-82 82 -82 237v390h72v-390
q0 -121 62.5 -187.5t169.5 -66.5t170 66.5t63 187.5v390z" />
    <glyph glyph-name="utilde" unicode="&#x169;" horiz-adv-x="652" 
d="M239 706q32 0 80 -30q47 -30 75 -33q56 -5 70 60l32 -5q-4 -47 -29.5 -74.5t-62.5 -27.5q-36 0 -85 32q-1 0 -3 1.5t-4 2.5q-26 16 -38 20q-12 5 -26 7q-49 0 -60 -59l-31 4q2 48 24 75t58 27zM568 500v-500h-67v77q-103 -87 -234 -87q-85 0 -135 50t-50 140v320h67v-303
q0 -72 38.5 -112t103.5 -40q122 0 210 82v373h67z" />
    <glyph glyph-name="Umacron" unicode="&#x16a;" horiz-adv-x="835" 
d="M560 870v-45h-284v45h284zM654 700h72v-390q0 -154 -83 -237t-222 -83t-222 83q-82 82 -82 237v390h72v-390q0 -122 63.5 -188t169.5 -66q107 0 169.5 66.5t62.5 187.5v390z" />
    <glyph glyph-name="umacron" unicode="&#x16b;" horiz-adv-x="652" 
d="M82 500h67v-303q0 -72 38.5 -112t103.5 -40q122 0 210 82v373h67v-500h-67v77q-103 -87 -234 -87q-85 0 -135 50t-50 140v320zM468 670v-45h-285v45h285z" />
    <glyph glyph-name="Uring" unicode="&#x16e;" horiz-adv-x="835" 
d="M334 926q34 34 84 34q49 0 83 -34q35 -33 35 -81q0 -47 -35 -82q-35 -33 -83 -33q-50 0 -84 33q-34 34 -34 82t34 81zM418 924q-33 2 -56.5 -23t-23.5 -56t23 -56q26 -23 57 -23t56.5 23t24.5 56q0 33 -24 56t-57 23zM654 700h72v-390q0 -154 -83 -237t-222 -83t-222 83
q-82 82 -82 237v390h72v-390q0 -121 62.5 -187.5t169.5 -66.5t170 66.5t63 187.5v390z" />
    <glyph glyph-name="uring" unicode="&#x16f;" horiz-adv-x="652" 
d="M326 760q49 0 83 -34t34 -81t-34 -81t-83 -34q-50 0 -84 33q-34 34 -34 82t34 81q34 34 84 34zM245 645q0 -32 24 -55.5t57 -23.5q33 -2 56.5 23t23.5 56t-24 56q-25 23 -56.5 23t-57 -23t-23.5 -56zM82 500h67v-303q0 -72 38 -112t104 -40q122 0 210 82v373h67v-500h-67
v77q-103 -87 -234 -87q-85 0 -135 50t-50 140v320z" />
    <glyph glyph-name="Uhungarumlaut" unicode="&#x170;" horiz-adv-x="835" 
d="M482 915l-123 -154h-60l109 154h74zM670 915l-123 -154h-61l109 154h75zM654 700h72v-390q0 -154 -83 -237t-221 -83q-140 0 -222.5 82.5t-82.5 237.5v390h72v-390q0 -122 63.5 -188t169.5 -66q107 0 169.5 66.5t62.5 187.5v390z" />
    <glyph glyph-name="uhungarumlaut" unicode="&#x171;" horiz-adv-x="652" 
d="M390 715l-123 -154h-60l108 154h75zM577 715l-123 -154h-60l109 154h74zM82 500h67v-303q0 -72 38 -112t104 -40q122 0 210 82v373h67v-500h-67v77q-103 -87 -234 -87q-85 0 -135 50t-50 140v320z" />
    <glyph glyph-name="Uogonek" unicode="&#x172;" horiz-adv-x="835" 
d="M654 700h72v-390q0 -107 -41.5 -181t-118.5 -110l-24 -30q-32 -43 -29 -77q1 -27 21 -44t49 -17q33 -1 61 20l13 -33q-38 -26 -85 -26q-42 0 -70.5 21t-32.5 55q-7 42 28 95l13 18q-42 -11 -88 -11q-140 0 -223 83q-82 82 -82 237v390h72v-390q0 -122 63.5 -188
t169.5 -66q107 0 169.5 66.5t62.5 187.5v390z" />
    <glyph glyph-name="uogonek" unicode="&#x173;" horiz-adv-x="652" 
d="M82 500h67v-303q0 -72 38 -112t104 -40q122 0 210 82v373h67v-504l-34 -8l-14 -19q-32 -43 -29 -77q1 -26 21 -43t49 -18q34 0 61 21l13 -33q-37 -27 -85 -27q-42 0 -70.5 21t-32.5 56q-9 47 33 105l21 26v77q-103 -87 -234 -87q-85 0 -135 50t-50 140v320z" />
    <glyph glyph-name="Wcircumflex" unicode="&#x174;" horiz-adv-x="1110" 
d="M592 915l121 -154h-59l-99 117l-98 -117h-59l121 154h73zM1068 700l-240 -700h-78l-195 593l-195 -593h-79l-240 700h80l202 -593l194 593h76l193 -593l202 593h80z" />
    <glyph glyph-name="wcircumflex" unicode="&#x175;" horiz-adv-x="821" 
d="M797 500l-176 -500h-74l-136 405l-136 -405h-75l-176 500h68l148 -428l142 428h58l141 -428l149 428h67zM446 715l121 -154h-58l-99 117l-98 -117h-59l121 154h72z" />
    <glyph glyph-name="Ycircumflex" unicode="&#x176;" horiz-adv-x="759" 
d="M416 915l121 -154h-59l-98 117l-99 -117h-59l121 154h73zM718 700l-302 -444v-256h-73v255l-302 445h87l252 -368l252 368h86z" />
    <glyph glyph-name="ycircumflex" unicode="&#x177;" horiz-adv-x="564" 
d="M322 715l121 -154h-58l-99 117l-99 -117h-58l121 154h72zM470 500h70l-233 -551q-35 -82 -79.5 -117.5t-105.5 -36.5q-44 0 -98 20l20 46q40 -17 72 -15q41 2 71.5 26.5t59.5 87.5l11 24l-229 516h71l189 -432z" />
    <glyph glyph-name="Ydieresis" unicode="&#x178;" horiz-adv-x="759" 
d="M251 871q15 15 33.5 8.5t23 -23.5t-8.5 -33q-9 -9 -23.5 -9t-24.5 9q-9 10 -9 24.5t9 23.5zM460 871q15 15 33 8.5t22.5 -23.5t-8.5 -33q-9 -9 -23 -9t-24 9q-9 10 -9 24.5t9 23.5zM718 700l-302 -444v-256h-73v255l-302 445h87l252 -368l252 368h86z" />
    <glyph glyph-name="Zacute" unicode="&#x179;" horiz-adv-x="688" 
d="M489 915l-123 -154h-60l109 154h74zM617 700v-55l-459 -581h470v-64h-570v56l456 580h-438v64h541z" />
    <glyph glyph-name="zacute" unicode="&#x17a;" horiz-adv-x="539" 
d="M467 500v-48l-329 -397h341v-55h-433v48l329 397h-307v55h399zM419 715l-123 -154h-61l109 154h75z" />
    <glyph glyph-name="Zdotaccent" unicode="&#x17b;" horiz-adv-x="688" 
d="M343 814q-14 0 -23.5 9.5t-9.5 24.5q0 21 20.5 30t35.5 -7q16 -15 7 -36t-30 -21zM617 700v-55l-459 -581h470v-64h-570v56l456 580h-438v64h541z" />
    <glyph glyph-name="zdotaccent" unicode="&#x17c;" horiz-adv-x="539" 
d="M248 671q15 15 33.5 8.5t23 -23.5t-8.5 -33q-9 -9 -23.5 -9t-24.5 9q-9 10 -9 24.5t9 23.5zM467 500v-48l-329 -397h341v-55h-433v48l329 397h-307v55h399z" />
    <glyph glyph-name="Zcaron" unicode="&#x17d;" horiz-adv-x="688" 
d="M500 915l-121 -154h-72l-121 154h58l99 -117l98 117h59zM617 700v-55l-459 -581h470v-64h-570v56l456 580h-438v64h541z" />
    <glyph glyph-name="zcaron" unicode="&#x17e;" horiz-adv-x="539" 
d="M429 715l-121 -154h-72l-121 154h59l98 -117l99 117h58zM467 500v-48l-329 -397h341v-55h-433v48l329 397h-307v55h399z" />
    <glyph glyph-name="florin" unicode="&#x192;" horiz-adv-x="398" 
d="M284 710q40 0 85 -14l-10 -44q-31 11 -57 11q-53 0 -87 -35t-34 -93v-121h168v-53h-168v-394q0 -83 -69 -117q-34 -37 -85 -46v42q40 11 63 44.5t23 80.5v390h-86v53h86v123q0 80 47.5 126.5t123.5 46.5z" />
    <glyph glyph-name="Ohorn" unicode="&#x1a0;" horiz-adv-x="905" 
d="M835 736h66v-30q0 -59 -38 -106.5t-96 -62.5q54 -85 54 -187q0 -98 -49.5 -181t-134.5 -131q-84 -48 -184 -48q-99 0 -185 48q-85 48 -134.5 131t-49.5 181q-2 96 48.5 180t136.5 133t184 47q84 0 158.5 -36.5t125.5 -100.5q43 11 70.5 46t27.5 80v37zM453 642
q-121 2 -208.5 -85.5t-85.5 -206.5q0 -122 85 -207t208 -85t208 85q86 86 86 207q0 120 -86 206t-207 86z" />
    <glyph glyph-name="ohorn" unicode="&#x1a1;" horiz-adv-x="675" 
d="M610 547h66v-30q0 -48 -26 -90t-69 -64q27 -52 27 -113q0 -107 -80 -184q-79 -76 -192 -76t-192 76t-79 184t79 184t192 76q65 0 121.5 -29t92.5 -80q60 39 60 108v38zM480 393q-61 59 -145 59q-83 0 -144 -59q-60 -59 -60 -143t60 -143q61 -59 144 -59q84 0 145 59
q61 58 61 143t-61 143z" />
    <glyph glyph-name="Uhorn" unicode="&#x1af;" horiz-adv-x="835" 
d="M830 736h60v-30q0 -67 -44 -113t-120 -58v-225q0 -154 -83 -237t-222 -83t-222 83q-82 82 -82 237v390h72v-390q0 -121 62.5 -187.5t169.5 -66.5t170 66.5t63 187.5v390h72v-129q45 10 74.5 46t29.5 82v37z" />
    <glyph glyph-name="uhorn" unicode="&#x1b0;" horiz-adv-x="652" 
d="M651 547h54v-30q0 -63 -35 -106t-102 -59v-352h-67v77q-103 -87 -234 -87q-85 0 -135 50t-50 140v320h67v-303q0 -72 38 -112t104 -40q122 0 210 82v373h67v-112q37 15 60 48t23 73v38z" />
    <glyph glyph-name="Acaron" unicode="&#x1cd;" horiz-adv-x="804" 
d="M559 915l-121 -154h-72l-121 154h58l99 -117l99 117h58zM449 700l314 -700h-85l-83 185h-385l-83 -185h-86l314 700h94zM402 621l-172 -377h344z" />
    <glyph glyph-name="acaron" unicode="&#x1ce;" horiz-adv-x="607" 
d="M468 715l-120 -154h-73l-121 154h59l98 -117l99 117h58zM317 510q96 0 151.5 -47.5t55.5 -139.5v-323h-67v64q-94 -74 -224 -74q-77 0 -126 44t-49 117q0 71 51.5 109.5t144.5 38.5h203v18q0 69 -41.5 104.5t-114.5 35.5q-97 0 -182 -62l-22 44q101 71 220 71zM457 94
v175h-180q-73 0 -113 -29t-40 -83q0 -56 37.5 -90t97.5 -34q119 0 198 61z" />
    <glyph glyph-name="Icaron" unicode="&#x1cf;" horiz-adv-x="306" 
d="M312 915l-121 -154h-72l-121 154h58l99 -117l99 117h58zM189 700v-700h-72v700h72z" />
    <glyph glyph-name="icaron" unicode="&#x1d0;" horiz-adv-x="267" 
d="M296 715l-121 -154h-73l-121 154h59l99 -117l98 117h59zM172 500v-500h-67v500h67z" />
    <glyph glyph-name="Ocaron" unicode="&#x1d1;" horiz-adv-x="905" 
d="M610 915l-121 -154h-73l-121 154h59l98 -117l99 117h59zM268 662q85 48 185 48t184.5 -48t133.5 -131q50 -83 50 -181t-49.5 -181t-134.5 -131q-84 -48 -184 -48q-99 0 -185 48q-85 48 -135 131q-49 82 -49 181q0 98 49.5 181t134.5 131zM660 556q-86 86 -208 86
t-208 -86q-85 -85 -85 -206q0 -122 85 -207t208 -85t208 85q86 86 86 207q0 120 -86 206z" />
    <glyph glyph-name="ocaron" unicode="&#x1d2;" horiz-adv-x="675" 
d="M493 715l-121 -154h-72l-121 154h59l98 -117l99 117h58zM144 434q79 76 192 76t192 -76q80 -77 80 -184t-80 -184q-79 -76 -192 -76t-192 76t-79 184t79 184zM131 250q0 -83 60 -142.5t145 -59.5q83 0 144 59q61 58 61 143t-61 143q-61 59 -145 59q-83 0 -144 -59
q-60 -59 -60 -143z" />
    <glyph glyph-name="Ucaron" unicode="&#x1d3;" horiz-adv-x="835" 
d="M575 915l-121 -154h-72l-121 154h58l99 -117l99 117h58zM654 700h72v-390q0 -154 -83 -237t-221 -83q-140 0 -222.5 82.5t-82.5 237.5v390h72v-390q0 -121 62.5 -187.5t169.5 -66.5t170 66.5t63 187.5v390z" />
    <glyph glyph-name="ucaron" unicode="&#x1d4;" horiz-adv-x="652" 
d="M483 715l-121 -154h-73l-121 154h59l98 -117l99 117h59zM82 500h67v-303q0 -72 38.5 -112t103.5 -40q122 0 210 82v373h67v-500h-67v77q-103 -87 -234 -87q-85 0 -135 50t-50 140v320z" />
    <glyph glyph-name="Udieresismacron" unicode="&#x1d5;" horiz-adv-x="835" 
d="M560 1011v-44h-284v44h284zM290 847q23 23 46.5 -0.5t0.5 -46.5q-9 -9 -23 -9t-24 9q-9 10 -9 24t9 23zM498 847q15 15 33.5 8.5t23 -23t-8.5 -32.5q-9 -9 -23.5 -9t-24.5 9q-9 10 -9 24t9 23zM654 700h72v-390q0 -154 -83 -237t-222 -83t-222 83q-82 82 -82 237v390h72
v-390q0 -121 62.5 -187.5t169.5 -66.5t170 66.5t63 187.5v390z" />
    <glyph glyph-name="udieresismacron" unicode="&#x1d6;" horiz-adv-x="652" 
d="M468 794v-44h-285v44h285zM221 661q15 0 24.5 -9t9.5 -24q0 -22 -20.5 -30.5t-37.5 6.5q-14 16 -6 36.5t30 20.5zM406 651q23 23 46.5 -0.5t0.5 -46.5q-9 -9 -23 -9t-24 9q-9 10 -9 24t9 23zM82 500h67v-303q0 -72 38.5 -112t103.5 -40q122 0 210 82v373h67v-500h-67v77
q-103 -87 -234 -87q-85 0 -135 50t-50 140v320z" />
    <glyph glyph-name="Udieresisacute" unicode="&#x1d7;" horiz-adv-x="835" 
d="M564 1076l-123 -155h-60l109 155h74zM290 847q23 23 46.5 -0.5t0.5 -46.5q-9 -9 -23 -9t-24 9q-9 10 -9 24t9 23zM498 847q15 15 33.5 8.5t23 -23t-8.5 -32.5q-9 -9 -23.5 -9t-24.5 9q-9 10 -9 24t9 23zM654 700h72v-390q0 -154 -83 -237t-222 -83t-222 83
q-82 82 -82 237v390h72v-390q0 -122 63.5 -188t169.5 -66q107 0 169.5 66.5t62.5 187.5v390z" />
    <glyph glyph-name="udieresisacute" unicode="&#x1d8;" horiz-adv-x="652" 
d="M472 876l-123 -155h-60l108 155h75zM221 661q15 0 24.5 -9t9.5 -24q0 -22 -20.5 -30.5t-37.5 6.5q-14 16 -6 36.5t30 20.5zM406 651q23 23 46.5 -0.5t0.5 -46.5q-9 -9 -23 -9t-24 9q-9 10 -9 24t9 23zM82 500h67v-303q0 -72 38.5 -112t103.5 -40q122 0 210 82v373h67
v-500h-67v77q-103 -87 -234 -87q-85 0 -135 50t-50 140v320z" />
    <glyph glyph-name="Udieresiscaron" unicode="&#x1d9;" horiz-adv-x="835" 
d="M575 1076l-121 -155h-72l-121 155h58l99 -118l99 118h58zM314 791q-15 0 -24 9.5t-9 23.5q0 21 20.5 30t35.5 -7q16 -15 7 -35.5t-30 -20.5zM556 824q0 -14 -9.5 -23.5t-24.5 -9.5q-22 0 -30.5 20.5t6.5 35.5q16 16 37 7t21 -30zM654 700h72v-390q0 -154 -83 -237
t-221 -83q-140 0 -222.5 82.5t-82.5 237.5v390h72v-390q0 -121 62.5 -187.5t169.5 -66.5t170 66.5t63 187.5v390z" />
    <glyph glyph-name="udieresiscaron" unicode="&#x1da;" horiz-adv-x="652" 
d="M483 876l-121 -155h-73l-121 155h59l98 -118l99 118h59zM221 661q15 0 24.5 -9t9.5 -24q0 -22 -20.5 -30.5t-37.5 6.5q-14 16 -6 36.5t30 20.5zM406 651q23 23 46.5 -0.5t0.5 -46.5q-9 -9 -23 -9t-24 9q-9 10 -9 24t9 23zM82 500h67v-303q0 -72 38.5 -112t103.5 -40
q122 0 210 82v373h67v-500h-67v77q-103 -87 -234 -87q-85 0 -135 50t-50 140v320z" />
    <glyph glyph-name="Udieresisgrave" unicode="&#x1db;" horiz-adv-x="835" 
d="M345 1076l109 -155h-60l-123 155h74zM290 847q23 23 46.5 -0.5t0.5 -46.5q-9 -9 -23 -9t-24 9q-9 10 -9 24t9 23zM498 847q15 15 33.5 8.5t23 -23t-8.5 -32.5q-9 -9 -23.5 -9t-24.5 9q-9 10 -9 24t9 23zM654 700h72v-390q0 -154 -83 -237t-222 -83t-222 83
q-82 82 -82 237v390h72v-390q0 -122 63.5 -188t169.5 -66q107 0 169.5 66.5t62.5 187.5v390z" />
    <glyph glyph-name="udieresisgrave" unicode="&#x1dc;" horiz-adv-x="652" 
d="M253 876l108 -155h-60l-123 155h75zM221 595q-13 0 -23 9.5t-10 23.5q0 21 21 30t36 -7q16 -15 7.5 -35.5t-31.5 -20.5zM430 595q-15 0 -24 9.5t-9 23.5q0 21 20.5 30t35.5 -7q16 -15 7 -35.5t-30 -20.5zM82 500h67v-303q0 -72 38 -112t104 -40q122 0 210 82v373h67v-500
h-67v77q-103 -87 -234 -87q-85 0 -135 50t-50 140v320z" />
    <glyph glyph-name="Adieresismacron" unicode="&#x1de;" horiz-adv-x="804" 
d="M544 965v-44h-284v44h284zM274 847q23 23 46.5 -0.5t0.5 -46.5q-9 -9 -23 -9t-24 9q-9 10 -9 24t9 23zM540 824q0 -14 -9.5 -23.5t-24.5 -9.5q-22 0 -30.5 20.5t6.5 35.5q16 16 37 7t21 -30zM449 700l314 -700h-85l-83 185h-385l-83 -185h-86l314 700h94zM402 621
l-172 -377h344z" />
    <glyph glyph-name="adieresismacron" unicode="&#x1df;" horiz-adv-x="607" 
d="M453 794v-44h-284v44h284zM183 671q15 15 33 8.5t22.5 -23.5t-8.5 -33q-9 -9 -23 -9t-24 9q-9 10 -9 24.5t9 23.5zM391 671q15 15 33.5 8.5t23 -23.5t-8.5 -33q-9 -9 -23.5 -9t-24.5 9q-9 10 -9 24.5t9 23.5zM317 510q96 0 151.5 -47.5t55.5 -139.5v-323h-67v64
q-94 -74 -224 -74q-76 0 -126 44q-49 45 -49 117q0 71 51.5 109.5t144.5 38.5h203v18q0 69 -41.5 104.5t-114.5 35.5q-97 0 -182 -62l-22 44q101 71 220 71zM457 94v175h-180q-73 0 -113 -29t-40 -83q0 -56 37.5 -90t97.5 -34q119 0 198 61z" />
    <glyph glyph-name="Gcaron" unicode="&#x1e6;" horiz-adv-x="851" 
d="M584 915l-120 -154h-73l-121 154h59l98 -117l99 117h58zM457 710q145 0 254 -95l-47 -50q-88 79 -207 79q-121 2 -210.5 -85t-87.5 -209q0 -122 85 -207t209 -85q127 0 220 78v169h-216v53h286v-261q-121 -107 -290 -107q-98 -2 -184 47t-136.5 133t-48.5 180
q-2 100 50 184.5t138.5 131t184.5 44.5z" />
    <glyph glyph-name="gcaron" unicode="&#x1e7;" horiz-adv-x="676" 
d="M500 715l-120 -154h-73l-121 154h59l98 -117l99 117h58zM313 510q117 0 203 -80v70h67v-450q0 -123 -70.5 -189.5t-190.5 -66.5q-125 2 -230 72l22 44q91 -62 196 -64q95 0 150.5 53t55.5 151v52q-75 -102 -203 -102q-106 0 -176 73t-70 181t70 181q71 75 176 75z
M334 452q-83 0 -141 -58q-59 -59 -59 -141q0 -81 59 -140q58 -58 141 -58q57 0 106 29t76 78v213q-74 77 -182 77z" />
    <glyph glyph-name="Oslashacute" unicode="&#x1fe;" horiz-adv-x="905" 
d="M592 915l-123 -154h-60l108 154h75zM612 750h62l-41 -86q86 -47 137 -131t51 -183q2 -96 -48.5 -180t-136.5 -133t-183 -47q-67 0 -130 23l-30 -63h-62l41 86q-86 47 -137 131t-51 183q-2 96 48.5 180t136.5 133t184 47q66 0 129 -23zM159 350q0 -78 38.5 -145.5
t104.5 -105.5l251 526q-51 17 -100 17q-123 0 -209 -86q-85 -85 -85 -206zM453 58q122 0 207 85q86 86 86 207q0 78 -38.5 145.5t-104.5 105.5l-250 -526q49 -17 100 -17z" />
    <glyph glyph-name="oslashacute" unicode="&#x1ff;" horiz-adv-x="675" 
d="M472 715l-124 -154h-60l109 154h75zM456 550h47l-35 -73q64 -33 102 -94t38 -133q0 -107 -80 -184q-79 -76 -192 -76q-49 0 -93 16l-26 -56h-47l34 73q-64 34 -101.5 95t-37.5 132q0 108 79 184t192 76q49 0 93 -16zM131 250q0 -53 26.5 -99.5t72.5 -73.5l174 364
q-35 11 -68 11q-85 0 -145 -59.5t-60 -142.5zM336 48q83 0 144 59q61 58 61 143q0 53 -26.5 99.5t-72.5 73.5l-173 -364q33 -11 67 -11z" />
    <glyph glyph-name="Scommaaccent" unicode="&#x218;" horiz-adv-x="704" 
d="M345 710q158 0 273 -74l-32 -55q-116 67 -248 67q-75 0 -124 -31.5t-49 -94.5q0 -42 36 -68q38 -26 145 -54q151 -40 189 -58q83 -38 99 -111q4 -19 4 -46q0 -94 -76.5 -144.5t-194.5 -50.5q-85 0 -167 23t-142 64l33 54q58 -37 133.5 -58t149.5 -21q79 0 134 32
q54 32 54 93q0 41 -12 58q-14 26 -36 37q-30 17 -62 26l-39 12l-48 12q-5 2 -18.5 5t-20.5 6q-133 35 -185 72q-53 38 -53 109q0 97 72.5 146.5t184.5 49.5zM413 -106q0 -10 -5 -18l-79 -121l-20 10l50 99q-20 9 -20 30q-1 20 18 28.5t38 0t18 -28.5z" />
    <glyph glyph-name="scommaaccent" unicode="&#x219;" horiz-adv-x="530" 
d="M253 510q112 0 197 -53l-24 -42q-80 48 -173 48q-56 0 -89.5 -23t-33.5 -66q0 -30 25 -48q24 -17 99 -37l18 -5q18 -5 49 -14q18 -5 41 -13q27 -8 37 -15q40 -23 51 -43q17 -30 17 -69q0 -67 -56 -105q-56 -37 -142 -35q-132 0 -225 63l25 41q87 -57 199 -57
q61 -1 98.5 22t37.5 66q0 36 -20 58q-8 9 -29 17q-17 7 -36 13l-50 14l-30 8q-97 25 -132.5 52t-39.5 82q0 68 51 104.5t135 36.5zM317 -106q0 -10 -5 -18l-78 -121l-21 10l51 99q-21 9 -21 30q-1 20 18 28.5t38 0t18 -28.5z" />
    <glyph glyph-name="uni021A" unicode="&#x21a;" horiz-adv-x="642" 
d="M601 700v-62h-244v-638h-72v638h-244v62h560zM334 -73q15 0 26 -10t11 -23q0 -10 -5 -18l-78 -121l-21 10l51 99q-21 9 -21 30q0 14 11 23.5t26 9.5z" />
    <glyph glyph-name="uni021B" unicode="&#x21b;" horiz-adv-x="450" 
d="M187 648v-148h162v-52h-162v-274q0 -58 35 -93.5t87 -35.5q38 0 72 19l11 -47q-51 -27 -106 -27q-71 0 -119 47t-48 126v285h-92v52h92v148h68zM280 -106q0 -10 -6 -18l-78 -121l-20 10l50 99q-20 9 -20 30q-1 20 18 28.5t38 0t18 -28.5z" />
    <glyph glyph-name="uni0228" unicode="&#x228;" horiz-adv-x="703" 
d="M636 700v-65h-447v-250h412v-62h-412v-258h457v-65h-258l-25 -50q19 9 44 7q34 -3 56.5 -25.5t22.5 -55.5q0 -40 -31 -65t-78 -25q-55 0 -99 23l12 28q32 -17 76 -17q33 0 54 18t22 45q0 25 -17 40.5t-43 16.5q-32 0 -52 -19l-13 12l33 67h-233v700h519z" />
    <glyph glyph-name="uni0229" unicode="&#x229;" horiz-adv-x="637" 
d="M320 510q117 0 186 -75q70 -73 70 -185v-22h-446q5 -81 62 -134q58 -54 138 -54q100 0 170 69l37 -33q-81 -80 -193 -84q-8 -1 -24 -1l-21 -41q19 9 44 7q33 -3 56 -25.5t23 -55.5q0 -40 -31 -65t-78 -25q-55 0 -99 23l12 28q34 -17 77 -17q32 0 53.5 18t21.5 45
q0 25 -17 40.5t-43 16.5q-32 0 -51 -19l-14 12l30 60q-95 17 -156 88q-62 74 -62 169q0 107 74 184q75 76 181 76zM321 461q-78 0 -135 -58q-56 -59 -56 -140h382q0 85 -52 141.5t-139 56.5z" />
    <glyph glyph-name="uni022A" unicode="&#x22a;" horiz-adv-x="905" 
d="M595 992v-44h-285v44h285zM324 851q15 15 33.5 8.5t23 -23t-8.5 -32.5q-9 -9 -23.5 -9t-24.5 9q-9 10 -9 24t9 23zM533 851q23 23 46.5 -0.5t0.5 -46.5q-9 -9 -23 -9t-24 9q-9 10 -9 24t9 23zM268 662q85 48 185 48t184.5 -48t133.5 -131q50 -83 50 -181t-49.5 -181
t-134.5 -131q-84 -48 -184 -48q-99 0 -185 48q-85 48 -135 131q-49 82 -49 181q0 98 49.5 181t134.5 131zM660 556q-86 86 -208 86t-208 -86q-85 -85 -85 -206q0 -122 85 -207t208 -85t208 85q86 86 86 207q0 120 -86 206z" />
    <glyph glyph-name="uni022B" unicode="&#x22b;" horiz-adv-x="675" 
d="M478 794v-44h-284v44h284zM208 651q23 23 46.5 -0.5t0.5 -46.5q-9 -9 -23 -9t-24 9q-9 10 -9 24t9 23zM416 651q15 15 33.5 8.5t23 -23t-8.5 -32.5q-9 -9 -23.5 -9t-24.5 9q-9 10 -9 24t9 23zM144 434q79 76 192 76t192 -76q80 -77 80 -184t-80 -184q-79 -76 -192 -76
t-192 76t-79 184t79 184zM131 250q0 -83 60 -142.5t145 -59.5q83 0 144 59q61 58 61 143t-61 143q-61 59 -145 59q-83 0 -144 -59q-60 -59 -60 -143z" />
    <glyph glyph-name="circumflex" unicode="&#x2c6;" horiz-adv-x="374" 
d="M222 715l121 -154h-58l-99 117l-98 -117h-59l121 154h72z" />
    <glyph glyph-name="caron" unicode="&#x2c7;" horiz-adv-x="374" 
d="M344 715l-121 -154h-72l-121 154h59l98 -117l99 117h58z" />
    <glyph glyph-name="breve" unicode="&#x2d8;" horiz-adv-x="414" 
d="M322 711l48 -1q-4 -64 -49 -102.5t-114 -38.5t-114.5 39t-48.5 102l48 1q3 -45 34.5 -71.5t80.5 -26.5t80.5 26.5t34.5 71.5z" />
    <glyph glyph-name="dotaccent" unicode="&#x2d9;" horiz-adv-x="155" 
d="M78 614q-15 0 -24.5 9.5t-9.5 24.5q0 21 21 30t36 -7q16 -15 7 -36t-30 -21z" />
    <glyph glyph-name="ring" unicode="&#x2da;" horiz-adv-x="324" 
d="M162 760q48 0 83 -34t35 -81t-35 -82q-35 -33 -83 -33q-50 0 -84 33q-34 34 -34 82t34 81q34 34 84 34zM162 724q-33 0 -57 -23t-24 -56q0 -32 24 -55.5t57 -23.5q34 0 57 23t23 56t-23 56t-57 23z" />
    <glyph glyph-name="ogonek" unicode="&#x2db;" horiz-adv-x="279" 
d="M111 4h43l-25 -32q-32 -43 -29 -77q1 -27 21 -43.5t50 -17.5q33 -2 60 21l13 -33q-37 -27 -85 -27q-42 0 -70.5 21t-32.5 56q-9 46 33 105z" />
    <glyph glyph-name="tilde" unicode="&#x2dc;" horiz-adv-x="429" 
d="M128 706q31 0 80 -30q46 -30 75 -33q53 -5 70 60l31 -5q-4 -47 -29.5 -74.5t-62.5 -27.5q-33 0 -84 32l-8 4q-42 26 -64 27q-21 2 -38 -14t-21 -45l-32 4q3 48 25 75t58 27z" />
    <glyph glyph-name="hungarumlaut" unicode="&#x2dd;" horiz-adv-x="459" 
d="M228 715l-123 -154h-61l109 154h75zM415 715l-123 -154h-60l108 154h75z" />
    <glyph glyph-name="dotbelowcomb" unicode="&#x323;" horiz-adv-x="0" 
d="M53 -161q10 9 24.5 9t23.5 -9q10 -10 10 -24t-10 -23q-9 -10 -23.5 -10t-24.5 10q-9 9 -9 23t9 24z" />
    <glyph glyph-name="uni0326" unicode="&#x326;" horiz-adv-x="0" 
d="M131 -106q0 -10 -5 -18l-78 -121l-21 10l51 99q-21 9 -21 30q-1 20 18 28.5t38 0t18 -28.5z" />
    <glyph glyph-name="uni032D" unicode="&#x32d;" horiz-adv-x="0" 
d="M222 -64l121 -154h-58l-99 117l-98 -117h-59l121 154h72z" />
    <glyph glyph-name="uni0331" unicode="&#x331;" horiz-adv-x="0" 
d="M329 -127v-44h-285v44h285z" />
    <glyph glyph-name="increment" unicode="&#x394;" horiz-adv-x="600" 
 />
    <glyph glyph-name="Omega" unicode="&#x3a9;" horiz-adv-x="600" 
 />
    <glyph glyph-name="mu" unicode="&#x3bc;" horiz-adv-x="600" 
 />
    <glyph glyph-name="pi" unicode="&#x3c0;" horiz-adv-x="600" 
 />
    <glyph glyph-name="Bdotbelow" unicode="&#x1e04;" horiz-adv-x="762" 
d="M117 0v700h318q110 0 169.5 -44.5t59.5 -129.5q0 -62 -33 -102.5t-94 -56.5q82 -15 123 -63t41 -117q0 -80 -57 -133.5t-184 -53.5h-343zM189 640v-254h228q84 0 128 32.5t44 94.5q1 62 -43.5 94.5t-128.5 32.5h-228zM189 335v-275h256q91 0 136 37t45 100t-45 100.5
t-136 37.5h-256zM339 -161q10 9 24 9t23 -9q10 -10 10 -24t-10 -23q-9 -10 -23 -10t-24 10q-9 9 -9 23t9 24z" />
    <glyph glyph-name="bdotbelow" unicode="&#x1e05;" 
d="M91 700h68v-273q75 83 186 83q104 2 177.5 -75.5t71.5 -184.5q0 -108 -72 -185q-70 -75 -177 -75q-111 0 -186 83v-73h-68v700zM323 452q-49 0 -92.5 -22t-71.5 -60v-239q28 -39 71.5 -61t92.5 -22q83 0 144 59q61 58 61 143t-61 143q-61 59 -144 59zM300 -161
q10 9 24.5 9t23.5 -9q10 -10 10 -24t-10 -23q-9 -10 -23.5 -10t-24.5 10q-9 9 -9 23t9 24z" />
    <glyph glyph-name="Ddotbelow" unicode="&#x1e0c;" horiz-adv-x="838" 
d="M117 0v700h269q150 3 260.5 -101t107.5 -250q3 -144 -107.5 -248t-260.5 -101h-269zM383 635h-194v-570h194q125 0 210 82q87 83 87 203t-87 203q-85 82 -210 82zM353 -161q10 9 24.5 9t23.5 -9q10 -10 10 -24t-10 -23q-9 -10 -23.5 -10t-24.5 10q-9 9 -9 23t9 24z" />
    <glyph glyph-name="ddotbelow" unicode="&#x1e0d;" 
d="M500 700h67v-700h-67v73q-75 -83 -186 -83q-106 0 -178 75q-71 77 -71 185t71 184q72 76 178 76q111 0 186 -83v273zM336 452q-85 0 -145 -59.5t-60 -142.5q0 -84 60 -143q61 -59 145 -59q49 0 92.5 22t71.5 61v239q-28 38 -71.5 60t-92.5 22zM309 -161q10 9 24.5 9
t23.5 -9q10 -10 10 -24t-10 -23q-9 -10 -23.5 -10t-24.5 10q-9 9 -9 23t9 24z" />
    <glyph glyph-name="Dlinebelow" unicode="&#x1e0e;" horiz-adv-x="838" 
d="M117 0v700h269q150 3 260.5 -101t107.5 -250q3 -144 -107.5 -248t-260.5 -101h-269zM383 635h-194v-570h194q125 0 210 82q87 83 87 203t-87 203q-85 82 -210 82zM519 -127v-44h-284v44h284z" />
    <glyph glyph-name="dlinebelow" unicode="&#x1e0f;" 
d="M500 700h67v-700h-67v73q-75 -83 -186 -83q-106 0 -178 75q-71 77 -71 185t71 184q72 76 178 76q111 0 186 -83v273zM336 452q-85 0 -145 -59.5t-60 -142.5q0 -84 60 -143q61 -59 145 -59q49 0 92.5 22t71.5 61v239q-28 38 -71.5 60t-92.5 22zM476 -127v-44h-285v44h285z
" />
    <glyph glyph-name="Dcircumflexbelow" unicode="&#x1e12;" horiz-adv-x="838" 
d="M117 0v700h269q150 3 260.5 -101t107.5 -250q3 -144 -107.5 -248t-260.5 -101h-269zM383 635h-194v-570h194q125 0 210 82q87 83 87 203t-87 203q-85 82 -210 82zM414 -64l120 -154h-58l-99 117l-98 -117h-59l121 154h73z" />
    <glyph glyph-name="dcircumflexbelow" unicode="&#x1e13;" 
d="M500 700h67v-700h-67v73q-75 -83 -186 -83q-106 0 -178 75q-71 77 -71 185t71 184q72 76 178 76q111 0 186 -83v273zM336 452q-85 0 -145 -59.5t-60 -142.5q0 -84 60 -143q61 -59 145 -59q49 0 92.5 22t71.5 61v239q-28 38 -71.5 60t-92.5 22zM370 -64l121 -154h-59
l-98 117l-99 -117h-59l121 154h73z" />
    <glyph glyph-name="Hdotbelow" unicode="&#x1e24;" horiz-adv-x="843" 
d="M726 700v-700h-72v321h-465v-321h-72v700h72v-314h465v314h72zM402 -161q10 9 24 9t23 -9q10 -10 10 -24t-10 -23q-9 -10 -23 -10t-24 10q-9 9 -9 23t9 24z" />
    <glyph glyph-name="hdotbelow" unicode="&#x1e25;" horiz-adv-x="665" 
d="M96 700h68v-277q104 87 233 87q83 0 134.5 -49.5t51.5 -140.5v-320h-68v303q0 72 -37.5 112t-103.5 40q-122 0 -210 -82v-373h-68v700zM317 -161q10 9 24 9t23 -9q10 -10 10 -24t-10 -23q-9 -10 -23 -10t-24 10q-9 9 -9 23t9 24z" />
    <glyph glyph-name="Idieresisacute" unicode="&#x1e2e;" horiz-adv-x="306" 
d="M301 1076l-124 -155h-60l109 155h75zM26 847q23 23 46.5 -0.5t0.5 -46.5q-9 -9 -23 -9t-24 9q-9 10 -9 24t9 23zM259 857q14 0 23.5 -9.5t9.5 -23.5q0 -22 -21 -30.5t-37 6.5q-15 16 -6.5 36.5t31.5 20.5zM188 700v-700h-72v700h72z" />
    <glyph glyph-name="idieresisacute" unicode="&#x1e2f;" horiz-adv-x="267" 
d="M284 876l-123 -155h-60l109 155h74zM9 651q15 15 33.5 8.5t23 -23t-8.5 -32.5q-9 -9 -23.5 -9t-24.5 9q-9 10 -9 24t9 23zM242 595q-14 0 -23.5 9.5t-9.5 23.5q0 21 20.5 30t35.5 -7q16 -15 7 -35.5t-30 -20.5zM171 500v-500h-67v500h67z" />
    <glyph glyph-name="Ldotbelow" unicode="&#x1e36;" horiz-adv-x="628" 
d="M189 700v-635h398v-65h-470v700h72zM292 -161q10 9 24 9t23 -9q10 -10 10 -24t-10 -23q-9 -10 -23 -10t-24 10q-9 9 -9 23t9 24z" />
    <glyph glyph-name="ldotbelow" unicode="&#x1e37;" horiz-adv-x="248" 
d="M164 700v-700h-67v700h67zM107 -161q10 9 24 9t23 -9q10 -10 10 -24t-10 -23q-9 -10 -23 -10t-24 10q-9 9 -9 23t9 24z" />
    <glyph glyph-name="Lcircumflexbelow" unicode="&#x1e3c;" horiz-adv-x="628" 
d="M189 700v-635h398v-65h-470v700h72zM352 -64l121 -154h-58l-99 117l-99 -117h-58l121 154h72z" />
    <glyph glyph-name="lcircumflexbelow" unicode="&#x1e3d;" horiz-adv-x="248" 
d="M169 -64l121 -154h-58l-99 117l-98 -117h-59l121 154h72zM166 700v-700h-67v700h67z" />
    <glyph glyph-name="Macute" unicode="&#x1e3e;" horiz-adv-x="1040" 
d="M665 915l-124 -154h-60l109 154h75zM923 700v-700h-71v608l-318 -536h-32l-319 536v-608h-71v700h97l309 -517l308 517h97z" />
    <glyph glyph-name="macute" unicode="&#x1e3f;" horiz-adv-x="1022" 
d="M667 715l-124 -154h-60l109 154h75zM371 510q113 0 157 -89q104 89 230 89q83 0 132 -50t49 -140v-320h-67v303q0 71 -37 111.5t-101 40.5q-111 0 -196 -76q11 -39 11 -82v-297h-67v303q0 72 -37 112t-101 40q-96 0 -185 -77v-378h-68v500h68v-76q103 86 212 86z" />
    <glyph glyph-name="Ndotaccent" unicode="&#x1e44;" horiz-adv-x="826" 
d="M418 814q-14 0 -23.5 9.5t-9.5 24.5q0 21 20.5 30t35.5 -7q16 -15 7 -36t-30 -21zM717 700v-700h-80l-458 588v-588h-71v700h79l459 -588v588h71z" />
    <glyph glyph-name="ndotaccent" unicode="&#x1e45;" 
d="M306 671q15 15 33.5 8.5t23 -23.5t-8.5 -33q-9 -9 -23.5 -9t-24.5 9q-9 10 -9 24.5t9 23.5zM392 510q85 0 135.5 -50t50.5 -140v-320h-68v303q0 72 -37.5 112t-103.5 40q-122 0 -210 -82v-373h-68v500h68v-77q104 87 233 87z" />
    <glyph glyph-name="Ndotbelow" unicode="&#x1e46;" horiz-adv-x="826" 
d="M717 700v-700h-80l-458 588v-588h-71v700h79l459 -588v588h71zM418 -152q21 0 30 -20.5t-7 -35.5q-15 -16 -35.5 -7t-20.5 30q0 14 9.5 23.5t23.5 9.5z" />
    <glyph glyph-name="ndotbelow" unicode="&#x1e47;" 
d="M392 510q85 0 135.5 -50t50.5 -140v-320h-68v303q0 72 -37.5 112t-103.5 40q-122 0 -210 -82v-373h-68v500h68v-77q104 87 233 87zM306 -161q10 9 24.5 9t23.5 -9q10 -10 10 -24t-10 -23q-9 -10 -23.5 -10t-24.5 10q-9 9 -9 23t9 24z" />
    <glyph glyph-name="Ncircumflexbelow" unicode="&#x1e4a;" horiz-adv-x="826" 
d="M454 -64l121 -154h-58l-99 117l-98 -117h-59l121 154h72zM717 700v-700h-80l-458 588v-588h-71v700h79l459 -588v588h71z" />
    <glyph glyph-name="ncircumflexbelow" unicode="&#x1e4b;" 
d="M392 510q85 0 135.5 -50t50.5 -140v-320h-68v303q0 72 -37.5 112t-103.5 40q-122 0 -210 -82v-373h-68v500h68v-77q104 87 233 87zM367 -64l120 -154h-58l-99 117l-98 -117h-59l121 154h73z" />
    <glyph glyph-name="Otildeacute" unicode="&#x1e4c;" horiz-adv-x="905" 
d="M599 1066l-123 -154h-60l108 154h75zM366 872q32 0 80 -30q46 -30 75 -33q56 -5 70 60l32 -5q-4 -47 -29.5 -74.5t-62.5 -27.5q-36 0 -85 32l-2 2q-3 1 -5 2q-30 18 -38.5 22t-25.5 5q-22 1 -38 -14.5t-22 -44.5l-31 4q2 48 24 75t58 27zM453 710q100 0 184.5 -48
t133.5 -131q50 -83 50 -181t-50 -181q-49 -83 -133.5 -131t-184.5 -48q-98 -2 -184 47t-136.5 133t-48.5 180q0 149 108 254.5t261 105.5zM453 642q-123 0 -209 -86q-85 -85 -85 -206q0 -122 85 -207t208 -85t208 85q86 86 86 207q3 119 -85 206.5t-208 85.5z" />
    <glyph glyph-name="otildeacute" unicode="&#x1e4d;" horiz-adv-x="675" 
d="M483 869l-123 -155h-61l109 155h75zM250 684q32 0 80 -30q46 -30 75 -33q25 -2 43.5 13.5t26.5 46.5l31 -5q-4 -45 -29.5 -73.5t-61.5 -28.5q-34 0 -85 32l-7 5q-45 24 -58 26h-6q-49 2 -60 -59l-32 4q3 48 25.5 75t57.5 27zM144 434q79 76 192 76t192 -76
q80 -77 80 -184t-80 -184q-79 -76 -192 -76t-192 76t-79 184t79 184zM336 452q-84 0 -144.5 -59t-60.5 -143t60 -143q61 -59 144 -59q84 0 145 59q61 58 61 143t-61 143q-61 59 -144 59z" />
    <glyph glyph-name="Omacrongrave" unicode="&#x1e50;" horiz-adv-x="905" 
d="M380 1070l108 -155h-60l-123 155h75zM595 835v-44h-285v44h285zM268 662q85 48 185 48t184.5 -48t133.5 -131q50 -83 50 -181t-49.5 -181t-134.5 -131q-84 -48 -184 -48q-99 0 -185 48q-85 48 -135 131q-49 82 -49 181q0 98 49.5 181t134.5 131zM660 556q-86 86 -208 86
t-208 -86q-85 -85 -85 -206q0 -122 85 -207t208 -85t208 85q86 86 86 207q0 120 -86 206z" />
    <glyph glyph-name="omacrongrave" unicode="&#x1e51;" horiz-adv-x="675" 
d="M263 869l109 -155h-60l-123 155h74zM478 645v-44h-284v44h284zM144 434q79 76 192 76t192 -76q80 -77 80 -184t-80 -184q-79 -76 -192 -76t-192 76t-79 184t79 184zM131 250q0 -83 60 -142.5t145 -59.5q83 0 144 59q61 58 61 143t-61 143q-61 59 -145 59q-83 0 -144 -59
q-60 -59 -60 -143z" />
    <glyph glyph-name="Omacronacute" unicode="&#x1e52;" horiz-adv-x="905" 
d="M599 1070l-123 -155h-60l108 155h75zM595 835v-44h-285v44h285zM268 662q85 48 185 48t184.5 -48t133.5 -131q50 -83 50 -181t-49.5 -181t-134.5 -131q-84 -48 -184 -48q-99 0 -185 48q-85 48 -135 131q-49 82 -49 181q0 98 49.5 181t134.5 131zM660 556q-86 86 -208 86
t-208 -86q-85 -85 -85 -206q0 -122 85 -207t208 -85t208 85q86 86 86 207q0 120 -86 206z" />
    <glyph glyph-name="omacronacute" unicode="&#x1e53;" horiz-adv-x="675" 
d="M483 869l-123 -155h-61l109 155h75zM478 645v-44h-284v44h284zM144 434q79 76 192 76t192 -76q80 -77 80 -184t-80 -184q-79 -76 -192 -76t-192 76t-79 184t79 184zM131 250q0 -83 60 -142.5t145 -59.5q83 0 144 59q61 58 61 143t-61 143q-61 59 -145 59q-83 0 -144 -59
q-60 -59 -60 -143z" />
    <glyph glyph-name="Sdotbelow" unicode="&#x1e62;" horiz-adv-x="704" 
d="M345 710q158 0 273 -74l-32 -55q-116 67 -248 67q-75 0 -124 -31.5t-49 -94.5q0 -42 36 -68q38 -26 145 -54q151 -40 189 -58q83 -38 99 -111q4 -19 4 -46q0 -94 -76.5 -144.5t-194.5 -50.5q-85 0 -167 23t-142 64l33 54q58 -37 133.5 -58t149.5 -21q79 0 134 32
q54 32 54 93q0 41 -12 58q-14 26 -36 37q-30 17 -62 26l-39 12l-48 12q-5 2 -18.5 5t-20.5 6q-133 35 -185 72q-53 38 -53 109q0 97 72.5 146.5t184.5 49.5zM336 -161q10 9 24.5 9t23.5 -9q10 -10 10 -24t-10 -23q-9 -10 -23.5 -10t-24.5 10q-9 9 -9 23t9 24z" />
    <glyph glyph-name="sdotbelow" unicode="&#x1e63;" horiz-adv-x="530" 
d="M253 510q112 0 197 -53l-24 -42q-80 48 -173 48q-56 0 -89.5 -23t-33.5 -66q0 -30 25 -48q24 -17 99 -37l18 -5q18 -5 49 -14q18 -5 41 -13q27 -8 37 -15q40 -23 51 -43q17 -30 17 -69q0 -67 -56 -105q-56 -37 -142 -35q-132 0 -225 63l25 41q87 -57 199 -57
q61 -1 98.5 22t37.5 66q0 36 -20 58q-8 9 -29 17q-17 7 -36 13l-50 14l-30 8q-97 25 -132.5 52t-39.5 82q0 68 51 104.5t135 36.5zM241 -161q10 9 24.5 9t23.5 -9q10 -10 10 -24t-10 -23q-9 -10 -23.5 -10t-24.5 10q-9 9 -9 23t9 24z" />
    <glyph glyph-name="Tdotbelow" unicode="&#x1e6c;" horiz-adv-x="642" 
d="M601 700v-62h-244v-638h-72v638h-244v62h560zM295 -161q10 9 24 9t23 -9q10 -10 10 -24t-10 -23q-9 -10 -23 -10t-24 10q-9 9 -9 23t9 24z" />
    <glyph glyph-name="tdotbelow" unicode="&#x1e6d;" horiz-adv-x="450" 
d="M187 648v-148h162v-52h-162v-274q0 -58 35 -93.5t87 -35.5q38 0 72 19l11 -47q-51 -27 -106 -27q-71 0 -119 47t-48 126v285h-92v52h92v148h68zM228 -152q21 0 30 -20.5t-7 -35.5q-15 -16 -36 -7t-21 30q0 14 9.5 23.5t24.5 9.5z" />
    <glyph glyph-name="Tlinebelow" unicode="&#x1e6e;" horiz-adv-x="642" 
d="M601 700v-62h-244v-638h-72v638h-244v62h560zM461 -127v-44h-284v44h284z" />
    <glyph glyph-name="tlinebelow" unicode="&#x1e6f;" horiz-adv-x="450" 
d="M187 648v-148h162v-52h-162v-274q0 -58 35 -93.5t87 -35.5q38 0 72 19l11 -47q-51 -27 -106 -27q-71 0 -119 47t-48 126v285h-92v52h92v148h68zM370 -127v-44h-284v44h284z" />
    <glyph glyph-name="Tcircumflexbelow" unicode="&#x1e70;" horiz-adv-x="642" 
d="M601 700v-62h-244v-638h-72v638h-244v62h560zM355 -64l121 -154h-58l-99 117l-99 -117h-58l121 154h72z" />
    <glyph glyph-name="tcircumflexbelow" unicode="&#x1e71;" horiz-adv-x="450" 
d="M187 648v-148h162v-52h-162v-274q0 -58 35 -93.5t87 -35.5q38 0 72 19l11 -47q-51 -27 -106 -27q-71 0 -119 47t-48 126v285h-92v52h92v148h68zM264 -64l121 -154h-59l-98 117l-99 -117h-58l120 154h73z" />
    <glyph glyph-name="Wgrave" unicode="&#x1e80;" horiz-adv-x="1110" 
d="M482 915l109 -154h-60l-123 154h74zM1068 700l-240 -700h-78l-195 593l-195 -593h-79l-240 700h80l202 -593l194 593h76l193 -593l202 593h80z" />
    <glyph glyph-name="wgrave" unicode="&#x1e81;" horiz-adv-x="821" 
d="M337 715l109 -154h-60l-123 154h74zM797 500l-176 -500h-74l-136 405l-136 -405h-75l-176 500h68l148 -428l142 428h58l141 -428l149 428h67z" />
    <glyph glyph-name="Wacute" unicode="&#x1e82;" horiz-adv-x="1110" 
d="M1068 700l-240 -700h-78l-195 593l-195 -593h-79l-240 700h80l202 -593l194 593h76l193 -593l202 593h80zM702 915l-123 -154h-61l109 154h75z" />
    <glyph glyph-name="wacute" unicode="&#x1e83;" horiz-adv-x="821" 
d="M556 715l-123 -154h-60l109 154h74zM797 500l-176 -500h-74l-136 405l-136 -405h-75l-176 500h68l148 -428l142 428h58l141 -428l149 428h67z" />
    <glyph glyph-name="Wdieresis" unicode="&#x1e84;" horiz-adv-x="1110" 
d="M427 871q15 15 33 8.5t22.5 -23.5t-8.5 -33q-9 -9 -23 -9t-24 9q-9 10 -9 24.5t9 23.5zM635 871q15 15 33.5 8.5t23 -23.5t-8.5 -33q-9 -9 -23.5 -9t-24.5 9q-9 10 -9 24.5t9 23.5zM1068 700l-240 -700h-78l-195 593l-195 -593h-79l-240 700h80l202 -593l194 593h76
l193 -593l202 593h80z" />
    <glyph glyph-name="wdieresis" unicode="&#x1e85;" horiz-adv-x="821" 
d="M282 671q15 15 33 8.5t22.5 -23.5t-8.5 -33q-9 -9 -23 -9t-24 9q-9 10 -9 24.5t9 23.5zM490 671q15 15 33.5 8.5t23 -23.5t-8.5 -33q-9 -9 -23.5 -9t-24.5 9q-9 10 -9 24.5t9 23.5zM797 500l-176 -500h-74l-136 405l-136 -405h-75l-176 500h68l148 -428l142 428h58
l141 -428l149 428h67z" />
    <glyph glyph-name="Zdotbelow" unicode="&#x1e92;" horiz-adv-x="688" 
d="M617 700v-55l-459 -581h470v-64h-570v56l456 580h-438v64h541zM320 -161q10 9 24.5 9t23.5 -9q10 -10 10 -24t-10 -23q-9 -10 -23.5 -10t-24.5 10q-9 9 -9 23t9 24z" />
    <glyph glyph-name="zdotbelow" unicode="&#x1e93;" horiz-adv-x="539" 
d="M467 500v-48l-329 -397h341v-55h-433v48l329 397h-307v55h399zM249 -161q10 9 24 9t23 -9q10 -10 10 -24t-10 -23q-9 -10 -23 -10t-24 10q-9 9 -9 23t9 24z" />
    <glyph glyph-name="Adotbelow" unicode="&#x1ea0;" horiz-adv-x="804" 
d="M449 700l314 -700h-85l-83 185h-385l-83 -185h-86l314 700h94zM402 621l-172 -377h344zM377 -161q10 9 24 9t23 -9q10 -10 10 -24t-10 -23q-9 -10 -23 -10t-24 10q-9 9 -9 23t9 24z" />
    <glyph glyph-name="adotbelow" unicode="&#x1ea1;" horiz-adv-x="607" 
d="M317 510q96 0 151.5 -47.5t55.5 -139.5v-323h-67v64q-94 -74 -224 -74q-76 0 -126 44q-49 45 -49 117q0 71 51.5 109.5t144.5 38.5h203v18q0 69 -41.5 104.5t-114.5 35.5q-97 0 -182 -62l-22 44q101 71 220 71zM457 94v175h-180q-73 0 -113 -29t-40 -83q0 -56 37.5 -90
t97.5 -34q119 0 198 61zM288 -161q10 9 24 9t23 -9q10 -10 10 -24t-10 -23q-9 -10 -23 -10t-24 10q-9 9 -9 23t9 24z" />
    <glyph glyph-name="Ahookabove" unicode="&#x1ea2;" horiz-adv-x="804" 
d="M405 1008q52 0 83.5 -24t31.5 -65t-51 -77l-12 -10q-12 -9 -20 -17q-17 -14 -17 -41h-41q0 23 4 35q6 18 21 30q2 2 37 30q32 24 32 47q0 25 -19.5 39t-52.5 14t-54.5 -15t-24.5 -41l-43 5q6 41 40.5 65.5t85.5 24.5zM449 700l314 -700h-85l-83 185h-385l-83 -185h-86
l314 700h94zM402 621l-172 -377h344z" />
    <glyph glyph-name="ahookabove" unicode="&#x1ea3;" horiz-adv-x="607" 
d="M319 794q52 0 83.5 -23.5t31.5 -65.5q0 -41 -51 -77l-12 -10q-7 -5 -20 -16q-17 -14 -17 -41h-41q0 22 4 34q5 15 20 30l19 16l19 15q32 24 32 47q0 24 -19.5 38t-52.5 14t-54.5 -15t-24.5 -41l-43 5q6 42 40 66t86 24zM317 510q96 0 151.5 -47.5t55.5 -139.5v-323h-67
v64q-94 -74 -224 -74q-76 0 -126 44q-49 45 -49 117q0 71 51.5 109.5t144.5 38.5h203v18q0 69 -41.5 104.5t-114.5 35.5q-97 0 -182 -62l-22 44q101 71 220 71zM457 94v175h-180q-73 0 -113 -29t-40 -83q0 -56 37.5 -90t97.5 -34q119 0 198 61z" />
    <glyph glyph-name="Acircumflexacute" unicode="&#x1ea4;" horiz-adv-x="804" 
d="M758 962l-123 -155h-60l108 155h75zM438 915l121 -154h-58l-99 117l-98 -117h-59l121 154h72zM449 700l314 -700h-85l-83 185h-385l-83 -185h-86l314 700h94zM402 621l-172 -377h344z" />
    <glyph glyph-name="acircumflexacute" unicode="&#x1ea5;" horiz-adv-x="607" 
d="M667 762l-123 -155h-60l109 155h74zM348 715l121 -154h-59l-99 117l-98 -117h-59l121 154h73zM317 510q96 0 151.5 -47.5t55.5 -139.5v-323h-67v64q-94 -74 -224 -74q-76 0 -126 44q-49 45 -49 117q0 71 51.5 109.5t144.5 38.5h203v18q0 69 -41.5 104.5t-114.5 35.5
q-97 0 -182 -62l-22 44q101 71 220 71zM457 94v175h-180q-73 0 -113 -29t-40 -83q0 -56 37.5 -90t97.5 -34q119 0 198 61z" />
    <glyph glyph-name="Acircumflexgrave" unicode="&#x1ea6;" horiz-adv-x="804" 
d="M557 962l109 -155h-60l-124 155h75zM438 915l121 -154h-58l-99 117l-98 -117h-59l121 154h72zM449 700l314 -700h-85l-83 185h-385l-83 -185h-86l314 700h94zM402 621l-172 -377h344z" />
    <glyph glyph-name="acircumflexgrave" unicode="&#x1ea7;" horiz-adv-x="607" 
d="M466 762l109 -155h-60l-123 155h74zM348 715l121 -154h-59l-99 117l-98 -117h-59l121 154h73zM317 510q96 0 151.5 -47.5t55.5 -139.5v-323h-67v64q-94 -74 -224 -74q-76 0 -126 44q-49 45 -49 117q0 71 51.5 109.5t144.5 38.5h203v18q0 69 -41.5 104.5t-114.5 35.5
q-97 0 -182 -62l-22 44q101 71 220 71zM457 94v175h-180q-73 0 -113 -29t-40 -83q0 -56 37.5 -90t97.5 -34q119 0 198 61z" />
    <glyph glyph-name="Acircumflexhookabove" unicode="&#x1ea8;" horiz-adv-x="804" 
d="M628 1041q52 0 83.5 -24t31.5 -65q0 -25 -12 -41.5t-39 -36.5l-12 -9q-12 -9 -20 -17q-17 -14 -17 -41h-41q0 22 4 34q2 9 9 18t12 13.5t18.5 15t18.5 14.5q13 10 18.5 15.5t9.5 13.5t4 18q0 25 -19.5 39t-52.5 14t-54.5 -15t-24.5 -41l-43 4q6 42 40.5 66.5t85.5 24.5z
M438 915l121 -154h-58l-99 117l-98 -117h-59l121 154h72zM449 700l314 -700h-85l-83 185h-385l-83 -185h-86l314 700h94zM402 621l-172 -377h344z" />
    <glyph glyph-name="acircumflexhookabove" unicode="&#x1ea9;" horiz-adv-x="607" 
d="M538 841q52 0 83.5 -24t31.5 -65q0 -23 -11.5 -40t-39.5 -38q-27 -18 -38 -31.5t-11 -35.5h-41q0 22 4 34q4 14 21 31q2 2 37 30q32 24 32 47q0 25 -19.5 39t-52.5 14t-54.5 -15t-24.5 -41l-43 4q6 42 40 66.5t86 24.5zM349 715l120 -154h-58l-99 117l-98 -117h-59
l121 154h73zM317 510q96 0 151.5 -47.5t55.5 -139.5v-323h-67v64q-94 -74 -224 -74q-76 0 -126 44q-49 45 -49 117q0 71 51.5 109.5t144.5 38.5h203v18q0 69 -41.5 104.5t-114.5 35.5q-97 0 -182 -62l-22 44q101 71 220 71zM457 94v175h-180q-73 0 -113 -29t-40 -83
q0 -56 37.5 -90t97.5 -34q119 0 198 61z" />
    <glyph glyph-name="Acircumflextilde" unicode="&#x1eaa;" horiz-adv-x="804" 
d="M316 1052q35 0 79 -30q47 -30 76 -32q52 -6 70 59l31 -5q-4 -45 -29.5 -73t-62.5 -28q-35 0 -84 32l-8 4q-25 15 -37 20q-13 6 -27 6q-22 2 -38 -13.5t-22 -45.5l-31 4q3 48 25 75t58 27zM438 915l121 -154h-58l-99 117l-98 -117h-59l121 154h72zM449 700l314 -700h-85
l-83 185h-385l-83 -185h-86l314 700h94zM402 621l-172 -377h344z" />
    <glyph glyph-name="acircumflextilde" unicode="&#x1eab;" horiz-adv-x="607" 
d="M225 846q32 1 80 -30q47 -31 75 -32q25 -3 44 13t26 46l31 -5q-4 -45 -29.5 -73t-61.5 -28t-85 32l-7 4q-5 3 -13 7t-11 6t-8 4.5t-7.5 3.5t-6 2.5t-6 1.5t-5.5 0.5t-7 0.5q-22 2 -38.5 -13.5t-21.5 -45.5l-31 4q2 48 24 75t58 27zM348 715l121 -154h-59l-99 117
l-98 -117h-59l121 154h73zM317 510q96 0 151.5 -47.5t55.5 -139.5v-323h-67v64q-94 -74 -224 -74q-76 0 -126 44q-49 45 -49 117q0 71 51.5 109.5t144.5 38.5h203v18q0 69 -41.5 104.5t-114.5 35.5q-97 0 -182 -62l-22 44q101 71 220 71zM457 94v175h-180q-73 0 -113 -29
t-40 -83q0 -56 37.5 -90t97.5 -34q119 0 198 61z" />
    <glyph glyph-name="Acircumflexdotbelow" unicode="&#x1eac;" horiz-adv-x="804" 
d="M438 915l121 -154h-58l-99 117l-98 -117h-59l121 154h72zM449 700l314 -700h-85l-83 185h-385l-83 -185h-86l314 700h94zM402 621l-172 -377h344zM144 -161q10 9 24.5 9t23.5 -9q10 -10 10 -24t-10 -23q-9 -10 -23.5 -10t-24.5 10q-9 9 -9 23t9 24z" />
    <glyph glyph-name="acircumflexdotbelow" unicode="&#x1ead;" horiz-adv-x="607" 
d="M348 715l121 -154h-59l-99 117l-98 -117h-59l121 154h73zM317 510q96 0 151.5 -47.5t55.5 -139.5v-323h-67v64q-94 -74 -224 -74q-77 0 -126 44t-49 117q0 71 51.5 109.5t144.5 38.5h203v18q0 70 -42 105t-114 35q-97 0 -182 -62l-22 44q101 71 220 71zM457 94v175h-180
q-73 0 -113 -29t-40 -83q0 -56 37.5 -90t97.5 -34q119 0 198 61zM288 -161q10 9 24 9t23 -9q10 -10 10 -24t-10 -23q-9 -10 -23 -10t-24 10q-9 9 -9 23t9 24z" />
    <glyph glyph-name="Abreveacute" unicode="&#x1eae;" horiz-adv-x="804" 
d="M548 1078l-123 -155h-60l109 155h74zM518 913l48 -1q-3 -63 -48.5 -102t-114.5 -39t-114 38.5t-49 102.5l49 1q2 -45 33.5 -71.5t80.5 -26.5q50 0 81 26t34 72zM449 700l314 -700h-85l-83 185h-385l-83 -185h-86l314 700h94zM402 621l-172 -377h344z" />
    <glyph glyph-name="abreveacute" unicode="&#x1eaf;" horiz-adv-x="607" 
d="M458 876l-123 -155h-61l109 155h75zM427 713l48 -1q-3 -64 -48 -102.5t-115 -38.5q-69 0 -114 39t-48 102l48 1q3 -45 34 -71.5t80 -26.5q50 0 81 26t34 72zM317 510q96 0 151.5 -47.5t55.5 -139.5v-323h-67v64q-94 -74 -224 -74q-76 0 -126 44q-49 45 -49 117
q0 71 51.5 109.5t144.5 38.5h203v18q0 69 -41.5 104.5t-114.5 35.5q-97 0 -182 -62l-22 44q101 71 220 71zM457 94v175h-180q-73 0 -113 -29t-40 -83q0 -56 37.5 -90t97.5 -34q119 0 198 61z" />
    <glyph glyph-name="Abrevegrave" unicode="&#x1eb0;" horiz-adv-x="804" 
d="M329 1078l109 -155h-60l-123 155h74zM518 913l48 -1q-3 -63 -48.5 -102t-114.5 -39t-114 38.5t-49 102.5l49 1q2 -45 33.5 -71.5t80.5 -26.5q50 0 81 26t34 72zM449 700l314 -700h-85l-83 185h-385l-83 -185h-86l314 700h94zM402 621l-172 -377h344z" />
    <glyph glyph-name="abrevegrave" unicode="&#x1eb1;" horiz-adv-x="607" 
d="M238 876l109 -155h-60l-123 155h74zM427 713l48 -1q-3 -64 -48 -102.5t-115 -38.5q-69 0 -114 39t-48 102l48 1q3 -45 34 -71.5t80 -26.5q50 0 81 26t34 72zM317 510q96 0 151.5 -47.5t55.5 -139.5v-323h-67v64q-94 -74 -224 -74q-76 0 -126 44q-49 45 -49 117
q0 71 51.5 109.5t144.5 38.5h203v18q0 69 -41.5 104.5t-114.5 35.5q-97 0 -182 -62l-22 44q101 71 220 71zM457 94v175h-180q-73 0 -113 -29t-40 -83q0 -56 37.5 -90t97.5 -34q119 0 198 61z" />
    <glyph glyph-name="Abrevehookabove" unicode="&#x1eb2;" horiz-adv-x="804" 
d="M405 1130q52 0 83.5 -24t31.5 -65q0 -25 -12 -41.5t-39 -36.5l-12 -9q-12 -9 -20 -17q-17 -14 -17 -41h-41q0 22 4 34q6 17 16 27q21 18 42 34q32 24 32 47q0 25 -19.5 39t-52.5 14t-54.5 -15t-24.5 -41l-43 4q6 42 40 66.5t86 24.5zM518 913l48 -1q-3 -63 -48.5 -102
t-114.5 -39t-114 38.5t-49 102.5l49 1q2 -45 33.5 -71.5t80.5 -26.5q50 0 81 26t34 72zM449 700l314 -700h-85l-83 185h-385l-83 -185h-86l314 700h94zM402 621l-172 -377h344z" />
    <glyph glyph-name="abrevehookabove" unicode="&#x1eb3;" horiz-adv-x="607" 
d="M314 930q52 0 84 -24t32 -65q0 -22 -12 -39t-39 -39q-4 -1 -13 -9q-17 -13 -20 -17q-16 -16 -16 -41h-42q0 19 5 34q5 16 20 31q2 2 10.5 8.5t17.5 13.5t10 8q32 24 32 47q0 25 -19.5 39t-53.5 14q-33 0 -54 -15t-25 -41l-43 4q6 42 40 66.5t86 24.5zM427 713l48 -1
q-3 -64 -48 -102.5t-115 -38.5q-69 0 -114.5 38.5t-47.5 102.5l48 1q3 -45 34 -71.5t80 -26.5t80.5 26t34.5 72zM317 510q96 0 151.5 -47.5t55.5 -139.5v-323h-67v64q-94 -74 -224 -74q-77 0 -126 44t-49 117q0 71 51.5 109.5t144.5 38.5h203v18q0 69 -41.5 104.5
t-114.5 35.5q-97 0 -182 -62l-22 44q101 71 220 71zM457 94v175h-180q-73 0 -113 -29t-40 -83q0 -56 37.5 -90t97.5 -34q119 0 198 61z" />
    <glyph glyph-name="Abrevetilde" unicode="&#x1eb4;" horiz-adv-x="804" 
d="M316 1038q32 0 79 -30q48 -30 76 -33q53 -5 70 60l31 -5q-4 -46 -29.5 -74t-62.5 -28q-33 0 -84 32l-8 5q-44 25 -64 26q-22 1 -38 -14.5t-22 -44.5l-31 4q3 48 25.5 75t57.5 27zM518 913l48 -1q-3 -63 -48.5 -102t-114.5 -39t-114 38.5t-49 102.5l49 1q2 -45 33.5 -71.5
t80.5 -26.5q50 0 81 26t34 72zM449 700l314 -700h-85l-83 185h-385l-83 -185h-86l314 700h94zM402 621l-172 -377h344z" />
    <glyph glyph-name="abrevetilde" unicode="&#x1eb5;" horiz-adv-x="607" 
d="M225 843q32 0 80 -30q47 -30 75 -33q26 -2 44.5 13.5t25.5 46.5l31 -5q-4 -47 -29 -74.5t-62 -27.5q-36 0 -85 32l-3 1q-2 2 -4 3q-44 26 -64 27q-22 1 -38.5 -14.5t-21.5 -44.5l-31 4q1 47 24 74.5t58 27.5zM427 713l48 -1q-3 -64 -48 -102.5t-115 -38.5q-69 0 -114 39
t-48 102l48 1q2 -46 33.5 -72t80.5 -26q50 0 81 26t34 72zM317 510q96 0 151.5 -47.5t55.5 -139.5v-323h-67v64q-94 -74 -224 -74q-76 0 -126 44q-49 45 -49 117q0 71 51.5 109.5t144.5 38.5h203v18q0 69 -41.5 104.5t-114.5 35.5q-97 0 -182 -62l-22 44q101 71 220 71z
M457 94v175h-180q-73 0 -113 -29t-40 -83q0 -56 37.5 -90t97.5 -34q119 0 198 61z" />
    <glyph glyph-name="Abrevedotbelow" unicode="&#x1eb6;" horiz-adv-x="804" 
d="M518 913l48 -1q-3 -63 -48.5 -102t-114.5 -39t-114 38.5t-49 102.5l49 1q2 -45 33.5 -71.5t80.5 -26.5q50 0 81 26t34 72zM449 700l314 -700h-85l-83 185h-385l-83 -185h-86l314 700h94zM402 621l-172 -377h344zM377 -161q10 9 24 9t23 -9q10 -10 10 -24t-10 -23
q-9 -10 -23 -10t-24 10q-9 9 -9 23t9 24z" />
    <glyph glyph-name="abrevedotbelow" unicode="&#x1eb7;" horiz-adv-x="607" 
d="M427 713l48 -1q-3 -64 -48 -102.5t-115 -38.5q-68 0 -113.5 38.5t-48.5 102.5l48 1q3 -45 34 -71.5t80 -26.5t80.5 26t34.5 72zM317 510q96 0 151.5 -47.5t55.5 -139.5v-323h-67v64q-94 -74 -224 -74q-76 0 -126 44q-49 45 -49 117q0 71 51.5 109.5t144.5 38.5h203v18
q0 69 -41.5 104.5t-114.5 35.5q-97 0 -182 -62l-22 44q101 71 220 71zM457 94v175h-180q-73 0 -113 -29t-40 -83q0 -56 37.5 -90t97.5 -34q119 0 198 61zM288 -161q10 9 24 9t23 -9q10 -10 10 -24t-10 -23q-9 -10 -23 -10t-24 10q-9 9 -9 23t9 24z" />
    <glyph glyph-name="Edotbelow" unicode="&#x1eb8;" horiz-adv-x="703" 
d="M636 700v-65h-447v-250h412v-62h-412v-258h457v-65h-529v700h519zM358 -161q10 9 24 9t23 -9q10 -10 10 -24t-10 -23q-9 -10 -23 -10t-24 10q-9 9 -9 23t9 24z" />
    <glyph glyph-name="edotbelow" unicode="&#x1eb9;" horiz-adv-x="637" 
d="M320 510q115 1 186.5 -74.5t69.5 -185.5v-22h-446q5 -81 62 -134q58 -54 138 -54q100 0 170 69l37 -33q-89 -86 -212 -86q-108 0 -184 76t-76 184q0 107 74 184q75 76 181 76zM321 461q-78 0 -135 -58q-56 -59 -56 -140h382q0 85 -52 141.5t-139 56.5zM294 -161
q10 9 24 9t23 -9q10 -10 10 -24t-10 -23q-9 -10 -23 -10t-24 10q-9 9 -9 23t9 24z" />
    <glyph glyph-name="Ehookabove" unicode="&#x1eba;" horiz-adv-x="703" 
d="M378 1008q52 0 84 -24t32 -65q0 -23 -12 -40t-39 -37l-13 -10q-11 -9 -19 -17q-17 -13 -17 -41h-42q0 20 5 35q6 19 20 30q2 2 10.5 8.5t17.5 13.5t10 8q32 24 32 47q0 25 -19.5 39t-53.5 14q-33 0 -54 -15t-25 -41l-43 5q6 42 40.5 66t85.5 24zM636 700v-65h-447v-250
h412v-62h-412v-258h457v-65h-529v700h519z" />
    <glyph glyph-name="ehookabove" unicode="&#x1ebb;" horiz-adv-x="637" 
d="M325 794q52 0 84 -24t32 -65t-51 -77q-21 -16 -28 -22t-14 -18t-7 -27h-41q-1 18 4 34q6 19 20 30l19 16l19 15q32 24 32 47q0 24 -19.5 38t-52.5 14t-54.5 -15t-25.5 -41l-43 5q7 42 41 66t85 24zM320 510q115 1 186.5 -74.5t69.5 -185.5v-22h-446q5 -81 62 -134
q58 -54 138 -54q100 0 170 69l37 -33q-89 -86 -212 -86q-108 0 -184 76t-76 184q0 107 74 184q75 76 181 76zM321 461q-78 0 -135 -58q-56 -59 -56 -140h382q0 85 -52 141.5t-139 56.5z" />
    <glyph glyph-name="Etilde" unicode="&#x1ebc;" horiz-adv-x="703" 
d="M286 906q33 0 80 -30q48 -30 76 -33q53 -5 70 60l31 -5q-4 -47 -29.5 -74.5t-62.5 -27.5q-33 0 -85 32q-2 2 -7 4q-42 26 -64 27q-21 2 -37.5 -14t-22.5 -45l-31 4q3 48 25 75t57 27zM636 700v-65h-447v-250h412v-62h-412v-258h457v-65h-529v700h519z" />
    <glyph glyph-name="etilde" unicode="&#x1ebd;" horiz-adv-x="637" 
d="M232 706q32 0 80 -30q46 -30 75 -33q56 -5 70 60l32 -5q-4 -47 -29.5 -74.5t-62.5 -27.5q-36 0 -85 32l-2 2q-3 1 -5 2q-42 26 -64 27t-38 -14.5t-22 -44.5l-31 4q2 48 24 75t58 27zM320 510q117 0 186 -75q70 -73 70 -185v-22h-446q4 -80 62.5 -134t137.5 -54
q100 0 170 69l37 -33q-89 -86 -212 -86q-108 0 -184 76t-76 184q0 107 74 184q75 76 181 76zM321 461q-78 0 -134.5 -58.5t-56.5 -139.5h382q0 85 -51.5 141.5t-139.5 56.5z" />
    <glyph glyph-name="Ecircumflexacute" unicode="&#x1ebe;" horiz-adv-x="703" 
d="M729 962l-123 -155h-60l109 155h74zM410 915l121 -154h-59l-98 117l-99 -117h-59l121 154h73zM636 700v-65h-447v-250h412v-62h-412v-258h457v-65h-529v700h519z" />
    <glyph glyph-name="ecircumflexacute" unicode="&#x1ebf;" horiz-adv-x="637" 
d="M674 762l-123 -155h-60l109 155h74zM355 715l121 -154h-59l-98 117l-99 -117h-59l121 154h73zM320 510q117 0 186 -75q70 -73 70 -185v-22h-446q5 -81 62 -134q58 -54 138 -54q100 0 170 69l37 -33q-89 -86 -212 -86q-108 0 -184 76t-76 184q0 107 74 184q75 76 181 76z
M321 461q-78 0 -135 -58q-56 -59 -56 -140h382q0 86 -52 141q-51 57 -139 57z" />
    <glyph glyph-name="Ecircumflexgrave" unicode="&#x1ec0;" horiz-adv-x="703" 
d="M528 962l109 -155h-60l-123 155h74zM410 915l121 -154h-59l-99 117l-98 -117h-59l121 154h73zM636 700v-65h-447v-250h412v-62h-412v-258h457v-65h-529v700h519z" />
    <glyph glyph-name="ecircumflexgrave" unicode="&#x1ec1;" horiz-adv-x="637" 
d="M473 762l109 -155h-60l-123 155h74zM355 715l121 -154h-59l-98 117l-99 -117h-59l121 154h73zM320 510q117 0 186 -75q70 -73 70 -185v-22h-446q5 -81 62 -134q58 -54 138 -54q100 0 170 69l37 -33q-89 -86 -212 -86q-108 0 -184 76t-76 184q0 107 74 184q75 76 181 76z
M321 461q-78 0 -135 -58q-56 -59 -56 -140h382q0 85 -52 141.5t-139 56.5z" />
    <glyph glyph-name="Ecircumflexhookabove" unicode="&#x1ec2;" horiz-adv-x="703" 
d="M607 1041q52 0 83.5 -24t31.5 -65q0 -23 -11.5 -40t-39.5 -38l-12 -9q-12 -9 -20 -17q-17 -14 -17 -41h-41q0 22 4 34q3 10 20 31q2 2 10.5 8.5t17.5 13.5t10 8q32 24 32 47q0 25 -19.5 39t-52.5 14t-54.5 -15t-24.5 -41l-43 4q6 42 40.5 66.5t85.5 24.5zM417 915
l121 -154h-58l-99 117l-98 -117h-59l121 154h72zM636 700v-65h-447v-250h412v-62h-412v-258h457v-65h-529v700h519z" />
    <glyph glyph-name="ecircumflexhookabove" unicode="&#x1ec3;" horiz-adv-x="637" 
d="M544 841q51 0 83.5 -24t32.5 -65q0 -22 -12 -39t-39 -39q-36 -27 -43 -39q-6 -13 -6 -28h-42q0 19 5 34q5 16 20 31q2 2 10.5 8.5t17.5 13.5t10 8q32 24 32 47q0 25 -20 39t-53 14t-54 -15t-25 -41l-43 4q6 42 40 66.5t86 24.5zM355 715l121 -154h-59l-98 117l-99 -117
h-59l121 154h73zM320 510q117 0 186 -75q70 -73 70 -185v-22h-446q4 -80 62.5 -134t137.5 -54q100 0 170 69l37 -33q-89 -86 -212 -86q-108 0 -184 76t-76 184q0 107 74 184q75 76 181 76zM321 461q-78 0 -135 -58q-56 -59 -56 -140h382q0 85 -52 141.5t-139 56.5z" />
    <glyph glyph-name="Ecircumflextilde" unicode="&#x1ec4;" horiz-adv-x="703" 
d="M286 1052q31 0 80 -31t76 -32q52 -6 70 59l31 -4q-4 -47 -29 -74.5t-63 -27.5q-33 0 -85 32l-7 4q-28 17 -38.5 21.5t-25.5 4.5q-22 2 -38 -13.5t-22 -45.5l-31 4q3 48 25 75t57 28zM409 915l121 -154h-58l-99 117l-98 -117h-59l121 154h72zM636 700v-65h-447v-250h412
v-62h-412v-258h457v-65h-529v700h519z" />
    <glyph glyph-name="ecircumflextilde" unicode="&#x1ec5;" horiz-adv-x="637" 
d="M232 848q32 0 80 -30q46 -32 75 -33q26 -3 44.5 12.5t25.5 46.5l32 -4q-4 -47 -29.5 -74.5t-62.5 -27.5q-36 0 -85 32l-7 4q-42 26 -64 26q-22 2 -38 -13.5t-22 -45.5l-31 4q2 48 24 75t58 28zM355 715l121 -154h-59l-98 117l-99 -117h-59l121 154h73zM320 510
q115 1 186.5 -74.5t69.5 -185.5v-22h-446q5 -81 62 -134q58 -54 138 -54q100 0 170 69l37 -33q-89 -86 -212 -86q-108 0 -184 76t-76 184q0 107 74 184q75 76 181 76zM321 461q-78 0 -135 -58q-56 -59 -56 -140h382q0 85 -51.5 141.5t-139.5 56.5z" />
    <glyph glyph-name="Ecircumflexdotbelow" unicode="&#x1ec6;" horiz-adv-x="703" 
d="M636 700v-65h-447v-250h412v-62h-412v-258h457v-65h-529v700h519zM358 -161q10 9 24 9t23 -9q10 -10 10 -24t-10 -23q-9 -10 -23 -10t-24 10q-9 9 -9 23t9 24zM409 915l121 -154h-58l-99 117l-98 -117h-59l121 154h72z" />
    <glyph glyph-name="ecircumflexdotbelow" unicode="&#x1ec7;" horiz-adv-x="637" 
d="M355 715l121 -154h-59l-98 117l-99 -117h-59l121 154h73zM320 510q115 1 186.5 -74.5t69.5 -185.5v-22h-446q5 -81 62 -134q58 -54 138 -54q100 0 170 69l37 -33q-89 -86 -212 -86q-108 0 -184 76t-76 184q0 107 74 184q75 76 181 76zM321 461q-78 0 -135 -58
q-56 -59 -56 -140h382q0 85 -51.5 141.5t-139.5 56.5zM294 -161q10 9 24 9t23 -9q10 -10 10 -24t-10 -23q-9 -10 -23 -10t-24 10q-9 9 -9 23t9 24z" />
    <glyph glyph-name="Ihookabove" unicode="&#x1ec8;" horiz-adv-x="306" 
d="M157 1008q53 0 84.5 -24t31.5 -65t-51 -77l-13 -10q-11 -9 -19 -17q-17 -14 -17 -41h-41q-1 19 4 35q6 19 20 30q2 2 10.5 8.5t17.5 13.5t10 8q32 24 32 47q0 25 -19.5 39t-52.5 14t-54.5 -15t-25.5 -41l-42 5q6 42 40 66t85 24zM188 700v-700h-72v700h72z" />
    <glyph glyph-name="ihookabove" unicode="&#x1ec9;" horiz-adv-x="269" 
d="M143 794q52 0 83.5 -23.5t31.5 -65.5q0 -41 -51 -77l-12 -10q-7 -5 -20 -16q-17 -14 -17 -41h-41q0 22 4 34q6 18 21 30q7 7 37 31q32 24 32 47q0 24 -19.5 38t-52.5 14t-54.5 -15t-24.5 -41l-43 5q6 42 40 66t86 24zM172 500v-500h-67v500h67z" />
    <glyph glyph-name="Idotbelow" unicode="&#x1eca;" horiz-adv-x="306" 
d="M189 700v-700h-72v700h72zM129 -161q10 9 24 9t23 -9q10 -10 10 -24t-10 -23q-9 -10 -23 -10t-24 10q-9 9 -9 23t9 24z" />
    <glyph glyph-name="idotbelow" unicode="&#x1ecb;" horiz-adv-x="269" 
d="M137 675q16 0 28 -10.5t12 -24.5q0 -24 -24.5 -33.5t-44.5 7.5q-18 17 -8 39t37 22zM171 500v-500h-67v500h67zM113 -161q10 9 24 9t23 -9q10 -10 10 -24t-10 -23q-9 -10 -23 -10t-24 10q-9 9 -9 23t9 24z" />
    <glyph glyph-name="Odotbelow" unicode="&#x1ecc;" horiz-adv-x="905" 
d="M453 710q100 0 184.5 -48t133.5 -131q50 -83 50 -181t-50 -181q-49 -83 -133.5 -131t-184.5 -48q-98 -2 -184 47t-136.5 133t-48.5 180q0 149 108 254.5t261 105.5zM453 642q-121 2 -208.5 -85.5t-85.5 -206.5q0 -122 85 -207t208 -85t208 85q86 86 86 207q0 120 -86 206
t-207 86zM428 -161q10 9 24.5 9t23.5 -9q10 -10 10 -24t-10 -23q-9 -10 -23.5 -10t-24.5 10q-9 9 -9 23t9 24z" />
    <glyph glyph-name="odotbelow" unicode="&#x1ecd;" horiz-adv-x="675" 
d="M144 434q79 76 192 76t192 -76q80 -77 80 -184t-80 -184q-79 -76 -192 -76t-192 76t-79 184t79 184zM131 250q0 -83 60 -142.5t145 -59.5q83 0 144 59q61 58 61 143t-61 143q-61 59 -145 59q-83 0 -144 -59q-60 -59 -60 -143zM312 -161q10 9 24.5 9t23.5 -9
q10 -10 10 -24t-10 -23q-9 -10 -23.5 -10t-24.5 10q-9 9 -9 23t9 24z" />
    <glyph glyph-name="Ohookabove" unicode="&#x1ece;" horiz-adv-x="905" 
d="M458 1008q53 0 84.5 -24t31.5 -65q0 -40 -51 -77l-13 -10q-11 -9 -19 -17q-17 -14 -17 -41h-41q-1 19 4 35q6 19 20 30q2 2 10.5 8.5t17.5 13.5t10 8q32 24 32 47q0 25 -19.5 39t-52.5 14t-54.5 -15t-25.5 -41l-42 5q6 42 40 66t85 24zM268 662q85 48 185 48t184.5 -48
t133.5 -131q50 -83 50 -181t-49.5 -181t-134.5 -131q-84 -48 -184 -48q-99 0 -185 48q-85 48 -135 131q-49 82 -49 181q0 98 49.5 181t134.5 131zM660 556q-86 86 -208 86t-208 -86q-85 -85 -85 -206q0 -122 85 -207t208 -85t208 85q86 86 86 207q0 120 -86 206z" />
    <glyph glyph-name="ohookabove" unicode="&#x1ecf;" horiz-adv-x="675" 
d="M340 794q54 0 85 -23.5t31 -65.5q0 -41 -51 -77q-9 -6 -32 -26q-17 -14 -17 -41h-41q-1 18 4 34q6 19 20 30l19 16l19 15q32 24 32 47q0 24 -19.5 38t-52.5 14t-54.5 -15t-25.5 -41l-42 5q6 42 39.5 66t85.5 24zM144 434q79 76 192 76t192 -76q80 -77 80 -184t-80 -184
q-79 -76 -192 -76t-192 76t-79 184t79 184zM131 250q0 -83 60 -142.5t145 -59.5q83 0 144 59q61 58 61 143t-61 143q-61 59 -145 59q-83 0 -144 -59q-60 -59 -60 -143z" />
    <glyph glyph-name="Ocircumflexacute" unicode="&#x1ed0;" horiz-adv-x="905" 
d="M809 962l-123 -155h-60l109 155h74zM490 915l121 -154h-59l-99 117l-98 -117h-59l121 154h73zM268 662q85 48 185 48t184.5 -48t133.5 -131q50 -83 50 -181t-49.5 -181t-134.5 -131q-84 -48 -184 -48q-99 0 -185 48q-85 48 -135 131q-49 82 -49 181q0 98 49.5 181
t134.5 131zM660 556q-86 86 -208 86t-208 -86q-85 -85 -85 -206q0 -122 85 -207t208 -85t208 85q86 86 86 207q0 120 -86 206z" />
    <glyph glyph-name="ocircumflexacute" unicode="&#x1ed1;" horiz-adv-x="675" 
d="M692 762l-123 -155h-60l109 155h74zM373 715l121 -154h-59l-99 117l-98 -117h-59l121 154h73zM144 434q79 76 192 76t192 -76q80 -77 80 -184t-80 -184q-79 -76 -192 -76t-192 76t-79 184t79 184zM131 250q0 -83 60 -142.5t145 -59.5q83 0 144 59q61 58 61 143t-61 143
q-61 59 -145 59q-83 0 -144 -59q-60 -59 -60 -143z" />
    <glyph glyph-name="Ocircumflexgrave" unicode="&#x1ed2;" horiz-adv-x="905" 
d="M608 962l109 -155h-60l-123 155h74zM490 915l120 -154h-58l-99 117l-98 -117h-59l121 154h73zM268 662q85 48 185 48t184.5 -48t133.5 -131q50 -83 50 -181t-49.5 -181t-134.5 -131q-84 -48 -184 -48q-99 0 -185 48q-85 48 -135 131q-49 82 -49 181q0 98 49.5 181
t134.5 131zM660 556q-86 86 -208 86t-208 -86q-85 -85 -85 -206q0 -122 85 -207t208 -85t208 85q86 86 86 207q0 120 -86 206z" />
    <glyph glyph-name="ocircumflexgrave" unicode="&#x1ed3;" horiz-adv-x="675" 
d="M491 762l109 -155h-60l-123 155h74zM373 715l121 -154h-59l-99 117l-98 -117h-59l121 154h73zM144 434q79 76 192 76t192 -76q80 -77 80 -184t-80 -184q-79 -76 -192 -76t-192 76t-79 184t79 184zM336 452q-85 0 -145 -59.5t-60 -142.5q0 -84 60 -143q61 -59 144 -59
q84 0 145 59q61 58 61 143t-61 143q-61 59 -144 59z" />
    <glyph glyph-name="Ocircumflexhookabove" unicode="&#x1ed4;" horiz-adv-x="905" 
d="M678 1041q51 0 83.5 -24t32.5 -65q0 -17 -8 -32t-15.5 -22t-27.5 -24q-4 -1 -13 -9q-17 -13 -20 -17q-16 -16 -16 -41h-42q0 19 5 34q5 16 20 31q2 2 10.5 8.5t17.5 13.5t10 8q10 8 13.5 11.5t9 10t7.5 12t2 13.5q0 25 -20 39t-53 14t-54 -15t-25 -41l-43 4
q6 42 40.5 66.5t85.5 24.5zM489 915l121 -154h-59l-98 117l-99 -117h-59l121 154h73zM268 662q85 48 185 48t184.5 -48t133.5 -131q50 -83 50 -181t-49.5 -181t-134.5 -131q-84 -48 -184 -48q-99 0 -185 48q-85 48 -135 131q-49 82 -49 181q0 98 49.5 181t134.5 131z
M660 556q-86 86 -208 86t-208 -86q-85 -85 -85 -206q0 -122 85 -207t208 -85t208 85q86 86 86 207q0 120 -86 206z" />
    <glyph glyph-name="ocircumflexhookabove" unicode="&#x1ed5;" horiz-adv-x="675" 
d="M562 841q51 0 83.5 -24t32.5 -65q0 -23 -12.5 -39.5t-39.5 -38.5l-12 -9q-12 -9 -20 -17q-17 -17 -17 -41h-41q0 22 4 34q4 14 21 31q2 2 37 30q32 24 32 47q0 25 -19.5 39t-52.5 14t-54.5 -15t-24.5 -41l-43 4q6 42 40.5 66.5t85.5 24.5zM373 715l121 -154h-59l-99 117
l-98 -117h-59l121 154h73zM144 434q79 76 192 76t192 -76q80 -77 80 -184t-80 -184q-79 -76 -192 -76t-192 76t-79 184t79 184zM480 393q-61 59 -145 59q-83 0 -144 -59q-60 -59 -60 -143t60 -143q61 -59 144 -59q84 0 145 59q61 58 61 143t-61 143z" />
    <glyph glyph-name="Ocircumflextilde" unicode="&#x1ed6;" horiz-adv-x="905" 
d="M366 1051q32 0 80 -30q46 -30 75 -33q26 -2 44.5 13.5t25.5 46.5l32 -5q-4 -46 -29.5 -74t-62.5 -28q-34 0 -85 32l-7 5q-5 3 -13 7t-11 6t-8 4.5t-7.5 3.5t-6 2.5t-6 1.5t-5.5 0.5t-7 0.5q-22 1 -38 -14.5t-22 -44.5l-31 4q1 47 24 74.5t58 27.5zM489 915l121 -154h-59
l-98 117l-99 -117h-59l121 154h73zM453 710q100 0 184.5 -48t133.5 -131q50 -83 50 -181t-50 -181q-49 -83 -133.5 -131t-184.5 -48q-98 -2 -184 47t-136.5 133t-48.5 180q0 149 108 254.5t261 105.5zM660 556q-86 86 -208 86t-208 -86q-85 -85 -85 -206q0 -122 85 -207
t208 -85t208 85q86 86 86 207q0 120 -86 206z" />
    <glyph glyph-name="ocircumflextilde" unicode="&#x1ed7;" horiz-adv-x="675" 
d="M250 848q32 1 80 -30q47 -31 75 -32q52 -6 70 59l31 -4q-4 -47 -29 -74.5t-62 -27.5q-36 0 -85 32l-7 4q-41 22 -54 25q-4 0 -10 1q-23 2 -39.5 -13.5t-20.5 -45.5l-32 4q3 48 25.5 75t57.5 27zM373 715l120 -154h-58l-99 117l-98 -117h-59l121 154h73zM144 434
q79 76 192 76t192 -76q80 -77 80 -184t-80 -184q-79 -76 -192 -76t-192 76t-79 184t79 184zM480 393q-61 59 -145 59q-83 0 -144 -59q-60 -59 -60 -143t60 -143q61 -59 144 -59q84 0 145 59q61 58 61 143t-61 143z" />
    <glyph glyph-name="Ocircumflexdotbelow" unicode="&#x1ed8;" horiz-adv-x="905" 
d="M489 915l121 -154h-59l-98 117l-99 -117h-59l121 154h73zM268 662q85 48 185 48t184.5 -48t133.5 -131q50 -83 50 -181t-49.5 -181t-134.5 -131q-84 -48 -184 -48q-99 0 -185 48q-85 48 -135 131q-49 82 -49 181q0 98 49.5 181t134.5 131zM660 556q-86 86 -208 86
t-208 -86q-85 -85 -85 -206q0 -122 85 -207t208 -85t208 85q86 86 86 207q0 120 -86 206zM428 -161q10 9 24.5 9t23.5 -9q10 -10 10 -24t-10 -23q-9 -10 -23.5 -10t-24.5 10q-9 9 -9 23t9 24z" />
    <glyph glyph-name="ocircumflexdotbelow" unicode="&#x1ed9;" horiz-adv-x="675" 
d="M373 715l120 -154h-58l-99 117l-98 -117h-59l121 154h73zM144 434q79 76 192 76t192 -76q80 -77 80 -184t-80 -184q-79 -76 -192 -76t-192 76t-79 184t79 184zM131 250q0 -83 60 -142.5t145 -59.5q83 0 144 59q61 58 61 143t-61 143q-61 59 -145 59q-83 0 -144 -59
q-60 -59 -60 -143zM312 -161q10 9 24.5 9t23.5 -9q10 -10 10 -24t-10 -23q-9 -10 -23.5 -10t-24.5 10q-9 9 -9 23t9 24z" />
    <glyph glyph-name="Ohornacute" unicode="&#x1eda;" horiz-adv-x="905" 
d="M599 915l-123 -154h-60l108 154h75zM835 736h66v-30q0 -59 -38 -106.5t-96 -62.5q54 -85 54 -187q0 -98 -49.5 -181t-134.5 -131q-84 -48 -184 -48q-99 0 -185 48q-85 48 -134.5 131t-49.5 181q-2 96 48.5 180t136.5 133t184 47q85 0 159.5 -36.5t124.5 -100.5
q42 10 70 45.5t28 80.5v37zM453 642q-121 2 -208.5 -85.5t-85.5 -206.5q0 -122 85 -207t208 -85t208 85q86 86 86 207q0 120 -86 206t-207 86z" />
    <glyph glyph-name="ohornacute" unicode="&#x1edb;" horiz-adv-x="675" 
d="M610 547h66v-30q0 -48 -26 -90t-69 -64q27 -52 27 -113q0 -107 -80 -184q-79 -76 -192 -76t-192 76t-79 184t79 184t192 76q65 0 121.5 -29t92.5 -80q60 39 60 108v38zM480 393q-61 59 -145 59q-83 0 -144 -59q-60 -59 -60 -143t60 -143q61 -59 144 -59q84 0 145 59
q61 58 61 143t-61 143zM483 715l-123 -154h-61l109 154h75z" />
    <glyph glyph-name="Ohorngrave" unicode="&#x1edc;" horiz-adv-x="905" 
d="M380 915l108 -154h-60l-123 154h75zM835 736h66v-30q0 -59 -38 -106.5t-96 -62.5q54 -85 54 -187q0 -98 -49.5 -181t-134.5 -131q-84 -48 -184 -48q-99 0 -185 48q-85 48 -134.5 131t-49.5 181q-2 96 48.5 180t136.5 133t184 47q84 0 158.5 -36.5t125.5 -100.5
q43 11 70.5 46t27.5 80v37zM660 556q-86 86 -208 86t-208 -86q-85 -85 -85 -206q0 -122 85 -207t208 -85t208 85q86 86 86 207q0 120 -86 206z" />
    <glyph glyph-name="ohorngrave" unicode="&#x1edd;" horiz-adv-x="675" 
d="M263 715l109 -154h-60l-123 154h74zM610 547h66v-30q0 -48 -26 -90t-69 -64q27 -52 27 -113q0 -107 -80 -184q-79 -76 -192 -76t-192 76t-79 184t79 184t192 76q65 0 121.5 -29t92.5 -80q60 39 60 108v38zM480 393q-61 59 -145 59q-83 0 -144 -59q-60 -59 -60 -143
t60 -143q61 -59 144 -59q84 0 145 59q61 58 61 143t-61 143z" />
    <glyph glyph-name="Ohornhookabove" unicode="&#x1ede;" horiz-adv-x="905" 
d="M458 1008q53 0 84.5 -24t31.5 -65q0 -40 -51 -77l-13 -10q-11 -9 -19 -17q-17 -14 -17 -41h-41q-1 19 4 35q6 19 20 30q2 2 10.5 8.5t17.5 13.5t10 8q32 24 32 47q0 25 -19.5 39t-52.5 14t-54.5 -15t-25.5 -41l-42 5q6 42 40 66t85 24zM835 736h66v-30q0 -60 -38 -107
t-96 -62q54 -85 54 -187q0 -98 -49.5 -181t-134.5 -131q-84 -48 -184 -48q-99 0 -185 48q-85 48 -134.5 131t-49.5 181q-2 96 48.5 180t136.5 133t184 47q84 0 158.5 -36.5t125.5 -100.5q43 11 70.5 46t27.5 80v37zM660 556q-86 86 -208 86t-208 -86q-85 -85 -85 -206
q0 -122 85 -207t208 -85t208 85q86 86 86 207q0 120 -86 206z" />
    <glyph glyph-name="ohornhookabove" unicode="&#x1edf;" horiz-adv-x="675" 
d="M340 794q54 0 85 -23.5t31 -65.5q0 -41 -51 -77q-9 -6 -32 -26q-17 -14 -17 -41h-41q-1 18 4 34q6 19 20 30l19 16l19 15q32 24 32 47q0 24 -19.5 38t-52.5 14t-54.5 -15t-25.5 -41l-42 5q6 42 39.5 66t85.5 24zM610 547h66v-30q0 -49 -26 -90t-69 -64q27 -52 27 -113
q0 -107 -80 -184q-79 -76 -192 -76t-192 76t-79 184t79 184t192 76q65 0 122 -29.5t92 -79.5q60 39 60 108v38zM480 393q-61 59 -145 59q-83 0 -144 -59q-60 -59 -60 -143t60 -143q61 -59 144 -59q84 0 145 59q61 58 61 143t-61 143z" />
    <glyph glyph-name="Ohorntilde" unicode="&#x1ee0;" horiz-adv-x="905" 
d="M366 906q32 0 80 -30q46 -30 75 -33q56 -5 70 60l32 -5q-4 -47 -29.5 -74.5t-62.5 -27.5q-36 0 -85 32l-2 2q-3 1 -5 2q-44 26 -64 27q-48 3 -60 -59l-31 4q2 48 24 75t58 27zM835 736h66v-30q0 -59 -38 -106.5t-96 -62.5q54 -85 54 -187q0 -98 -49.5 -181t-134.5 -131
q-84 -48 -184 -48q-99 0 -185 48q-85 48 -134.5 131t-49.5 181q-2 96 48.5 180t136.5 133t184 47q84 0 158.5 -36.5t125.5 -100.5q42 10 70 45.5t28 80.5v37zM660 556q-86 86 -208 86t-208 -86q-85 -85 -85 -206q0 -122 85 -207t208 -85t208 85q86 86 86 207q0 120 -86 206z
" />
    <glyph glyph-name="ohorntilde" unicode="&#x1ee1;" horiz-adv-x="675" 
d="M250 706q32 0 80 -30q46 -30 75 -33q53 -5 70 60l31 -5q-4 -47 -29 -74.5t-62 -27.5q-34 0 -85 32l-8 4q-42 26 -63 27q-49 2 -60 -59l-32 4q3 48 25.5 75t57.5 27zM610 547h66v-30q0 -48 -26 -90t-69 -64q27 -52 27 -113q0 -107 -80 -184q-79 -76 -192 -76t-192 76
t-79 184t79 184t192 76q65 0 121.5 -29t92.5 -80q60 39 60 108v38zM336 452q-85 0 -145 -59.5t-60 -142.5q0 -84 60 -143q61 -59 144 -59q84 0 145 59q61 58 61 143t-61 143q-61 59 -144 59z" />
    <glyph glyph-name="Ohorndotbelow" unicode="&#x1ee2;" horiz-adv-x="905" 
d="M835 736h66v-30q0 -59 -38 -106.5t-96 -62.5q54 -85 54 -187q0 -98 -49.5 -181t-134.5 -131q-84 -48 -184 -48q-99 0 -185 48q-85 48 -134.5 131t-49.5 181q-2 96 48.5 180t136.5 133t184 47q84 0 158.5 -36.5t125.5 -100.5q43 11 70.5 46t27.5 80v37zM453 642
q-121 2 -208.5 -85.5t-85.5 -206.5q0 -122 85 -207t208 -85t208 85q86 86 86 207q0 120 -86 206t-207 86zM428 -161q10 9 24.5 9t23.5 -9q10 -10 10 -24t-10 -23q-9 -10 -23.5 -10t-24.5 10q-9 9 -9 23t9 24z" />
    <glyph glyph-name="ohorndotbelow" unicode="&#x1ee3;" horiz-adv-x="675" 
d="M610 547h66v-30q0 -48 -26 -90t-69 -64q27 -52 27 -113q0 -107 -80 -184q-79 -76 -192 -76t-192 76t-79 184t79 184t192 76q65 0 121.5 -29t92.5 -80q60 39 60 108v38zM480 393q-61 59 -145 59q-83 0 -144 -59q-60 -59 -60 -143t60 -143q61 -59 144 -59q84 0 145 59
q61 58 61 143t-61 143zM312 -161q10 9 24.5 9t23.5 -9q10 -10 10 -24t-10 -23q-9 -10 -23.5 -10t-24.5 10q-9 9 -9 23t9 24z" />
    <glyph glyph-name="Udotbelow" unicode="&#x1ee4;" horiz-adv-x="835" 
d="M654 700h72v-390q0 -154 -83 -237t-222 -83t-222 83q-82 82 -82 237v390h72v-390q0 -122 63.5 -188t169.5 -66q107 0 169.5 66.5t62.5 187.5v390zM395 -161q10 9 24 9t23 -9q10 -10 10 -24t-10 -23q-9 -10 -23 -10t-24 10q-9 9 -9 23t9 24z" />
    <glyph glyph-name="udotbelow" unicode="&#x1ee5;" horiz-adv-x="652" 
d="M568 500v-500h-67v77q-103 -87 -234 -87q-85 0 -135 50t-50 140v320h67v-303q0 -72 38 -112t104 -40q122 0 210 82v373h67zM302 -161q10 9 24 9t23 -9q10 -10 10 -24t-10 -23q-9 -10 -23 -10t-24 10q-9 9 -9 23t9 24z" />
    <glyph glyph-name="Uhookabove" unicode="&#x1ee6;" horiz-adv-x="835" 
d="M423 1008q52 0 83.5 -24t31.5 -65t-51 -77l-12 -10q-12 -9 -20 -17q-17 -14 -17 -41h-41q0 23 4 35q5 15 20 30q2 2 10.5 8.5t17.5 13.5t10 8q32 24 32 47q0 25 -19.5 39t-52.5 14t-54.5 -15t-24.5 -41l-43 5q6 41 40.5 65.5t85.5 24.5zM654 700h72v-390q0 -154 -83 -237
t-222 -83t-222 83q-82 82 -82 237v390h72v-390q0 -121 62.5 -187.5t169.5 -66.5t170 66.5t63 187.5v390z" />
    <glyph glyph-name="uhookabove" unicode="&#x1ee7;" horiz-adv-x="652" 
d="M330 794q52 0 84 -24t32 -65q0 -23 -12.5 -40t-39.5 -37l-12 -10q-7 -5 -20 -16q-17 -17 -17 -41h-41q0 22 4 34q6 18 21 30q7 7 37 31q32 24 32 47q0 24 -19.5 38t-52.5 14t-54.5 -15t-24.5 -41l-43 5q6 42 40 66t86 24zM568 500v-500h-67v77q-103 -87 -234 -87
q-85 0 -135 50t-50 140v320h67v-303q0 -72 38 -112t104 -40q122 0 210 82v373h67z" />
    <glyph glyph-name="Uhornacute" unicode="&#x1ee8;" horiz-adv-x="835" 
d="M564 915l-123 -154h-60l109 154h74zM830 736h60v-30q0 -67 -44.5 -113t-119.5 -58v-225q0 -154 -83 -237t-222 -83t-222 83q-82 82 -82 237v390h72v-390q0 -121 62.5 -187.5t169.5 -66.5t170 66.5t63 187.5v390h72v-129q45 10 74.5 46t29.5 82v37z" />
    <glyph glyph-name="uhornacute" unicode="&#x1ee9;" horiz-adv-x="644" 
d="M472 715l-123 -154h-60l108 154h75zM651 547h54v-30q0 -63 -35.5 -106.5t-101.5 -58.5v-352h-67v77q-103 -87 -234 -87q-85 0 -135 50t-50 140v320h67v-303q0 -72 38.5 -112t103.5 -40q122 0 210 82v373h67v-112q37 15 60 48.5t23 72.5v38z" />
    <glyph glyph-name="Uhorngrave" unicode="&#x1eea;" horiz-adv-x="835" 
d="M345 915l109 -154h-60l-123 154h74zM830 736h60v-30q0 -67 -44 -113t-120 -58v-225q0 -154 -83 -237t-222 -83t-222 83q-82 82 -82 237v390h72v-390q0 -121 62.5 -187.5t169.5 -66.5t170 66.5t63 187.5v390h72v-129q45 10 74.5 46t29.5 82v37z" />
    <glyph glyph-name="uhorngrave" unicode="&#x1eeb;" horiz-adv-x="652" 
d="M253 715l108 -154h-60l-123 154h75zM651 547h54v-30q0 -63 -35 -106t-102 -59v-352h-67v77q-103 -87 -234 -87q-85 0 -135 50t-50 140v320h67v-303q0 -72 38 -112t104 -40q122 0 210 82v373h67v-112q37 15 60 48t23 73v38z" />
    <glyph glyph-name="Uhornhookabove" unicode="&#x1eec;" horiz-adv-x="835" 
d="M423 1008q52 0 83.5 -24t31.5 -65t-51 -77l-12 -10q-12 -9 -20 -17q-17 -14 -17 -41h-41q0 23 4 35q5 15 20 30q2 2 10.5 8.5t17.5 13.5t10 8q32 24 32 47q0 25 -19.5 39t-52.5 14t-54.5 -15t-24.5 -41l-43 5q6 41 40.5 65.5t85.5 24.5zM830 736h60v-30q0 -67 -44 -113
t-120 -58v-225q0 -154 -83 -237t-222 -83t-222 83q-82 82 -82 237v390h72v-390q0 -121 62.5 -187.5t169.5 -66.5t170 66.5t63 187.5v390h72v-129q45 10 74.5 45.5t29.5 82.5v37z" />
    <glyph glyph-name="uhornhookabove" unicode="&#x1eed;" horiz-adv-x="652" 
d="M330 794q52 0 84 -24t32 -65q0 -23 -12.5 -40t-39.5 -37l-12 -10q-7 -5 -20 -16q-17 -17 -17 -41h-41q0 22 4 34q6 18 21 30q7 7 37 31q32 24 32 47q0 24 -19.5 38t-52.5 14t-54.5 -15t-24.5 -41l-43 5q6 42 40 66t86 24zM651 547h54v-30q0 -63 -35 -106t-102 -59v-352
h-67v77q-103 -87 -234 -87q-85 0 -135 50t-50 140v320h67v-303q0 -72 38 -112t104 -40q122 0 210 82v373h67v-112q37 15 60 48t23 73v38z" />
    <glyph glyph-name="Uhorntilde" unicode="&#x1eee;" horiz-adv-x="835" 
d="M331 906q34 0 80 -30q47 -30 75 -33q54 -5 71 60l31 -5q-4 -47 -29.5 -74.5t-62.5 -27.5q-33 0 -85 32q-3 2 -7 4q-42 26 -64 27t-38 -14.5t-22 -44.5l-31 4q2 48 24 75t58 27zM830 736h60v-30q0 -67 -44 -113t-120 -58v-225q0 -154 -83 -237t-222 -83t-222 83
q-82 82 -82 237v390h72v-390q0 -121 62.5 -187.5t169.5 -66.5t170 66.5t63 187.5v390h72v-129q45 10 74.5 46t29.5 82v37z" />
    <glyph glyph-name="uhorntilde" unicode="&#x1eef;" horiz-adv-x="652" 
d="M239 706q32 0 80 -30q47 -30 75 -33q56 -5 70 60l32 -5q-4 -47 -29.5 -74.5t-62.5 -27.5q-36 0 -85 32q-1 0 -3 1.5t-4 2.5q-26 16 -38 20q-12 5 -26 7q-49 0 -60 -59l-31 4q2 48 24 75t58 27zM651 547h54v-30q0 -64 -35.5 -107t-101.5 -58v-352h-67v77
q-103 -87 -234 -87q-85 0 -135 50t-50 140v320h67v-303q0 -72 38.5 -112t103.5 -40q122 0 210 82v373h67v-112q37 15 60 48.5t23 72.5v38z" />
    <glyph glyph-name="Uhorndotbelow" unicode="&#x1ef0;" horiz-adv-x="835" 
d="M830 736h60v-30q0 -67 -44 -113t-120 -58v-225q0 -154 -83 -237t-222 -83t-222 83q-82 82 -82 237v390h72v-390q0 -121 62.5 -187.5t169.5 -66.5t170 66.5t63 187.5v390h72v-129q45 10 74.5 46t29.5 82v37zM395 -161q10 9 24 9t23 -9q10 -10 10 -24t-10 -23
q-9 -10 -23 -10t-24 10q-9 9 -9 23t9 24z" />
    <glyph glyph-name="uhorndotbelow" unicode="&#x1ef1;" horiz-adv-x="652" 
d="M651 547h54v-30q0 -63 -35 -106t-102 -59v-352h-67v77q-103 -87 -234 -87q-85 0 -135 50t-50 140v320h67v-303q0 -72 38 -112t104 -40q122 0 210 82v373h67v-112q37 15 60 48t23 73v38zM302 -161q10 9 24 9t23 -9q10 -10 10 -24t-10 -23q-9 -10 -23 -10t-24 10
q-9 9 -9 23t9 24z" />
    <glyph glyph-name="Ygrave" unicode="&#x1ef2;" horiz-adv-x="759" 
d="M307 915l108 -154h-60l-123 154h75zM718 700l-302 -444v-256h-73v255l-302 445h87l252 -368l252 368h86z" />
    <glyph glyph-name="ygrave" unicode="&#x1ef3;" horiz-adv-x="564" 
d="M213 715l109 -154h-60l-124 154h75zM100 500l189 -432l181 432h70l-233 -551q-35 -82 -79.5 -117.5t-105.5 -36.5q-44 0 -98 20l20 46q40 -17 72 -15q43 2 73 27.5t58 86.5l11 24l-229 516h71z" />
    <glyph glyph-name="Ydotbelow" unicode="&#x1ef4;" horiz-adv-x="759" 
d="M718 700l-302 -444v-256h-73v255l-302 445h87l252 -368l252 368h86zM355 -161q10 9 24.5 9t23.5 -9q10 -10 10 -24t-10 -23q-9 -10 -23.5 -10t-24.5 10q-9 9 -9 23t9 24z" />
    <glyph glyph-name="ydotbelow" unicode="&#x1ef5;" horiz-adv-x="564" 
d="M100 500l189 -432l181 432h70l-233 -551q-35 -82 -79.5 -117.5t-105.5 -36.5q-44 0 -98 20l20 46q40 -17 72 -15q43 2 73 27.5t58 86.5l11 24l-229 516h71zM400 -161q10 9 24 9t23 -9q10 -10 10 -24t-10 -23q-9 -10 -23 -10t-24 10q-9 9 -9 23t9 24z" />
    <glyph glyph-name="Yhookabove" unicode="&#x1ef6;" horiz-adv-x="759" 
d="M384 1008q52 0 84 -24t32 -65q0 -23 -12 -40t-39 -37q-36 -27 -42 -38q-7 -13 -7 -30h-42q0 20 5 35q6 19 20 30q2 2 10.5 8.5t17.5 13.5t10 8q32 24 32 47q0 25 -19.5 39t-52.5 14t-54.5 -15t-25.5 -41l-43 5q6 42 40.5 66t85.5 24zM718 700l-302 -444v-256h-73v255
l-302 445h87l252 -368l252 368h86z" />
    <glyph glyph-name="yhookabove" unicode="&#x1ef7;" horiz-adv-x="564" 
d="M291 794q54 0 85 -23.5t31 -65.5q0 -41 -51 -77q-9 -6 -32 -26q-17 -14 -17 -41h-41q-1 18 4 34q6 19 20 30l19 16l19 15q32 24 32 47q0 24 -19.5 38t-52.5 14t-54.5 -15t-25.5 -41l-42 5q6 42 40 66t85 24zM100 500l189 -432l181 432h70l-233 -551q-35 -82 -79.5 -117.5
t-105.5 -36.5q-44 0 -98 20l20 46q40 -17 72 -15q43 2 73 27.5t58 86.5l11 24l-229 516h71z" />
    <glyph glyph-name="Ytilde" unicode="&#x1ef8;" horiz-adv-x="759" 
d="M293 906q32 0 80 -30q47 -30 75 -33q56 -5 70 60l32 -5q-4 -47 -29.5 -74.5t-62.5 -27.5q-36 0 -85 32q-1 0 -3 1.5t-4 2.5q-44 26 -64 27q-48 3 -60 -59l-31 4q1 47 24 74.5t58 27.5zM718 700l-302 -444v-256h-73v255l-302 445h87l252 -368l252 368h86z" />
    <glyph glyph-name="ytilde" unicode="&#x1ef9;" horiz-adv-x="564" 
d="M199 706q32 0 80 -30q47 -30 75 -33q54 -5 71 60l31 -5q-4 -47 -29.5 -74.5t-62.5 -27.5q-33 0 -85 32q-3 2 -7 4q-42 26 -64 27t-38 -14.5t-22 -44.5l-31 4q2 48 24 75t58 27zM100 500l189 -432l181 432h70l-233 -551q-35 -82 -79.5 -117.5t-105.5 -36.5q-44 0 -98 20
l20 46q40 -17 72 -15q43 2 73 27.5t58 86.5l11 24l-229 516h71z" />
    <glyph glyph-name="endash" unicode="&#x2013;" horiz-adv-x="538" 
d="M495 288v-57h-451v57h451z" />
    <glyph glyph-name="emdash" unicode="&#x2014;" horiz-adv-x="707" 
d="M663 280v-40h-619v40h619z" />
    <glyph glyph-name="quoteleft" unicode="&#x2018;" horiz-adv-x="183" 
d="M134 770l22 -10l-53 -105q24 -9 24 -33q0 -15 -12 -25.5t-30 -10.5q-17 0 -29 10.5t-12 25.5q0 12 7 20z" />
    <glyph glyph-name="quoteright" unicode="&#x2019;" horiz-adv-x="183" 
d="M139 733q0 -11 -6 -20l-83 -127l-23 10l53 104q-23 11 -23 33q0 23 20.5 32t41 0t20.5 -32z" />
    <glyph glyph-name="quotesinglbase" unicode="&#x201a;" horiz-adv-x="183" 
d="M139 26q0 -10 -5 -20l-84 -128l-23 10l53 105q-23 9 -23 33q0 15 12 25.5t29 10.5t29 -10.5t12 -25.5z" />
    <glyph glyph-name="quotedblleft" unicode="&#x201c;" horiz-adv-x="335" 
d="M134 770l22 -10l-53 -105q24 -9 24 -33q0 -15 -12 -25.5t-30 -10.5q-17 0 -29 10.5t-12 25.5q0 12 7 20zM286 770l22 -10l-52 -105q23 -9 23 -33q0 -22 -20.5 -31t-41.5 0t-21 31q0 12 7 20z" />
    <glyph glyph-name="quotedblright" unicode="&#x201d;" horiz-adv-x="335" 
d="M139 733q0 -11 -6 -20l-83 -127l-23 10l53 104q-23 11 -23 33q0 23 20.5 32t41 0t20.5 -32zM250 770q18 0 29.5 -10.5t11.5 -26.5q0 -11 -6 -20l-83 -127l-23 10l53 104q-23 11 -23 33q0 16 12 26.5t29 10.5z" />
    <glyph glyph-name="quotedblbase" unicode="&#x201e;" horiz-adv-x="335" 
d="M250 62q17 0 29 -10.5t12 -25.5q0 -10 -5 -20l-84 -128l-23 10l53 105q-23 9 -23 33q0 15 12 25.5t29 10.5zM139 26q0 -10 -5 -20l-84 -128l-23 10l53 105q-23 9 -23 33q0 15 12 25.5t29 10.5t29 -10.5t12 -25.5z" />
    <glyph glyph-name="dagger" unicode="&#x2020;" horiz-adv-x="575" 
d="M316 710v-230h200v-53h-200v-580h-58v580h-200v53h200v230h58z" />
    <glyph glyph-name="daggerdbl" unicode="&#x2021;" horiz-adv-x="575" 
d="M316 710v-230h200v-53h-200v-297h200v-53h-200v-230h-58v230h-200v53h200v297h-200v53h200v230h58z" />
    <glyph glyph-name="bullet" unicode="&#x2022;" horiz-adv-x="311" 
d="M76 392q33 33 79 33q47 0 78 -33q33 -32 33 -78t-33 -79q-32 -32 -78 -32q-45 0 -79 32q-32 34 -32 79q0 46 32 78z" />
    <glyph glyph-name="ellipsis" unicode="&#x2026;" horiz-adv-x="647" 
d="M85 63q18 0 30 -11t12 -26q0 -24 -25.5 -33.5t-45.5 7.5q-19 18 -8.5 40.5t37.5 22.5zM294 52q12 11 29.5 11t29.5 -11q12 -10 12 -25.5t-12 -26.5q-12 -10 -29.5 -10t-29.5 10q-12 11 -12 26.5t12 25.5zM561 63q18 0 30 -11t12 -26q0 -24 -25.5 -33.5t-45.5 7.5
q-19 18 -8.5 40.5t37.5 22.5z" />
    <glyph glyph-name="perthousand" unicode="&#x2030;" horiz-adv-x="1229" 
d="M717 717l-537 -734h-64l538 734h63zM83 657q44 50 117 50q74 0 116 -50q43 -49 43 -133t-43 -133q-42 -49 -116 -49t-117 49q-42 49 -42 133t42 133zM200 386q51 0 80 37.5t29 101.5q0 62 -29 100t-80 38q-50 0 -80 -38q-29 -38 -29 -101t29.5 -100.5t79.5 -37.5z
M521 308q44 50 117 50q74 0 116 -50q43 -49 43 -133t-43 -133q-42 -49 -116 -49t-117 49q-42 49 -42 133q0 83 42 133zM912 308q44 50 117 50q74 0 116 -50q43 -49 43 -133t-43 -133q-42 -49 -116 -49t-117 49q-42 49 -42 133q0 83 42 133zM529 176q0 -64 29.5 -101.5
t79.5 -37.5q51 0 79 37q30 38 30 101t-30 101q-29 38 -79 38t-79.5 -37.5t-29.5 -100.5zM1108 276q-29 38 -79 38t-80 -38q-29 -38 -29 -101t29 -101q30 -37 80 -37q51 0 79 37q30 38 30 101t-30 101z" />
    <glyph glyph-name="guilsinglleft" unicode="&#x2039;" horiz-adv-x="281" 
d="M204 461l50 -28l-136 -168l136 -168l-51 -27l-159 195z" />
    <glyph glyph-name="guilsinglright" unicode="&#x203a;" horiz-adv-x="281" 
d="M78 461l159 -196l-159 -195l-51 27l136 168l-136 168z" />
    <glyph glyph-name="fraction" unicode="&#x2044;" horiz-adv-x="625" 
d="M534 717l-462 -734h-59l462 734h59z" />
    <glyph glyph-name="zerosuperior" unicode="&#x2070;" horiz-adv-x="394" 
d="M197 746q72 0 114.5 -49t42.5 -131q0 -81 -43 -130q-42 -49 -115 -49q-72 0 -115 49q-42 50 -42 130q0 81 43 130.5t115 49.5zM276 667q-28 37 -80 37q-51 0 -79 -37q-29 -37 -29 -101q0 -63 29 -101q28 -37 79 -37q52 0 80 37q30 37 30 101q0 65 -30 101z" />
    <glyph glyph-name="foursuperior" unicode="&#x2074;" horiz-adv-x="330" 
d="M244 740v-219h62v-37h-62v-93h-46v93h-184l-5 36l184 220h51zM198 689l-139 -168h139v168z" />
    <glyph glyph-name="fivesuperior" unicode="&#x2075;" horiz-adv-x="309" 
d="M261 740v-36h-177l-1 -110q32 21 73 21q54 0 89.5 -30.5t35.5 -80.5q0 -52 -39 -85t-95 -33q-82 0 -130 55l25 26q37 -43 98 -43q40 0 66.5 23.5t26.5 59.5q0 34 -25 54.5t-61 20.5q-51 0 -81 -32l-30 17l3 173h222z" />
    <glyph glyph-name="sixsuperior" unicode="&#x2076;" horiz-adv-x="341" 
d="M194 746q62 0 112 -38l-22 -32q-40 31 -86 31q-48 0 -74.5 -35.5t-27.5 -99.5v-2q31 46 101 46q54 0 87.5 -31.5t33.5 -79.5q0 -50 -36.5 -84.5t-92.5 -34.5q-42 0 -72 16.5t-44.5 44t-20.5 54.5t-6 57q0 89 38.5 139t109.5 49zM189 588q-38 0 -64 -19t-31 -50
q12 -97 95 -97q37 0 61 22.5t24 60.5q0 37 -24 60t-61 23z" />
    <glyph glyph-name="sevensuperior" unicode="&#x2077;" horiz-adv-x="280" 
d="M271 740v-36l-182 -313h-54l180 308h-205v41h261z" />
    <glyph glyph-name="eightsuperior" unicode="&#x2078;" horiz-adv-x="356" 
d="M304 656q0 -56 -60 -78q72 -24 72 -90q0 -43 -39.5 -72t-99.5 -29t-99 29t-39 72q0 65 72 90q-59 23 -59 78q0 38 36 64t89 26q54 0 90.5 -26t36.5 -64zM95 651q0 -28 23 -44.5t60 -16.5t60 16.5t23 44.5q0 26 -23.5 43.5t-59.5 17.5t-59.5 -17.5t-23.5 -43.5zM178 561
q-34 0 -63.5 -16t-29.5 -54q0 -30 26 -50t67 -20t67 20t26 50q0 32 -25 51t-68 19z" />
    <glyph glyph-name="ninesuperior" unicode="&#x2079;" horiz-adv-x="341" 
d="M152 746q42 0 71.5 -16.5t44 -43.5t20.5 -54.5t6 -57.5q0 -88 -38.5 -138t-109.5 -50q-62 0 -111 39l21 31q40 -31 87 -31q48 0 74 35.5t27 100.5l1 2q-32 -47 -102 -47q-53 0 -86.5 32t-33.5 80q0 51 36 84.5t93 33.5zM152 711q-38 0 -62 -23t-24 -60q0 -36 24.5 -59.5
t61.5 -23.5q38 0 64 18.5t30 50.5q-12 97 -94 97z" />
    <glyph glyph-name="zeroinferior" unicode="&#x2080;" horiz-adv-x="394" 
d="M81 163q44 50 115 50q73 0 115 -50q43 -49 43 -130t-43 -130q-42 -49 -115 -49q-72 0 -115 49q-42 49 -42 130t42 130zM197 171q-52 0 -80 -37q-29 -37 -29 -101q0 -63 29 -100q28 -37 79 -37t80 36.5t29 100.5q0 65 -29 101.5t-79 36.5z" />
    <glyph glyph-name="oneinferior" unicode="&#x2081;" horiz-adv-x="186" 
d="M130 210v-350h-48v306l-68 -15l-6 38l86 21h36z" />
    <glyph glyph-name="twoinferior" unicode="&#x2082;" horiz-adv-x="310" 
d="M150 214q50 0 85 -28.5t35 -73.5q0 -27 -14.5 -49.5t-54.5 -58.5l-106 -105h183v-39h-258v36l153 138q29 29 38.5 43.5t9.5 31.5q0 29 -21.5 46.5t-52.5 17.5q-32 0 -54.5 -14t-44.5 -45l-32 26q47 74 134 74z" />
    <glyph glyph-name="threeinferior" unicode="&#x2083;" horiz-adv-x="320" 
d="M264 208v-34l-114 -117q17 3 31 2q45 -4 71.5 -28t26.5 -62q0 -52 -38 -83.5t-98 -31.5q-65 0 -127 45l26 29q47 -35 97 -35q42 0 67 21t25 57q0 29 -21.5 45t-58.5 16q-27 0 -58 -11l-9 26l122 122h-168v39h226z" />
    <glyph glyph-name="fourinferior" unicode="&#x2084;" horiz-adv-x="330" 
d="M244 209v-218h62v-37h-62v-94h-46v94h-184l-5 35l184 220h51zM198 158l-139 -167h139v167z" />
    <glyph glyph-name="fiveinferior" unicode="&#x2085;" horiz-adv-x="309" 
d="M261 208v-35h-177l-1 -111q31 21 73 21q54 0 89.5 -30.5t35.5 -80.5q0 -52 -39 -85t-95 -33q-82 0 -130 55l25 26q37 -43 98 -43q40 0 66.5 23.5t26.5 59.5q0 33 -24.5 54t-61.5 21q-51 1 -81 -32l-30 17l3 173h222z" />
    <glyph glyph-name="sixinferior" unicode="&#x2086;" horiz-adv-x="341" 
d="M194 213q62 0 112 -38l-22 -32q-40 31 -86 31q-49 0 -75 -35t-27 -100v-2q31 46 101 46q54 0 87.5 -31.5t33.5 -79.5q0 -51 -36 -84.5t-93 -33.5q-42 0 -72 16t-44.5 43.5t-20.5 54.5t-6 58q0 88 38.5 138t109.5 49zM189 55q-38 0 -64 -18.5t-31 -50.5q12 -97 95 -97
q37 0 61 23t24 60t-24 60t-61 23z" />
    <glyph glyph-name="seveninferior" unicode="&#x2087;" horiz-adv-x="280" 
d="M271 209v-35l-182 -314h-54l180 309h-205v40h261z" />
    <glyph glyph-name="eightinferior" unicode="&#x2088;" horiz-adv-x="356" 
d="M178 213q53 0 89.5 -26t36.5 -64q0 -55 -60 -78q72 -24 72 -90q0 -43 -39.5 -72t-99.5 -29t-99 29t-39 72q0 65 72 90q-59 23 -59 78q0 39 36 64.5t90 25.5zM95 118q0 -28 23 -44.5t60 -16.5t60 16.5t23 44.5q0 26 -23.5 43.5t-59.5 17.5t-59.5 -17.5t-23.5 -43.5z
M178 29q-34 0 -63.5 -16t-29.5 -54q0 -30 26 -50t67 -20t67 20t26 50q0 32 -25 50.5t-68 19.5z" />
    <glyph glyph-name="nineinferior" unicode="&#x2089;" horiz-adv-x="341" 
d="M152 214q42 0 71.5 -16.5t44 -44t20.5 -54.5t6 -57q0 -88 -38.5 -138t-109.5 -50q-61 0 -111 38l21 32q40 -31 87 -31q48 0 74 35.5t27 99.5l1 2q-31 -46 -102 -46q-53 0 -86.5 31.5t-33.5 79.5q0 51 36.5 85t92.5 34zM152 178q-37 0 -61.5 -23t-24.5 -60
q0 -36 24.5 -59.5t61.5 -23.5t63.5 19t30.5 50q-12 97 -94 97z" />
    <glyph glyph-name="Euro" unicode="&#x20ac;" horiz-adv-x="763" 
d="M652 146l52 -32q-46 -58 -112 -91t-139 -33q-111 0 -200 72q-87 71 -119 185h-92v38h83q-5 35 -5 65q0 31 4 56h-82v38h89q28 115 118 191q90 75 204 75q73 0 138 -32.5t113 -91.5l-52 -33q-78 94 -193 94q-87 0 -156 -57q-69 -56 -95 -146h300v-38h-309q-4 -25 -4 -56
q0 -34 6 -65h307v-38h-297q29 -87 95 -140q68 -54 153 -54q117 0 193 93z" />
    <glyph glyph-name="trademark" unicode="&#x2122;" horiz-adv-x="894" 
d="M335 700v-42h-130v-340h-48v340h-130v42h308zM850 700v-382h-47v313l-163 -274h-22l-162 274v-313h-48v382h60l161 -270l161 270h60z" />
    <glyph glyph-name="oneeighth" unicode="&#x215b;" horiz-adv-x="685" 
d="M537 717l-462 -734h-58l462 734h58zM138 700v-350h-48v307l-68 -15l-7 37l87 21h36zM633 263q0 -55 -59 -78q71 -24 71 -90q0 -43 -38.5 -72t-99.5 -29q-60 0 -99 29t-39 72q0 66 71 90q-59 23 -59 78q0 39 36 64.5t90 25.5t90 -25.5t36 -64.5zM424 258q0 -28 23 -44.5
t60 -16.5t60 16.5t23 44.5q0 26 -23.5 43.5t-59.5 17.5t-59.5 -17.5t-23.5 -43.5zM507 169q-33 0 -63 -16t-30 -54q0 -30 26 -50t67 -20t67 20t26 50q0 32 -25 50.5t-68 19.5z" />
    <glyph glyph-name="threeeighths" unicode="&#x215c;" horiz-adv-x="774" 
d="M623 717l-462 -734h-58l462 734h58zM264 700v-34l-114 -117q17 3 31 2q45 -4 71.5 -28t26.5 -62q0 -53 -37.5 -84t-98.5 -31q-65 0 -127 44l26 29q46 -34 97 -34q42 0 67 20.5t25 56.5q0 30 -22 46.5t-58 14.5q-27 0 -58 -11l-9 27l122 122h-168v39h226zM722 263
q0 -55 -60 -78q72 -24 72 -90q0 -43 -39.5 -72t-99.5 -29t-99 29t-39 72q0 66 72 90q-60 23 -60 78q0 39 36 64.5t90 25.5t90.5 -25.5t36.5 -64.5zM512 259q0 -28 23.5 -45t59.5 -17q39 0 61.5 16.5t22.5 45.5q0 25 -24 42.5t-60 17.5t-59.5 -17.5t-23.5 -42.5zM595 169
q-33 0 -63 -16t-30 -54q0 -30 26 -50t67 -20t67 20t26 50q0 32 -25 51t-68 19z" />
    <glyph glyph-name="fiveeighths" unicode="&#x215d;" horiz-adv-x="767" 
d="M616 717l-462 -734h-58l463 734h57zM261 700v-36h-177l-1 -110q31 21 73 21q54 0 89.5 -30.5t35.5 -80.5q0 -52 -39 -85t-95 -33q-82 0 -130 55l25 26q37 -43 98 -43q40 0 66.5 23.5t26.5 59.5q0 33 -24.5 54t-61.5 21q-51 0 -81 -32l-30 17l3 173h222zM715 263
q0 -55 -60 -78q72 -24 72 -90q0 -43 -38.5 -72t-99.5 -29q-60 0 -99.5 29t-39.5 72q0 65 72 90q-59 23 -59 78q0 39 36 64.5t89 25.5q54 0 90.5 -25.5t36.5 -64.5zM506 259q0 -28 23 -45t60 -17t60 16.5t23 45.5q0 25 -23.5 42.5t-59.5 17.5t-59.5 -17.5t-23.5 -42.5z
M589 169q-33 0 -63 -16t-30 -54q0 -31 25.5 -50.5t67.5 -19.5q41 0 67 20t26 50q0 32 -25.5 51t-67.5 19z" />
    <glyph glyph-name="seveneighths" unicode="&#x215e;" horiz-adv-x="680" 
d="M529 717l-462 -734h-58l462 734h58zM275 700v-36l-182 -313h-53l179 308h-205v41h261zM628 263q0 -55 -60 -78q72 -24 72 -90q0 -43 -39.5 -72t-99.5 -29t-99 29t-39 72q0 66 72 90q-60 23 -60 78q0 39 36 64.5t90 25.5t90.5 -25.5t36.5 -64.5zM418 258q0 -28 23 -44.5
t60 -16.5q38 0 61 16.5t23 44.5q0 26 -23.5 43.5t-59.5 17.5t-60 -17.5t-24 -43.5zM502 169q-34 0 -64 -16t-30 -54q0 -30 26 -50t67 -20q42 0 68 20t26 50q0 32 -25.5 51t-67.5 19z" />
    <glyph glyph-name="partialdiff" unicode="&#x2202;" horiz-adv-x="700" 
 />
    <glyph glyph-name="emptyset" unicode="&#x2205;" horiz-adv-x="700" 
 />
    <glyph glyph-name="product" unicode="&#x220f;" horiz-adv-x="700" 
 />
    <glyph glyph-name="summation" unicode="&#x2211;" horiz-adv-x="700" 
 />
    <glyph glyph-name="minus" unicode="&#x2212;" horiz-adv-x="571" 
d="M527 322v-54h-483v54h483z" />
    <glyph glyph-name="radical" unicode="&#x221a;" horiz-adv-x="700" 
 />
    <glyph glyph-name="infinity" unicode="&#x221e;" horiz-adv-x="700" 
 />
    <glyph glyph-name="integral" unicode="&#x222b;" horiz-adv-x="700" 
 />
    <glyph glyph-name="approxequal" unicode="&#x2248;" horiz-adv-x="590" 
d="M169 453q28 0 51.5 -9.5t66.5 -36.5l49 -30q33 -18 63 -19q38 -5 67 19.5t41 70.5l37 -5q-7 -66 -43 -104.5t-90 -37.5q-34 1 -56.5 10.5t-66.5 37.5q-54 32 -66 37q-17 8 -41 10q-37 3 -63.5 -21.5t-35.5 -72.5l-37 4q4 69 38 108.5t86 38.5zM169 222q28 0 51.5 -9.5
t66.5 -36.5q26 -16 49 -29q36 -19 63 -20q39 -4 67.5 20t40.5 70l37 -5q-7 -66 -43 -104.5t-90 -37.5q-30 0 -54.5 10t-68.5 38q-25 15 -48 28q-29 19 -59 19q-37 3 -63.5 -21.5t-35.5 -72.5l-37 4q4 69 38 108.5t86 38.5z" />
    <glyph glyph-name="notequal" unicode="&#x2260;" horiz-adv-x="589" 
d="M547 360h-187l-69 -145h256v-54h-282l-85 -179h-62l85 179h-162v54h188l69 145h-257v53h282l85 180h62l-85 -180h162v-53z" />
    <glyph glyph-name="lessequal" unicode="&#x2264;" horiz-adv-x="571" 
d="M526 568v-63l-403 -165l403 -165v-63l-482 199v58zM526 26v-53h-482v53h482z" />
    <glyph glyph-name="greaterequal" unicode="&#x2265;" horiz-adv-x="571" 
d="M44 568l482 -199v-58l-482 -199v63l404 165l-404 165v63zM526 26v-53h-482v53h482z" />
    <glyph glyph-name="lozenge" unicode="&#x25ca;" horiz-adv-x="600" 
 />
    <glyph glyph-name="NULL" horiz-adv-x="0" 
 />
    <glyph glyph-name="CR" horiz-adv-x="333" 
 />
    <glyph glyph-name="A.sc" horiz-adv-x="578" 
d="M329 500l225 -500h-75l-58 131h-264l-58 -131h-75l225 500h80zM289 436l-117 -258h234z" />
    <glyph glyph-name="AE.sc" horiz-adv-x="719" 
d="M249 500h422v-51h-315v-173h291v-46h-291v-179h322v-51h-389v131h-132l-58 -131h-75zM289 436l-117 -258h117v258z" />
    <glyph glyph-name="Aacute.sc" horiz-adv-x="578" 
d="M329 500l225 -500h-75l-58 131h-264l-58 -131h-75l225 500h80zM289 436l-117 -258h234zM436 715l-123 -154h-61l109 154h75z" />
    <glyph glyph-name="Abreve.sc" horiz-adv-x="578" 
d="M405 713l48 -1q-3 -64 -48 -102.5t-115 -38.5q-69 0 -114.5 38.5t-47.5 102.5l48 1q3 -45 34 -71.5t80 -26.5t80.5 26t34.5 72zM329 500l225 -500h-75l-58 131h-264l-58 -131h-75l225 500h80zM289 436l-117 -258h234z" />
    <glyph glyph-name="Acaron.sc" horiz-adv-x="578" 
d="M446 715l-120 -154h-73l-121 154h59l98 -117l99 117h58zM329 500l225 -500h-75l-58 131h-264l-58 -131h-75l225 500h80zM289 436l-117 -258h234z" />
    <glyph glyph-name="Acircumflex.sc" horiz-adv-x="578" 
d="M326 715l121 -154h-59l-99 117l-98 -117h-59l121 154h73zM329 500l225 -500h-75l-58 131h-264l-58 -131h-75l225 500h80zM289 436l-117 -258h234z" />
    <glyph glyph-name="Acircumflexdotbelow.sc" horiz-adv-x="578" 
d="M326 715l121 -154h-59l-99 117l-98 -117h-59l121 154h73zM329 500l225 -500h-75l-58 131h-264l-58 -131h-75l225 500h80zM289 436l-117 -258h234zM265 -161q10 9 24 9t23 -9q10 -10 10 -24t-10 -23q-9 -10 -23 -10t-24 10q-9 9 -9 23t9 24z" />
    <glyph glyph-name="Adieresis.sc" horiz-adv-x="578" 
d="M185 614q-14 0 -23.5 9.5t-9.5 24.5q0 21 20.5 30t35.5 -7q16 -15 7 -36t-30 -21zM427 648q0 -15 -9.5 -24.5t-23.5 -9.5q-15 0 -24.5 9.5t-9.5 24.5q0 20 17 28.5t33.5 0t16.5 -28.5zM329 500l225 -500h-75l-58 131h-264l-58 -131h-75l225 500h80zM289 436l-117 -258
h234z" />
    <glyph glyph-name="Adieresismacron.sc" horiz-adv-x="590" 
d="M436 794v-44h-284v44h284zM190 681q21 0 30 -20.5t-7 -37.5q-15 -15 -35.5 -6.5t-20.5 31.5q0 14 9.5 23.5t23.5 9.5zM374 671q15 15 33.5 8.5t23 -23.5t-8.5 -33q-9 -9 -23.5 -9t-24.5 9q-9 10 -9 24.5t9 23.5zM334 500l225 -500h-75l-59 131h-263l-58 -131h-75l225 500
h80zM294 436l-117 -258h234z" />
    <glyph glyph-name="Agrave.sc" horiz-adv-x="578" 
d="M216 715l109 -154h-60l-123 154h74zM329 500l225 -500h-75l-58 131h-264l-58 -131h-75l225 500h80zM289 436l-117 -258h234z" />
    <glyph glyph-name="Amacron.sc" horiz-adv-x="578" 
d="M431 670v-45h-284v45h284zM329 500l225 -500h-75l-58 131h-264l-58 -131h-75l225 500h80zM289 436l-117 -258h234z" />
    <glyph glyph-name="Aogonek.sc" horiz-adv-x="590" 
d="M335 500l225 -500l-33 -2l-24 -30q-32 -43 -29 -77q0 -26 21 -43.5t50 -17.5q33 -2 60 21l13 -34q-38 -26 -85 -26q-42 0 -70.5 21t-32.5 55q-9 46 33 106l22 27l-59 131h-263l-58 -131h-75l225 500h80zM295 436l-117 -258h234z" />
    <glyph glyph-name="Aring.sc" horiz-adv-x="578" 
d="M407 645q0 -47 -34.5 -81t-83.5 -34t-83 33q-34 34 -34 82t34 81q34 34 83 34t83 -34q35 -33 35 -81zM289 724q-33 0 -56.5 -23t-23.5 -56t23.5 -56t56.5 -23q34 0 57.5 23t23.5 56t-23.5 56t-57.5 23zM329 500l225 -500h-75l-58 131h-264l-58 -131h-75l225 500h80z
M289 436l-117 -258h234z" />
    <glyph glyph-name="Atilde.sc" horiz-adv-x="578" 
d="M203 706q32 0 80 -30q47 -30 75 -33q26 -2 44.5 13.5t25.5 46.5l31 -5q-3 -46 -29 -74t-62 -28t-85 32l-8 4q-4 2 -10.5 6t-8.5 5.5t-6.5 4t-6 3.5t-5 2.5t-5 2t-4.5 1t-5 1t-5 1t-7 0.5q-22 1 -38.5 -14.5t-21.5 -44.5l-31 4q2 48 24 75t58 27zM329 500l225 -500h-75
l-58 131h-264l-58 -131h-75l225 500h80zM289 436l-117 -258h234z" />
    <glyph glyph-name="B.sc" horiz-adv-x="550" 
d="M81 0v500h234q81 0 125 -32.5t44 -92.5q0 -84 -85 -112q55 -12 82.5 -46t27.5 -81q0 -61 -44 -98.5t-133 -37.5h-251zM149 451v-172h151q116 0 116 87q0 85 -116 85h-151zM149 237v-188h169q62 0 92.5 26t30.5 68q0 43 -30 68.5t-93 25.5h-169z" />
    <glyph glyph-name="Bdotbelow.sc" horiz-adv-x="550" 
d="M81 0v500h234q81 0 125 -32.5t44 -92.5q0 -84 -85 -112q55 -12 82.5 -46t27.5 -81q0 -61 -44 -98.5t-133 -37.5h-251zM149 451v-172h151q116 0 116 87q0 85 -116 85h-151zM149 237v-188h169q62 0 92.5 26t30.5 68q0 43 -30 68.5t-93 25.5h-169zM242 -161q10 9 24 9t23 -9
q10 -10 10 -24t-10 -23q-9 -10 -23 -10t-24 10q-9 9 -9 23t9 24z" />
    <glyph glyph-name="C.sc" horiz-adv-x="575" 
d="M324 510q62 0 118 -27t92 -73l-54 -32q-61 76 -156 76q-84 0 -143 -60q-58 -58 -58 -144q0 -85 59 -144.5t142 -59.5q95 0 156 76l54 -32q-37 -46 -92 -73t-118 -27q-111 0 -190 76t-79 184q0 107 79 183q80 77 190 77z" />
    <glyph glyph-name="Cacute.sc" horiz-adv-x="575" 
d="M459 715l-123 -154h-60l108 154h75zM324 510q62 0 118 -27t92 -73l-54 -32q-61 76 -156 76q-83 0 -142 -60t-59 -144q0 -86 58 -145q59 -59 143 -59q95 0 156 76l54 -32q-36 -46 -92 -73t-118 -27q-111 0 -190 76t-79 184q0 107 79 183q80 77 190 77z" />
    <glyph glyph-name="Ccaron.sc" horiz-adv-x="575" 
d="M470 715l-121 -154h-73l-121 154h59l98 -117l99 117h59zM324 510q62 0 118 -27t92 -73l-54 -32q-61 76 -156 76q-84 0 -142.5 -59.5t-58.5 -144.5q0 -86 58 -145q59 -59 143 -59q95 0 156 76l54 -32q-36 -46 -92 -73t-118 -27q-111 0 -190 76t-79 184q0 107 79 183
q80 77 190 77z" />
    <glyph glyph-name="Ccedilla.sc" horiz-adv-x="575" 
d="M324 510q62 0 118 -27t92 -73l-54 -32q-61 76 -156 76q-84 0 -143 -60q-58 -58 -58 -144t58 -145q59 -59 143 -59q95 0 156 76l54 -32q-33 -41 -83 -67t-106 -30q-31 -2 -56 1l-22 -44q19 9 44 7q34 -3 56.5 -25.5t22.5 -55.5q0 -40 -31 -65t-78 -25q-55 0 -99 23l12 28
q34 -17 77 -17q33 0 54 18t21 45q0 25 -17 40.5t-43 16.5q-32 0 -51 -19l-14 12l33 66q-88 23 -143 93q-56 71 -56 158q0 107 79 183q80 77 190 77z" />
    <glyph glyph-name="Cdotaccent.sc" horiz-adv-x="575" 
d="M288 671q15 15 33.5 8.5t23 -23.5t-8.5 -33q-9 -9 -23.5 -9t-24.5 9q-9 10 -9 24.5t9 23.5zM324 510q62 0 118 -27t92 -73l-54 -32q-61 76 -156 76q-84 0 -143 -60q-58 -58 -58 -144q0 -85 59 -144.5t142 -59.5q95 0 156 76l54 -32q-36 -46 -92 -73t-118 -27
q-111 0 -190 76t-79 184q0 107 79 183q80 77 190 77z" />
    <glyph glyph-name="D.sc" horiz-adv-x="604" 
d="M81 0v500h199q112 0 189 -73q79 -72 79 -177t-79 -178q-78 -72 -189 -72h-199zM278 447h-129v-394h129q84 0 143 56q59 57 59 141t-58.5 140.5t-143.5 56.5z" />
    <glyph glyph-name="Dcaron.sc" horiz-adv-x="604" 
d="M446 715l-121 -154h-72l-121 154h58l99 -117l98 117h59zM81 0v500h199q112 0 189 -73q79 -72 79 -177t-79 -178q-78 -72 -189 -72h-199zM278 447h-129v-394h129q84 0 143 56q59 57 59 141t-59 140q-59 57 -143 57z" />
    <glyph glyph-name="Dcircumflexbelow.sc" horiz-adv-x="604" 
d="M81 0v500h199q112 0 189 -73q79 -72 79 -177t-79 -178q-78 -72 -189 -72h-199zM278 447h-129v-394h129q84 0 143 56q59 57 59 141t-58.5 140.5t-143.5 56.5zM316 -64l121 -154h-59l-98 117l-99 -117h-58l121 154h72z" />
    <glyph glyph-name="Dcroat.sc" horiz-adv-x="604" 
d="M82 271v229h199q112 0 189 -73q79 -72 79 -177t-79 -178q-78 -72 -189 -72h-199v229h-83v42h83zM150 229v-176h129q84 0 143 56q59 57 59 141t-58.5 140.5t-143.5 56.5h-129v-176h174v-42h-174z" />
    <glyph glyph-name="Ddotbelow.sc" horiz-adv-x="604" 
d="M81 0v500h199q112 0 189 -73q79 -72 79 -177t-79 -178q-78 -72 -189 -72h-199zM278 447h-129v-394h129q84 0 143 56q59 57 59 141t-58.5 140.5t-143.5 56.5zM256 -161q10 9 24 9t23 -9q10 -10 10 -24t-10 -23q-9 -10 -23 -10t-24 10q-9 9 -9 23t9 24z" />
    <glyph glyph-name="Dlinebelow.sc" horiz-adv-x="604" 
d="M81 0v500h199q112 0 189 -73q79 -72 79 -177t-79 -178q-78 -72 -189 -72h-199zM278 447h-129v-394h129q84 0 143 56q59 57 59 141t-58.5 140.5t-143.5 56.5zM422 -127v-44h-284v44h284z" />
    <glyph glyph-name="E.sc" horiz-adv-x="511" 
d="M464 500v-51h-315v-173h290v-46h-290v-179h322v-51h-390v500h383z" />
    <glyph glyph-name="Eacute.sc" horiz-adv-x="511" 
d="M421 715l-123 -154h-60l109 154h74zM463 500v-51h-314v-173h290v-46h-290v-179h322v-51h-390v500h382z" />
    <glyph glyph-name="Ecaron.sc" horiz-adv-x="511" 
d="M432 715l-121 -154h-73l-120 154h58l99 -117l98 117h59zM464 500v-51h-315v-173h290v-46h-290v-179h322v-51h-390v500h383z" />
    <glyph glyph-name="Ecircumflex.sc" horiz-adv-x="511" 
d="M311 715l121 -154h-59l-98 117l-99 -117h-58l121 154h72zM463 500v-51h-314v-173h290v-46h-290v-179h322v-51h-390v500h382z" />
    <glyph glyph-name="Ecircumflexdotbelow.sc" horiz-adv-x="511" 
d="M311 715l121 -154h-59l-98 117l-99 -117h-58l121 154h72zM463 500v-51h-314v-173h290v-46h-290v-179h322v-51h-390v500h382zM232 -161q10 9 24 9t23 -9q10 -10 10 -24t-10 -23q-9 -10 -23 -10t-24 10q-9 9 -9 23t9 24z" />
    <glyph glyph-name="Edieresis.sc" horiz-adv-x="511" 
d="M171 614q-15 0 -24.5 9.5t-9.5 24.5q0 21 21 30t36 -7q16 -15 7 -36t-30 -21zM379 614q-14 0 -23.5 9.5t-9.5 24.5q0 21 20.5 30t35.5 -7q16 -15 7 -36t-30 -21zM463 500v-51h-314v-173h290v-46h-290v-179h322v-51h-390v500h382z" />
    <glyph glyph-name="Edotaccent.sc" horiz-adv-x="511" 
d="M251 671q15 15 33 8.5t22.5 -23.5t-8.5 -33q-9 -9 -23 -9t-24 9q-9 10 -9 24.5t9 23.5zM464 500v-51h-315v-173h290v-46h-290v-179h322v-51h-390v500h383z" />
    <glyph glyph-name="Edotbelow.sc" horiz-adv-x="511" 
d="M464 500v-51h-315v-173h290v-46h-290v-179h322v-51h-390v500h383zM232 -161q10 9 24 9t23 -9q10 -10 10 -24t-10 -23q-9 -10 -23 -10t-24 10q-9 9 -9 23t9 24z" />
    <glyph glyph-name="Egrave.sc" horiz-adv-x="511" 
d="M202 715l109 -154h-61l-123 154h75zM463 500v-51h-314v-173h290v-46h-290v-179h322v-51h-390v500h382z" />
    <glyph glyph-name="Emacron.sc" horiz-adv-x="511" 
d="M417 670v-45h-284v45h284zM464 500v-51h-315v-173h290v-46h-290v-179h322v-51h-390v500h383z" />
    <glyph glyph-name="Eogonek.sc" horiz-adv-x="511" 
d="M464 500v-51h-315v-173h290v-46h-290v-179h322v-51h-91l-20 -26q-28 -39 -27 -73q1 -26 21 -42.5t50 -18.5q33 -2 60 21l13 -33q-37 -27 -85 -27q-42 0 -70.5 21t-32.5 56q-8 46 32 102l15 20h-255v500h383z" />
    <glyph glyph-name="Eth.sc" horiz-adv-x="604" 
d="M82 271v229h199q112 0 189 -73q79 -72 79 -177t-79 -178q-78 -72 -189 -72h-199v229h-83v42h83zM150 229v-176h129q84 0 143 56q59 57 59 141t-58.5 140.5t-143.5 56.5h-129v-176h174v-42h-174z" />
    <glyph glyph-name="Etilde.sc" horiz-adv-x="511" 
d="M188 706q32 0 80 -30q46 -30 75 -33q54 -5 71 60l31 -5q-4 -47 -29.5 -74.5t-62.5 -27.5q-34 0 -85 32q-3 2 -7 4q-42 26 -64 27q-21 2 -37.5 -14t-22.5 -45l-31 4q2 48 24 75t58 27zM463 500v-51h-314v-173h290v-46h-290v-179h322v-51h-390v500h382z" />
    <glyph glyph-name="F.sc" horiz-adv-x="487" 
d="M446 500v-52h-297v-184h272v-49h-272v-215h-68v500h365z" />
    <glyph glyph-name="G.sc" horiz-adv-x="616" 
d="M328 510q111 0 188 -72l-41 -38q-64 55 -147 55q-84 0 -145 -59q-60 -58 -60 -146q0 -84 59 -145q59 -59 143 -59q85 0 150 54v117h-156v38h219v-186q-89 -79 -213 -79q-112 0 -191 76t-79 184q0 110 80 185q81 75 193 75z" />
    <glyph glyph-name="Gbreve.sc" horiz-adv-x="616" 
d="M429 713l48 -1q-3 -64 -48 -102.5t-115 -38.5q-69 0 -114 38.5t-49 102.5l48 1q3 -45 34.5 -71.5t80.5 -26.5t80.5 26.5t34.5 71.5zM328 510q111 0 188 -72l-41 -38q-64 55 -147 55q-84 0 -145 -59q-60 -58 -60 -146q0 -84 59 -145q59 -59 143 -59q85 0 150 54v117h-155
v38h218v-186q-89 -79 -213 -79q-112 0 -191 76t-79 184q0 110 80 185q81 75 193 75z" />
    <glyph glyph-name="Gcaron.sc" horiz-adv-x="616" 
d="M470 715l-121 -154h-72l-121 154h58l99 -117l98 117h59zM328 510q110 0 188 -72l-41 -38q-64 55 -147 55q-85 0 -145 -59.5t-60 -145.5q0 -84 59 -145q59 -59 143 -59q85 0 150 54v117h-156v38h219v-186q-87 -79 -213 -79q-112 0 -191 76t-79 184q0 110 80 185
q81 75 193 75z" />
    <glyph glyph-name="Gcommaaccent.sc" horiz-adv-x="616" 
d="M328 510q111 0 188 -72l-41 -38q-64 55 -147 55q-84 0 -145 -59q-60 -58 -60 -146q0 -84 59 -145q59 -59 143 -59q85 0 150 54v117h-156v38h219v-186q-89 -79 -213 -79q-112 0 -191 76t-79 184q0 110 80 185q81 75 193 75zM362 -106q0 -10 -6 -18l-78 -121l-20 10l50 99
q-21 9 -21 30q0 20 18.5 28.5t37.5 0t19 -28.5z" />
    <glyph glyph-name="Gdotaccent.sc" horiz-adv-x="616" 
d="M313 614q-14 0 -23.5 9.5t-9.5 24.5q0 21 20.5 30t35.5 -7q16 -15 7 -36t-30 -21zM328 510q110 0 188 -72l-41 -38q-64 55 -147 55q-85 0 -145 -59.5t-60 -145.5q0 -84 59 -145q59 -59 143 -59q85 0 150 54v117h-156v38h219v-186q-91 -79 -213 -79q-112 0 -191 76
t-79 184q0 110 80 185q81 75 193 75z" />
    <glyph glyph-name="H.sc" horiz-adv-x="615" 
d="M533 500v-500h-68v225h-315v-225h-69v500h69v-219h315v219h68z" />
    <glyph glyph-name="Hbar.sc" horiz-adv-x="615" 
d="M615 414v-36h-82v-378h-68v225h-316v-225h-68v378h-81v36h81v86h68v-86h316v86h68v-86h82zM465 281v97h-316v-97h316z" />
    <glyph glyph-name="Hdotbelow.sc" horiz-adv-x="615" 
d="M533 500v-500h-68v225h-315v-225h-69v500h69v-219h315v219h68zM284 -161q10 9 24 9t23 -9q10 -10 10 -24t-10 -23q-9 -10 -23 -10t-24 10q-9 9 -9 23t9 24z" />
    <glyph glyph-name="I.sc" horiz-adv-x="231" 
d="M150 500v-500h-69v500h69z" />
    <glyph glyph-name="IJ.sc" horiz-adv-x="683" 
d="M150 500v-500h-69v500h69zM534 500h67v-320q0 -94 -46.5 -142t-132.5 -48q-111 0 -167 74l53 31q45 -48 111 -48q53 0 84 33.5t31 95.5v324z" />
    <glyph glyph-name="Iacute.sc" horiz-adv-x="231" 
d="M261 715l-123 -154h-60l108 154h75zM149 500v-500h-69v500h69z" />
    <glyph glyph-name="Icircumflex.sc" horiz-adv-x="231" 
d="M153 715l121 -154h-59l-98 117l-99 -117h-59l121 154h73zM151 500v-500h-69v500h69z" />
    <glyph glyph-name="Idieresis.sc" horiz-adv-x="231" 
d="M-11 671q9 10 23.5 10t23.5 -10q10 -9 10 -23.5t-10 -24.5q-9 -9 -23.5 -9t-23.5 9q-10 10 -10 24.5t10 23.5zM197 671q15 15 33 8.5t22.5 -23.5t-8.5 -33q-9 -9 -23 -9t-24 9q-9 10 -9 24.5t9 23.5zM151 500v-500h-69v500h69z" />
    <glyph glyph-name="Idieresisacute.sc" horiz-adv-x="231" 
d="M263 876l-123 -155h-60l108 155h75zM-11 646q9 10 23.5 10t23.5 -10q10 -9 10 -23.5t-10 -24.5q-9 -9 -23.5 -9t-23.5 9q-10 10 -10 24.5t10 23.5zM197 646q15 15 33 8.5t22.5 -23.5t-8.5 -33q-9 -9 -23 -9t-24 9q-9 10 -9 24.5t9 23.5zM151 500v-500h-69v500h69z" />
    <glyph glyph-name="Idotaccent.sc" horiz-adv-x="231" 
d="M91 671q15 15 33.5 8.5t23 -23.5t-8.5 -33q-9 -9 -23.5 -9t-24.5 9q-9 10 -9 24.5t9 23.5zM150 500v-500h-69v500h69z" />
    <glyph glyph-name="Igrave.sc" horiz-adv-x="231" 
d="M44 715l108 -154h-60l-123 154h75zM151 500v-500h-69v500h69z" />
    <glyph glyph-name="Imacron.sc" horiz-adv-x="231" 
d="M259 670v-45h-285v45h285zM151 500v-500h-69v500h69z" />
    <glyph glyph-name="Iogonek.sc" horiz-adv-x="231" 
d="M158 500v-503l-23 -29q-32 -43 -29 -77q0 -27 20.5 -44t49.5 -17q34 -1 61 21l13 -34q-38 -26 -85 -26q-42 0 -70.5 21t-32.5 55q-9 46 33 106l15 20l-21 7v500h69z" />
    <glyph glyph-name="Itilde.sc" horiz-adv-x="231" 
d="M29 706q32 0 80 -30q47 -30 75 -33q56 -5 70 60l32 -5q-4 -47 -29.5 -74.5t-62.5 -27.5q-36 0 -85 32q-1 0 -3 1.5t-4 2.5q-6 3 -13.5 7.5t-10.5 6t-7.5 4.5t-6.5 3.5t-5.5 2t-6.5 2l-6 1t-8 0.5q-22 1 -38 -14.5t-22 -44.5l-31 4q2 48 24 75t58 27zM150 500v-500h-69
v500h69z" />
    <glyph glyph-name="J.sc" horiz-adv-x="452" 
d="M303 500h67v-320q0 -94 -46.5 -142t-132.5 -48q-111 0 -167 74l53 31q45 -48 111 -48q52 0 83.5 33t31.5 96v324z" />
    <glyph glyph-name="K.sc" horiz-adv-x="545" 
d="M509 500l-192 -198l204 -302h-83l-166 249l-122 -120v-129h-69v500h69v-276l272 276h87z" />
    <glyph glyph-name="Kcommaaccent.sc" horiz-adv-x="545" 
d="M509 500l-192 -198l204 -302h-83l-166 249l-122 -120v-129h-69v500h69v-276l272 276h87zM325 -106q0 -10 -5 -18l-78 -121l-21 10l51 99q-21 9 -21 30q-1 20 18 28.5t38 0t18 -28.5z" />
    <glyph glyph-name="L.sc" horiz-adv-x="458" 
d="M150 500v-448h284v-52h-353v500h69z" />
    <glyph glyph-name="Lacute.sc" horiz-adv-x="458" 
d="M383 715l-124 -154h-60l109 154h75zM150 500v-448h284v-52h-353v500h69z" />
    <glyph glyph-name="Lcaron.sc" horiz-adv-x="458" 
d="M405 477q0 -11 -6 -18l-78 -121l-20 10l50 99q-21 9 -21 30q0 20 19 28.5t37.5 0t18.5 -28.5zM150 500v-448h284v-52h-353v500h69z" />
    <glyph glyph-name="Lcircumflexbelow.sc" horiz-adv-x="458" 
d="M150 500v-448h284v-52h-353v500h69zM284 -64l121 -154h-59l-98 117l-99 -117h-58l120 154h73z" />
    <glyph glyph-name="Lcommaaccent.sc" horiz-adv-x="458" 
d="M150 500v-448h284v-52h-353v500h69zM300 -106q0 -10 -6 -18l-78 -121l-20 10l50 99q-20 9 -20 30q-1 20 18 28.5t38 0t18 -28.5z" />
    <glyph glyph-name="Ldot.sc" horiz-adv-x="458" 
d="M150 500v-448h284v-52h-353v500h69zM291 326q22 22 50 5q26 -17 20 -40q-3 -10 -12 -17q-22 -22 -50 -5q-26 17 -20 40q3 10 12 17z" />
    <glyph glyph-name="Lslash.sc" horiz-adv-x="458" 
d="M151 52h284v-52h-353v236l-84 -56v59l84 57v204h69v-158l106 71v-59l-106 -72v-230z" />
    <glyph glyph-name="M.sc" horiz-adv-x="754" 
d="M672 500v-500h-67v405l-214 -358h-34l-213 358v-405h-68v500h86l212 -355l213 355h85z" />
    <glyph glyph-name="Macute.sc" horiz-adv-x="754" 
d="M672 500v-500h-67v405l-214 -358h-34l-213 358v-405h-68v500h86l212 -355l213 355h85zM521 715l-123 -154h-61l109 154h75z" />
    <glyph glyph-name="N.sc" horiz-adv-x="605" 
d="M528 500v-500h-73l-311 395v-395h-68v500h73l312 -396v396h67z" />
    <glyph glyph-name="Nacute.sc" horiz-adv-x="605" 
d="M448 715l-123 -154h-60l109 154h74zM528 500v-500h-73l-311 395v-395h-68v500h73l312 -396v396h67z" />
    <glyph glyph-name="Ncaron.sc" horiz-adv-x="605" 
d="M459 715l-121 -154h-72l-121 154h58l99 -117l99 117h58zM528 500v-500h-73l-311 395v-395h-68v500h73l312 -396v396h67z" />
    <glyph glyph-name="Ncircumflexbelow.sc" horiz-adv-x="605" 
d="M338 -64l121 -154h-58l-99 117l-98 -117h-59l121 154h72zM528 500v-500h-73l-311 395v-395h-68v500h73l312 -396v396h67z" />
    <glyph glyph-name="Ncommaaccent.sc" horiz-adv-x="605" 
d="M528 500v-500h-73l-311 395v-395h-68v500h73l312 -396v396h67zM354 -106q0 -10 -5 -18l-78 -121l-21 10l51 99q-21 9 -21 30q0 20 18.5 28.5t37 0t18.5 -28.5z" />
    <glyph glyph-name="Ndotaccent.sc" horiz-adv-x="605" 
d="M278 671q15 15 33 8.5t22.5 -23.5t-8.5 -33q-9 -9 -23 -9t-24 9q-9 10 -9 24.5t9 23.5zM528 500v-500h-73l-311 395v-395h-68v500h73l312 -396v396h67z" />
    <glyph glyph-name="Ndotbelow.sc" horiz-adv-x="605" 
d="M528 500v-500h-73l-311 395v-395h-68v500h73l312 -396v396h67zM278 -161q10 9 24 9t23 -9q10 -10 10 -24t-10 -23q-9 -10 -23 -10t-24 10q-9 9 -9 23t9 24z" />
    <glyph glyph-name="Ntilde.sc" horiz-adv-x="605" 
d="M216 706q34 0 79 -30q48 -30 76 -33q53 -5 70 60l31 -5q-4 -47 -29.5 -74.5t-62.5 -27.5q-33 0 -84 32l-8 4q-42 26 -64 27q-21 2 -37.5 -14t-22.5 -45l-31 4q3 48 25 75t58 27zM528 500v-500h-73l-311 395v-395h-68v500h73l312 -396v396h67z" />
    <glyph glyph-name="O.sc" horiz-adv-x="649" 
d="M324 510q110 0 190 -77q79 -76 79 -183q0 -108 -79 -184t-190 -76t-190 76q-78 76 -78 184q-2 106 78 183t190 77zM466 394q-58 60 -142 60t-142 -60q-58 -58 -58 -144t58 -145q59 -59 142 -59t142 59q58 59 58 145t-58 144z" />
    <glyph glyph-name="OE.sc" horiz-adv-x="960" 
d="M324 510q69 0 125.5 -37t80.5 -95v122h382v-51h-315v-173h291v-46h-291v-179h322v-51h-389v122q-25 -59 -81.5 -95.5t-124.5 -36.5q-111 0 -190 76q-78 76 -78 184q-2 106 78 183t190 77zM324 454q-84 0 -142 -60q-58 -58 -58 -144q0 -85 58.5 -144.5t141.5 -59.5t142 59
q58 59 58 145q0 85 -58 144.5t-142 59.5z" />
    <glyph glyph-name="Oacute.sc" horiz-adv-x="649" 
d="M471 715l-123 -154h-60l108 154h75zM324 510q110 0 190 -77q79 -76 79 -183q0 -108 -79 -184t-190 -76t-190 76q-78 76 -78 184q-2 106 78 183t190 77zM466 394q-58 60 -142 60t-142 -60q-58 -58 -58 -144t58 -145q59 -59 142 -59t142 59q58 59 58 145t-58 144z" />
    <glyph glyph-name="Ocaron.sc" horiz-adv-x="649" 
d="M482 715l-121 -154h-73l-121 154h59l98 -117l99 117h59zM324 510q110 0 190 -77q79 -76 79 -183q0 -108 -79 -184t-190 -76t-190 76q-78 76 -78 184q-2 106 78 183t190 77zM466 394q-58 60 -142 60t-142 -60q-58 -58 -58 -144t58 -145q59 -59 142 -59t142 59
q58 59 58 145t-58 144z" />
    <glyph glyph-name="Ocircumflex.sc" horiz-adv-x="649" 
d="M361 715l121 -154h-59l-98 117l-99 -117h-59l121 154h73zM324 510q110 0 190 -77q79 -76 79 -183q0 -108 -79 -184t-190 -76t-190 76q-78 76 -78 184q-2 106 78 183t190 77zM466 394q-58 60 -142 60t-142 -60q-58 -58 -58 -144t58 -145q59 -59 142 -59t142 59
q58 59 58 145t-58 144z" />
    <glyph glyph-name="Ocircumflexdotbelow.sc" horiz-adv-x="649" 
d="M361 715l121 -154h-59l-98 117l-99 -117h-59l121 154h73zM324 510q110 0 190 -77q79 -76 79 -183q0 -108 -79 -184t-190 -76t-190 76q-78 76 -78 184q-2 106 78 183t190 77zM466 394q-58 60 -142 60t-142 -60q-58 -58 -58 -144t58 -145q59 -59 142 -59t142 59
q58 59 58 145t-58 144zM300 -161q10 9 24.5 9t23.5 -9q10 -10 10 -24t-10 -23q-9 -10 -23.5 -10t-24.5 10q-9 9 -9 23t9 24z" />
    <glyph glyph-name="Odieresis.sc" horiz-adv-x="649" 
d="M220 681q23 0 31.5 -20.5t-7.5 -37.5q-15 -15 -36 -6t-21 31q0 14 9.5 23.5t23.5 9.5zM405 671q15 15 33 8.5t22.5 -23.5t-8.5 -33q-9 -9 -23 -9t-24 9q-9 10 -9 24.5t9 23.5zM324 510q110 0 190 -77q79 -76 79 -183q0 -108 -79 -184t-190 -76t-190 76q-78 76 -78 184
q-2 106 78 183t190 77zM466 394q-58 60 -142 60t-142 -60q-58 -58 -58 -144t58 -145q59 -59 142 -59t142 59q58 59 58 145t-58 144z" />
    <glyph glyph-name="Odotbelow.sc" horiz-adv-x="649" 
d="M324 510q110 0 190 -77q79 -76 79 -183q0 -108 -79 -184t-190 -76t-190 76q-78 76 -78 184q-2 106 78 183t190 77zM466 394q-58 60 -142 60t-142 -60q-58 -58 -58 -144t58 -145q59 -59 142 -59t142 59q58 59 58 145t-58 144zM300 -161q10 9 24.5 9t23.5 -9q10 -10 10 -24
t-10 -23q-9 -10 -23.5 -10t-24.5 10q-9 9 -9 23t9 24z" />
    <glyph glyph-name="Ograve.sc" horiz-adv-x="649" 
d="M252 715l108 -154h-60l-123 154h75zM324 510q110 0 190 -77q79 -76 79 -183q0 -108 -79 -184t-190 -76t-190 76q-78 76 -78 184q-2 106 78 183t190 77zM466 394q-58 60 -142 60t-142 -60q-58 -58 -58 -144t58 -145q59 -59 142 -59t142 59q58 59 58 145t-58 144z" />
    <glyph glyph-name="Ohungarumlaut.sc" horiz-adv-x="649" 
d="M389 715l-123 -154h-60l108 154h75zM576 715l-123 -154h-60l109 154h74zM324 510q110 0 190 -77q79 -76 79 -183q0 -108 -79 -184t-190 -76t-190 76q-78 76 -78 184q-2 106 78 183t190 77zM324 454q-84 0 -142 -60q-58 -58 -58 -144t58 -145q59 -59 142 -59t142 59
q58 59 58 145q0 85 -58 144.5t-142 59.5z" />
    <glyph glyph-name="Omacron.sc" horiz-adv-x="649" 
d="M324 510q110 0 190 -77q79 -76 79 -183q0 -108 -79 -184t-190 -76t-190 76q-78 76 -78 184q-2 106 78 183t190 77zM466 394q-58 60 -142 60t-142 -60q-58 -58 -58 -144t58 -145q59 -59 142 -59t142 59q58 59 58 145t-58 144zM467 670v-45h-285v45h285z" />
    <glyph glyph-name="Omacronacute.sc" horiz-adv-x="649" 
d="M471 876l-123 -155h-60l108 155h75zM467 670v-45h-285v45h285zM324 510q110 0 190 -77q79 -76 79 -183q0 -108 -79 -184t-190 -76t-190 76q-78 76 -78 184q-2 106 78 183t190 77zM124 250q0 -85 58.5 -144.5t141.5 -59.5t142 59q58 59 58 145t-58 144q-58 60 -142 60
t-142 -60q-58 -58 -58 -144z" />
    <glyph glyph-name="Omacrongrave.sc" horiz-adv-x="649" 
d="M252 876l108 -155h-60l-123 155h75zM467 670v-45h-285v45h285zM324 510q110 0 190 -77q79 -76 79 -183q0 -108 -79 -184t-190 -76t-190 76q-78 76 -78 184q-2 106 78 183t190 77zM124 250q0 -85 58.5 -144.5t141.5 -59.5t142 59q58 59 58 145t-58 144q-58 60 -142 60
t-142 -60q-58 -58 -58 -144z" />
    <glyph glyph-name="Oslash.sc" horiz-adv-x="649" 
d="M446 550h42l-34 -72q64 -34 101.5 -95.5t37.5 -132.5q0 -108 -79 -184t-190 -76q-47 0 -95 17l-27 -57h-42l35 72q-64 35 -101.5 95t-37.5 133q-2 106 78 183t190 77q47 0 95 -17zM124 250q0 -54 25.5 -100.5t70.5 -74.5l174 366q-32 13 -70 13q-84 0 -142 -60
q-58 -58 -58 -144zM324 46q83 0 142 59q58 59 58 145q0 55 -25.5 101t-69.5 74l-175 -366q33 -13 70 -13z" />
    <glyph glyph-name="Oslashacute.sc" horiz-adv-x="649" 
d="M459 715l-123 -154h-60l109 154h74zM446 550h42l-34 -72q64 -34 101.5 -95.5t37.5 -132.5q0 -108 -79 -184t-190 -76q-47 0 -95 17l-27 -57h-42l35 72q-64 35 -101.5 95t-37.5 133q-2 106 78 183t190 77q47 0 95 -17zM124 250q0 -54 25.5 -100.5t70.5 -74.5l174 366
q-32 13 -70 13q-84 0 -142 -60q-58 -58 -58 -144zM324 46q83 0 142 59q58 59 58 145q0 55 -25.5 101t-69.5 74l-175 -366q33 -13 70 -13z" />
    <glyph glyph-name="Otilde.sc" horiz-adv-x="649" 
d="M238 706q32 0 80 -30q46 -30 75 -33q56 -5 70 60l32 -5q-4 -47 -29.5 -74.5t-62.5 -27.5q-34 0 -85 32l-2 2q-3 1 -5 2q-44 26 -64 27q-48 3 -60 -59l-31 4q2 48 24 75t58 27zM324 510q110 0 190 -77q79 -76 79 -183q0 -108 -79 -184t-190 -76t-190 76q-78 76 -78 184
q-2 106 78 183t190 77zM124 250q0 -85 58.5 -144.5t141.5 -59.5t142 59q58 59 58 145t-58 144q-58 60 -142 60t-142 -60q-58 -58 -58 -144z" />
    <glyph glyph-name="Otildeacute.sc" horiz-adv-x="649" 
d="M471 876l-123 -155h-60l108 155h75zM238 706q32 0 80 -30q46 -30 75 -33q56 -5 70 60l32 -5q-4 -47 -29.5 -74.5t-62.5 -27.5q-34 0 -85 32l-2 2q-3 1 -5 2q-44 26 -64 27q-48 3 -60 -59l-31 4q2 48 24 75t58 27zM324 510q110 0 190 -77q79 -76 79 -183q0 -108 -79 -184
t-190 -76t-190 76q-78 76 -78 184q-2 106 78 183t190 77zM124 250q0 -85 58.5 -144.5t141.5 -59.5t142 59q58 59 58 145t-58 144q-58 60 -142 60t-142 -60q-58 -58 -58 -144z" />
    <glyph glyph-name="P.sc" horiz-adv-x="551" 
d="M81 0v500h209q108 0 160.5 -42.5t52.5 -129.5q0 -169 -212 -169h-141v-159h-69zM291 446h-141v-237h142q75 0 110 28t35 89q0 63 -34.5 91.5t-111.5 28.5z" />
    <glyph glyph-name="Q.sc" horiz-adv-x="649" 
d="M324 510q110 0 190 -77q79 -76 79 -183q0 -108 -81 -185l78 -78l-26 -24l-80 79q-70 -52 -160 -52q-111 0 -190 76q-78 76 -78 184q-2 106 78 183t190 77zM324 46q65 0 117 40l-79 79l26 24l76 -76q60 56 60 137q0 86 -58 144q-58 60 -142 60t-142 -60q-58 -58 -58 -144
t58 -145q59 -59 142 -59z" />
    <glyph glyph-name="R.sc" horiz-adv-x="558" 
d="M81 0v500h222q111 0 161 -38t50 -120q0 -63 -28 -99t-90 -49l138 -194h-77l-130 184q-22 -2 -36 -2h-141v-182h-69zM150 444v-212h155q77 0 109 25t32 82t-32 81t-109 24h-155z" />
    <glyph glyph-name="Racute.sc" horiz-adv-x="558" 
d="M425 715l-123 -154h-60l109 154h74zM81 0v500h222q111 0 161 -38t50 -120q0 -63 -28 -99t-90 -49l138 -194h-77l-130 184q-22 -2 -36 -2h-141v-182h-69zM149 444v-212h156q77 0 109 25t32 82t-32 81t-109 24h-156z" />
    <glyph glyph-name="Rcaron.sc" horiz-adv-x="558" 
d="M436 715l-121 -154h-72l-121 154h58l99 -117l98 117h59zM81 0v500h222q111 0 161 -38t50 -120q0 -63 -28 -99t-90 -49l138 -194h-77l-130 184q-22 -2 -36 -2h-141v-182h-69zM150 444v-212h155q77 0 109 25t32 82t-32 81t-109 24h-155z" />
    <glyph glyph-name="Rcommaaccent.sc" horiz-adv-x="558" 
d="M81 0v500h222q111 0 161 -38t50 -120q0 -63 -28 -99t-90 -49l138 -194h-77l-130 184q-22 -2 -36 -2h-141v-182h-69zM150 444v-212h155q77 0 109 25t32 82t-32 81t-109 24h-155zM331 -106q0 -10 -5 -18l-78 -121l-21 10l51 99q-21 9 -21 30q-2 20 17.5 28.5t39 0
t17.5 -28.5z" />
    <glyph glyph-name="S.sc" horiz-adv-x="512" 
d="M249 510q119 0 202 -56l-26 -45q-80 52 -177 52q-54 0 -87.5 -23t-33.5 -64q0 -29 25 -47q27 -19 99 -38q16 -4 19 -5t48 -13q49 -12 78 -28q40 -23 50 -43q18 -32 18 -67q0 -69 -57 -106q-58 -38 -143 -37q-135 0 -226 64l26 44q39 -26 93.5 -42t103.5 -17q61 0 98 22.5
t37 64.5q0 36 -20 58q-8 10 -30 17q-19 8 -37 13l-51 15l-25 6q-97 25 -135.5 53.5t-38.5 78.5q0 68 53 105.5t137 37.5z" />
    <glyph glyph-name="Sacute.sc" horiz-adv-x="512" 
d="M402 715l-123 -154h-61l109 154h75zM249 510q119 0 202 -56l-26 -45q-80 52 -177 52q-55 0 -88 -22.5t-33 -64.5q0 -29 25 -47q27 -19 99 -38q16 -4 19 -5t48 -13q49 -12 78 -28q40 -23 50 -43q18 -32 18 -67q0 -69 -57 -106q-58 -38 -143 -37q-135 0 -226 64l26 44
q39 -26 93.5 -42t103.5 -17q61 0 98 22.5t37 64.5q0 37 -21 58q-8 9 -29 17q-19 8 -37 13l-51 15l-25 6q-97 25 -135.5 53.5t-38.5 78.5q0 68 53 105.5t137 37.5z" />
    <glyph glyph-name="Scaron.sc" horiz-adv-x="512" 
d="M412 715l-120 -154h-73l-121 154h59l98 -117l99 117h58zM249 510q119 0 202 -56l-26 -45q-80 52 -177 52q-54 0 -87.5 -23t-33.5 -64q0 -29 25 -47q27 -19 99 -38q16 -4 19 -5t48 -13q49 -12 78 -28q40 -23 50 -43q18 -32 18 -67q0 -69 -57 -106q-58 -38 -143 -37
q-135 0 -226 64l26 44q39 -26 93.5 -42t103.5 -17q61 0 98 22.5t37 64.5q0 36 -20 58q-8 10 -30 17q-19 8 -37 13l-51 15l-25 6q-97 25 -135.5 53.5t-38.5 78.5q0 68 53 105.5t137 37.5z" />
    <glyph glyph-name="Scedilla.sc" horiz-adv-x="512" 
d="M249 510q119 0 202 -56l-26 -45q-80 52 -177 52q-54 0 -87.5 -23t-33.5 -64q0 -29 24.5 -47t99.5 -38l19 -5q3 -1 48 -13q49 -12 78 -28q40 -23 50 -43q18 -32 18 -67q0 -67 -54 -104t-135 -39h-18l-20 -40q19 9 43 7q34 -3 56.5 -25.5t22.5 -55.5q0 -41 -30.5 -65.5
t-78.5 -24.5q-54 0 -98 23l11 28q34 -17 77 -17q33 0 54 18t21 45q0 24 -17 40t-42 17q-33 0 -52 -19l-14 12l30 59q-108 10 -182 62l26 44q39 -26 93.5 -42t103.5 -17q61 0 98 22.5t37 64.5q0 36 -20 58q-8 10 -30 17q-19 8 -37 13l-51 15l-25 6q-97 25 -135.5 53.5
t-38.5 78.5q0 68 53 105.5t137 37.5z" />
    <glyph glyph-name="Scommaaccent.sc" horiz-adv-x="512" 
d="M249 510q119 0 202 -56l-26 -45q-80 52 -177 52q-54 0 -87.5 -23t-33.5 -64q0 -29 25 -47q27 -19 99 -38q16 -4 19 -5t48 -13q49 -12 78 -28q40 -23 50 -43q18 -32 18 -67q0 -69 -57 -106q-58 -38 -143 -37q-135 0 -226 64l26 44q39 -26 93.5 -42t103.5 -17q61 0 98 22.5
t37 64.5q0 36 -20 58q-8 10 -30 17q-19 8 -37 13l-51 15l-25 6q-97 25 -135.5 53.5t-38.5 78.5q0 68 53 105.5t137 37.5zM308 -106q0 -10 -6 -18l-78 -121l-21 10l51 99q-21 9 -21 30q0 20 18.5 28.5t37.5 0t19 -28.5z" />
    <glyph glyph-name="Sdotbelow.sc" horiz-adv-x="512" 
d="M249 510q119 0 202 -56l-26 -45q-80 52 -177 52q-54 0 -87.5 -23t-33.5 -64q0 -29 25 -47q27 -19 99 -38q16 -4 19 -5t48 -13q49 -12 78 -28q40 -23 50 -43q18 -32 18 -67q0 -69 -57 -106q-58 -38 -143 -37q-135 0 -226 64l26 44q39 -26 93.5 -42t103.5 -17q61 0 98 22.5
t37 64.5q0 36 -20 58q-8 10 -30 17q-19 8 -37 13l-51 15l-25 6q-97 25 -135.5 53.5t-38.5 78.5q0 68 53 105.5t137 37.5zM231 -161q10 9 24.5 9t23.5 -9q10 -10 10 -24t-10 -23q-9 -10 -23.5 -10t-24.5 10q-9 9 -9 23t9 24z" />
    <glyph glyph-name="T.sc" horiz-adv-x="465" 
d="M440 500v-50h-173v-450h-69v450h-174v50h416z" />
    <glyph glyph-name="T_h" horiz-adv-x="1247" 
d="M41 700h704v-277q103 87 234 87q85 0 135 -50t50 -140v-320h-67v303q0 72 -38.5 112t-103.5 40q-122 0 -210 -82v-373h-67v638h-321v-638h-72v638h-244v62z" />
    <glyph glyph-name="Tbar.sc" horiz-adv-x="465" 
d="M440 450h-173v-165h107v-44h-107v-241h-69v241h-108v44h108v165h-174v50h416v-50z" />
    <glyph glyph-name="Tcaron.sc" horiz-adv-x="465" 
d="M389 715l-121 -154h-72l-121 154h58l99 -117l99 117h58zM440 500v-50h-173v-450h-69v450h-174v50h416z" />
    <glyph glyph-name="Tcedilla.sc" horiz-adv-x="465" 
d="M440 500v-50h-173v-453l-17 -4l-24 -47q22 8 44 7q34 -3 56.5 -26t22.5 -56q0 -39 -31.5 -64t-77.5 -25q-55 0 -99 23l12 28q34 -17 77 -17q32 0 53.5 18t21.5 44q0 25 -17 41t-43 16q-32 0 -51 -19l-14 12l32 65l-14 7v450h-174v50h416z" />
    <glyph glyph-name="Tcircumflexbelow.sc" horiz-adv-x="465" 
d="M268 -64l121 -154h-58l-99 117l-98 -117h-59l121 154h72zM440 500v-50h-173v-450h-69v450h-174v50h416z" />
    <glyph glyph-name="Tdotbelow.sc" horiz-adv-x="465" 
d="M440 500v-50h-173v-450h-69v450h-174v50h416zM208 -161q10 9 24 9t23 -9q10 -10 10 -24t-10 -23q-9 -10 -23 -10t-24 10q-9 9 -9 23t9 24z" />
    <glyph glyph-name="Thorn.sc" horiz-adv-x="551" 
d="M150 500v-58h140q108 0 160.5 -42.5t52.5 -129.5q0 -169 -212 -169h-141v-101h-69v500h69zM291 388h-141v-237h142q75 0 110 28t35 89q0 63 -34.5 91.5t-111.5 28.5z" />
    <glyph glyph-name="Tlinebelow.sc" horiz-adv-x="465" 
d="M440 500v-50h-173v-450h-69v450h-174v50h416zM374 -127v-44h-284v44h284z" />
    <glyph glyph-name="U.sc" horiz-adv-x="609" 
d="M465 500h68v-277q0 -110 -61 -171.5t-165 -61.5t-165 61.5t-61 171.5v277h69v-277q0 -84 42.5 -130t114.5 -46q73 0 115.5 46t42.5 130v277z" />
    <glyph glyph-name="Uacute.sc" horiz-adv-x="609" 
d="M451 715l-123 -154h-60l108 154h75zM465 500h68v-277q0 -110 -61 -171.5t-165 -61.5t-165 61.5t-61 171.5v277h69v-277q0 -84 42.5 -130t114.5 -46q73 0 115.5 46t42.5 130v277z" />
    <glyph glyph-name="Ucaron.sc" horiz-adv-x="609" 
d="M462 715l-121 -154h-73l-121 154h59l99 -117l98 117h59zM465 500h68v-277q0 -110 -61 -171.5t-165 -61.5t-165 61.5t-61 171.5v277h69v-277q0 -84 42.5 -130t114.5 -46q73 0 115.5 46t42.5 130v277z" />
    <glyph glyph-name="Ucircumflex.sc" horiz-adv-x="609" 
d="M341 715l121 -154h-59l-98 117l-99 -117h-58l120 154h73zM465 500h68v-277q0 -110 -61 -171.5t-165 -61.5t-165 61.5t-61 171.5v277h69v-277q0 -84 42.5 -130t114.5 -46q73 0 115.5 46t42.5 130v277z" />
    <glyph glyph-name="Udieresis.sc" horiz-adv-x="609" 
d="M200 681q23 0 31.5 -20.5t-7.5 -37.5q-15 -15 -36 -6t-21 31q0 14 9.5 23.5t23.5 9.5zM385 671q15 15 33 8.5t22.5 -23.5t-8.5 -33q-9 -9 -23 -9t-24 9q-9 10 -9 24.5t9 23.5zM465 500h68v-277q0 -110 -61 -171.5t-165 -61.5t-165 61.5t-61 171.5v277h69v-277
q0 -84 42.5 -130t114.5 -46q73 0 115.5 46t42.5 130v277z" />
    <glyph glyph-name="Udieresisacute.sc" horiz-adv-x="609" 
d="M451 876l-123 -155h-60l108 155h75zM176 646q15 15 33.5 8.5t23 -23.5t-8.5 -33q-9 -9 -23.5 -9t-24.5 9q-9 10 -9 24.5t9 23.5zM385 646q15 15 33 8.5t22.5 -23.5t-8.5 -33q-9 -9 -23 -9t-24 9q-9 10 -9 24.5t9 23.5zM465 500h68v-277q0 -110 -61 -171.5t-165 -61.5
t-165 61.5t-61 171.5v277h69v-277q0 -84 42.5 -130t114.5 -46q73 0 115.5 46t42.5 130v277z" />
    <glyph glyph-name="Udieresiscaron.sc" horiz-adv-x="609" 
d="M462 876l-121 -155h-73l-121 155h59l99 -118l98 118h59zM176 646q15 15 33.5 8.5t23 -23.5t-8.5 -33q-9 -9 -23.5 -9t-24.5 9q-9 10 -9 24.5t9 23.5zM385 646q15 15 33 8.5t22.5 -23.5t-8.5 -33q-9 -9 -23 -9t-24 9q-9 10 -9 24.5t9 23.5zM465 500h68v-277
q0 -110 -61 -171.5t-165 -61.5t-165 61.5t-61 171.5v277h69v-277q0 -84 42.5 -130t114.5 -46q73 0 115.5 46t42.5 130v277z" />
    <glyph glyph-name="Udieresisgrave.sc" horiz-adv-x="609" 
d="M232 876l108 -155h-60l-123 155h75zM176 646q15 15 33.5 8.5t23 -23.5t-8.5 -33q-9 -9 -23.5 -9t-24.5 9q-9 10 -9 24.5t9 23.5zM385 646q15 15 33 8.5t22.5 -23.5t-8.5 -33q-9 -9 -23 -9t-24 9q-9 10 -9 24.5t9 23.5zM465 500h68v-277q0 -110 -61 -171.5t-165 -61.5
t-165 61.5t-61 171.5v277h69v-277q0 -85 42.5 -130.5t114.5 -45.5q73 0 115.5 46t42.5 130v277z" />
    <glyph glyph-name="Udieresismacron.sc" horiz-adv-x="609" 
d="M447 766v-45h-285v45h285zM200 656q23 0 31.5 -21t-7.5 -37q-15 -15 -36 -6.5t-21 30.5q0 15 9.5 24.5t23.5 9.5zM385 646q15 15 33 8.5t22.5 -23.5t-8.5 -33q-9 -9 -23 -9t-24 9q-9 10 -9 24.5t9 23.5zM465 500h68v-277q0 -110 -61 -171.5t-165 -61.5t-165 61.5
t-61 171.5v277h69v-277q0 -84 42.5 -130t114.5 -46q73 0 115.5 46t42.5 130v277z" />
    <glyph glyph-name="Udotbelow.sc" horiz-adv-x="609" 
d="M465 500h68v-277q0 -110 -61 -171.5t-165 -61.5t-165 61.5t-61 171.5v277h69v-277q0 -84 42.5 -130t114.5 -46q73 0 115.5 46t42.5 130v277zM283 -161q10 9 24 9t23 -9q10 -10 10 -24t-10 -23q-9 -10 -23 -10t-24 10q-9 9 -9 23t9 24z" />
    <glyph glyph-name="Ugrave.sc" horiz-adv-x="609" 
d="M232 715l108 -154h-60l-123 154h75zM465 500h68v-277q0 -110 -61 -171.5t-165 -61.5t-165 61.5t-61 171.5v277h69v-277q0 -85 42.5 -130.5t114.5 -45.5q73 0 115.5 46t42.5 130v277z" />
    <glyph glyph-name="Uhungarumlaut.sc" horiz-adv-x="609" 
d="M369 715l-123 -154h-60l109 154h74zM556 715l-123 -154h-60l109 154h74zM465 500h68v-277q0 -110 -61 -171.5t-165 -61.5t-165 61.5t-61 171.5v277h69v-277q0 -84 42.5 -130t114.5 -46q73 0 115.5 46t42.5 130v277z" />
    <glyph glyph-name="Umacron.sc" horiz-adv-x="609" 
d="M465 500h68v-277q0 -110 -61 -171.5t-165 -61.5t-165 61.5t-61 171.5v277h69v-277q0 -84 42.5 -130t114.5 -46q73 0 115.5 46t42.5 130v277zM447 670v-45h-285v45h285z" />
    <glyph glyph-name="Uogonek.sc" horiz-adv-x="609" 
d="M465 500h68v-277q0 -154 -116 -210l-23 -29q-32 -43 -29 -77q1 -26 21 -42.5t50 -18.5q33 -2 60 21l14 -33q-37 -27 -86 -27q-42 0 -70.5 21t-31.5 56q-8 44 28 96l13 17q-31 -7 -66 -6q-101 3 -158.5 64t-57.5 168v277h69v-277q0 -84 42.5 -130t114.5 -46q73 0 115.5 46
t42.5 130v277z" />
    <glyph glyph-name="Uring.sc" horiz-adv-x="609" 
d="M305 760q49 0 83 -34t34 -81t-35 -82q-35 -33 -83 -33t-83 33q-34 34 -34 82t34 81q34 34 84 34zM305 724q-33 0 -57 -23.5t-24 -55.5q0 -33 24 -56t57 -23t56.5 23t23.5 56t-23.5 56t-56.5 23zM465 500h68v-277q0 -110 -61 -171.5t-165 -61.5t-165 61.5t-61 171.5v277
h69v-277q0 -84 42.5 -130t114.5 -46q73 0 115.5 46t42.5 130v277z" />
    <glyph glyph-name="Utilde.sc" horiz-adv-x="609" 
d="M218 706q32 0 80 -30q46 -30 75 -33q54 -5 71 60l31 -5q-4 -47 -29.5 -74.5t-62.5 -27.5q-33 0 -85 32q-3 2 -7 4q-30 18 -38.5 22t-25.5 5q-22 1 -38 -14.5t-22 -44.5l-31 4q2 48 24 75t58 27zM465 500h68v-277q0 -110 -61 -171.5t-165 -61.5t-165 61.5t-61 171.5v277
h69v-277q0 -85 42.5 -130.5t114.5 -45.5q73 0 115.5 46t42.5 130v277z" />
    <glyph glyph-name="V.sc" horiz-adv-x="566" 
d="M542 500l-219 -500h-80l-219 500h75l184 -434l184 434h75z" />
    <glyph glyph-name="W.sc" horiz-adv-x="799" 
d="M775 500l-172 -500h-72l-131 399l-132 -399h-72l-172 500h74l136 -400l131 400h70l130 -400l136 400h74z" />
    <glyph glyph-name="Wacute.sc" horiz-adv-x="799" 
d="M775 500l-172 -500h-72l-131 399l-132 -399h-72l-172 500h74l136 -400l131 400h70l130 -400l136 400h74zM546 715l-123 -154h-61l109 154h75z" />
    <glyph glyph-name="Wcircumflex.sc" horiz-adv-x="799" 
d="M436 715l121 -154h-59l-99 117l-98 -117h-59l121 154h73zM775 500l-172 -500h-72l-131 399l-132 -399h-72l-172 500h74l136 -400l131 400h70l130 -400l136 400h74z" />
    <glyph glyph-name="Wdieresis.sc" horiz-adv-x="799" 
d="M295 614q-14 0 -23.5 9.5t-9.5 24.5q0 21 20.5 30t35.5 -7q16 -15 7 -36t-30 -21zM537 648q0 -15 -9.5 -24.5t-23.5 -9.5q-15 0 -24.5 9.5t-9.5 24.5q0 20 17 28.5t33.5 0t16.5 -28.5zM775 500l-172 -500h-72l-131 399l-132 -399h-72l-172 500h74l136 -400l131 400h70
l130 -400l136 400h74z" />
    <glyph glyph-name="Wgrave.sc" horiz-adv-x="799" 
d="M326 715l109 -154h-60l-123 154h74zM775 500l-172 -500h-72l-131 399l-132 -399h-72l-172 500h74l136 -400l131 400h70l130 -400l136 400h74z" />
    <glyph glyph-name="X.sc" horiz-adv-x="540" 
d="M506 500l-194 -245l204 -255h-81l-166 207l-165 -207h-80l204 256l-194 244h80l157 -195l155 195h80z" />
    <glyph glyph-name="Y.sc" horiz-adv-x="550" 
d="M526 500l-217 -318v-182h-68v181l-217 319h79l172 -253l173 253h78z" />
    <glyph glyph-name="Yacute.sc" horiz-adv-x="550" 
d="M421 715l-123 -154h-60l109 154h74zM526 500l-217 -318v-182h-68v181l-217 319h79l172 -253l173 253h78z" />
    <glyph glyph-name="Ycircumflex.sc" horiz-adv-x="550" 
d="M526 500l-217 -318v-182h-68v181l-217 319h79l172 -253l173 253h78zM311 715l121 -154h-58l-99 117l-98 -117h-59l121 154h72z" />
    <glyph glyph-name="Ydieresis.sc" horiz-adv-x="550" 
d="M147 671q15 15 33 8.5t22.5 -23.5t-8.5 -33q-9 -9 -23 -9t-24 9q-9 10 -9 24.5t9 23.5zM355 671q15 15 33.5 8.5t23 -23.5t-8.5 -33q-9 -9 -23.5 -9t-24.5 9q-9 10 -9 24.5t9 23.5zM526 500l-217 -318v-182h-68v181l-217 319h79l172 -253l173 253h78z" />
    <glyph glyph-name="Ygrave.sc" horiz-adv-x="550" 
d="M202 715l109 -154h-60l-123 154h74zM526 500l-217 -318v-182h-68v181l-217 319h79l172 -253l173 253h78z" />
    </font>
</defs>
</svg>
