<?xml version="1.0" standalone="no"?>
<!DOCTYPE svg PUBLIC "-//W3C//DTD SVG 1.1//EN" "http://www.w3.org/Graphics/SVG/1.1/DTD/svg11.dtd" >
<svg xmlns="http://www.w3.org/2000/svg" xmlns:xlink="http://www.w3.org/1999/xlink" version="1.1">
<metadata>
Created by FontForge 20170731 at Fri Jul 11 15:29:11 2014
 By Aleksey,,,
Copyright (c) 2014 by Jonathan Hill. All rights reserved.
</metadata>
<defs>
<font id="Loew-Light" horiz-adv-x="682" >
  <font-face 
    font-family="Loew Light"
    font-weight="300"
    font-stretch="normal"
    units-per-em="1000"
    panose-1="0 0 4 0 0 0 0 0 0 0"
    ascent="775"
    descent="-225"
    x-height="500"
    cap-height="700"
    bbox="-65 -240 1298 1110"
    underline-thickness="50"
    underline-position="-200"
    unicode-range="U+0020-FB02"
  />
<missing-glyph horiz-adv-x="500" 
d="M500 0h-500v700h500v-700zM80 650l170 -255l170 255h-340zM450 605l-170 -255l170 -255v510zM250 305l-170 -255h340zM220 350l-170 255v-510z" />
    <glyph glyph-name="fi" unicode="fi" horiz-adv-x="657" 
d="M286 710q36 0 72 -12l-7 -28q-27 10 -56 10q-59 0 -97.5 -39.5t-38.5 -104.5v-36h390v-500h-40v468h-350v-468h-40v468h-91v32h91v37q0 79 48 126q49 47 119 47z" />
    <glyph glyph-name="fl" unicode="fl" horiz-adv-x="634" 
d="M286 710q32 0 62 -10h194v-700h-41v670h-150q-27 10 -56 10q-59 0 -97.5 -39.5t-38.5 -104.5v-36h180v-32h-180v-468h-40v468h-91v32h91v37q0 79 48 126q49 47 119 47z" />
    <glyph glyph-name="f_f" unicode="ff" horiz-adv-x="792" 
d="M286 710q36 0 72 -12l-7 -28q-27 10 -56 10q-59 0 -97.5 -39.5t-38.5 -104.5v-36h356v37q0 79 48 126q49 47 119 47q36 0 72 -12l-7 -28q-27 10 -56 10q-59 0 -97.5 -39.5t-38.5 -104.5v-36h180v-32h-180v-468h-40v468h-356v-468h-40v468h-91v32h91v37q0 79 48 126
q49 47 119 47z" />
    <glyph glyph-name="f_f_i" unicode="ffi" horiz-adv-x="1053" 
d="M286 710q36 0 72 -12l-7 -28q-27 10 -56 10q-59 0 -97.5 -39.5t-38.5 -104.5v-36h356v37q0 79 48 126q49 47 119 47q36 0 72 -12l-7 -28q-27 10 -56 10q-59 0 -97.5 -39.5t-38.5 -104.5v-36h390v-500h-40v468h-350v-468h-40v468h-356v-468h-40v468h-91v32h91v37
q0 79 48 126q49 47 119 47z" />
    <glyph glyph-name="f_f_l" unicode="ffl" horiz-adv-x="1030" 
d="M286 710q36 0 72 -12l-7 -28q-27 10 -56 10q-59 0 -97.5 -39.5t-38.5 -104.5v-36h356v37q0 79 48 126q49 47 119 47q32 0 62 -10h194v-700h-41v670h-150q-27 10 -56 10q-59 0 -97.5 -39.5t-38.5 -104.5v-36h180v-32h-180v-468h-40v468h-356v-468h-40v468h-91v32h91v37
q0 79 48 126q49 47 119 47z" />
    <glyph glyph-name=".notdef" horiz-adv-x="500" 
d="M500 0h-500v700h500v-700zM80 650l170 -255l170 255h-340zM450 605l-170 -255l170 -255v510zM250 305l-170 -255h340zM220 350l-170 255v-510z" />
    <glyph glyph-name=".null" horiz-adv-x="0" 
 />
    <glyph glyph-name="nonmarkingreturn" horiz-adv-x="333" 
 />
    <glyph glyph-name="space" unicode=" " horiz-adv-x="250" 
 />
    <glyph glyph-name="exclam" unicode="!" horiz-adv-x="152" 
d="M100 700l-3 -551h-42l-3 551h48zM104 15q0 -25 -28 -25t-28 25t28 25t28 -25z" />
    <glyph glyph-name="quotedbl" unicode="&#x22;" horiz-adv-x="283" 
d="M83 710l-3 -249h-29l-4 249h36zM236 710l-4 -249h-29l-3 249h36z" />
    <glyph glyph-name="numbersign" unicode="#" horiz-adv-x="743" 
d="M604 700l-33 -190h125l-5 -34h-126l-43 -241h126l-6 -33h-126l-35 -202h-35l36 202h-274l-36 -202h-34l35 202h-128l6 33h128l43 241h-129l6 34h129l33 190h35l-34 -190h274l34 190h34zM530 476h-274l-42 -241h274z" />
    <glyph glyph-name="dollar" unicode="$" horiz-adv-x="703" 
d="M327 818h38v-109q126 -6 223 -71l-20 -33q-100 67 -229 67q-82 0 -131.5 -37.5t-49.5 -108.5q0 -50 36 -78q39 -30 143 -59l37 -11l42 -12l38 -12q27 -8 35 -13q50 -22 58 -29q63 -45 62 -136q0 -87 -68 -135t-168 -50h-8v-109h-38v110q-149 10 -243 83l21 32
q51 -37 121 -58t140 -21q84 -2 141 36t57 108q0 63 -38 101q-11 13 -49 28l-33 12l-36 12l-42 12q-7 2 -21.5 5.5t-19.5 5.5q-120 34 -167 71q-46 37 -46 103q0 90 61 136q62 47 154 50v110z" />
    <glyph glyph-name="percent" unicode="%" horiz-adv-x="816" 
d="M693 717l-537 -734h-40l537 734h40zM351 528q0 -82 -41 -130.5t-112 -48.5t-112 48.5t-41 130.5q0 81 41 130t112 49t112 -49t41 -130zM286 637q-32 41 -88 41t-89 -41q-32 -41 -32 -109q0 -69 32 -110q33 -40 89 -40q57 0 88 40q33 40 33 110q0 68 -33 109zM504 302
q40 49 112 49q73 0 113 -49q41 -49 41 -130q0 -80 -41 -130q-41 -48 -113 -48t-112 48q-41 50 -41 130q0 81 41 130zM617 322q-56 0 -89 -40t-33 -110t33 -110t89 -40t88.5 40.5t32.5 109.5q0 70 -32.5 110t-88.5 40z" />
    <glyph glyph-name="ampersand" unicode="&#x26;" horiz-adv-x="746" 
d="M359 710q64 0 113 -41q48 -41 48 -104q0 -60 -27.5 -97.5t-81.5 -63.5l-82 -41l216 -246q60 65 98 178l31 -13q-37 -117 -105 -191l70 -78l-31 -24l-64 74q-85 -81 -209 -87q-102 -4 -177 46q-73 49 -78 137q-5 114 157 195l36 18l-30 33q-40 47 -52 71q-14 28 -14 67
q0 77 55.5 122t126.5 45zM358 679q-58 0 -101 -37q-44 -36 -44 -98q0 -34 12 -56q12 -21 48 -63l33 -37l88 43q47 22 69 52t22 81t-38 83t-89 32zM519 91l-223 254l-38 -19q-142 -68 -137 -164q5 -73 64 -113q62 -41 150 -38q108 6 184 80z" />
    <glyph glyph-name="quotesingle" unicode="'" horiz-adv-x="130" 
d="M83 710l-3 -249h-29l-4 249h36z" />
    <glyph glyph-name="parenleft" unicode="(" horiz-adv-x="220" 
d="M154 723l35 -17q-41 -74 -70 -185q-28 -106 -28 -209q0 -102 29 -213q28 -109 72 -186l-35 -18q-47 79 -78 195q-32 117 -32 222q0 107 31 218q33 116 76 193z" />
    <glyph glyph-name="parenright" unicode=")" horiz-adv-x="220" 
d="M30 706l35 17q45 -77 76 -193q31 -111 31 -218q0 -105 -32 -222q-32 -119 -77 -195l-35 18q43 78 71 186q30 109 30 213q0 99 -29 209q-29 111 -70 185z" />
    <glyph glyph-name="asterisk" unicode="*" horiz-adv-x="401" 
d="M216 710l-1 -138l130 44l10 -29l-132 -41l82 -110l-24 -18l-80 112l-80 -112l-25 18l83 110l-132 41l10 29l130 -44l-1 138h30z" />
    <glyph glyph-name="plus" unicode="+" horiz-adv-x="460" 
d="M413 280v-33h-167v-166h-33v166h-166v33h166v166h33v-166h167z" />
    <glyph glyph-name="comma" unicode="," horiz-adv-x="167" 
d="M92 41q11 0 19.5 -7.5t8.5 -18.5q0 -7 -5 -14l-71 -114l-16 8l51 96q-15 7 -15 24q0 11 8 18.5t20 7.5z" />
    <glyph glyph-name="hyphen" unicode="-" horiz-adv-x="435" 
d="M388 277v-35h-341v35h341z" />
    <glyph glyph-name="period" unicode="." horiz-adv-x="150" 
d="M75 41q12 0 20 -7.5t8 -18.5t-8 -18.5t-20 -7.5t-20 7.5t-8 18.5q0 10 8.5 18t19.5 8z" />
    <glyph glyph-name="slash" unicode="/" horiz-adv-x="462" 
d="M425 717l-349 -734h-39l350 734h38z" />
    <glyph glyph-name="zero" unicode="0" horiz-adv-x="744" 
d="M153 595q80 95 218 95q139 0 219 -95t80 -255t-80 -255t-219 -95q-138 0 -218 95t-80 255t80 255zM558 567q-67 84 -187 84q-118 0 -187 -84q-68 -85 -68 -227t68 -227q69 -84 187 -84q119 0 187 84q68 85 68 227t-68 227z" />
    <glyph glyph-name="one" unicode="1" horiz-adv-x="343" 
d="M234 680v-680h-43v641l-141 -31l-6 34l153 36h37z" />
    <glyph glyph-name="two" unicode="2" horiz-adv-x="591" 
d="M299 690q91 0 155 -52t64 -137q-3 -53 -29.5 -94t-105.5 -116l-260 -255h414v-36h-476v36l303 288q64 63 87 99q23 37 23 75q0 69 -52 111q-50 43 -125 43q-72 0 -121.5 -29t-91.5 -92l-30 23q46 71 104.5 103.5t140.5 32.5z" />
    <glyph glyph-name="three" unicode="3" horiz-adv-x="612" 
d="M507 680v-36l-263 -274q45 12 92 10q91 -3 147 -50t56 -122q0 -101 -71 -160q-70 -58 -185 -58q-117 0 -229 76l26 29q99 -68 201 -67q97 0 156 49t59 132q0 66 -51 105.5t-136 39.5q-61 0 -118 -22l-9 27l274 285h-363v36h414z" />
    <glyph glyph-name="four" unicode="4" horiz-adv-x="645" 
d="M467 680v-445h133v-34h-133v-201h-43v201h-375l-4 38l372 441h50zM424 629l-333 -394h333v394z" />
    <glyph glyph-name="five" unicode="5" horiz-adv-x="610" 
d="M497 680v-36h-366v-274q71 56 172 56t168 -57q68 -57 68 -154q0 -98 -73 -162q-74 -63 -180 -63q-145 0 -232 95l25 26q78 -84 204 -84q91 0 152 54t61 136q0 80 -58 129q-56 49 -141 49q-113 0 -180 -69l-28 17l3 337h405z" />
    <glyph glyph-name="six" unicode="6" horiz-adv-x="635" 
d="M349 690q113 0 205 -69l-21 -28q-80 61 -180 61q-113 0 -174 -83t-62 -233l1 -32q25 61 86.5 96t143.5 35q103 0 167 -61q65 -62 65 -159q0 -98 -68 -163q-67 -64 -173 -64q-146 -3 -217 114q-47 80 -49 221q0 174 71.5 270.5t204.5 94.5zM120 247q32 -223 219 -223
q87 0 143 53t56 138q0 86 -56 139t-143 53t-147 -43.5t-72 -116.5z" />
    <glyph glyph-name="seven" unicode="7" horiz-adv-x="561" 
d="M533 680v-38l-374 -642h-48l374 642h-440v38h488z" />
    <glyph glyph-name="eight" unicode="8" horiz-adv-x="665" 
d="M332 690q100 0 167 -48t67 -120q0 -60 -39 -101t-107 -57q81 -17 126 -64.5t45 -118.5q0 -82 -73 -137q-72 -54 -187 -54q-114 0 -186 54q-72 56 -72 137q0 71 45 118.5t126 64.5q-69 16 -108 57t-39 101q0 72 67 120q68 48 168 48zM138 517q0 -65 53 -103t140 -38
q88 0 141 38t53 103q0 60 -55 100q-53 40 -138 40q-84 0 -139 -40t-55 -100zM332 347q-57 0 -106 -17q-111 -39 -111 -145q0 -69 60 -115q59 -46 156 -46q98 0 157 46q60 46 60 115q0 75 -58 118t-158 44z" />
    <glyph glyph-name="nine" unicode="9" horiz-adv-x="635" 
d="M294 690q62 0 112 -21t79 -56q27 -32 46 -80q30 -76 30 -177q0 -173 -71.5 -269.5t-205.5 -96.5q-112 0 -204 69l20 28q82 -61 181 -61q113 0 173.5 82.5t61.5 232.5q2 17 0 33q-26 -60 -87.5 -95.5t-142.5 -35.5q-103 0 -167 61q-65 62 -65 159q0 99 67.5 163t172.5 64z
M295 656q-88 0 -144 -53t-56 -139q0 -85 56 -138t144 -53q86 0 146.5 44t72.5 116q-30 223 -219 223z" />
    <glyph glyph-name="colon" unicode=":" horiz-adv-x="149" 
d="M101 485q0 -11 -8 -18t-20 -7q-19 0 -26 16t6 27q13 13 30.5 6t17.5 -24zM101 15q0 -11 -8 -18.5t-20 -7.5t-20 7.5t-8 18.5q0 25 28 25t28 -25z" />
    <glyph glyph-name="semicolon" unicode=";" horiz-adv-x="167" 
d="M92 511q11 0 19.5 -7.5t8.5 -18.5q0 -10 -8.5 -17.5t-19.5 -7.5q-17 0 -24 13t0 25.5t24 12.5zM92 41q11 0 19.5 -7.5t8.5 -18.5q0 -7 -5 -14l-71 -114l-16 8l51 96q-15 7 -15 24q0 11 8 18.5t20 7.5z" />
    <glyph glyph-name="less" unicode="&#x3c;" horiz-adv-x="571" 
d="M524 560v-41l-437 -222l437 -221v-42l-477 241v44z" />
    <glyph glyph-name="equal" unicode="=" horiz-adv-x="599" 
d="M552 401v-33h-505v33h505zM552 208v-34h-505v34h505z" />
    <glyph glyph-name="greater" unicode="&#x3e;" horiz-adv-x="571" 
d="M47 560l477 -241v-44l-477 -241v42l436 221l-436 222v41z" />
    <glyph glyph-name="question" unicode="?" horiz-adv-x="546" 
d="M281 710q95 0 152 -50t57 -139q0 -35 -13 -64q-18 -46 -79 -99q-17 -13 -40 -37q-24 -24 -31 -33q-33 -39 -33 -103l-1 -36h-37l-1 40q-4 49 23 98q6 11 38 47l27 25l28 26q41 37 58.5 66.5t17.5 67.5q0 72 -46 112.5t-123 40.5q-76 0 -125.5 -42.5t-58.5 -116.5l-40 4
q11 90 72.5 141.5t154.5 51.5zM303 15q0 -11 -8 -18.5t-20 -7.5t-20 7.5t-8 18.5q0 25 28 25t28 -25z" />
    <glyph glyph-name="at" unicode="@" horiz-adv-x="1076" 
d="M987 245q0 -107 -58.5 -169.5t-151.5 -62.5q-64 0 -113 28v57q-62 -66 -152 -66q-86 0 -146 60q-59 62 -59 147t59 146q60 61 146 61q91 0 152 -67v65h33v-383q36 -17 79 -17q79 0 127 54.5t48 146.5q3 190 -109.5 311.5t-303.5 120.5q-190 1 -302.5 -120.5
t-109.5 -311.5q0 -194 111 -314t301 -120q64 0 126 15l9 -31q-66 -17 -135 -17q-204 -1 -327.5 130t-120.5 337q-3 205 119 335.5t329 129.5q206 1 329 -129.5t120 -335.5zM520 417q-75 0 -127 -52q-53 -53 -53 -126q0 -74 53 -127q52 -52 127 -52q43 0 81 19.5t63 51.5v215
q-52 71 -144 71z" />
    <glyph glyph-name="A" unicode="A" horiz-adv-x="793" 
d="M423 700l323 -700h-50l-93 200h-415l-93 -200h-50l322 700h56zM395 654l-194 -418h389z" />
    <glyph glyph-name="B" unicode="B" horiz-adv-x="767" 
d="M128 0v700h303q111 0 170 -44.5t59 -128.5q0 -126 -134 -161q91 -13 131.5 -63t40.5 -117q0 -80 -56.5 -133t-183.5 -53h-330zM171 664v-286h251q93 0 143 36.5t50 106.5q1 70 -49 106.5t-144 36.5h-251zM171 346v-310h279q107 0 155.5 44.5t48.5 110.5q0 67 -48 111
t-156 44h-279z" />
    <glyph glyph-name="C" unicode="C" horiz-adv-x="801" 
d="M458 710q81 0 154.5 -34t124.5 -94l-36 -23q-94 111 -243 111q-131 3 -227.5 -93.5t-93.5 -226.5q0 -132 93 -227q94 -93 228 -93q149 0 243 111l36 -23q-52 -59 -124.5 -93.5t-154.5 -34.5q-98 -2 -183.5 47t-135 133t-47.5 180q-3 146 107 254.5t259 105.5z" />
    <glyph glyph-name="D" unicode="D" horiz-adv-x="847" 
d="M128 0v700h260q152 0 259.5 -101t107.5 -249q3 -145 -107 -249t-260 -101h-260zM387 661h-216v-622h216q132 -3 229.5 89.5t94.5 221.5q3 129 -94.5 221.5t-229.5 89.5z" />
    <glyph glyph-name="E" unicode="E" horiz-adv-x="708" 
d="M632 700v-39h-461v-289h425v-37h-425v-296h472v-39h-515v700h504z" />
    <glyph glyph-name="F" unicode="F" horiz-adv-x="671" 
d="M607 700v-39h-436v-303h399v-37h-399v-321h-43v700h479z" />
    <glyph glyph-name="G" unicode="G" horiz-adv-x="862" 
d="M461 710q143 0 249 -94l-29 -29q-95 83 -220 83q-131 3 -229 -93t-96 -227q0 -133 94 -227q94 -93 229 -93q141 0 243 90v194h-241v33h283v-249q-119 -108 -285 -108q-149 -4 -259.5 105t-107.5 255q-3 148 108.5 255.5t260.5 104.5z" />
    <glyph glyph-name="H" unicode="H" horiz-adv-x="852" 
d="M724 700v-700h-44v334h-509v-334h-43v700h43v-327h509v327h44z" />
    <glyph glyph-name="I" unicode="I" horiz-adv-x="300" 
d="M171 700v-700h-43v700h43z" />
    <glyph glyph-name="J" unicode="J" horiz-adv-x="610" 
d="M439 700h43v-458q0 -124 -61 -188t-169 -64q-134 0 -215 91l34 24q73 -75 179 -75q88 0 138.5 55t50.5 157v458z" />
    <glyph glyph-name="K" unicode="K" horiz-adv-x="746" 
d="M683 700l-275 -274l293 -426h-55l-267 393l-206 -202v-191h-43v700h43v-448l452 448h58z" />
    <glyph glyph-name="L" unicode="L" horiz-adv-x="629" 
d="M171 700v-661h412v-39h-455v700h43z" />
    <glyph glyph-name="M" unicode="M" horiz-adv-x="1052" 
d="M922 700v-700h-42v647l-346 -581h-23l-346 581v-647h-42v700h59l340 -572l341 572h59z" />
    <glyph glyph-name="N" unicode="N" horiz-adv-x="834" 
d="M715 700v-700h-50l-503 637v-637h-43v700h51l503 -638v638h42z" />
    <glyph glyph-name="O" unicode="O" horiz-adv-x="918" 
d="M459 710q99 0 183.5 -48t133.5 -131q49 -82 49 -181t-49 -181q-49 -83 -133.5 -131t-184.5 -48q-97 -2 -182.5 47t-135.5 133t-48 180q0 149 107.5 254.5t259.5 105.5zM459 670q-131 3 -228.5 -93.5t-94.5 -226.5q0 -133 94 -227q94 -93 229 -93q133 0 228 93
q94 94 94 227t-94 226q-94 94 -228 94z" />
    <glyph glyph-name="P" unicode="P" horiz-adv-x="757" 
d="M128 0v700h273q146 0 213.5 -56t67.5 -173q0 -116 -68.5 -171t-210.5 -55h-232v-245h-43zM400 662h-229v-382h231q121 0 178.5 45.5t57.5 143.5q0 100 -56.5 146.5t-181.5 46.5z" />
    <glyph glyph-name="Q" unicode="Q" horiz-adv-x="922" 
d="M459 710q97 2 182.5 -47t135.5 -133t48 -180q0 -75 -29.5 -142.5t-83.5 -116.5l118 -119l-25 -23l-119 119q-100 -78 -227 -78q-149 -4 -259.5 105t-107.5 255q0 149 107.5 254.5t259.5 105.5zM459 30q111 0 196 69l-125 125l25 24l125 -126q101 90 101 228
q0 133 -94 226q-94 94 -228 94t-228 -94q-94 -93 -94 -226t94 -227q95 -93 228 -93z" />
    <glyph glyph-name="R" unicode="R" horiz-adv-x="771" 
d="M128 0v700h293q147 0 211.5 -49.5t64.5 -160.5q0 -90 -41.5 -138.5t-132.5 -63.5l202 -288h-50l-198 282q-29 -3 -63 -3h-243v-279h-43zM423 661h-252v-347h252q123 0 176.5 40.5t53.5 132.5q0 93 -53 133.5t-177 40.5z" />
    <glyph glyph-name="S" unicode="S" horiz-adv-x="703" 
d="M343 710q70 0 141.5 -19.5t124.5 -52.5l-20 -34q-51 32 -118 50.5t-131 17.5q-90 0 -145 -37.5t-55 -107.5q0 -51 40 -79q42 -29 156 -59q148 -41 183 -54q84 -35 103 -97q9 -27 9 -62q0 -89 -76.5 -137.5t-189.5 -48.5q-82 0 -162.5 22.5t-138.5 61.5l21 33
q56 -37 132 -58t151 -21q93 -2 155 36q63 38 63 108q0 74 -54 109q-12 11 -52 24q-7 3 -33 10q-18 6 -36 10l-42 12l-45 11q-129 34 -180 71q-49 37 -49 104q0 92 70.5 139.5t177.5 47.5z" />
    <glyph glyph-name="T" unicode="T" horiz-adv-x="641" 
d="M595 700v-38h-253v-662h-44v662h-253v38h550z" />
    <glyph glyph-name="U" unicode="U" horiz-adv-x="848" 
d="M685 700h43v-393q0 -152 -82 -234q-83 -83 -218 -83t-218 83q-82 82 -82 234v393h43v-393q0 -132 70 -205q71 -72 187 -72t186 72q71 74 71 205v393z" />
    <glyph glyph-name="V" unicode="V" horiz-adv-x="775" 
d="M728 700l-314 -700h-56l-313 700h50l291 -652l292 652h50z" />
    <glyph glyph-name="W" unicode="W" horiz-adv-x="1100" 
d="M1054 700l-243 -700h-49l-213 640l-212 -640h-50l-242 700h47l221 -640l212 640h48l212 -640l221 640h48z" />
    <glyph glyph-name="X" unicode="X" horiz-adv-x="735" 
d="M677 700l-282 -344l293 -356h-53l-270 324l-268 -324h-52l293 358l-282 342h54l258 -310l256 310h53z" />
    <glyph glyph-name="Y" unicode="Y" horiz-adv-x="751" 
d="M704 700l-308 -440v-260h-43v259l-308 441h51l278 -395l279 395h51z" />
    <glyph glyph-name="Z" unicode="Z" horiz-adv-x="687" 
d="M613 700v-35l-491 -626h501v-39h-559v36l489 625h-471v39h531z" />
    <glyph glyph-name="bracketleft" unicode="[" horiz-adv-x="273" 
d="M245 722v-31h-158v-764h158v-31h-198v826h198z" />
    <glyph glyph-name="backslash" unicode="\" horiz-adv-x="462" 
d="M37 717h39l349 -734h-38z" />
    <glyph glyph-name="bracketright" unicode="]" horiz-adv-x="273" 
d="M225 722v-826h-197v31h158v764h-158v31h197z" />
    <glyph glyph-name="asciicircum" unicode="^" horiz-adv-x="457" 
d="M255 710l156 -344h-41l-141 310l-141 -310h-41l156 344h52z" />
    <glyph glyph-name="underscore" unicode="_" horiz-adv-x="676" 
d="M629 -96v-27h-582v27h582z" />
    <glyph glyph-name="grave" unicode="`" horiz-adv-x="247" 
d="M95 713l106 -150h-38l-116 150h48z" />
    <glyph glyph-name="a" unicode="a" horiz-adv-x="612" 
d="M317 510q95 0 149.5 -47.5t54.5 -139.5v-323h-40v65q-97 -75 -238 -75q-78 0 -129 45q-50 45 -50 118q0 72 53.5 110t146.5 38h217v19q0 79 -46 118t-126 39q-105 0 -192 -66l-15 27q98 72 215 72zM481 88v191h-205q-82 0 -127 -31.5t-45 -91.5q0 -63 42.5 -101
t109.5 -38q133 0 225 71z" />
    <glyph glyph-name="b" unicode="b" horiz-adv-x="664" 
d="M100 700h40v-276q78 86 193 86q109 0 182 -76q75 -76 75 -184t-75 -184q-73 -76 -182 -76q-115 0 -193 86v-76h-40v700zM322 475q-54 0 -102 -24t-80 -66v-270q31 -41 79.5 -65.5t102.5 -24.5q94 0 161 66t67 159t-67 159t-161 66z" />
    <glyph glyph-name="c" unicode="c" horiz-adv-x="615" 
d="M338 510q122 0 201 -89l-31 -20q-68 74 -168 74q-94 0 -162 -66q-67 -66 -67 -159t67 -159q68 -66 162 -66q106 0 175 81l31 -19q-37 -45 -91.5 -71t-116.5 -26q-111 0 -188 76q-78 76 -78 184t78 184q77 76 188 76z" />
    <glyph glyph-name="d" unicode="d" horiz-adv-x="664" 
d="M522 700h40v-700h-40v76q-78 -86 -193 -86q-108 0 -183 76q-74 77 -74 184t74 184q75 76 183 76q113 0 193 -86v276zM340 475q-94 0 -161 -66t-67 -159t67 -159q68 -66 161 -66q113 0 182 90v270q-31 42 -79.5 66t-102.5 24z" />
    <glyph glyph-name="e" unicode="e" horiz-adv-x="648" 
d="M326 510q117 0 184 -75q69 -73 69 -185v-17h-468q4 -89 69 -150.5t153 -61.5q109 0 185 76l23 -21q-89 -86 -210 -86q-107 0 -183 76t-76 184q0 107 74 184q75 76 180 76zM326 479q-87 0 -152 -65q-63 -64 -63 -157h430q0 95 -58 158.5t-157 63.5z" />
    <glyph glyph-name="f" unicode="f" horiz-adv-x="396" 
d="M286 710q36 0 72 -12l-7 -28q-27 10 -56 10q-59 0 -97.5 -39.5t-38.5 -104.5v-36h180v-32h-180v-468h-40v468h-91v32h91v37q0 79 48 126q49 47 119 47z" />
    <glyph glyph-name="g" unicode="g" 
d="M325 510q123 0 214 -82v72h40v-444q0 -126 -70 -194t-190 -67q-120 0 -218 71l15 26q92 -65 197 -65t165.5 59.5t60.5 169.5v54q-36 -52 -92.5 -81t-121.5 -29q-105 0 -179 74q-73 73 -73 180q0 108 73 181q74 75 179 75zM336 475q-91 0 -158 -65q-66 -64 -66 -156
q0 -91 66 -156t158 -65q65 0 119 32t84 87v239q-84 84 -203 84z" />
    <glyph glyph-name="h" unicode="h" horiz-adv-x="671" 
d="M105 700h40v-282q109 92 246 92q86 0 137 -52t51 -144v-314h-40v305q0 81 -43 126t-117 45q-137 0 -234 -91v-385h-40v700z" />
    <glyph glyph-name="i" unicode="i" horiz-adv-x="261" 
d="M133 668q12 0 20 -7t8 -18q0 -16 -17 -22t-30 5t-6 26.5t25 15.5zM154 500v-500h-40v500h40z" />
    <glyph glyph-name="j" unicode="j" horiz-adv-x="268" 
d="M122 661q12 10 26.5 5.5t18 -16.5t-6.5 -24q-11 -11 -26 -6.5t-19 17t7 24.5zM121 500h41v-533q0 -79 -48 -125q-47 -47 -117 -47q-35 0 -62 10l6 25q20 -7 45 -7q57 0 96 41q39 40 39 105v531z" />
    <glyph glyph-name="k" unicode="k" horiz-adv-x="592" 
d="M145 700v-524l351 324h51l-196 -185l214 -315h-45l-197 287l-178 -162v-125h-40v700h40z" />
    <glyph glyph-name="l" unicode="l" horiz-adv-x="238" 
d="M147 700v-700h-41v700h41z" />
    <glyph glyph-name="m" unicode="m" horiz-adv-x="1037" 
d="M361 510q115 0 160 -93q107 93 240 93q84 0 133.5 -51.5t49.5 -144.5v-314h-40v305q0 81 -41.5 126t-112.5 45q-124 0 -221 -86q13 -38 13 -87v-303h-40v305q0 81 -41.5 126t-113.5 45q-57 0 -104 -19.5t-103 -67.5v-389h-40v500h40v-80q57 48 108.5 69t112.5 21z" />
    <glyph glyph-name="n" unicode="n" horiz-adv-x="666" 
d="M386 510q86 0 137 -52t51 -144v-314h-40v305q0 81 -43 126t-117 45q-137 0 -234 -91v-385h-40v500h40v-82q109 92 246 92z" />
    <glyph glyph-name="o" unicode="o" 
d="M150 434q79 76 190 76q112 0 189 -76q79 -76 79 -184t-79 -184q-77 -76 -189 -76q-111 0 -190 76q-78 76 -78 184t78 184zM501 409q-67 66 -161 66t-162 -66q-67 -66 -67 -159t67 -159q68 -66 162 -66t161 66t67 159t-67 159z" />
    <glyph glyph-name="p" unicode="p" horiz-adv-x="670" 
d="M338 510q109 0 182 -76q75 -76 75 -184t-75 -184q-73 -76 -182 -76q-115 0 -193 86v-271h-40v695h40v-76q78 86 193 86zM327 475q-54 0 -102 -24t-80 -66v-270q31 -41 79.5 -65.5t102.5 -24.5q93 0 161 66q67 66 67 159t-67 159q-68 66 -161 66z" />
    <glyph glyph-name="q" unicode="q" horiz-adv-x="664" 
d="M329 510q113 0 193 -86v76h40v-695h-40v271q-78 -86 -193 -86q-108 0 -183 76q-74 77 -74 184t74 184q75 76 183 76zM340 475q-94 0 -161 -66t-67 -159t67 -159q68 -66 161 -66q113 0 182 90v270q-31 42 -79.5 66t-102.5 24z" />
    <glyph glyph-name="r" unicode="r" horiz-adv-x="419" 
d="M391 510v-34q-142 0 -251 -109v-367h-40v500h40v-97q110 107 251 107z" />
    <glyph glyph-name="s" unicode="s" horiz-adv-x="532" 
d="M252 510q110 0 192 -52l-15 -26q-77 49 -177 49q-65 -1 -103 -27.5t-38 -76.5q0 -35 27.5 -55t109.5 -42l28 -7l47 -13q51 -13 75 -27q38 -22 48 -42q17 -30 17 -67q0 -66 -56 -101t-139 -33q-127 0 -219 61l16 25q86 -57 203 -57q70 0 113.5 26.5t43.5 75.5
q-2 33 -12.5 52t-35.5 31t-44 18l-28 7q-6 2 -32.5 9.5t-34.5 9.5q-94 25 -130 51q-36 27 -36 76q0 65 49.5 100t130.5 35z" />
    <glyph glyph-name="t" unicode="t" horiz-adv-x="450" 
d="M167 653v-153h172v-32h-172v-300q0 -64 38.5 -104t97.5 -40q39 0 73 19l9 -29q-45 -24 -93 -24q-71 0 -118 47t-47 126v305h-99v32h99v153h40z" />
    <glyph glyph-name="u" unicode="u" horiz-adv-x="657" 
d="M91 500h41v-305q0 -81 42.5 -126t116.5 -45q137 0 234 91v385h40v-500h-40v82q-109 -92 -246 -92q-86 0 -137 52t-51 144v314z" />
    <glyph glyph-name="v" unicode="v" horiz-adv-x="559" 
d="M532 500l-227 -500h-50l-228 500h43l210 -459l209 459h43z" />
    <glyph glyph-name="w" unicode="w" horiz-adv-x="817" 
d="M791 500l-183 -500h-46l-153 447l-153 -447h-46l-183 500h41l167 -457l155 457h38l156 -457l167 457h40z" />
    <glyph glyph-name="x" unicode="x" horiz-adv-x="533" 
d="M490 500l-198 -241l215 -259h-48l-193 233l-192 -233h-47l215 262l-197 238h48l175 -212l175 212h47z" />
    <glyph glyph-name="y" unicode="y" horiz-adv-x="551" 
d="M483 500h42l-240 -553q-36 -82 -77.5 -116.5t-99.5 -35.5q-40 0 -81 16l12 28q35 -13 66 -12q45 1 79 29.5t65 98.5l13 29l-233 516h43l209 -466z" />
    <glyph glyph-name="z" unicode="z" horiz-adv-x="538" 
d="M458 500v-31l-356 -435h368v-34h-420v31l356 435h-335v34h387z" />
    <glyph glyph-name="braceleft" unicode="{" horiz-adv-x="328" 
d="M300 722v-30h-28q-84 0 -84 -77v-241q0 -46 -39 -65q39 -19 39 -65v-240q0 -78 84 -78h28v-30h-39q-113 0 -113 104v244q0 22 -14 36t-35 14h-52v31h52q21 0 35 14t14 35v244q0 104 113 104h39z" />
    <glyph glyph-name="bar" unicode="|" horiz-adv-x="298" 
d="M169 750v-903h-41v903h41z" />
    <glyph glyph-name="braceright" unicode="}" horiz-adv-x="328" 
d="M28 692v30h38q113 0 113 -104v-244q0 -21 14 -35t36 -14h52v-32h-52q-22 0 -36 -14t-14 -35v-244q0 -104 -113 -104h-38v30h27q85 0 85 78v240q0 45 38 65q-38 20 -38 65v241q0 77 -85 77h-27z" />
    <glyph glyph-name="asciitilde" unicode="~" horiz-adv-x="600" 
d="M178 366q27 -1 52 -13q22 -11 63 -39q47 -33 64 -41q20 -10 48 -13q44 -4 76 22.5t45 78.5l25 -4q-11 -64 -49.5 -99.5t-91.5 -32.5q-57 6 -121 55q-48 32 -62 39q-20 11 -44 12q-41 5 -71 -23t-40 -82l-25 3q8 68 43.5 104t87.5 33z" />
    <glyph glyph-name="exclamdown" unicode="&#xa1;" horiz-adv-x="152" 
d="M104 484q0 -11 -8 -18.5t-20 -7.5t-20 7.5t-8 18.5q0 16 14 22.5t28 0t14 -22.5zM95 350l5 -551h-48l6 551h37z" />
    <glyph glyph-name="cent" unicode="&#xa2;" horiz-adv-x="615" 
d="M320 618h34v-109q112 -6 185 -88l-31 -20q-68 74 -168 74q-94 0 -162 -66q-67 -66 -67 -159t67 -159q68 -66 162 -66q106 0 175 81l31 -19q-75 -90 -192 -96v-109h-34v110q-104 6 -176 80q-72 75 -72 178q0 104 72 177q72 75 176 81v110z" />
    <glyph glyph-name="sterling" unicode="&#xa3;" horiz-adv-x="660" 
d="M397 710q129 0 194 -105l-26 -23q-55 91 -166 91q-86 0 -132.5 -47.5t-46.5 -141.5v-131h252v-32h-252v-285h375v-36h-503v36h85v285h-85v32h85v135q0 110 57.5 166t162.5 56z" />
    <glyph glyph-name="currency" unicode="&#xa4;" horiz-adv-x="600" 
 />
    <glyph glyph-name="yen" unicode="&#xa5;" horiz-adv-x="751" 
d="M704 700l-233 -330h158v-32h-178l-55 -78v-76h233v-32h-233v-152h-43v152h-241v32h241v75l-56 79h-185v32h165l-232 330h51l278 -395l279 395h51z" />
    <glyph glyph-name="brokenbar" unicode="&#xa6;" horiz-adv-x="298" 
d="M169 750v-341h-41v341h41zM169 188v-341h-41v341h41z" />
    <glyph glyph-name="section" unicode="&#xa7;" horiz-adv-x="625" 
d="M304 710q131 0 228 -62l-18 -30q-95 58 -213 58q-75 0 -121.5 -32t-46.5 -91q0 -41 33 -66q36 -25 133 -50l34 -9q32 -8 44 -12l38 -11q30 -8 65 -26q24 -11 45 -37q28 -28 28 -89q0 -82 -79 -125q41 -21 60 -50.5t19 -77.5q0 -79 -67 -119q-66 -42 -163 -42
q-70 0 -139.5 19t-119.5 53l19 30q101 -68 243 -68q79 0 132 32q54 31 54 91q0 66 -47 94q-31 17 -58 25q-18 6 -36 10q-12 4 -44 12q-19 5 -39 10q-111 30 -154 61t-43 88q0 99 97 138q-52 21 -74.5 48t-22.5 67q0 81 60 121t153 40zM298 398l-64 17q-101 -26 -101 -115
q0 -40 33 -66q36 -25 132 -50q124 -33 136 -38q78 32 78 104q0 59 -34 83q-26 21 -59 30q-33 12 -85 25q-28 7 -36 10z" />
    <glyph glyph-name="dieresis" unicode="&#xa8;" horiz-adv-x="315" 
d="M36 664q10 10 23.5 6t17 -16t-6.5 -24q-7 -6 -17 -6t-17 6q-6 7 -6 17.5t6 16.5zM245 664q10 10 23.5 6t17 -16t-6.5 -24q-7 -6 -17 -6t-17 6q-6 7 -6 17.5t6 16.5z" />
    <glyph glyph-name="copyright" unicode="&#xa9;" horiz-adv-x="865" 
d="M792 350q3 -146 -106 -255t-255 -105q-95 -2 -179 47t-133 133t-47 180q0 149 105 254.5t254 105.5q150 0 255.5 -105.5t105.5 -254.5zM432 20q136 0 232.5 96.5t96.5 233.5q0 89 -44 165t-120 121t-165.5 45t-165.5 -45t-120 -121t-44 -165q-3 -134 96.5 -234t233.5 -96
zM435 541q91 0 150 -70l-23 -16q-50 60 -127 60q-69 0 -117 -48t-48 -117q0 -70 48 -118q49 -47 117 -47q77 0 127 60l23 -16q-57 -70 -150 -70q-79 0 -138 56q-57 55 -57 135t57 135q59 56 138 56z" />
    <glyph glyph-name="ordfeminine" unicode="&#xaa;" horiz-adv-x="401" 
d="M215 706q65 0 101.5 -32t36.5 -94v-217h-30v42q-65 -48 -157 -48q-54 0 -87.5 30t-33.5 80q0 48 36 73.5t99 25.5h143v12q0 51 -30 77.5t-83 26.5q-70 0 -128 -45l-12 20q64 49 145 49zM323 424v126h-135q-113 0 -113 -81q0 -42 27.5 -66.5t72.5 -24.5q89 0 148 46z" />
    <glyph glyph-name="guillemotleft" unicode="&#xab;" horiz-adv-x="468" 
d="M200 451l30 -18l-137 -168l137 -168l-30 -18l-153 186zM410 451l30 -18l-137 -168l137 -168l-31 -18l-152 186z" />
    <glyph glyph-name="logicalnot" unicode="&#xac;" horiz-adv-x="700" 
 />
    <glyph glyph-name="registered" unicode="&#xae;" horiz-adv-x="865" 
d="M792 350q3 -146 -106 -255t-255 -105q-95 -2 -179 47t-133 133t-47 180q0 149 105 254.5t254 105.5q150 0 255.5 -105.5t105.5 -254.5zM432 20q136 0 232.5 96.5t96.5 233.5q0 89 -44 165t-120 121t-165.5 45t-165.5 -45t-120 -121t-44 -165q-3 -134 96.5 -234t233.5 -96
zM289 168v365h153q77 0 111 -26t34 -84q0 -89 -89 -105l106 -150h-31l-103 146q-9 -1 -31 -1h-124v-145h-26zM315 509v-174h128q64 0 90 20t26 67t-26 67t-90 20h-128z" />
    <glyph glyph-name="overscore" unicode="&#xaf;" horiz-adv-x="363" 
d="M316 662v-29h-269v29h269z" />
    <glyph glyph-name="degree" unicode="&#xb0;" horiz-adv-x="415" 
d="M208 435q-66 0 -113.5 47.5t-47.5 112.5q0 66 47 113t113 47q67 0 114 -47t47 -113t-47 -113t-113 -47zM301 689q-39 39 -94 39q-54 0 -93 -39t-39 -94t39 -94t93 -39q55 0 94 39t39 94t-39 94z" />
    <glyph glyph-name="plusminus" unicode="&#xb1;" horiz-adv-x="460" 
d="M246 381h167v-34h-167v-162h-33v162h-166v34h166v162h33v-162zM47 -14v34h366v-34h-366z" />
    <glyph glyph-name="twosuperior" unicode="&#xb2;" horiz-adv-x="306" 
d="M146 746q48 0 81.5 -27.5t33.5 -71.5q0 -24 -14.5 -46.5t-52.5 -58.5l-125 -123h201v-26h-247v24l152 145q32 30 43 47.5t11 36.5q0 33 -24 53t-60 20t-59.5 -14.5t-45.5 -47.5l-22 16q46 73 128 73z" />
    <glyph glyph-name="threesuperior" unicode="&#xb3;" horiz-adv-x="316" 
d="M256 740v-23l-125 -130q17 3 35 3q48 -2 77 -26.5t29 -63.5q0 -51 -37.5 -82t-95.5 -31q-63 0 -121 42l17 19q50 -35 101 -35q48 0 76 23t28 65q0 32 -24 50.5t-65 18.5q-30 0 -60 -12l-7 19l133 137h-178v26h217z" />
    <glyph glyph-name="acute" unicode="&#xb4;" horiz-adv-x="247" 
d="M201 713l-116 -150h-38l106 150h48z" />
    <glyph glyph-name="paragraph" unicode="&#xb6;" horiz-adv-x="764" 
d="M321 700h314v-854h-36v821h-173v-821h-36v443h-73q-115 0 -179 56.5t-64 149.5q0 91 63 148t184 57z" />
    <glyph glyph-name="middot" unicode="&#xb7;" horiz-adv-x="150" 
d="M75 326q12 0 20 -7.5t8 -18.5q0 -14 -14 -22t-28 -1q-17 11 -12 30t26 19z" />
    <glyph glyph-name="cedilla" unicode="&#xb8;" horiz-adv-x="294" 
d="M121 8h27l-29 -59q21 10 46 9q35 -1 58.5 -23.5t23.5 -56.5q0 -39 -29.5 -63t-74.5 -24q-56 0 -96 22l9 19q34 -18 82 -18q34 0 57 19.5t23 47.5q0 27 -18.5 44.5t-46.5 17.5q-35 0 -57 -22l-12 10z" />
    <glyph glyph-name="onesuperior" unicode="&#xb9;" horiz-adv-x="176" 
d="M114 740v-348h-31v320l-70 -16l-4 25l81 19h24z" />
    <glyph glyph-name="ordmasculine" unicode="&#xba;" horiz-adv-x="457" 
d="M229 357q-74 0 -127.5 51t-53.5 123q0 73 53 124t127 51q76 0 128 -51q53 -51 53 -124q0 -72 -53 -123q-52 -51 -127 -51zM78 531q0 -62 44 -105t107 -43q62 0 106 43.5t44 104.5t-44 105t-107 44q-62 0 -106 -44t-44 -105z" />
    <glyph glyph-name="guillemotright" unicode="&#xbb;" horiz-adv-x="468" 
d="M58 451l153 -186l-153 -186l-30 18l137 168l-137 168zM268 451l153 -186l-153 -186l-31 18l138 168l-138 168z" />
    <glyph glyph-name="onequarter" unicode="&#xbc;" horiz-adv-x="637" 
d="M512 717l-462 -734h-37l462 734h37zM121 700v-348h-31v320l-70 -16l-4 25l81 19h24zM543 348v-223h67v-24h-67v-101h-30v101h-188l-2 23l188 224h32zM513 312l-157 -187h157v187z" />
    <glyph glyph-name="onehalf" unicode="&#xbd;" horiz-adv-x="656" 
d="M512 717l-462 -734h-37l462 734h37zM121 700v-348h-31v320l-70 -16l-4 25l81 19h24zM495 353q48 0 81.5 -28t33.5 -71q0 -25 -14 -47t-53 -58l-125 -123h201v-26h-247v24l152 145q32 30 43 47.5t11 36.5q0 32 -24 52.5t-60 20.5t-59.5 -14.5t-45.5 -47.5l-22 16
q46 73 128 73z" />
    <glyph glyph-name="threequarters" unicode="&#xbe;" horiz-adv-x="734" 
d="M610 717l-462 -734h-37l462 734h37zM256 700v-23l-125 -130q17 3 35 3q46 -2 76 -26.5t30 -63.5q0 -51 -37.5 -82t-95.5 -31q-63 0 -121 42l17 19q50 -35 101 -35q48 0 76 23.5t28 64.5q0 32 -24 50.5t-65 18.5q-30 0 -60 -12l-7 19l133 137h-178v26h217zM641 348v-223
h66v-24h-66v-101h-30v101h-188l-2 23l188 224h32zM611 312l-157 -187h157v187z" />
    <glyph glyph-name="questiondown" unicode="&#xbf;" horiz-adv-x="546" 
d="M298 490q0 -16 -14 -22.5t-28 0t-14 22.5t14 22.5t28 0t14 -22.5zM252 355h37v-40q0 -68 -25 -101q-12 -20 -29 -37l-18 -17q-4 -4 -21 -19.5t-23 -21.5q-41 -37 -58 -66t-17 -67q0 -72 45.5 -112.5t123.5 -40.5q76 0 125.5 42t58.5 117l40 -4q-11 -90 -72.5 -141.5
t-154.5 -51.5q-96 0 -152.5 51t-56.5 138q0 47 21.5 83t70.5 79q13 13 26 24l24 23l18 20q16 18 27 44q10 25 10 63v35z" />
    <glyph glyph-name="Agrave" unicode="&#xc0;" horiz-adv-x="793" 
d="M423 700l323 -700h-50l-93 200h-415l-93 -200h-50l322 700h56zM395 654l-194 -418h389zM315 913l106 -150h-38l-116 150h48z" />
    <glyph glyph-name="Aacute" unicode="&#xc1;" horiz-adv-x="793" 
d="M523 913l-116 -150h-37l105 150h48zM423 700l323 -700h-50l-93 200h-415l-93 -200h-50l322 700h56zM395 654l-194 -418h389z" />
    <glyph glyph-name="Acircumflex" unicode="&#xc2;" horiz-adv-x="793" 
d="M418 913l120 -150h-36l-106 126l-106 -126h-37l120 150h45zM423 700l323 -700h-50l-93 200h-415l-93 -200h-50l322 700h56zM395 654l-194 -418h389z" />
    <glyph glyph-name="Atilde" unicode="&#xc3;" horiz-adv-x="793" 
d="M314 902q31 -1 75 -33q46 -32 73 -35q28 -3 49 14t29 51l22 -4q-7 -43 -33.5 -68t-62.5 -23q-36 4 -81 36q-10 7 -39 24q-13 8 -28 8q-25 3 -42.5 -14t-23.5 -50l-23 3q5 45 28 69t57 22zM423 700l323 -700h-50l-93 200h-415l-93 -200h-50l322 700h56zM395 654l-194 -418
h389z" />
    <glyph glyph-name="Adieresis" unicode="&#xc4;" horiz-adv-x="793" 
d="M291 871q15 0 21.5 -14.5t-5.5 -26.5q-11 -10 -25 -4t-14 21q0 24 23 24zM483 864q10 10 23 5.5t16 -16t-6 -23.5q-6 -6 -16 -6t-17 6q-6 7 -6 17.5t6 16.5zM423 700l323 -700h-50l-93 200h-415l-93 -200h-50l322 700h56zM395 654l-194 -418h389z" />
    <glyph glyph-name="Aring" unicode="&#xc5;" horiz-adv-x="793" 
d="M396 735q-47 0 -80 32t-33 78q-2 34 18.5 61.5t51 39.5t65 7t57.5 -30q33 -31 33 -78q0 -46 -33 -78t-79 -32zM457 905q-26 26 -61.5 26t-61.5 -26q-25 -25 -25 -60t25 -61q26 -25 61.5 -25t61.5 25q26 26 26 61t-26 60zM423 700l323 -700h-50l-93 200h-415l-93 -200h-50
l322 700h56zM395 654l-194 -418h389z" />
    <glyph glyph-name="AE" unicode="&#xc6;" horiz-adv-x="976" 
d="M900 700v-39h-462v-289h426v-37h-426v-296h473v-39h-516v200h-207l-93 -200h-50l322 700h533zM395 654l-194 -418h194v418z" />
    <glyph glyph-name="Ccedilla" unicode="&#xc7;" horiz-adv-x="801" 
d="M458 -10q-34 0 -65 6l-23 -47q21 10 46 9q35 -2 58.5 -23.5t23.5 -56.5q0 -39 -30 -63t-74 -24q-56 0 -96 22l9 19q35 -18 81 -18q35 0 58 19.5t23 47.5q0 27 -18.5 44.5t-46.5 17.5q-36 0 -58 -22l-12 10l35 70q-121 28 -199 126t-78 223q-3 146 107 254.5t259 105.5
q81 0 154.5 -34t124.5 -94l-36 -23q-94 111 -243 111q-131 3 -227.5 -93.5t-93.5 -226.5q0 -132 93 -227q94 -93 228 -93q149 0 243 111l36 -23q-52 -59 -124.5 -93.5t-154.5 -34.5z" />
    <glyph glyph-name="Egrave" unicode="&#xc8;" horiz-adv-x="708" 
d="M632 700v-39h-461v-289h425v-37h-425v-296h472v-39h-515v700h504zM299 913l106 -150h-38l-116 150h48z" />
    <glyph glyph-name="Eacute" unicode="&#xc9;" horiz-adv-x="708" 
d="M632 700v-39h-461v-289h425v-37h-425v-296h472v-39h-515v700h504zM507 913l-116 -150h-38l106 150h48z" />
    <glyph glyph-name="Ecircumflex" unicode="&#xca;" horiz-adv-x="708" 
d="M402 913l120 -150h-37l-106 126l-106 -126h-36l120 150h45zM632 700v-39h-461v-289h425v-37h-425v-296h472v-39h-515v700h504z" />
    <glyph glyph-name="Edieresis" unicode="&#xcb;" horiz-adv-x="708" 
d="M275 871q15 0 21.5 -14.5t-5.5 -26.5q-11 -10 -25 -4t-14 21q0 24 23 24zM467 864q10 10 23 5.5t16 -16t-6 -23.5q-6 -6 -16 -6t-17 6q-6 7 -6 17.5t6 16.5zM632 700v-39h-461v-289h425v-37h-425v-296h472v-39h-515v700h504z" />
    <glyph glyph-name="Igrave" unicode="&#xcc;" horiz-adv-x="300" 
d="M70 913l105 -150h-37l-116 150h48zM171 700v-700h-43v700h43z" />
    <glyph glyph-name="Iacute" unicode="&#xcd;" horiz-adv-x="300" 
d="M279 913l-116 -150h-38l106 150h48zM172 700v-700h-43v700h43z" />
    <glyph glyph-name="Icircumflex" unicode="&#xce;" horiz-adv-x="300" 
d="M174 913l120 -150h-37l-106 126l-106 -126h-37l121 150h45zM172 700v-700h-43v700h43z" />
    <glyph glyph-name="Idieresis" unicode="&#xcf;" horiz-adv-x="300" 
d="M30 864q10 10 23 5.5t16 -16t-6 -23.5q-9 -9 -22.5 -4.5t-17 16t6.5 22.5zM239 864q10 10 23 5.5t16 -16t-6 -23.5q-9 -9 -22.5 -4.5t-17 16t6.5 22.5zM172 700v-700h-43v700h43z" />
    <glyph glyph-name="Eth" unicode="&#xd0;" horiz-adv-x="849" 
d="M130 368v332h260q153 0 260 -101t107 -249q2 -96 -48 -177.5t-135.5 -128t-183.5 -44.5h-260v332h-86v36h86zM173 332v-293h216q133 -3 229.5 89.5t94.5 221.5q2 129 -94.5 221.5t-229.5 89.5h-216v-293h214v-36h-214z" />
    <glyph glyph-name="Ntilde" unicode="&#xd1;" horiz-adv-x="834" 
d="M339 902q29 -1 75 -33q44 -32 73 -35q59 -6 78 65l22 -4q-7 -43 -34 -68t-62 -23q-36 4 -81 36q-45 29 -59 31q-4 1 -9 1q-24 3 -42 -14t-24 -50l-22 3q5 45 28 69t57 22zM715 700v-700h-50l-503 637v-637h-43v700h51l503 -638v638h42z" />
    <glyph glyph-name="Ograve" unicode="&#xd2;" horiz-adv-x="918" 
d="M378 913l106 -150h-37l-116 150h47zM459 710q99 0 183.5 -48t133.5 -131q49 -82 49 -181t-49 -181q-49 -83 -133.5 -131t-184.5 -48q-97 -2 -182.5 47t-135.5 133t-48 180q0 149 107.5 254.5t259.5 105.5zM459 670q-131 3 -228.5 -93.5t-94.5 -226.5q0 -133 94 -227
q94 -93 229 -93q133 0 228 93q94 94 94 227t-94 226q-94 94 -228 94z" />
    <glyph glyph-name="Oacute" unicode="&#xd3;" horiz-adv-x="918" 
d="M586 913l-116 -150h-37l106 150h47zM274 662q86 48 184 48q100 0 184.5 -48t133.5 -131q49 -82 49 -181q0 -98 -49 -181t-134 -131q-84 -48 -184 -48q-99 0 -183.5 48t-133.5 131q-49 82 -49 181q0 98 49 181t133 131zM459 670q-135 0 -229 -94q-94 -93 -94 -226t94 -227
q94 -93 229 -93q133 0 228 93q94 94 94 227q3 130 -94 226.5t-228 93.5z" />
    <glyph glyph-name="Ocircumflex" unicode="&#xd4;" horiz-adv-x="918" 
d="M459 710q99 0 183.5 -48t133.5 -131q49 -82 49 -181t-49 -181q-49 -83 -133.5 -131t-184.5 -48q-97 -2 -182.5 47t-135.5 133t-48 180q0 149 107.5 254.5t259.5 105.5zM459 670q-131 3 -228.5 -93.5t-94.5 -226.5q0 -133 94 -227q94 -93 229 -93q133 0 228 93
q94 94 94 227t-94 226q-94 94 -228 94zM481 913l121 -150h-37l-106 126l-106 -126h-37l120 150h45z" />
    <glyph glyph-name="Otilde" unicode="&#xd5;" horiz-adv-x="918" 
d="M377 902q30 -1 76 -33q44 -32 72 -35t49 14t29 51l23 -4q-7 -44 -34 -68.5t-63 -22.5q-35 4 -81 36q-46 31 -67 32q-24 3 -42 -14t-24 -50l-22 3q4 44 27 68.5t57 22.5zM459 710q99 0 183.5 -48t133.5 -131q49 -82 49 -181t-49 -181q-49 -83 -133.5 -131t-184.5 -48
q-97 -2 -182.5 47t-135.5 133t-48 180q0 149 107.5 254.5t259.5 105.5zM459 670q-131 3 -228.5 -93.5t-94.5 -226.5q0 -133 94 -227q94 -93 229 -93q133 0 228 93q94 94 94 227t-94 226q-94 94 -228 94z" />
    <glyph glyph-name="Odieresis" unicode="&#xd6;" horiz-adv-x="918" 
d="M337 864q17 17 34 0t0 -34q-7 -6 -17 -6t-17 6q-6 7 -6 17.5t6 16.5zM546 864q17 17 34 0t0 -34q-7 -6 -17 -6t-17 6q-6 7 -6 17.5t6 16.5zM274 662q86 48 184 48q100 0 184.5 -48t133.5 -131q49 -82 49 -181q0 -98 -49 -181t-134 -131q-84 -48 -184 -48q-99 0 -183.5 48
t-133.5 131q-49 82 -49 181q0 98 49 181t133 131zM459 670q-135 0 -229 -94q-94 -93 -94 -226t94 -227q94 -93 229 -93q133 0 228 93q94 94 94 227q3 130 -94 226.5t-228 93.5z" />
    <glyph glyph-name="multiply" unicode="&#xd7;" horiz-adv-x="376" 
d="M306 405l23 -24l-117 -117l117 -118l-23 -23l-118 117l-117 -117l-24 23l118 118l-118 117l24 24l117 -118z" />
    <glyph glyph-name="Oslash" unicode="&#xd8;" horiz-adv-x="918" 
d="M630 750h39l-39 -82q91 -48 142 -131q53 -86 53 -187q2 -96 -48 -180t-135.5 -133t-182.5 -47q-72 0 -140 27l-31 -67h-39l39 82q-90 47 -143 131q-53 86 -53 187q0 149 107.5 254.5t259.5 105.5q71 0 139 -27zM137 350q0 -89 45.5 -164t122.5 -117l275 577
q-59 24 -121 24q-132 3 -228.5 -93.5t-93.5 -226.5zM459 30q133 0 228 93q94 94 94 227q0 91 -46 165q-47 76 -123 116l-275 -577q59 -24 122 -24z" />
    <glyph glyph-name="Ugrave" unicode="&#xd9;" horiz-adv-x="848" 
d="M685 700h43v-393q0 -152 -82 -234q-83 -83 -218 -83t-218 83q-82 82 -82 234v393h43v-393q0 -132 70 -205q71 -72 187 -72t186 72q71 74 71 205v393zM343 913l106 -150h-38l-116 150h48z" />
    <glyph glyph-name="Uacute" unicode="&#xda;" horiz-adv-x="848" 
d="M551 913l-116 -150h-37l105 150h48zM685 700h43v-393q0 -152 -82 -234q-83 -83 -218 -83t-218 83q-82 82 -82 234v393h43v-393q0 -132 70 -205q71 -72 187 -72t186 72q71 74 71 205v393z" />
    <glyph glyph-name="Ucircumflex" unicode="&#xdb;" horiz-adv-x="848" 
d="M446 913l120 -150h-36l-106 126l-107 -126h-36l120 150h45zM685 700h43v-393q0 -152 -82 -234q-83 -83 -218 -83t-218 83q-82 82 -82 234v393h43v-393q0 -132 70 -205q71 -72 187 -72t186 72q71 74 71 205v393z" />
    <glyph glyph-name="Udieresis" unicode="&#xdc;" horiz-adv-x="848" 
d="M319 871q15 0 21.5 -14.5t-5.5 -26.5q-11 -10 -25 -4t-14 21q0 24 23 24zM511 864q10 10 23 5.5t16 -16t-6 -23.5q-6 -6 -16 -6t-17 6q-6 7 -6 17.5t6 16.5zM685 700h43v-393q0 -152 -82 -234q-83 -83 -218 -83t-218 83q-82 82 -82 234v393h43v-393q0 -132 70 -205
q71 -72 187 -72t186 72q71 74 71 205v393z" />
    <glyph glyph-name="Yacute" unicode="&#xdd;" horiz-adv-x="751" 
d="M704 700l-308 -440v-260h-43v259l-308 441h51l278 -395l279 395h51zM502 913l-116 -150h-38l106 150h48z" />
    <glyph glyph-name="Thorn" unicode="&#xde;" horiz-adv-x="757" 
d="M171 700v-106h230q146 0 213.5 -55.5t67.5 -173.5q0 -116 -68 -171t-211 -55h-232v-139h-43v700h43zM400 557h-229v-383h231q121 0 178.5 45.5t57.5 144.5q0 100 -57 146.5t-181 46.5z" />
    <glyph glyph-name="germandbls" unicode="&#xdf;" horiz-adv-x="686" 
d="M342 710q101 0 165 -49q66 -48 66 -124q0 -59 -35.5 -100.5t-99.5 -59.5q85 -14 134 -64.5t49 -125.5q0 -86 -71 -142q-70 -55 -184 -55q-64 0 -118 23l7 33q48 -22 112 -22q95 2 153 48q59 47 59 119q0 77 -58 122t-155 45h-115v31h92q85 0 137 38.5t52 105.5
q0 61 -54 102q-53 41 -135 41q-93 0 -141 -47.5t-48 -138.5v-490h-43v483q0 111 59 169t172 58z" />
    <glyph glyph-name="agrave" unicode="&#xe0;" horiz-adv-x="612" 
d="M230 713l106 -150h-38l-116 150h48zM317 510q95 0 149.5 -47.5t54.5 -139.5v-323h-40v65q-97 -75 -238 -75q-78 0 -129 45q-50 45 -50 118q0 72 53.5 110t147.5 38h216v19q0 79 -46 118t-126 39q-105 0 -192 -66l-15 27q98 72 215 72zM481 88v191h-205q-82 0 -127 -31.5
t-45 -91.5q0 -63 42.5 -101t109.5 -38q133 0 225 71z" />
    <glyph glyph-name="aacute" unicode="&#xe1;" horiz-adv-x="612" 
d="M438 713l-116 -150h-37l106 150h47zM317 510q95 0 149.5 -47.5t54.5 -139.5v-323h-40v65q-97 -75 -238 -75q-78 0 -129 45q-50 45 -50 118q0 72 52.5 110t148.5 38h216v19q0 77 -45.5 117t-126.5 40q-105 0 -192 -66l-15 27q98 72 215 72zM481 88v191h-205
q-82 0 -127 -31.5t-45 -91.5q0 -63 42.5 -101t109.5 -38q133 0 225 71z" />
    <glyph glyph-name="acircumflex" unicode="&#xe2;" horiz-adv-x="612" 
d="M333 713l120 -150h-36l-106 126l-106 -126h-37l120 150h45zM317 510q95 0 149.5 -47.5t54.5 -139.5v-323h-40v65q-97 -75 -238 -75q-78 0 -129 45q-50 45 -50 118q0 72 53.5 110t146.5 38h217v19q0 79 -46 118t-126 39q-105 0 -192 -66l-15 27q98 72 215 72zM481 88v191
h-205q-82 0 -127 -31.5t-45 -91.5q0 -63 42.5 -101t109.5 -38q133 0 225 71z" />
    <glyph glyph-name="atilde" unicode="&#xe3;" horiz-adv-x="612" 
d="M229 702q31 -1 75 -33q46 -32 73 -35q60 -6 78 65l22 -4q-6 -43 -33 -68t-63 -23q-35 2 -81 36q-45 29 -59 31q-3 1 -8 1q-25 3 -42.5 -14t-23.5 -50l-23 3q5 45 28 69t57 22zM317 510q95 0 149.5 -47.5t54.5 -139.5v-323h-40v65q-97 -75 -238 -75q-78 0 -129 45
q-50 45 -50 118q0 72 53.5 110t146.5 38h217v19q0 77 -45.5 117t-126.5 40q-105 0 -192 -66l-15 27q98 72 215 72zM481 88v191h-205q-82 0 -127 -31.5t-45 -91.5q0 -63 42.5 -101t109.5 -38q133 0 225 71z" />
    <glyph glyph-name="adieresis" unicode="&#xe4;" horiz-adv-x="612" 
d="M189 664q10 10 23 5.5t16 -16t-6 -23.5q-6 -6 -16 -6t-17 6q-6 7 -6 17.5t6 16.5zM415 671q15 0 22 -14.5t-5 -26.5q-11 -10 -25.5 -4t-14.5 21q0 10 6.5 17t16.5 7zM317 510q95 0 149.5 -47.5t54.5 -139.5v-323h-40v65q-97 -75 -238 -75q-78 0 -129 45q-50 45 -50 118
q0 72 53.5 110t146.5 38h217v19q0 79 -46 118t-126 39q-105 0 -192 -66l-15 27q98 72 215 72zM481 88v191h-205q-82 0 -127 -31.5t-45 -91.5q0 -63 42.5 -101t109.5 -38q133 0 225 71z" />
    <glyph glyph-name="aring" unicode="&#xe5;" horiz-adv-x="612" 
d="M311 755q45 0 79 -32q33 -31 33 -78t-33 -78q-23 -25 -57.5 -30t-65 7t-51 39.5t-18.5 61.5q0 46 33 78t80 32zM372 705q-26 26 -61.5 26t-61.5 -26q-25 -25 -25 -60t25 -61q26 -25 61.5 -25t61.5 25q26 26 26 61t-26 60zM317 510q95 0 149.5 -47.5t54.5 -139.5v-323h-40
v65q-97 -75 -238 -75q-78 0 -129 45q-50 45 -50 118q0 72 53.5 110t146.5 38h217v19q0 79 -46 118t-126 39q-105 0 -192 -66l-15 27q98 72 215 72zM481 88v191h-205q-82 0 -127 -31.5t-45 -91.5q0 -63 42.5 -101t109.5 -38q133 0 225 71z" />
    <glyph glyph-name="ae" unicode="&#xe6;" horiz-adv-x="1067" 
d="M999 250v-17h-468q4 -89 69 -150.5t153 -61.5q109 0 185 76l23 -21q-89 -86 -210 -86q-74 0 -135.5 38t-94.5 102v-130h-40v65q-97 -75 -238 -75q-78 0 -129 45q-50 45 -50 118q0 71 52.5 109.5t147.5 38.5h217v19q0 77 -45.5 117t-126.5 40q-105 0 -192 -66l-15 27
q98 72 215 72q84 0 136.5 -37t64.5 -108q30 65 92 105t135 40q118 0 185 -75q69 -74 69 -185zM531 257h430q0 94 -59 158q-58 64 -156 64q-86 2 -151.5 -65t-63.5 -157zM481 88v191h-205q-82 0 -127 -31.5t-45 -91.5q0 -63 42.5 -101t109.5 -38q133 0 225 71z" />
    <glyph glyph-name="ccedilla" unicode="&#xe7;" horiz-adv-x="615" 
d="M338 -10q-20 0 -40 3l-22 -44q21 11 47 9q35 -1 58.5 -23.5t23.5 -56.5q0 -39 -30 -63t-75 -24q-55 0 -95 22l9 19q34 -18 81 -18q35 0 58 19.5t23 47.5q0 27 -19 44.5t-47 17.5q-35 0 -57 -22l-12 10l33 67q-88 21 -145 91q-57 71 -57 161q0 108 78 184q77 76 188 76
q122 0 201 -89l-31 -20q-68 74 -168 74q-94 0 -162 -66q-67 -66 -67 -159t67 -159q68 -66 162 -66q106 0 175 81l31 -19q-37 -45 -91.5 -71t-116.5 -26z" />
    <glyph glyph-name="egrave" unicode="&#xe8;" horiz-adv-x="648" 
d="M243 713l106 -150h-37l-116 150h47zM326 510q117 0 184 -75q69 -73 69 -185v-17h-468q4 -89 69 -150.5t153 -61.5q109 0 185 76l23 -21q-89 -86 -210 -86q-107 0 -183 76t-76 184q0 107 74 184q75 76 180 76zM326 479q-87 0 -152 -65q-63 -64 -63 -157h430
q0 95 -58 158.5t-157 63.5z" />
    <glyph glyph-name="eacute" unicode="&#xe9;" horiz-adv-x="648" 
d="M451 713l-116 -150h-37l106 150h47zM326 510q117 0 184 -75q69 -73 69 -185v-17h-468q5 -91 68 -151q64 -61 154 -61q109 0 185 76l23 -21q-89 -86 -210 -86q-107 0 -183 76t-76 184q0 107 74 184q75 76 180 76zM326 479q-86 2 -151.5 -65t-63.5 -157h430q0 96 -58 158
q-58 64 -157 64z" />
    <glyph glyph-name="ecircumflex" unicode="&#xea;" horiz-adv-x="648" 
d="M326 510q117 0 184 -75q69 -73 69 -185v-17h-468q4 -89 69 -150.5t153 -61.5q109 0 185 76l23 -21q-89 -86 -210 -86q-107 0 -183 76t-76 184q0 107 74 184q75 76 180 76zM326 479q-87 0 -152 -65q-63 -64 -63 -157h430q0 95 -58 158.5t-157 63.5zM346 713l121 -150h-37
l-106 126l-106 -126h-37l120 150h45z" />
    <glyph glyph-name="edieresis" unicode="&#xeb;" horiz-adv-x="648" 
d="M202 664q10 10 23.5 6t17 -16t-6.5 -24q-7 -6 -17 -6t-17 6q-6 7 -6 17.5t6 16.5zM428 624q-10 0 -16.5 6.5t-6.5 16.5q0 16 14.5 22t25.5 -5q12 -10 5 -25t-22 -15zM326 510q117 0 184 -75q69 -73 69 -185v-17h-468q4 -89 69 -150.5t153 -61.5q109 0 185 76l23 -21
q-89 -86 -210 -86q-107 0 -183 76t-76 184q0 107 74 184q75 76 180 76zM326 479q-87 0 -152 -65q-63 -64 -63 -157h430q0 95 -58 158.5t-157 63.5z" />
    <glyph glyph-name="igrave" unicode="&#xec;" horiz-adv-x="260" 
d="M52 713l106 -150h-37l-116 150h47zM152 500v-500h-40v500h40z" />
    <glyph glyph-name="iacute" unicode="&#xed;" horiz-adv-x="260" 
d="M261 713l-117 -150h-37l106 150h48zM152 500v-500h-40v500h40z" />
    <glyph glyph-name="icircumflex" unicode="&#xee;" horiz-adv-x="260" 
d="M157 713l121 -150h-37l-106 126l-106 -126h-37l121 150h44zM154 500v-500h-40v500h40z" />
    <glyph glyph-name="idieresis" unicode="&#xef;" horiz-adv-x="260" 
d="M53 647q0 -10 -7 -16.5t-17 -6.5q-15 0 -21.5 15t4.5 25q11 11 26 5t15 -22zM238 624q-10 0 -16.5 6.5t-6.5 16.5q0 16 14.5 22t25.5 -5q12 -10 5 -25t-22 -15zM153 500v-500h-40v500h40z" />
    <glyph glyph-name="eth" unicode="&#xf0;" horiz-adv-x="652" 
d="M561 748l16 -24l-109 -67q94 -109 94 -328q0 -101 -30 -180q-61 -159 -237 -159q-105 0 -173 68q-67 68 -67 175q0 105 64 170q65 66 168 66q77 0 137.5 -31.5t93.5 -88.5v9q-5 185 -84 278l-133 -80l-16 24l128 78q-68 60 -169 59q-70 0 -130 -28l-13 31q69 30 147 30
q121 1 199 -72zM295 24q99 0 153 59q62 67 70 210q-23 66 -82.5 104.5t-140.5 38.5q-87 0 -143 -57q-56 -58 -56 -149t56 -149q56 -57 143 -57z" />
    <glyph glyph-name="ntilde" unicode="&#xf1;" horiz-adv-x="666" 
d="M251 702q29 -1 75 -33q44 -32 73 -35q28 -3 48.5 13.5t29.5 51.5l22 -4q-7 -43 -33.5 -68t-62.5 -23q-36 4 -81 36q-45 29 -59 31q-4 1 -9 1q-24 3 -42 -14t-24 -50l-22 3q5 45 28 69t57 22zM386 510q86 0 137 -52t51 -144v-314h-40v305q0 81 -43 126t-117 45
q-137 0 -234 -91v-385h-40v500h40v-82q109 92 246 92z" />
    <glyph glyph-name="ograve" unicode="&#xf2;" 
d="M260 713l105 -150h-37l-116 150h48zM340 510q111 0 189.5 -76t78.5 -184t-79 -184q-77 -76 -189 -76q-111 0 -190 76q-78 76 -78 184t78 184q79 76 190 76zM340 475q-94 0 -162 -66q-67 -66 -67 -159t67 -159q68 -66 162 -66q92 -2 161 66t67 159q0 94 -66.5 159.5
t-161.5 65.5z" />
    <glyph glyph-name="oacute" unicode="&#xf3;" 
d="M468 713l-116 -150h-38l106 150h48zM340 510q111 0 189.5 -76t78.5 -184t-79 -184q-77 -76 -189 -76q-111 0 -190 76q-78 76 -78 184t78 184q79 76 190 76zM340 475q-94 0 -162 -66q-67 -66 -67 -159t67 -159q68 -66 162 -66q92 -2 161 66t67 159q0 94 -66.5 159.5
t-161.5 65.5z" />
    <glyph glyph-name="ocircumflex" unicode="&#xf4;" 
d="M363 713l120 -150h-37l-106 126l-106 -126h-37l121 150h45zM150 434q79 76 190 76q112 0 189 -76q79 -76 79 -184t-79 -184q-77 -76 -189 -76q-111 0 -190 76q-78 76 -78 184t78 184zM501 409q-67 66 -161 66t-162 -66q-67 -66 -67 -159t67 -159q68 -66 162 -66t161 66
t67 159t-67 159z" />
    <glyph glyph-name="otilde" unicode="&#xf5;" 
d="M259 702q29 -1 75 -33q44 -32 73 -35q28 -3 48.5 13.5t29.5 51.5l22 -4q-7 -43 -33.5 -68t-62.5 -23q-36 4 -81 36q-45 29 -59 31q-4 1 -9 1q-24 2 -42 -14t-24 -50l-22 3q5 45 28 69t57 22zM340 510q111 0 189.5 -76t78.5 -184t-79 -184q-77 -76 -189 -76
q-111 0 -190 76q-78 76 -78 184t78 184q79 76 190 76zM340 475q-94 0 -162 -66q-67 -66 -67 -159t67 -159q68 -66 162 -66t161 66t67 159q0 94 -66.5 159.5t-161.5 65.5z" />
    <glyph glyph-name="odieresis" unicode="&#xf6;" 
d="M219 664q10 10 23 5.5t16 -16t-6 -23.5q-9 -9 -22.5 -4.5t-17 16t6.5 22.5zM428 664q10 10 23 5.5t16 -16t-6 -23.5q-9 -9 -22.5 -4.5t-17 16t6.5 22.5zM150 434q79 76 190 76q112 0 189 -76q79 -76 79 -184t-79 -184q-77 -76 -189 -76q-111 0 -190 76q-78 76 -78 184
t78 184zM340 475q-94 0 -162 -66q-67 -66 -67 -159t67 -159q68 -66 162 -66q92 -2 161 66t67 159q0 94 -66.5 159.5t-161.5 65.5z" />
    <glyph glyph-name="divide" unicode="&#xf7;" horiz-adv-x="572" 
d="M314 495q0 -16 -14 -22t-28 0t-14 22q0 25 28 25t28 -25zM525 309v-34h-478v34h478zM286 114q12 0 20 -7.5t8 -18.5t-8 -18t-20 -7t-20 7t-8 18q0 12 8 19t20 7z" />
    <glyph glyph-name="oslash" unicode="&#xf8;" 
d="M468 550h31l-34 -70q66 -33 104.5 -94.5t38.5 -135.5q0 -108 -79 -184q-77 -76 -189 -76q-52 0 -99 18l-28 -58h-32l34 70q-66 33 -104.5 94.5t-38.5 135.5q0 108 78 184q79 76 190 76q52 0 100 -18zM111 250q0 -62 32 -114.5t87 -82.5l194 406q-39 16 -84 16
q-92 2 -161.5 -66t-67.5 -159zM340 25q94 0 161 66t67 159q0 62 -32 115t-86 82l-194 -406q39 -16 84 -16z" />
    <glyph glyph-name="ugrave" unicode="&#xf9;" horiz-adv-x="657" 
d="M248 713l106 -150h-37l-116 150h47zM566 500v-500h-41v82q-109 -92 -246 -92q-86 0 -137 52t-51 144v314h41v-305q0 -81 42.5 -126t116.5 -45q137 0 234 91v385h41z" />
    <glyph glyph-name="uacute" unicode="&#xfa;" horiz-adv-x="657" 
d="M456 713l-116 -150h-37l106 150h47zM565 500v-500h-40v82q-109 -92 -246 -92q-86 0 -137 52t-51 144v314h41v-305q0 -81 42.5 -126t116.5 -45q137 0 234 91v385h40z" />
    <glyph glyph-name="ucircumflex" unicode="&#xfb;" horiz-adv-x="657" 
d="M351 713l121 -150h-37l-106 126l-106 -126h-37l120 150h45zM91 500h41v-305q0 -81 42.5 -126t116.5 -45q137 0 234 91v385h40v-500h-40v82q-109 -92 -246 -92q-86 0 -137 52t-51 144v314z" />
    <glyph glyph-name="udieresis" unicode="&#xfc;" horiz-adv-x="657" 
d="M207 664q17 17 34 0t0 -34q-7 -6 -17 -6t-17 6q-6 7 -6 17.5t6 16.5zM433 624q-10 0 -16.5 7t-6.5 17q0 15 14.5 21t25.5 -5q12 -10 5 -25t-22 -15zM91 500h41v-305q0 -81 42.5 -126t116.5 -45q137 0 234 91v385h40v-500h-40v82q-109 -92 -246 -92q-86 0 -137 52t-51 144
v314z" />
    <glyph glyph-name="yacute" unicode="&#xfd;" horiz-adv-x="551" 
d="M406 713l-116 -150h-38l106 150h48zM72 500l209 -466l202 466h42l-240 -553q-36 -82 -77.5 -116.5t-99.5 -35.5q-40 0 -81 16l12 28q35 -13 66 -12q45 1 79 29.5t65 98.5l13 29l-233 516h43z" />
    <glyph glyph-name="thorn" unicode="&#xfe;" horiz-adv-x="670" 
d="M105 700h40v-276q78 86 193 86q109 0 182 -76q75 -76 75 -184t-75 -184q-73 -76 -182 -76q-115 0 -193 86v-271h-40v895zM327 475q-54 0 -102 -24t-80 -66v-270q31 -41 79.5 -65.5t102.5 -24.5q93 0 161 66q67 66 67 159t-67 159q-68 66 -161 66z" />
    <glyph glyph-name="ydieresis" unicode="&#xff;" horiz-adv-x="551" 
d="M156 664q17 17 34 0t0 -34q-7 -6 -17 -6t-17 6q-6 7 -6 17.5t6 16.5zM366 664q10 10 23 5.5t16 -16t-6 -23.5q-9 -9 -22.5 -4.5t-17 16t6.5 22.5zM483 500h42l-240 -553q-36 -82 -77.5 -116.5t-99.5 -35.5q-40 0 -81 16l12 28q35 -13 66 -12q45 1 79 29.5t65 98.5l13 29
l-233 516h43l209 -466z" />
    <glyph glyph-name="Amacron" unicode="&#x100;" horiz-adv-x="793" 
d="M423 700l323 -700h-50l-93 200h-415l-93 -200h-50l322 700h56zM395 654l-194 -418h389zM530 862v-29h-269v29h269z" />
    <glyph glyph-name="amacron" unicode="&#x101;" horiz-adv-x="612" 
d="M317 510q95 0 149.5 -47.5t54.5 -139.5v-323h-40v65q-97 -75 -238 -75q-78 0 -129 45q-50 45 -50 118q0 72 53.5 110t146.5 38h217v19q0 79 -46 118t-126 39q-105 0 -192 -66l-15 27q98 72 215 72zM481 88v191h-205q-82 0 -127 -31.5t-45 -91.5q0 -63 42.5 -101
t109.5 -38q133 0 225 71zM445 662v-29h-269v29h269z" />
    <glyph glyph-name="Abreve" unicode="&#x102;" horiz-adv-x="793" 
d="M520 909l31 -1q-4 -62 -46.5 -98.5t-108.5 -36.5t-108.5 36.5t-46.5 98.5l31 1q3 -50 36.5 -78.5t87.5 -28.5t87.5 28.5t36.5 78.5zM423 700l323 -700h-50l-93 200h-415l-93 -200h-50l322 700h56zM395 654l-194 -418h389z" />
    <glyph glyph-name="abreve" unicode="&#x103;" horiz-adv-x="612" 
d="M435 709l31 -1q-4 -61 -47 -98t-108 -37q-67 0 -109.5 36.5t-45.5 98.5l31 1q3 -50 36.5 -78.5t87.5 -28.5t87 28.5t37 78.5zM317 510q95 0 149.5 -47.5t54.5 -139.5v-323h-40v65q-97 -75 -238 -75q-78 0 -129 45q-50 45 -50 118q0 71 52.5 109.5t147.5 38.5h217v19
q0 77 -45.5 117t-126.5 40q-105 0 -192 -66l-15 27q98 72 215 72zM481 88v191h-205q-82 0 -127 -31.5t-45 -91.5q0 -63 42.5 -101t109.5 -38q133 0 225 71z" />
    <glyph glyph-name="Aogonek" unicode="&#x104;" horiz-adv-x="793" 
d="M423 700l323 -700l-22 -3l-26 -34q-33 -40 -31 -78q0 -29 22 -48t55 -20q37 0 65 25l12 -22q-37 -29 -83 -29q-41 0 -69.5 23t-30.5 60q-4 42 34 96l24 30l-93 200h-415l-93 -200h-50l322 700h56zM395 654l-194 -418h389z" />
    <glyph glyph-name="aogonek" unicode="&#x105;" horiz-adv-x="612" 
d="M317 510q95 0 149.5 -47.5t54.5 -139.5v-323l-14 -5l-25 -32q-32 -42 -31 -78q1 -30 23 -48.5t55 -19.5q37 0 65 25l11 -22q-35 -29 -82 -29q-42 0 -70 23t-30 59q-5 45 34 97l24 30v65q-97 -75 -238 -75q-78 0 -129 45q-50 45 -50 118q0 72 53.5 110t146.5 38h217v19
q0 79 -46 118t-126 39q-105 0 -192 -66l-15 27q98 72 215 72zM481 88v191h-205q-82 0 -127 -31.5t-45 -91.5q0 -63 42.5 -101t109.5 -38q133 0 225 71z" />
    <glyph glyph-name="Cacute" unicode="&#x106;" horiz-adv-x="801" 
d="M573 913l-116 -150h-38l106 150h48zM458 710q81 0 154.5 -34t124.5 -94l-36 -23q-94 111 -243 111q-131 3 -228 -93.5t-94 -226.5q0 -133 94 -227q94 -93 228 -93q149 0 243 111l36 -23q-51 -60 -124.5 -94t-154.5 -34q-98 -2 -183.5 47t-135 133t-47.5 180
q-3 146 107 254.5t259 105.5z" />
    <glyph glyph-name="cacute" unicode="&#x107;" horiz-adv-x="615" 
d="M452 713l-116 -150h-37l105 150h48zM338 510q122 0 201 -89l-31 -20q-68 74 -168 74q-94 0 -162 -66q-67 -66 -67 -159t67 -159q68 -66 162 -66q106 0 175 81l31 -19q-37 -45 -91.5 -71t-116.5 -26q-111 0 -188 76q-78 76 -78 184t78 184q77 76 188 76z" />
    <glyph glyph-name="Cdotaccent" unicode="&#x10a;" horiz-adv-x="801" 
d="M468 847q0 -10 -6.5 -16.5t-16.5 -6.5q-15 0 -21.5 15t4.5 25q11 11 25.5 5t14.5 -22zM458 710q81 0 154.5 -34t124.5 -94l-36 -23q-94 111 -243 111q-131 3 -227.5 -93.5t-93.5 -226.5q0 -132 93 -227q94 -93 228 -93q149 0 243 111l36 -23q-52 -59 -124.5 -93.5
t-154.5 -34.5q-98 -2 -183.5 47t-135 133t-47.5 180q-3 146 107 254.5t259 105.5z" />
    <glyph glyph-name="cdotaccent" unicode="&#x10b;" horiz-adv-x="615" 
d="M307 664q17 17 34 0t0 -34q-7 -6 -17 -6t-17 6q-6 7 -6 17.5t6 16.5zM338 510q122 0 201 -89l-31 -20q-68 74 -168 74q-94 0 -162 -66q-67 -66 -67 -159t67 -159q68 -66 162 -66q106 0 175 81l31 -19q-37 -45 -91.5 -71t-116.5 -26q-111 0 -188 76q-78 76 -78 184t78 184
q77 76 188 76z" />
    <glyph glyph-name="Ccaron" unicode="&#x10c;" horiz-adv-x="801" 
d="M588 913l-121 -150h-45l-120 150h37l106 -127l106 127h37zM458 710q81 0 154.5 -34t124.5 -94l-36 -23q-94 111 -243 111q-131 3 -228 -93.5t-94 -226.5q0 -133 94 -227q94 -93 228 -93q149 0 243 111l36 -23q-51 -60 -124.5 -94t-154.5 -34q-98 -2 -183.5 47t-135 133
t-47.5 180q-3 146 107 254.5t259 105.5z" />
    <glyph glyph-name="ccaron" unicode="&#x10d;" horiz-adv-x="615" 
d="M467 713l-120 -150h-45l-120 150h36l106 -127l106 127h37zM338 510q122 0 201 -89l-31 -20q-68 74 -168 74q-94 0 -162 -66q-67 -66 -67 -159t67 -159q68 -66 162 -66q106 0 175 81l31 -19q-37 -45 -91.5 -71t-116.5 -26q-111 0 -188 76q-78 76 -78 184t78 184
q77 76 188 76z" />
    <glyph glyph-name="Dcaron" unicode="&#x10e;" horiz-adv-x="847" 
d="M528 913l-120 -150h-45l-121 150h37l106 -127l106 127h37zM128 0v700h260q152 0 259.5 -101t107.5 -249q3 -145 -107 -249t-260 -101h-260zM387 661h-216v-622h216q132 -3 229.5 89.5t94.5 221.5q3 129 -94.5 221.5t-229.5 89.5z" />
    <glyph glyph-name="dcaron" unicode="&#x10f;" horiz-adv-x="743" 
d="M742 686q0 -8 -4 -13l-69 -110l-15 7l51 94q-15 6 -15 22q0 23 26 23t26 -23zM522 700h40v-700h-40v76q-78 -86 -193 -86q-108 0 -183 76q-74 77 -74 184t74 184q75 76 183 76q113 0 193 -86v276zM340 475q-94 0 -161 -66t-67 -159t67 -159q68 -66 161 -66q113 0 182 90
v270q-32 42 -80 66t-102 24z" />
    <glyph glyph-name="Dcroat" unicode="&#x110;" horiz-adv-x="849" 
d="M130 368v332h260q153 0 260 -101t107 -249q2 -96 -48 -177.5t-135.5 -128t-183.5 -44.5h-260v332h-86v36h86zM173 332v-293h216q133 -3 229.5 89.5t94.5 221.5q2 129 -94.5 221.5t-229.5 89.5h-216v-293h214v-36h-214z" />
    <glyph glyph-name="dslash" unicode="&#x111;" horiz-adv-x="664" 
d="M655 623v-28h-93v-595h-40v76q-78 -86 -193 -86q-108 0 -183 76q-74 77 -74 184t74 184q75 76 183 76q113 0 193 -86v171h-136v28h136v77h40v-77h93zM522 115v270q-32 42 -80 66t-102 24q-92 2 -161 -66t-67 -159q0 -93 67 -159q68 -66 161 -66q113 0 182 90z" />
    <glyph glyph-name="Emacron" unicode="&#x112;" horiz-adv-x="708" 
d="M632 700v-39h-461v-289h425v-37h-425v-296h472v-39h-515v700h504zM511 862v-29h-269v29h269z" />
    <glyph glyph-name="emacron" unicode="&#x113;" horiz-adv-x="648" 
d="M326 510q117 0 184 -75q69 -73 69 -185v-17h-468q4 -89 69 -150.5t153 -61.5q109 0 185 76l23 -21q-89 -86 -210 -86q-107 0 -183 76t-76 184q0 107 74 184q75 76 180 76zM326 479q-87 0 -152 -65q-63 -64 -63 -157h430q0 95 -58 158.5t-157 63.5zM458 662v-29h-269v29
h269z" />
    <glyph glyph-name="Edotaccent" unicode="&#x116;" horiz-adv-x="708" 
d="M360 864q10 10 23 5.5t16 -16t-6 -23.5q-9 -9 -22.5 -4.5t-17 16t6.5 22.5zM632 700v-39h-461v-289h425v-37h-425v-296h472v-39h-515v700h504z" />
    <glyph glyph-name="edotaccent" unicode="&#x117;" horiz-adv-x="648" 
d="M307 664q10 10 23 5.5t16 -16t-6 -23.5q-9 -9 -22.5 -4.5t-17 16t6.5 22.5zM326 510q117 0 184 -75q69 -73 69 -185v-17h-468q4 -89 69 -150.5t153 -61.5q109 0 185 76l23 -21q-89 -86 -210 -86q-107 0 -183 76t-76 184q0 107 74 184q75 76 180 76zM326 479
q-87 0 -152 -65q-63 -64 -63 -157h430q0 95 -58 158.5t-157 63.5z" />
    <glyph glyph-name="Eogonek" unicode="&#x118;" horiz-adv-x="708" 
d="M632 700v-39h-461v-289h425v-37h-425v-296h472v-39h-77l-23 -30q-32 -41 -30 -77q0 -29 22.5 -48.5t54.5 -19.5q37 0 65 25l12 -22q-37 -29 -83 -29q-41 0 -69.5 23t-30.5 59q-4 42 34 96l18 23h-408v700h504z" />
    <glyph glyph-name="eogonek" unicode="&#x119;" horiz-adv-x="648" 
d="M326 510q116 0 184.5 -74t68.5 -186v-17h-468q4 -89 69 -150.5t153 -61.5q109 0 185 76l23 -21q-42 -40 -95 -63l-24 -30q-32 -43 -31 -78q0 -30 23 -49t54 -19q38 -1 66 24l11 -22q-34 -28 -82 -28q-42 0 -70.5 22.5t-30.5 59.5q-3 41 32 91l13 17q-39 -11 -78 -11
q-109 2 -183 77q-74 77 -74 183q0 107 74 184q75 76 180 76zM326 479q-87 0 -152 -65q-63 -64 -63 -157h430q0 96 -58 158q-58 64 -157 64z" />
    <glyph glyph-name="Ecaron" unicode="&#x11a;" horiz-adv-x="708" 
d="M519 913l-120 -150h-45l-120 150h36l106 -127l107 127h36zM632 700v-39h-461v-289h425v-37h-425v-296h472v-39h-515v700h504z" />
    <glyph glyph-name="ecaron" unicode="&#x11b;" horiz-adv-x="648" 
d="M466 713l-120 -150h-45l-120 150h37l106 -127l106 127h36zM326 510q117 0 184 -75q69 -73 69 -185v-17h-468q4 -89 69 -150.5t153 -61.5q109 0 185 76l23 -21q-89 -86 -210 -86q-107 0 -183 76t-76 184q0 107 74 184q75 76 180 76zM326 479q-87 0 -152 -65
q-63 -64 -63 -157h430q0 95 -58 158.5t-157 63.5z" />
    <glyph glyph-name="Gbreve" unicode="&#x11e;" horiz-adv-x="862" 
d="M557 909l31 -1q-4 -62 -46.5 -98.5t-109.5 -36.5q-66 0 -108.5 36.5t-45.5 98.5l31 1q3 -50 36 -78.5t87 -28.5t87.5 28.5t37.5 78.5zM461 710q143 0 249 -94l-29 -29q-95 83 -220 83q-134 0 -229.5 -93t-95.5 -227q0 -133 94 -227q94 -93 229 -93q141 0 243 90v194h-241
v33h283v-249q-119 -108 -285 -108q-149 -4 -259.5 105t-107.5 255q-3 148 108.5 255.5t260.5 104.5z" />
    <glyph glyph-name="gbreve" unicode="&#x11f;" 
d="M467 709l31 -1q-3 -62 -45.5 -98.5t-109.5 -36.5q-66 0 -108.5 36.5t-46.5 98.5l31 1q4 -50 37 -78.5t87 -28.5t87.5 28.5t36.5 78.5zM325 510q123 0 214 -82v72h40v-444q0 -126 -70 -194t-190 -67q-120 0 -218 71l15 26q92 -65 197 -65t165.5 59.5t60.5 169.5v54
q-36 -52 -92.5 -81t-121.5 -29q-105 0 -179 74q-73 73 -73 180q0 108 73 181q74 75 179 75zM336 475q-91 0 -158 -65q-66 -64 -66 -156q0 -91 66 -156t158 -65q65 0 119 32t84 87v239q-84 84 -203 84z" />
    <glyph glyph-name="Gdotaccent" unicode="&#x120;" horiz-adv-x="862" 
d="M415 864q10 10 23.5 6t17 -16t-6.5 -24q-7 -6 -17 -6t-17 6q-6 7 -6 17.5t6 16.5zM461 710q143 0 249 -94l-29 -29q-95 83 -220 83q-131 3 -229 -93t-96 -227q-3 -130 94.5 -226.5t228.5 -93.5q141 0 243 90v194h-241v33h283v-249q-119 -108 -285 -108
q-149 -4 -259.5 105t-107.5 255q-3 148 108.5 255.5t260.5 104.5z" />
    <glyph glyph-name="gdotaccent" unicode="&#x121;" 
d="M326 664q10 10 23 5.5t16 -16t-6 -23.5q-9 -9 -22.5 -4.5t-17 16t6.5 22.5zM325 510q123 0 214 -82v72h40v-444q0 -126 -70 -194t-190 -67q-120 0 -218 71l15 26q92 -65 197 -65t165.5 59.5t60.5 169.5v54q-36 -52 -92.5 -81t-121.5 -29q-105 0 -179 74q-73 73 -73 180
q0 108 73 181q74 75 179 75zM336 475q-90 2 -158 -65t-66 -156q0 -92 66 -156q67 -65 158 -65q65 0 119 32t84 87v239q-84 84 -203 84z" />
    <glyph glyph-name="Gcommaaccent" unicode="&#x122;" horiz-adv-x="862" 
d="M461 710q143 0 249 -94l-29 -29q-95 83 -220 83q-131 3 -229 -93t-96 -227q0 -133 94 -227q94 -93 229 -93q141 0 243 90v194h-241v33h283v-249q-119 -108 -285 -108q-149 -4 -259.5 105t-107.5 255q-3 148 108.5 255.5t260.5 104.5zM479 -102q0 -8 -4 -13l-69 -110
l-15 7l51 94q-15 6 -15 22q0 23 26 23t26 -23z" />
    <glyph glyph-name="gcommaaccent" unicode="&#x123;" 
d="M382 787l14 -7l-50 -94q15 -6 15 -22q0 -10 -7.5 -17t-19.5 -7q-10 0 -18 7t-8 17q0 9 4 13zM325 510q123 0 214 -82v72h40v-444q0 -126 -70 -194t-190 -67q-120 0 -218 71l15 26q92 -65 197 -65t165.5 59.5t60.5 169.5v54q-36 -52 -92.5 -81t-121.5 -29q-105 0 -179 74
q-73 73 -73 180q0 108 73 181q74 75 179 75zM336 475q-92 0 -158 -65t-66 -156q0 -92 66 -156q67 -65 158 -65q65 0 119 32t84 87v239q-84 84 -203 84z" />
    <glyph glyph-name="Hbar" unicode="&#x126;" horiz-adv-x="852" 
d="M803 569v-31h-79v-538h-44v334h-509v-334h-43v538h-79v31h79v131h43v-131h509v131h44v-131h79zM680 373v165h-509v-165h509z" />
    <glyph glyph-name="hbar" unicode="&#x127;" horiz-adv-x="671" 
d="M392 510q86 0 137 -52t51 -144v-314h-40v305q0 81 -43 126t-117 45q-137 0 -234 -91v-385h-40v595h-87v28h87v77h40v-77h189v-28h-189v-177q109 92 246 92z" />
    <glyph glyph-name="Itilde" unicode="&#x128;" horiz-adv-x="300" 
d="M70 902q29 -1 75 -33q44 -32 73 -35q59 -6 78 65l22 -4q-7 -43 -33.5 -68t-62.5 -23q-36 4 -81 36q-45 29 -59 31q-4 1 -9 1q-24 3 -42 -14t-24 -50l-22 3q5 45 28 69t57 22zM172 700v-700h-43v700h43z" />
    <glyph glyph-name="itilde" unicode="&#x129;" horiz-adv-x="260" 
d="M52 702q30 -1 76 -33q44 -32 73 -35q28 -3 49 14t28 51l23 -4q-7 -43 -34 -68t-62 -23q-36 4 -82 36q-46 31 -67 32q-24 3 -42 -14t-24 -50l-22 3q4 44 27 68.5t57 22.5zM153 500v-500h-40v500h40z" />
    <glyph glyph-name="Imacron" unicode="&#x12a;" horiz-adv-x="300" 
d="M171 700v-700h-43v700h43zM285 862v-29h-269v29h269z" />
    <glyph glyph-name="imacron" unicode="&#x12b;" horiz-adv-x="260" 
d="M269 662v-29h-269v29h269zM154 500v-500h-40v500h40z" />
    <glyph glyph-name="Iogonek" unicode="&#x12e;" horiz-adv-x="300" 
d="M176 700v-704l-27 -33q-32 -43 -31 -78q1 -30 23.5 -49t54.5 -19q36 0 65 24l11 -21q-35 -29 -82 -29q-42 0 -70 23t-30 59q-5 44 34 96l17 22l-8 9v700h43z" />
    <glyph glyph-name="iogonek" unicode="&#x12f;" horiz-adv-x="260" 
d="M121 664q10 10 23 5.5t16 -16t-6 -23.5q-6 -6 -16 -6t-17 6q-6 7 -6 17.5t6 16.5zM157 500v-505l-25 -32q-32 -43 -31 -78q1 -30 23 -49t54 -19q38 0 66 24l11 -21q-35 -29 -82 -29q-42 0 -70 22.5t-31 59.5q-4 43 35 96l12 17l-2 14v500h40z" />
    <glyph glyph-name="Idot" unicode="&#x130;" horiz-adv-x="300" 
d="M133 864q10 10 23.5 6t17 -16t-6.5 -24q-7 -6 -17 -6t-17 6q-6 7 -6 17.5t6 16.5zM171 700v-700h-43v700h43z" />
    <glyph glyph-name="dotlessi" unicode="&#x131;" horiz-adv-x="260" 
d="M153 500v-500h-40v500h40z" />
    <glyph glyph-name="IJ" unicode="&#x132;" horiz-adv-x="911" 
d="M738 700h43v-458q0 -124 -61 -188t-169 -64q-134 0 -215 91l34 24q74 -75 179 -75q88 0 138.5 54.5t50.5 157.5v458zM171 700v-700h-43v700h43z" />
    <glyph glyph-name="ij" unicode="&#x133;" horiz-adv-x="529" 
d="M133 668q12 0 20 -7t8 -18q0 -16 -17 -22t-30 5t-6 26.5t25 15.5zM401 619q-11 0 -19 7t-8 17q0 16 17.5 22.5t28.5 -4.5q13 -11 6 -26.5t-25 -15.5zM154 500v-500h-40v500h40zM382 500h40v-533q0 -79 -48 -125q-47 -47 -117 -47q-35 0 -62 10l7 25q18 -7 44 -7
q57 0 96 41q40 40 40 105v531z" />
    <glyph glyph-name="Kcommaaccent" unicode="&#x136;" horiz-adv-x="746" 
d="M683 700l-275 -274l293 -426h-55l-267 393l-206 -202v-191h-43v700h43v-448l452 448h58zM418 -102q0 -8 -4 -13l-69 -110l-15 7l51 94q-15 6 -15 22q0 23 26 23t26 -23z" />
    <glyph glyph-name="kcommaaccent" unicode="&#x137;" horiz-adv-x="592" 
d="M145 700v-524l351 324h51l-196 -185l214 -315h-45l-197 287l-178 -162v-125h-40v700h40zM315 -78q11 0 18.5 -7t7.5 -17q0 -8 -4 -13l-69 -110l-15 7l51 94q-15 6 -15 22q0 10 7.5 17t18.5 7z" />
    <glyph glyph-name="Lacute" unicode="&#x139;" horiz-adv-x="629" 
d="M442 913l-116 -150h-37l105 150h48zM171 700v-661h412v-39h-455v700h43z" />
    <glyph glyph-name="lacute" unicode="&#x13a;" horiz-adv-x="238" 
d="M256 913l-116 -150h-38l106 150h48zM147 700v-700h-41v700h41z" />
    <glyph glyph-name="Lcommaaccent" unicode="&#x13b;" horiz-adv-x="629" 
d="M171 700v-661h412v-39h-455v700h43zM359 -102q0 -8 -4 -13l-70 -110l-14 7l50 94q-15 6 -15 22q0 23 26.5 23t26.5 -23z" />
    <glyph glyph-name="lcommaaccent" unicode="&#x13c;" horiz-adv-x="238" 
d="M147 700v-700h-41v700h41zM145 -78q11 0 18.5 -7t7.5 -17q0 -8 -4 -13l-69 -110l-15 7l51 94q-15 6 -15 22q0 10 7.5 17t18.5 7z" />
    <glyph glyph-name="Lcaron" unicode="&#x13d;" horiz-adv-x="629" 
d="M484 686q0 -8 -4 -13l-70 -110l-14 7l50 94q-15 6 -15 22q0 23 26.5 23t26.5 -23zM171 700v-661h412v-39h-455v700h43z" />
    <glyph glyph-name="lcaron" unicode="&#x13e;" horiz-adv-x="327" 
d="M327 686q0 -8 -4 -13l-70 -110l-14 7l50 94q-14 6 -14 22q0 23 26 23t26 -23zM147 700v-700h-41v700h41z" />
    <glyph glyph-name="Ldot" unicode="&#x13f;" horiz-adv-x="629" 
d="M171 700v-661h412v-39h-455v700h43zM467 367q0 -11 -8 -18.5t-20 -7.5q-19 0 -26.5 16.5t6.5 27.5q13 13 30.5 6t17.5 -24z" />
    <glyph glyph-name="ldot" unicode="&#x140;" horiz-adv-x="355" 
d="M147 700v-700h-41v700h41zM297 393q19 0 26 -16t-6 -29q-13 -11 -30.5 -4.5t-17.5 23.5q0 10 8.5 18t19.5 8z" />
    <glyph glyph-name="Lslash" unicode="&#x141;" horiz-adv-x="674" 
d="M212 39h412v-39h-455v360l-133 -99v43l133 99v297h43v-264l149 112v-43l-149 -112v-354z" />
    <glyph glyph-name="lslash" unicode="&#x142;" horiz-adv-x="360" 
d="M324 548v-43l-129 -98v-407h-40v377l-119 -90v44l119 89v280h40v-249z" />
    <glyph glyph-name="Nacute" unicode="&#x143;" horiz-adv-x="834" 
d="M715 700v-700h-50l-503 637v-637h-43v700h51l503 -638v638h42zM548 913l-116 -150h-38l106 150h48z" />
    <glyph glyph-name="nacute" unicode="&#x144;" horiz-adv-x="666" 
d="M460 713l-116 -150h-38l106 150h48zM386 510q85 0 136.5 -51t51.5 -145v-314h-40v305q0 81 -43 126t-117 45q-137 0 -234 -91v-385h-40v500h40v-82q109 92 246 92z" />
    <glyph glyph-name="Ncommaaccent" unicode="&#x145;" horiz-adv-x="834" 
d="M715 700v-700h-50l-503 637v-637h-43v700h51l503 -638v638h42zM464 -102q0 -8 -4 -13l-69 -110l-15 7l51 94q-15 6 -15 22q0 23 26 23t26 -23z" />
    <glyph glyph-name="ncommaaccent" unicode="&#x146;" horiz-adv-x="666" 
d="M386 510q86 0 137 -52t51 -144v-314h-40v305q0 81 -43 126t-117 45q-137 0 -234 -91v-385h-40v500h40v-82q109 92 246 92zM350 -78q11 0 18.5 -7t7.5 -17q0 -8 -4 -13l-69 -110l-15 7l51 94q-15 6 -15 22q0 10 7.5 17t18.5 7z" />
    <glyph glyph-name="Ncaron" unicode="&#x147;" horiz-adv-x="834" 
d="M563 913l-121 -150h-44l-121 150h37l106 -127l106 127h37zM715 700v-700h-50l-503 637v-637h-43v700h51l503 -638v638h42z" />
    <glyph glyph-name="ncaron" unicode="&#x148;" horiz-adv-x="666" 
d="M475 713l-121 -150h-44l-121 150h37l106 -127l106 127h37zM386 510q86 0 137 -52t51 -144v-314h-40v305q0 81 -43 126t-117 45q-137 0 -234 -91v-385h-40v500h40v-82q109 92 246 92z" />
    <glyph glyph-name="Eng" unicode="&#x14a;" horiz-adv-x="834" 
d="M673 700h42v-660q0 -123 -61 -187t-168 -64q-133 0 -214 90l33 24q73 -75 179 -75q78 0 127.5 43.5t58.5 128.5h-5l-503 637v-637h-43v700h51l502 -637l1 25v612z" />
    <glyph glyph-name="eng" unicode="&#x14b;" horiz-adv-x="666" 
d="M386 510q86 0 137 -52t51 -144v-347q0 -79 -48 -125q-47 -47 -117 -47q-35 0 -62 10l7 25q18 -7 44 -7q57 0 96 41q40 40 40 105v336q0 81 -43 126t-117 45q-137 0 -234 -91v-385h-40v500h40v-82q109 92 246 92z" />
    <glyph glyph-name="Omacron" unicode="&#x14c;" horiz-adv-x="918" 
d="M459 710q99 0 183.5 -48t133.5 -131q49 -82 49 -181t-49 -181q-49 -83 -133.5 -131t-184.5 -48q-97 -2 -182.5 47t-135.5 133t-48 180q0 149 107.5 254.5t259.5 105.5zM459 670q-131 3 -228.5 -93.5t-94.5 -226.5q0 -133 94 -227q94 -93 229 -93q133 0 228 93
q94 94 94 227t-94 226q-94 94 -228 94zM593 862v-29h-269v29h269z" />
    <glyph glyph-name="omacron" unicode="&#x14d;" 
d="M475 662v-29h-269v29h269zM340 510q111 0 189.5 -76t78.5 -184t-79 -184q-77 -76 -189 -76q-111 0 -190 76q-78 76 -78 184t78 184q79 76 190 76zM340 475q-94 0 -162 -66q-67 -66 -67 -159t67 -159q68 -66 162 -66q92 -2 161 66t67 159q0 94 -66.5 159.5t-161.5 65.5z
" />
    <glyph glyph-name="Ohungarumlaut" unicode="&#x150;" horiz-adv-x="918" 
d="M513 913l-116 -150h-37l105 150h48zM685 913l-116 -150h-37l105 150h48zM274 662q86 48 184 48q100 0 184.5 -48t133.5 -131q49 -82 49 -181q0 -98 -49 -181t-134 -131q-84 -48 -184 -48q-99 0 -183.5 48t-133.5 131q-49 82 -49 181q0 98 49 181t133 131zM459 670
q-135 0 -229 -94q-94 -93 -94 -226t94 -227q94 -93 229 -93q133 0 228 93q94 94 94 227q3 130 -94 226.5t-228 93.5z" />
    <glyph glyph-name="ohungarumlaut" unicode="&#x151;" 
d="M395 713l-116 -150h-38l106 150h48zM566 713l-116 -150h-37l106 150h47zM340 510q111 0 189.5 -76t78.5 -184t-79 -184q-77 -76 -189 -76q-111 0 -190 76q-78 76 -78 184t78 184q79 76 190 76zM340 475q-94 0 -162 -66q-67 -66 -67 -159t67 -159q68 -66 162 -66
q92 -2 161 66t67 159q0 94 -66.5 159.5t-161.5 65.5z" />
    <glyph glyph-name="OE" unicode="&#x152;" horiz-adv-x="1361" 
d="M825 39h473v-39h-516v180q-46 -85 -134 -138q-85 -52 -189 -52q-149 -4 -259.5 105t-107.5 255q-3 146 107.5 254.5t259.5 105.5q104 0 189 -52q88 -53 134 -138v180h505v-39h-462v-289h425v-37h-425v-2v-294zM230 123q94 -93 229 -93q133 0 228 93q94 94 94 227t-94 226
q-94 94 -228 94q-135 0 -229 -94q-94 -93 -94 -226t94 -227z" />
    <glyph glyph-name="oe" unicode="&#x153;" horiz-adv-x="1146" 
d="M1077 250v-17h-468q5 -90 68.5 -151t153.5 -61q109 0 185 76l23 -21q-89 -86 -210 -86q-81 0 -146 45q-66 46 -94 117q-31 -72 -99 -117t-150 -45q-111 0 -190 76q-78 76 -78 184t78 184q79 76 190 76q82 0 150 -45q67 -43 99 -116q29 74 92 116q64 45 142 45
q117 0 185.5 -74t68.5 -186zM609 257h430q0 94 -59 158q-58 64 -156 64q-89 0 -152 -65q-63 -64 -63 -157zM178 91q68 -66 162 -66t161 66t67 159t-67 159t-161 66t-162 -66q-67 -66 -67 -159t67 -159z" />
    <glyph glyph-name="Racute" unicode="&#x154;" horiz-adv-x="771" 
d="M128 0v700h293q147 0 211.5 -49.5t64.5 -160.5q0 -90 -41.5 -138.5t-132.5 -63.5l202 -288h-50l-198 282q-29 -3 -63 -3h-243v-279h-43zM423 661h-252v-347h252q123 0 176.5 40.5t53.5 132.5q0 93 -53 133.5t-177 40.5zM516 913l-116 -150h-38l106 150h48z" />
    <glyph glyph-name="racute" unicode="&#x155;" horiz-adv-x="419" 
d="M338 713l-116 -150h-38l106 150h48zM391 510v-34q-142 0 -251 -109v-367h-40v500h40v-97q110 107 251 107z" />
    <glyph glyph-name="Rcommaaccent" unicode="&#x156;" horiz-adv-x="771" 
d="M128 0v700h293q147 0 211.5 -49.5t64.5 -160.5q0 -90 -41.5 -138.5t-132.5 -63.5l202 -288h-50l-198 282q-29 -3 -63 -3h-243v-279h-43zM423 661h-252v-347h252q123 0 176.5 40.5t53.5 132.5q0 93 -53 133.5t-177 40.5zM432 -102q0 -8 -4 -13l-69 -110l-15 7l51 94
q-15 6 -15 22q0 23 26 23t26 -23z" />
    <glyph glyph-name="rcommaaccent" unicode="&#x157;" horiz-adv-x="419" 
d="M391 510v-34q-142 0 -251 -109v-367h-40v500h40v-97q110 107 251 107zM254 -102q0 -8 -4 -13l-69 -110l-15 7l51 94q-15 6 -15 22q0 23 26 23t26 -23z" />
    <glyph glyph-name="Rcaron" unicode="&#x158;" horiz-adv-x="771" 
d="M531 913l-120 -150h-45l-120 150h36l106 -127l106 127h37zM128 0v700h293q147 0 211.5 -49.5t64.5 -160.5q0 -90 -41.5 -138.5t-132.5 -63.5l202 -288h-50l-198 282q-29 -3 -63 -3h-243v-279h-43zM423 661h-252v-347h252q123 0 176.5 40.5t53.5 132.5q0 93 -53 133.5
t-177 40.5z" />
    <glyph glyph-name="rcaron" unicode="&#x159;" horiz-adv-x="419" 
d="M354 713l-121 -150h-44l-121 150h37l106 -127l106 127h37zM392 510v-34q-142 0 -251 -109v-367h-40v500h40v-97q110 107 251 107z" />
    <glyph glyph-name="Sacute" unicode="&#x15a;" horiz-adv-x="703" 
d="M480 913l-116 -150h-38l106 150h48zM343 710q152 0 266 -72l-20 -34q-51 32 -118 50.5t-131 17.5q-90 0 -145 -37.5t-55 -107.5q0 -51 40 -79q42 -29 156 -59q148 -41 183 -54q84 -35 103 -97q9 -27 9 -62q0 -89 -76.5 -137.5t-189.5 -48.5q-82 0 -162.5 22.5
t-138.5 61.5l21 33q56 -37 132 -58t151 -21q93 -2 155 36q63 38 63 108q0 74 -54 109q-12 11 -52 24q-7 3 -33 10q-18 6 -36 10l-42 12l-45 11q-129 34 -180 71q-49 37 -49 104q0 92 70.5 139.5t177.5 47.5z" />
    <glyph glyph-name="sacute" unicode="&#x15b;" horiz-adv-x="532" 
d="M392 713l-116 -150h-37l106 150h47zM252 510q110 0 192 -52l-15 -26q-77 49 -177 49q-65 -1 -103 -27.5t-38 -76.5q0 -34 28 -55q29 -20 109 -42l28 -7l47 -13q51 -13 75 -27q38 -22 48 -42q17 -30 17 -67q0 -66 -56 -101t-139 -33q-127 0 -219 61l16 25q86 -57 203 -57
q70 0 113.5 26.5t43.5 75.5q0 52 -29 71q-22 17 -50 25q-44 15 -74 22q-29 7 -34 9q-94 25 -130 51q-36 27 -36 76q0 67 51 101t129 34z" />
    <glyph glyph-name="Scedilla" unicode="&#x15e;" horiz-adv-x="703" 
d="M343 710q70 0 141.5 -19.5t124.5 -52.5l-20 -34q-108 68 -249 68q-90 0 -145 -37.5t-55 -108.5q0 -50 40 -78q42 -29 156 -59q148 -41 183 -54q84 -35 103 -97q9 -27 9 -62q0 -87 -73.5 -135t-181.5 -50h-29l-21 -42q21 10 46 9q35 -1 58.5 -23.5t23.5 -56.5
q0 -39 -29.5 -63t-74.5 -24q-56 0 -96 22l9 19q35 -18 81 -18q35 0 58 19.5t23 47.5q0 27 -18.5 44.5t-46.5 17.5q-36 0 -58 -22l-12 10l30 61q-151 10 -256 82l21 33q56 -37 132 -58t151 -21q93 -2 155 36q63 38 63 108q0 74 -54 109q-12 11 -52 24q-7 3 -33 10
q-18 6 -36 10l-42 12l-45 11q-129 34 -180 71q-49 37 -49 104q0 92 70.5 139.5t177.5 47.5z" />
    <glyph glyph-name="scedilla" unicode="&#x15f;" horiz-adv-x="532" 
d="M252 510q110 0 192 -52l-15 -26q-77 49 -177 49q-65 -1 -103.5 -27.5t-38.5 -76.5q0 -34 28 -55q28 -19 110 -42l28 -7l47 -13q51 -13 75 -27q38 -22 48 -42q17 -30 17 -67q0 -65 -55 -99q-52 -33 -134 -35l-16 1l-21 -42q21 11 47 9q34 -2 58 -24t24 -56q0 -39 -30 -63
t-75 -24q-55 0 -96 22l10 19q35 -18 81 -18q35 0 58 19.5t23 47.5q0 27 -19 44.5t-47 17.5q-35 0 -57 -22l-12 10l30 61q-109 9 -183 59l16 25q86 -57 203 -57q70 0 113.5 26.5t43.5 75.5q-2 33 -12.5 52t-35.5 31t-44 18l-28 7q-6 2 -32.5 9.5t-34.5 9.5q-94 25 -130 51
q-36 27 -36 76q0 65 49.5 100t130.5 35z" />
    <glyph glyph-name="Scaron" unicode="&#x160;" horiz-adv-x="703" 
d="M495 913l-120 -150h-45l-120 150h36l106 -127l106 127h37zM343 710q70 0 141.5 -19.5t124.5 -52.5l-20 -34q-51 32 -118 50.5t-131 17.5q-90 0 -145 -37.5t-55 -107.5q0 -51 40 -79q42 -29 156 -59q148 -41 183 -54q84 -35 103 -97q9 -27 9 -62q0 -89 -76.5 -137.5
t-189.5 -48.5q-82 0 -162.5 22.5t-138.5 61.5l21 33q56 -37 132 -58t151 -21q93 -2 155 36q63 38 63 108q0 74 -54 109q-12 11 -52 24q-7 3 -33 10q-18 6 -36 10l-42 12l-45 11q-129 34 -180 71q-49 37 -49 104q0 92 70.5 139.5t177.5 47.5z" />
    <glyph glyph-name="scaron" unicode="&#x161;" horiz-adv-x="532" 
d="M407 713l-120 -150h-45l-120 150h37l106 -127l106 127h36zM252 510q110 0 192 -52l-15 -26q-77 49 -177 49q-65 -1 -103 -27.5t-38 -76.5q0 -34 28 -55q29 -20 109 -42l28 -7l47 -13q51 -13 75 -27q38 -22 48 -42q17 -30 17 -67q0 -66 -56 -101t-139 -33q-127 0 -219 61
l16 25q86 -57 203 -57q70 0 113.5 26.5t43.5 75.5q-2 33 -12.5 52t-35.5 31t-44 18l-28 7q-6 2 -32.5 9.5t-34.5 9.5q-94 25 -130 51q-36 27 -36 76q0 67 51 101t129 34z" />
    <glyph glyph-name="Tcedilla" unicode="&#x162;" horiz-adv-x="641" 
d="M595 700v-38h-253v-665l-13 -6l-23 -48q21 11 46 10q35 -2 58.5 -23.5t23.5 -56.5q0 -38 -30 -63t-74 -25q-56 0 -96 22l9 20q35 -18 81 -18q35 0 58 19.5t23 47.5q0 27 -18 43.5t-47 18.5q-36 0 -58 -22l-12 10l33 65l-5 9v662h-253v38h550z" />
    <glyph glyph-name="tcedilla" unicode="&#x163;" horiz-adv-x="450" 
d="M167 653v-153h172v-32h-172v-300q0 -87 68 -126.5t141 1.5l9 -29q-41 -21 -80 -22q-41 -1 -79 16l-29 -59q21 10 46 9q35 -1 58.5 -23.5t23.5 -56.5q0 -39 -29.5 -63t-74.5 -24q-56 0 -96 22l9 19q34 -18 82 -18q34 0 57 19.5t23 47.5q1 27 -18 44.5t-47 17.5
q-35 0 -57 -22l-12 10l41 84q-76 44 -76 148v305h-99v32h99v153h40z" />
    <glyph glyph-name="Tcaron" unicode="&#x164;" horiz-adv-x="641" 
d="M462 913l-121 -150h-44l-121 150h37l106 -127l106 127h37zM595 700v-38h-253v-662h-44v662h-253v38h550z" />
    <glyph glyph-name="tcaron" unicode="&#x165;" horiz-adv-x="467" 
d="M352 700q0 -9 -4 -14l-70 -109l-14 7l50 94q-14 6 -14 22q0 23 26 23t26 -23zM167 653v-153h172v-32h-172v-300q0 -64 38.5 -104t97.5 -40q39 0 73 19l9 -29q-43 -24 -93 -24q-71 0 -118 47t-47 126v305h-99v32h99v153h40z" />
    <glyph glyph-name="Tbar" unicode="&#x166;" horiz-adv-x="641" 
d="M595 662h-253v-284h113v-29h-113v-349h-44v349h-112v29h112v284h-253v38h550v-38z" />
    <glyph glyph-name="tbar" unicode="&#x167;" horiz-adv-x="450" 
d="M376 43l9 -29q-45 -24 -93 -24q-71 0 -118 47t-47 126v91h-81v28h81v186h-99v32h99v153h40v-153h172v-32h-172v-186h148v-28h-148v-86q0 -64 38.5 -104t97.5 -40q39 0 73 19z" />
    <glyph glyph-name="Utilde" unicode="&#x168;" horiz-adv-x="848" 
d="M342 902q31 -1 75 -33q46 -32 73 -35q28 -3 49 14t29 51l22 -4q-6 -43 -33 -68t-63 -23q-36 4 -81 36q-45 29 -59 31q-3 1 -8 1q-25 3 -42.5 -14t-23.5 -50l-23 3q5 45 28 69t57 22zM685 700h43v-393q0 -152 -82 -234q-83 -83 -218 -83q-136 0 -218 83t-82 234v393h43
v-393q0 -132 70 -205q71 -72 187 -72t186.5 72.5t70.5 204.5v393z" />
    <glyph glyph-name="utilde" unicode="&#x169;" horiz-adv-x="657" 
d="M247 702q15 -1 27 -5.5t19 -8.5t30 -19q44 -32 72 -35t49 14t29 51l23 -4q-7 -43 -34 -68t-63 -23q-34 4 -81 36q-46 31 -67 32q-24 3 -42 -14t-24 -50l-22 3q4 44 27 68.5t57 22.5zM565 500v-500h-40v82q-109 -92 -246 -92q-86 0 -137 52t-51 144v314h41v-305
q0 -81 42.5 -126t116.5 -45q137 0 234 91v385h40z" />
    <glyph glyph-name="Umacron" unicode="&#x16a;" horiz-adv-x="848" 
d="M685 700h43v-393q0 -152 -82 -234q-83 -83 -218 -83t-218 83q-82 82 -82 234v393h43v-393q0 -132 70 -205q71 -72 187 -72t186 72q71 74 71 205v393zM558 862v-29h-269v29h269z" />
    <glyph glyph-name="umacron" unicode="&#x16b;" horiz-adv-x="657" 
d="M91 500h41v-305q0 -81 42.5 -126t116.5 -45q137 0 234 91v385h40v-500h-40v82q-109 -92 -246 -92q-86 0 -137 52t-51 144v314zM463 662v-29h-269v29h269z" />
    <glyph glyph-name="Uring" unicode="&#x16e;" horiz-adv-x="848" 
d="M424 955q46 0 79 -32t33 -78t-33 -78t-79 -32q-47 0 -80 32t-33 78q0 47 33 78q34 32 80 32zM424 759q35 0 61 26t26 60t-26 60t-61.5 26t-61.5 -26q-25 -27 -25 -60t25.5 -60.5t61.5 -25.5zM685 700h43v-393q0 -152 -82 -234q-83 -83 -218 -83t-218 83q-82 82 -82 234
v393h43v-393q0 -132 70 -205q71 -72 187 -72t186 72q71 74 71 205v393z" />
    <glyph glyph-name="uring" unicode="&#x16f;" horiz-adv-x="657" 
d="M249 723q33 32 79.5 32t79.5 -32q33 -31 33 -78t-33 -78q-33 -32 -79.5 -32t-79.5 32q-33 31 -33 78t33 78zM329 731q-36 0 -61.5 -25.5t-25.5 -60.5t25.5 -60.5t61.5 -25.5q35 0 61 25.5t26 60.5t-25.5 60.5t-61.5 25.5zM91 500h41v-305q0 -81 42.5 -126t116.5 -45
q137 0 234 91v385h40v-500h-40v82q-109 -92 -246 -92q-86 0 -137 52t-51 144v314z" />
    <glyph glyph-name="Uhungarumlaut" unicode="&#x170;" horiz-adv-x="848" 
d="M478 913l-116 -150h-38l106 150h48zM650 913l-116 -150h-38l106 150h48zM685 700h43v-393q0 -150 -82.5 -233.5t-217.5 -83.5q-136 0 -218 83t-82 234v393h43v-393q0 -132 70 -205q71 -72 187 -72t186.5 72.5t70.5 204.5v393z" />
    <glyph glyph-name="uhungarumlaut" unicode="&#x171;" horiz-adv-x="657" 
d="M383 713l-116 -150h-37l105 150h48zM555 713l-116 -150h-37l105 150h48zM91 500h41v-305q0 -81 42.5 -126t116.5 -45q137 0 234 91v385h40v-500h-40v82q-109 -92 -246 -92q-86 0 -137 52t-51 144v314z" />
    <glyph glyph-name="Uogonek" unicode="&#x172;" horiz-adv-x="848" 
d="M685 700h43v-393q0 -107 -43 -182t-122 -109l-28 -35q-32 -42 -31 -78q1 -30 23.5 -49t54.5 -19q37 0 65 25l11 -22q-35 -29 -82 -29q-41 0 -70 23t-30 59q-4 40 31 91l16 21q-42 -13 -95 -13q-135 0 -218 83q-82 82 -82 234v393h43v-393q0 -132 70 -205q71 -72 187 -72
t186 72q71 74 71 205v393z" />
    <glyph glyph-name="uogonek" unicode="&#x173;" horiz-adv-x="657" 
d="M91 500h41v-305q0 -81 42.5 -126t116.5 -45q137 0 234 91v385h41v-505l-22 -9l-17 -22q-32 -43 -31 -78q1 -30 23 -49t54 -19q37 -2 66 24l11 -22q-37 -29 -82 -29q-42 0 -70.5 23t-30.5 60q-4 43 35 96l23 30v82q-109 -92 -246 -92q-86 0 -137 52t-51 144v314z" />
    <glyph glyph-name="Wcircumflex" unicode="&#x174;" horiz-adv-x="1100" 
d="M572 913l120 -150h-36l-106 126l-106 -126h-37l120 150h45zM1054 700l-243 -700h-49l-213 640l-212 -640h-50l-242 700h47l221 -640l212 640h48l212 -640l221 640h48z" />
    <glyph glyph-name="wcircumflex" unicode="&#x175;" horiz-adv-x="817" 
d="M431 713l120 -150h-36l-106 126l-106 -126h-37l120 150h45zM791 500l-183 -500h-46l-153 447l-153 -447h-46l-183 500h41l167 -457l155 457h38l156 -457l167 457h40z" />
    <glyph glyph-name="Ycircumflex" unicode="&#x176;" horiz-adv-x="751" 
d="M397 913l120 -150h-37l-106 126l-106 -126h-36l120 150h45zM704 700l-308 -440v-260h-43v259l-308 441h51l278 -395l279 395h51z" />
    <glyph glyph-name="ycircumflex" unicode="&#x177;" horiz-adv-x="551" 
d="M300 713l121 -150h-37l-106 126l-106 -126h-37l121 150h44zM483 500h42l-240 -553q-36 -82 -77.5 -116.5t-99.5 -35.5q-40 0 -81 16l12 28q35 -13 66 -12q45 1 79 29.5t65 98.5l13 29l-233 516h43l209 -466z" />
    <glyph glyph-name="Ydieresis" unicode="&#x178;" horiz-adv-x="751" 
d="M253 864q10 10 23 5.5t16 -16t-6 -23.5q-9 -9 -22.5 -4.5t-17 16t6.5 22.5zM462 864q10 10 23 5.5t16 -16t-6 -23.5q-9 -9 -22.5 -4.5t-17 16t6.5 22.5zM704 700l-308 -440v-260h-43v259l-308 441h51l278 -395l279 395h51z" />
    <glyph glyph-name="Zacute" unicode="&#x179;" horiz-adv-x="687" 
d="M613 700v-35l-491 -626h501v-39h-559v36l489 625h-471v39h531zM472 913l-116 -150h-38l106 150h48z" />
    <glyph glyph-name="zacute" unicode="&#x17a;" horiz-adv-x="538" 
d="M397 713l-116 -150h-37l106 150h47zM458 500v-31l-356 -435h368v-34h-420v31l356 435h-335v34h387z" />
    <glyph glyph-name="Zdotaccent" unicode="&#x17b;" horiz-adv-x="687" 
d="M367 847q0 -10 -6.5 -16.5t-16.5 -6.5q-15 0 -21.5 15t4.5 25q11 11 25.5 5t14.5 -22zM613 700v-35l-491 -626h501v-39h-559v36l489 625h-471v39h531z" />
    <glyph glyph-name="zdotaccent" unicode="&#x17c;" horiz-adv-x="538" 
d="M253 664q10 10 23 5.5t16 -16t-6 -23.5q-9 -9 -22.5 -4.5t-17 16t6.5 22.5zM458 500v-31l-356 -435h368v-34h-420v31l356 435h-335v34h387z" />
    <glyph glyph-name="Zcaron" unicode="&#x17d;" horiz-adv-x="687" 
d="M487 913l-121 -150h-44l-121 150h37l106 -127l106 127h37zM613 700v-35l-491 -626h501v-39h-559v36l489 625h-471v39h531z" />
    <glyph glyph-name="zcaron" unicode="&#x17e;" horiz-adv-x="538" 
d="M412 713l-120 -150h-45l-120 150h37l106 -127l106 127h36zM458 500v-31l-356 -435h368v-34h-420v31l356 435h-335v34h387z" />
    <glyph glyph-name="florin" unicode="&#x192;" horiz-adv-x="396" 
d="M286 710q36 0 72 -12l-7 -28q-27 10 -56 10q-59 0 -97.5 -39.5t-38.5 -104.5v-128h180v-33h-180v-408q0 -67 -46 -107q-31 -43 -85 -57v28q42 15 66.5 51t24.5 87v406h-91v33h91v129q0 79 48 126q49 47 119 47z" />
    <glyph glyph-name="Ohorn" unicode="&#x1a0;" horiz-adv-x="918" 
d="M866 736h39v-29q0 -60 -37.5 -107t-96.5 -62q54 -86 54 -188q0 -98 -49 -181t-134 -131q-84 -48 -184 -48q-98 0 -184 48q-84 48 -133 131t-49 181q-3 146 107.5 254.5t259.5 105.5q88 0 165.5 -39.5t128.5 -109.5q49 12 81 52t32 90v33zM459 670q-131 3 -228.5 -93.5
t-94.5 -226.5q-3 -130 94.5 -226.5t228.5 -93.5q133 0 228 93q94 94 94 227t-94 226q-94 94 -228 94z" />
    <glyph glyph-name="ohorn" unicode="&#x1a1;" 
d="M633 546h40v-29q0 -48 -25 -88.5t-67 -63.5q27 -54 27 -115q0 -108 -79 -184q-77 -76 -189 -76q-111 0 -190 76q-78 76 -78 184t78 184q79 76 190 76q68 0 127 -32.5t95 -87.5q33 19 52 52t19 72v32zM340 475q-94 0 -162 -66q-67 -66 -67 -159t67 -159q68 -66 162 -66
q92 -2 161 66t67 159q0 94 -66.5 159.5t-161.5 65.5z" />
    <glyph glyph-name="Uhorn" unicode="&#x1af;" horiz-adv-x="848" 
d="M841 736h37v-29q0 -64 -41.5 -111t-108.5 -59v-230q0 -152 -82 -234q-83 -83 -218 -83q-136 0 -218 83t-82 234v393h43v-393q0 -132 70 -205q71 -72 187 -72t186 72q71 74 71 205v393h43v-139q49 12 81 51.5t32 90.5v33z" />
    <glyph glyph-name="uhorn" unicode="&#x1b0;" horiz-adv-x="657" 
d="M656 546h33v-29q0 -58 -33 -101.5t-91 -61.5v-354h-40v82q-109 -92 -246 -92q-86 0 -137 52t-51 144v314h41v-305q0 -81 42.5 -126t116.5 -45q137 0 234 91v385h40v-121q41 17 66 53.5t25 81.5v32z" />
    <glyph glyph-name="Acaron" unicode="&#x1cd;" horiz-adv-x="793" 
d="M538 913l-120 -150h-45l-120 150h36l106 -127l107 127h36zM423 700l323 -700h-50l-93 200h-415l-93 -200h-50l322 700h56zM395 654l-194 -418h389z" />
    <glyph glyph-name="acaron" unicode="&#x1ce;" horiz-adv-x="612" 
d="M453 713l-121 -150h-44l-121 150h37l106 -127l106 127h37zM317 510q95 0 149.5 -47.5t54.5 -139.5v-323h-40v65q-97 -75 -238 -75q-78 0 -129 45q-50 45 -50 118q0 72 53.5 110t146.5 38h217v19q0 79 -46 118t-126 39q-105 0 -192 -66l-15 27q98 72 215 72zM481 88v191
h-205q-82 0 -127 -31.5t-45 -91.5q0 -63 42.5 -101t109.5 -38q133 0 225 71z" />
    <glyph glyph-name="Icaron" unicode="&#x1cf;" horiz-adv-x="300" 
d="M294 913l-121 -150h-44l-121 150h37l106 -127l106 127h37zM172 700v-700h-43v700h43z" />
    <glyph glyph-name="icaron" unicode="&#x1d0;" horiz-adv-x="260" 
d="M278 713l-121 -150h-45l-120 150h37l106 -127l106 127h37zM154 500v-500h-40v500h40z" />
    <glyph glyph-name="Ocaron" unicode="&#x1d1;" horiz-adv-x="918" 
d="M601 913l-120 -150h-45l-120 150h37l106 -127l106 127h36zM459 710q99 0 183.5 -48t133.5 -131q49 -82 49 -181t-49 -181q-49 -83 -133.5 -131t-184.5 -48q-97 -2 -182.5 47t-135.5 133t-48 180q0 149 107.5 254.5t259.5 105.5zM459 670q-131 3 -228.5 -93.5
t-94.5 -226.5q0 -133 94 -227q94 -93 229 -93q133 0 228 93q94 94 94 227t-94 226q-94 94 -228 94z" />
    <glyph glyph-name="ocaron" unicode="&#x1d2;" 
d="M483 713l-121 -150h-44l-121 150h37l106 -127l106 127h37zM150 434q79 76 190 76q112 0 189 -76q79 -76 79 -184t-79 -184q-77 -76 -189 -76q-111 0 -190 76q-78 76 -78 184t78 184zM501 409q-67 66 -161 66t-162 -66q-67 -66 -67 -159t67 -159q68 -66 162 -66t161 66
t67 159t-67 159z" />
    <glyph glyph-name="Ucaron" unicode="&#x1d3;" horiz-adv-x="848" 
d="M566 913l-120 -150h-45l-120 150h36l106 -127l106 127h37zM685 700h43v-393q0 -152 -82 -234q-83 -83 -218 -83t-218 83q-82 82 -82 234v393h43v-393q0 -132 70 -205q71 -72 187 -72t186 72q71 74 71 205v393z" />
    <glyph glyph-name="ucaron" unicode="&#x1d4;" horiz-adv-x="657" 
d="M471 713l-120 -150h-45l-120 150h37l106 -127l106 127h36zM91 500h41v-305q0 -81 42.5 -126t116.5 -45q137 0 234 91v385h40v-500h-40v82q-109 -92 -246 -92q-86 0 -137 52t-51 144v314z" />
    <glyph glyph-name="Udieresismacron" unicode="&#x1d5;" horiz-adv-x="848" 
d="M558 999v-28h-269v28h269zM319 846q15 0 21 -15t-5 -26q-11 -10 -25 -4t-14 21q0 24 23 24zM511 839q10 10 23 5.5t16 -16t-6 -23.5q-10 -10 -22 -5.5t-15.5 16t4.5 23.5zM685 700h43v-393q0 -152 -82 -234q-83 -83 -218 -83t-218 83q-82 82 -82 234v393h43v-393
q0 -132 70 -205q71 -72 187 -72t186 72q71 74 71 205v393z" />
    <glyph glyph-name="udieresismacron" unicode="&#x1d6;" horiz-adv-x="657" 
d="M463 778v-28h-269v28h269zM207 641q17 17 34 0t0 -34q-17 -15 -33 1t-1 33zM433 601q-10 0 -16.5 6.5t-6.5 16.5q0 16 14.5 22t25.5 -5t5 -25.5t-22 -14.5zM91 500h41v-305q0 -81 42.5 -126t116.5 -45q137 0 234 91v385h40v-500h-40v82q-109 -92 -246 -92q-86 0 -137 52
t-51 144v314z" />
    <glyph glyph-name="Udieresisacute" unicode="&#x1d7;" horiz-adv-x="848" 
d="M551 1065l-116 -149h-37l105 149h48zM319 846q15 0 21 -15t-5 -26q-11 -10 -25 -4t-14 21q0 24 23 24zM511 839q10 10 23 5.5t16 -16t-6 -23.5q-10 -10 -22 -5.5t-15.5 16t4.5 23.5zM685 700h43v-393q0 -152 -82 -234q-83 -83 -218 -83t-218 83q-82 82 -82 234v393h43
v-393q0 -132 70 -205q71 -72 187 -72t186 72q71 74 71 205v393z" />
    <glyph glyph-name="udieresisacute" unicode="&#x1d8;" horiz-adv-x="657" 
d="M456 865l-116 -149h-37l106 149h47zM207 641q17 17 34 0t0 -34q-17 -15 -33 1t-1 33zM433 601q-10 0 -16.5 6.5t-6.5 16.5q0 16 14.5 22t25.5 -5t5 -25.5t-22 -14.5zM91 500h41v-305q0 -81 42.5 -126t116.5 -45q137 0 234 91v385h40v-500h-40v82q-109 -92 -246 -92
q-86 0 -137 52t-51 144v314z" />
    <glyph glyph-name="Udieresiscaron" unicode="&#x1d9;" horiz-adv-x="848" 
d="M566 1065l-120 -149h-45l-120 149h36l106 -126l106 126h37zM319 846q15 0 21 -15t-5 -26q-11 -10 -25 -4t-14 21q0 24 23 24zM511 839q10 10 23 5.5t16 -16t-6 -23.5q-10 -10 -22 -5.5t-15.5 16t4.5 23.5zM685 700h43v-393q0 -152 -82 -234q-83 -83 -218 -83t-218 83
q-82 82 -82 234v393h43v-393q0 -132 70 -205q71 -72 187 -72t186 72q71 74 71 205v393z" />
    <glyph glyph-name="udieresiscaron" unicode="&#x1da;" horiz-adv-x="657" 
d="M471 865l-120 -149h-45l-120 149h37l106 -126l106 126h36zM207 641q17 17 34 0t0 -34q-17 -15 -33 1t-1 33zM433 601q-10 0 -16.5 6.5t-6.5 16.5q0 16 14.5 22t25.5 -5t5 -25.5t-22 -14.5zM91 500h41v-305q0 -81 42.5 -126t116.5 -45q137 0 234 91v385h40v-500h-40v82
q-109 -92 -246 -92q-86 0 -137 52t-51 144v314z" />
    <glyph glyph-name="Udieresisgrave" unicode="&#x1db;" horiz-adv-x="848" 
d="M343 1065l106 -149h-38l-116 149h48zM319 846q15 0 21 -15t-5 -26q-11 -10 -25 -4t-14 21q0 24 23 24zM511 839q10 10 23 5.5t16 -16t-6 -23.5q-10 -10 -22 -5.5t-15.5 16t4.5 23.5zM685 700h43v-393q0 -152 -82 -234q-83 -83 -218 -83t-218 83q-82 82 -82 234v393h43
v-393q0 -132 70 -205q71 -72 187 -72t186 72q71 74 71 205v393z" />
    <glyph glyph-name="udieresisgrave" unicode="&#x1dc;" horiz-adv-x="657" 
d="M248 865l106 -149h-37l-116 149h47zM207 641q17 17 34 0t0 -34q-17 -15 -33 1t-1 33zM433 601q-10 0 -16.5 6.5t-6.5 16.5q0 16 14.5 22t25.5 -5t5 -25.5t-22 -14.5zM91 500h41v-305q0 -81 42.5 -126t116.5 -45q137 0 234 91v385h40v-500h-40v82q-109 -92 -246 -92
q-86 0 -137 52t-51 144v314z" />
    <glyph glyph-name="Adieresismacron" unicode="&#x1de;" horiz-adv-x="793" 
d="M530 944v-28h-269v28h269zM291 846q15 0 21 -15t-5 -26q-11 -10 -25 -4t-14 21q0 24 23 24zM483 839q10 10 23 5.5t16 -16t-6 -23.5q-10 -10 -22 -5.5t-15.5 16t4.5 23.5zM423 700l323 -700h-50l-93 200h-415l-93 -200h-50l322 700h56zM395 654l-194 -418h389z" />
    <glyph glyph-name="adieresismacron" unicode="&#x1df;" horiz-adv-x="612" 
d="M445 778v-28h-269v28h269zM189 664q10 10 23 5.5t16 -16t-6 -23.5q-9 -9 -22.5 -4.5t-17 16t6.5 22.5zM415 624q-10 0 -17 6.5t-7 16.5q0 16 15 22t25 -5q12 -10 5.5 -25t-21.5 -15zM317 510q95 0 149.5 -47.5t54.5 -139.5v-323h-40v65q-97 -75 -238 -75q-78 0 -129 45
q-50 45 -50 118q0 72 53.5 110t146.5 38h217v19q0 77 -45.5 117t-126.5 40q-105 0 -192 -66l-15 27q98 72 215 72zM481 88v191h-205q-82 0 -127 -31.5t-45 -91.5q0 -63 42.5 -101t109.5 -38q133 0 225 71z" />
    <glyph glyph-name="Gcaron" unicode="&#x1e6;" horiz-adv-x="862" 
d="M575 913l-121 -150h-44l-121 150h37l106 -127l106 127h37zM461 710q143 0 249 -94l-29 -29q-95 83 -220 83q-131 3 -229 -93t-96 -227q0 -133 94 -227q94 -93 229 -93q141 0 243 90v194h-241v33h283v-249q-119 -108 -285 -108q-149 -4 -259.5 105t-107.5 255
q-3 148 108.5 255.5t260.5 104.5z" />
    <glyph glyph-name="gcaron" unicode="&#x1e7;" 
d="M485 713l-120 -150h-45l-120 150h37l106 -127l106 127h36zM325 510q123 0 214 -82v72h40v-444q0 -126 -70 -194t-190 -67q-120 0 -218 71l15 26q92 -65 197 -65t165.5 59.5t60.5 169.5v54q-36 -52 -92.5 -81t-121.5 -29q-105 0 -179 74q-73 73 -73 180q-3 104 73 181
t179 75zM336 475q-91 0 -158 -65q-66 -64 -66 -156t66 -156q67 -65 158 -65q65 0 119 32t84 87v239q-84 84 -203 84z" />
    <glyph glyph-name="Oslashacute" unicode="&#x1fe;" horiz-adv-x="918" 
d="M630 750h39l-39 -82q91 -48 142 -131q53 -86 53 -187q2 -96 -48 -180t-135.5 -133t-182.5 -47q-72 0 -140 27l-31 -67h-39l39 82q-90 47 -143 131q-53 86 -53 187q0 149 107.5 254.5t259.5 105.5q71 0 139 -27zM137 350q0 -89 45.5 -164t122.5 -117l275 577
q-59 24 -121 24q-132 3 -228.5 -93.5t-93.5 -226.5zM459 30q133 0 228 93q94 94 94 227q0 91 -46 165q-47 76 -123 116l-275 -577q59 -24 122 -24zM583 913l-116 -150h-38l106 150h48z" />
    <glyph glyph-name="oslashacute" unicode="&#x1ff;" 
d="M462 713l-116 -150h-37l106 150h47zM468 550h31l-34 -70q66 -33 104.5 -94.5t38.5 -135.5q0 -108 -79 -184q-77 -76 -189 -76q-52 0 -99 18l-28 -58h-32l34 70q-66 33 -104.5 94.5t-38.5 135.5q0 108 78 184q79 76 190 76q52 0 100 -18zM111 250q0 -62 32 -114.5
t87 -82.5l194 406q-39 16 -84 16q-94 0 -162 -66q-67 -66 -67 -159zM340 25q94 0 161 66t67 159q0 62 -32 115t-86 82l-194 -406q39 -16 84 -16z" />
    <glyph glyph-name="Scommaaccent" unicode="&#x218;" horiz-adv-x="703" 
d="M343 710q70 0 141.5 -19.5t124.5 -52.5l-20 -34q-51 32 -118 50.5t-131 17.5q-90 0 -145 -37.5t-55 -107.5q0 -51 40 -79q42 -29 156 -59q148 -41 183 -54q84 -35 103 -97q9 -27 9 -62q0 -89 -76.5 -137.5t-189.5 -48.5q-82 0 -162.5 22.5t-138.5 61.5l21 33
q56 -37 132 -58t151 -21q93 -2 155 36q63 38 63 108q0 74 -54 109q-12 11 -52 24q-7 3 -33 10q-18 6 -36 10l-42 12l-45 11q-129 34 -180 71q-49 37 -49 104q0 92 70.5 139.5t177.5 47.5zM374 -78q11 0 18.5 -7t7.5 -17q0 -8 -4 -13l-69 -110l-15 7l51 94q-15 6 -15 22
q0 10 7.5 17t18.5 7z" />
    <glyph glyph-name="scommaaccent" unicode="&#x219;" horiz-adv-x="532" 
d="M252 510q110 0 192 -52l-15 -26q-77 49 -177 49q-65 -1 -103 -27.5t-38 -76.5q0 -35 27.5 -55t109.5 -42l28 -7l47 -13q51 -13 75 -27q38 -22 48 -42q17 -30 17 -67q0 -66 -56 -101t-139 -33q-127 0 -219 61l16 25q86 -57 203 -57q70 0 113.5 26.5t43.5 75.5
q-2 33 -12.5 52t-35.5 31t-44 18l-28 7q-6 2 -32.5 9.5t-34.5 9.5q-94 25 -130 51q-36 27 -36 76q0 65 49.5 100t130.5 35zM310 -102q0 -8 -4 -13l-70 -110l-14 7l50 94q-14 6 -14 22q0 23 26 23t26 -23z" />
    <glyph glyph-name="uni021A" unicode="&#x21a;" horiz-adv-x="641" 
d="M595 700v-38h-253v-662h-44v662h-253v38h550zM363 -102q0 -8 -4 -13l-69 -110l-15 7l51 94q-15 6 -15 22q0 23 26 23t26 -23z" />
    <glyph glyph-name="uni021B" unicode="&#x21b;" horiz-adv-x="450" 
d="M167 653v-153h172v-32h-172v-300q0 -64 38.5 -104t97.5 -40q39 0 73 19l9 -29q-45 -24 -93 -24q-71 0 -118 47t-47 126v305h-99v32h99v153h40zM243 -78q11 0 18.5 -7t7.5 -17q0 -8 -4 -13l-69 -110l-15 7l51 94q-15 6 -15 22q0 10 7.5 17t18.5 7z" />
    <glyph glyph-name="uni0228" unicode="&#x228;" horiz-adv-x="708" 
d="M632 700v-39h-461v-289h425v-37h-425v-296h472v-39h-267l-25 -51q21 11 47 9q34 -1 58 -24t24 -56q0 -38 -30 -62.5t-75 -24.5q-56 0 -96 22l9 19q34 -18 82 -18q35 0 57.5 19.5t23.5 47.5q0 27 -19 44.5t-47 17.5q-35 0 -57 -22l-12 10l34 69h-222v700h504z" />
    <glyph glyph-name="uni0229" unicode="&#x229;" horiz-adv-x="648" 
d="M326 510q117 0 184 -75q69 -73 69 -185v-17h-468q5 -91 68 -151q64 -61 154 -61q109 0 185 76l23 -21q-83 -82 -201 -85h-24l-21 -42q21 11 47 9q34 -1 58 -24t24 -56q0 -38 -30 -62.5t-75 -24.5q-55 0 -96 22l10 19q35 -18 81 -18q35 0 58 19.5t23 47.5q0 27 -19 44.5
t-47 17.5q-35 0 -57 -22l-12 10l30 62q-93 15 -156 87q-62 74 -62 170q0 107 74 184q75 76 180 76zM326 479q-87 0 -152 -65q-63 -64 -63 -157h430q0 95 -58 158.5t-157 63.5z" />
    <glyph glyph-name="uni022A" unicode="&#x22a;" horiz-adv-x="918" 
d="M593 974v-28h-269v28h269zM378 824q0 -10 -7 -16.5t-17 -6.5q-16 0 -21.5 14.5t4.5 25.5q11 11 26 5t15 -22zM546 841q16 17 33 0t1 -34q-17 -15 -33 1t-1 33zM459 710q99 0 183.5 -48t133.5 -131q49 -82 49 -181t-49 -181q-49 -83 -133.5 -131t-184.5 -48
q-97 -2 -182.5 47t-135.5 133t-48 180q0 149 107.5 254.5t259.5 105.5zM459 670q-131 3 -228.5 -93.5t-94.5 -226.5q0 -133 94 -227q94 -93 229 -93q133 0 228 93q94 94 94 227t-94 226q-94 94 -228 94z" />
    <glyph glyph-name="uni022B" unicode="&#x22b;" 
d="M475 778v-28h-269v28h269zM219 641q10 10 23 5.5t16 -16t-6 -23.5q-10 -10 -23 -5.5t-16.5 16t6.5 23.5zM445 601q-10 0 -17 6.5t-7 16.5q0 16 15 22t25 -5q11 -11 5 -25.5t-21 -14.5zM340 510q111 0 189.5 -76t78.5 -184t-79 -184q-77 -76 -189 -76q-111 0 -190 76
q-78 76 -78 184t78 184q79 76 190 76zM340 475q-94 0 -162 -66q-67 -66 -67 -159t67 -159q68 -66 162 -66q92 -2 161 66t67 159q0 94 -66.5 159.5t-161.5 65.5z" />
    <glyph glyph-name="circumflex" unicode="&#x2c6;" horiz-adv-x="345" 
d="M195 713l121 -150h-37l-106 126l-106 -126h-37l120 150h45z" />
    <glyph glyph-name="caron" unicode="&#x2c7;" horiz-adv-x="345" 
d="M316 713l-121 -150h-45l-120 150h37l106 -127l106 127h37z" />
    <glyph glyph-name="breve" unicode="&#x2d8;" horiz-adv-x="404" 
d="M326 708l31 -1q-3 -62 -45.5 -98t-109.5 -36t-109 36t-46 98l31 1q4 -50 37 -78.5t87 -28.5t87.5 28.5t36.5 78.5z" />
    <glyph glyph-name="dotaccent" unicode="&#x2d9;" horiz-adv-x="141" 
d="M53 664q17 17 34 0t0 -34q-6 -6 -16.5 -6t-17.5 6q-6 7 -6 17.5t6 16.5z" />
    <glyph glyph-name="ring" unicode="&#x2da;" horiz-adv-x="319" 
d="M80 723q33 32 79.5 32t79.5 -32q33 -31 33 -78t-33 -78q-33 -32 -79.5 -32t-79.5 32q-33 31 -33 78t33 78zM160 731q-56 2 -79.5 -53.5t17.5 -93.5q28 -25 62 -25t61.5 25.5t25.5 60.5q0 34 -26 60t-61 26z" />
    <glyph glyph-name="ogonek" unicode="&#x2db;" horiz-adv-x="278" 
d="M111 4h31l-30 -37q-32 -42 -31 -78q1 -30 23 -49t55 -19q37 0 65 24l11 -21q-35 -29 -82 -29q-41 0 -70 23t-30 59q-5 44 34 96z" />
    <glyph glyph-name="tilde" unicode="&#x2dc;" horiz-adv-x="428" 
d="M131 702q19 -1 33.5 -7.5t42.5 -25.5q44 -32 73 -35q28 -3 49 14t28 51l23 -4q-7 -43 -34 -68t-62 -23q-36 4 -82 36q-46 31 -67 32q-24 3 -42 -14t-24 -50l-22 3q5 45 28 69t56 22z" />
    <glyph glyph-name="hungarumlaut" unicode="&#x2dd;" horiz-adv-x="419" 
d="M201 713l-116 -150h-38l106 150h48zM373 713l-116 -150h-38l106 150h48z" />
    <glyph glyph-name="dotbelowcomb" unicode="&#x323;" horiz-adv-x="0" 
d="M53 -171q17 15 33.5 -1.5t0.5 -32.5q-10 -11 -23 -6t-16.5 17t5.5 23z" />
    <glyph glyph-name="uni0326" unicode="&#x326;" horiz-adv-x="0" 
d="M116 -102q0 -8 -4 -13l-70 -110l-14 7l50 94q-14 6 -14 22q0 23 26 23t26 -23z" />
    <glyph glyph-name="uni032D" unicode="&#x32d;" horiz-adv-x="0" 
d="M195 -62l121 -150h-37l-106 127l-106 -127h-37l120 150h45z" />
    <glyph glyph-name="uni0331" unicode="&#x331;" horiz-adv-x="0" 
d="M316 -136v-28h-269v28h269z" />
    <glyph glyph-name="increment" unicode="&#x394;" horiz-adv-x="600" 
 />
    <glyph glyph-name="Omega" unicode="&#x3a9;" horiz-adv-x="600" 
 />
    <glyph glyph-name="mu" unicode="&#x3bc;" horiz-adv-x="600" 
 />
    <glyph glyph-name="pi" unicode="&#x3c0;" horiz-adv-x="600" 
 />
    <glyph glyph-name="Bdotbelow" unicode="&#x1e04;" horiz-adv-x="767" 
d="M128 0v700h303q111 0 170 -44.5t59 -128.5q0 -126 -134 -161q91 -13 131.5 -63t40.5 -117q0 -80 -56.5 -133t-183.5 -53h-330zM171 664v-286h251q93 0 143 36.5t50 106.5q1 70 -49 106.5t-144 36.5h-251zM171 346v-310h279q107 0 155.5 44.5t48.5 110.5q0 67 -48 111
t-156 44h-279zM389 -188q0 -10 -6.5 -17t-17.5 -7q-15 0 -21 15t4 26q11 10 26 4t15 -21z" />
    <glyph glyph-name="bdotbelow" unicode="&#x1e05;" horiz-adv-x="664" 
d="M100 700h40v-276q78 86 193 86q109 0 182 -76q75 -76 75 -184t-75 -184q-73 -76 -182 -76q-115 0 -193 86v-76h-40v700zM322 475q-54 0 -102 -24t-80 -66v-270q31 -41 79.5 -65.5t102.5 -24.5q94 0 161 66t67 159t-67 159t-161 66zM308 -171q17 14 33 -2t0 -32
q-9 -10 -22 -5.5t-16.5 16t5.5 23.5z" />
    <glyph glyph-name="Ddotbelow" unicode="&#x1e0c;" horiz-adv-x="847" 
d="M128 0v700h260q152 0 259.5 -101t107.5 -249q3 -145 -107 -249t-260 -101h-260zM387 661h-216v-622h216q132 -3 229.5 89.5t94.5 221.5q3 129 -94.5 221.5t-229.5 89.5zM366 -171q17 14 33 -2t0 -32q-9 -10 -22 -5.5t-16.5 16t5.5 23.5z" />
    <glyph glyph-name="ddotbelow" unicode="&#x1e0d;" horiz-adv-x="664" 
d="M522 700h40v-700h-40v76q-78 -86 -193 -86q-108 0 -183 76q-74 77 -74 184t74 184q75 76 183 76q113 0 193 -86v276zM340 475q-94 0 -161 -66t-67 -159t67 -159q68 -66 161 -66q113 0 182 90v270q-31 42 -79.5 66t-102.5 24zM358 -188q0 -24 -23 -24q-15 0 -21 15t4 26
q11 10 25.5 4.5t14.5 -21.5z" />
    <glyph glyph-name="Dlinebelow" unicode="&#x1e0e;" horiz-adv-x="847" 
d="M128 0v700h260q152 0 259.5 -101t107.5 -249q3 -145 -107 -249t-260 -101h-260zM387 661h-216v-622h216q132 -3 229.5 89.5t94.5 221.5q3 129 -94.5 221.5t-229.5 89.5zM517 -136v-28h-269v28h269z" />
    <glyph glyph-name="dlinebelow" unicode="&#x1e0f;" horiz-adv-x="664" 
d="M522 700h40v-700h-40v76q-78 -86 -193 -86q-108 0 -183 76q-74 77 -74 184t74 184q75 76 183 76q113 0 193 -86v276zM340 475q-94 0 -161 -66t-67 -159t67 -159q68 -66 161 -66q113 0 182 90v270q-31 42 -79.5 66t-102.5 24zM469 -136v-28h-269v28h269z" />
    <glyph glyph-name="Dcircumflexbelow" unicode="&#x1e12;" horiz-adv-x="847" 
d="M128 0v700h260q152 0 259.5 -101t107.5 -249q3 -145 -107 -249t-260 -101h-260zM387 661h-216v-622h216q132 -3 229.5 89.5t94.5 221.5q3 129 -94.5 221.5t-229.5 89.5zM405 -62l120 -150h-36l-106 127l-106 -127h-37l120 150h45z" />
    <glyph glyph-name="dcircumflexbelow" unicode="&#x1e13;" horiz-adv-x="664" 
d="M522 700h40v-700h-40v76q-78 -86 -193 -86q-108 0 -183 76q-74 77 -74 184t74 184q75 76 183 76q113 0 193 -86v276zM340 475q-94 0 -161 -66t-67 -159t67 -159q68 -66 161 -66q113 0 182 90v270q-31 42 -79.5 66t-102.5 24zM357 -62l121 -150h-37l-106 127l-106 -127
h-37l121 150h44z" />
    <glyph glyph-name="Hdotbelow" unicode="&#x1e24;" horiz-adv-x="852" 
d="M724 700v-700h-44v334h-509v-334h-43v700h43v-327h509v327h44zM410 -171q17 15 34 -1t0 -33t-33 0t-1 34z" />
    <glyph glyph-name="hdotbelow" unicode="&#x1e25;" horiz-adv-x="671" 
d="M105 700h40v-282q109 92 246 92q86 0 137 -52t51 -144v-314h-40v305q0 81 -43 126t-117 45q-137 0 -234 -91v-385h-40v700zM322 -171q17 14 33 -2t0 -32q-9 -11 -21.5 -6.5t-16 16.5t4.5 24z" />
    <glyph glyph-name="Idieresisacute" unicode="&#x1e2e;" horiz-adv-x="300" 
d="M279 1065l-116 -149h-38l106 149h48zM30 839q10 10 23 5.5t16 -16t-6 -23.5q-10 -10 -23 -5.5t-16.5 16t6.5 23.5zM239 839q10 10 23 5.5t16 -16t-6 -23.5q-10 -10 -23 -5.5t-16.5 16t6.5 23.5zM172 700v-700h-43v700h43z" />
    <glyph glyph-name="idieresisacute" unicode="&#x1e2f;" horiz-adv-x="260" 
d="M261 865l-117 -149h-37l106 149h48zM28 601q-10 0 -16.5 6.5t-6.5 16.5q0 16 14.5 22t25.5 -5t5 -25.5t-22 -14.5zM220 641q16 17 33 0t1 -34q-17 -15 -33 1t-1 33zM152 500v-500h-40v500h40z" />
    <glyph glyph-name="Ldotbelow" unicode="&#x1e36;" horiz-adv-x="629" 
d="M171 700v-661h412v-39h-455v700h43zM297 -171q17 15 34 -1t0 -33t-33 0t-1 34z" />
    <glyph glyph-name="ldotbelow" unicode="&#x1e37;" horiz-adv-x="238" 
d="M146 700v-700h-41v700h41zM109 -171q17 14 33 -2t0 -32q-9 -11 -21.5 -6.5t-16 16.5t4.5 24z" />
    <glyph glyph-name="Lcircumflexbelow" unicode="&#x1e3c;" horiz-adv-x="629" 
d="M171 700v-661h412v-39h-455v700h43zM337 -62l120 -150h-36l-107 127l-106 -127h-36l120 150h45z" />
    <glyph glyph-name="lcircumflexbelow" unicode="&#x1e3d;" horiz-adv-x="238" 
d="M148 700v-700h-41v700h41zM150 -62l121 -150h-37l-106 127l-106 -127h-37l121 150h44z" />
    <glyph glyph-name="Macute" unicode="&#x1e3e;" horiz-adv-x="1052" 
d="M922 700v-700h-42v647l-346 -581h-23l-346 581v-647h-42v700h59l340 -572l341 572h59zM651 913l-116 -150h-38l106 150h48z" />
    <glyph glyph-name="macute" unicode="&#x1e3f;" horiz-adv-x="1037" 
d="M650 713l-116 -150h-38l106 150h48zM361 510q115 0 160 -93q107 93 240 93q83 0 133 -51t50 -145v-314h-40v305q0 82 -42 126.5t-112 44.5q-124 0 -221 -86q13 -38 13 -87v-303h-40v305q0 81 -41.5 126t-113.5 45q-56 0 -102.5 -19.5t-104.5 -67.5v-389h-40v500h40v-80
q57 48 108.5 69t112.5 21z" />
    <glyph glyph-name="Ndotaccent" unicode="&#x1e44;" horiz-adv-x="834" 
d="M443 847q0 -10 -6.5 -16.5t-16.5 -6.5q-15 0 -21.5 15t4.5 25q11 11 25.5 5t14.5 -22zM715 700v-700h-50l-503 637v-637h-43v700h51l503 -638v638h42z" />
    <glyph glyph-name="ndotaccent" unicode="&#x1e45;" horiz-adv-x="666" 
d="M315 664q17 17 34 0t0 -34q-7 -6 -17 -6t-17 6q-6 7 -6 17.5t6 16.5zM386 510q86 0 137 -52t51 -144v-314h-40v305q0 81 -43 126t-117 45q-137 0 -234 -91v-385h-40v500h40v-82q109 92 246 92z" />
    <glyph glyph-name="Ndotbelow" unicode="&#x1e46;" horiz-adv-x="834" 
d="M715 700v-700h-50l-503 637v-637h-43v700h51l503 -638v638h42zM403 -171q17 14 33 -2t0 -32q-9 -11 -21.5 -6.5t-16 16.5t4.5 24z" />
    <glyph glyph-name="ndotbelow" unicode="&#x1e47;" horiz-adv-x="666" 
d="M386 510q86 0 137 -52t51 -144v-314h-40v305q0 81 -43 126t-117 45q-137 0 -234 -91v-385h-40v500h40v-82q109 92 246 92zM315 -171q17 15 34 -1t0 -33t-33 0t-1 34z" />
    <glyph glyph-name="Ncircumflexbelow" unicode="&#x1e4a;" horiz-adv-x="834" 
d="M715 700v-700h-50l-503 637v-637h-43v700h51l503 -638v638h42zM442 -62l121 -150h-37l-106 127l-106 -127h-37l121 150h44z" />
    <glyph glyph-name="ncircumflexbelow" unicode="&#x1e4b;" horiz-adv-x="666" 
d="M386 510q86 0 137 -52t51 -144v-314h-40v305q0 81 -43 126t-117 45q-137 0 -234 -91v-385h-40v500h40v-82q109 92 246 92zM355 -62l120 -150h-37l-106 127l-106 -127h-37l121 150h45z" />
    <glyph glyph-name="Otildeacute" unicode="&#x1e4c;" horiz-adv-x="918" 
d="M586 1058l-116 -149h-37l106 149h47zM377 865q30 -1 76 -33q42 -30 72 -35q61 -5 78 65l23 -4q-7 -44 -34 -68.5t-63 -22.5q-32 3 -81 36q-24 18 -38 24q-14 8 -29 8q-24 3 -42 -14t-24 -50l-22 3q4 44 27 68.5t57 22.5zM274 662q86 48 184 48q100 0 184.5 -48
t133.5 -131q49 -82 49 -181q0 -98 -49 -181t-134 -131q-84 -48 -184 -48q-99 0 -183.5 48t-133.5 131q-49 82 -49 181q0 98 49 181t133 131zM136 350q0 -133 94 -227q94 -93 229 -93q133 0 228 93q94 94 94 227q3 130 -94 226.5t-228 93.5q-131 3 -228.5 -93.5t-94.5 -226.5
z" />
    <glyph glyph-name="otildeacute" unicode="&#x1e4d;" 
d="M468 857l-116 -150h-38l106 150h48zM259 676q14 -1 25.5 -5t19.5 -9t30 -19q44 -32 73 -35q28 -3 48.5 13.5t29.5 51.5l22 -4q-7 -44 -33.5 -68.5t-62.5 -22.5q-32 1 -81 36q-45 29 -59 31q-4 1 -9 1q-24 2 -41.5 -14.5t-24.5 -49.5l-22 3q5 45 28 69t57 22zM340 510
q111 0 189.5 -76t78.5 -184t-79 -184q-77 -76 -189 -76q-111 0 -190 76q-78 76 -78 184t78 184q79 76 190 76zM340 475q-92 2 -161.5 -66t-67.5 -159q0 -93 67 -159q68 -66 162 -66t161 66t67 159t-67 159t-161 66z" />
    <glyph glyph-name="Omacrongrave" unicode="&#x1e50;" horiz-adv-x="918" 
d="M378 1062l106 -149h-37l-116 149h47zM593 827v-28h-269v28h269zM459 710q99 0 183.5 -48t133.5 -131q49 -82 49 -181t-49 -181q-49 -83 -133.5 -131t-184.5 -48q-97 -2 -182.5 47t-135.5 133t-48 180q0 149 107.5 254.5t259.5 105.5zM459 670q-131 3 -228.5 -93.5
t-94.5 -226.5q0 -133 94 -227q94 -93 229 -93q133 0 228 93q94 94 94 227t-94 226q-94 94 -228 94z" />
    <glyph glyph-name="omacrongrave" unicode="&#x1e51;" 
d="M260 857l105 -150h-37l-116 150h48zM475 632v-28h-269v28h269zM340 510q111 0 189.5 -76t78.5 -184t-79 -184q-77 -76 -189 -76q-111 0 -190 76q-78 76 -78 184t78 184q79 76 190 76zM340 475q-92 2 -161.5 -66t-67.5 -159q0 -93 67 -159q68 -66 162 -66t161 66t67 159
t-67 159t-161 66z" />
    <glyph glyph-name="Omacronacute" unicode="&#x1e52;" horiz-adv-x="918" 
d="M586 1062l-116 -149h-37l106 149h47zM593 827v-28h-269v28h269zM274 662q86 48 184 48q100 0 184.5 -48t133.5 -131q49 -82 49 -181q0 -98 -49 -181t-134 -131q-84 -48 -184 -48q-99 0 -183.5 48t-133.5 131q-49 82 -49 181q0 98 49 181t133 131zM459 670
q-135 0 -229 -94q-94 -93 -94 -226t94 -227q94 -93 229 -93q133 0 228 93q94 94 94 227q3 130 -94 226.5t-228 93.5z" />
    <glyph glyph-name="omacronacute" unicode="&#x1e53;" 
d="M468 857l-116 -150h-38l106 150h48zM475 632v-28h-269v28h269zM340 510q111 0 189.5 -76t78.5 -184t-79 -184q-77 -76 -189 -76q-111 0 -190 76q-78 76 -78 184t78 184q79 76 190 76zM340 475q-92 2 -161.5 -66t-67.5 -159q0 -93 67 -159q68 -66 162 -66t161 66t67 159
t-67 159t-161 66z" />
    <glyph glyph-name="Sdotbelow" unicode="&#x1e62;" horiz-adv-x="703" 
d="M343 710q70 0 141.5 -19.5t124.5 -52.5l-20 -34q-51 32 -118 50.5t-131 17.5q-90 0 -145 -37.5t-55 -107.5q0 -51 40 -79q42 -29 156 -59q148 -41 183 -54q84 -35 103 -97q9 -27 9 -62q0 -89 -76.5 -137.5t-189.5 -48.5q-82 0 -162.5 22.5t-138.5 61.5l21 33
q56 -37 132 -58t151 -21q93 -2 155 36q63 38 63 108q0 74 -54 109q-12 11 -52 24q-7 3 -33 10q-18 6 -36 10l-42 12l-45 11q-129 34 -180 71q-49 37 -49 104q0 92 70.5 139.5t177.5 47.5zM339 -171q17 15 34 -1t0 -33t-33 0t-1 34z" />
    <glyph glyph-name="sdotbelow" unicode="&#x1e63;" horiz-adv-x="532" 
d="M252 510q110 0 192 -52l-15 -26q-77 49 -177 49q-65 -1 -103 -27.5t-38 -76.5q0 -35 27.5 -55t109.5 -42l28 -7l47 -13q51 -13 75 -27q38 -22 48 -42q17 -30 17 -67q0 -66 -56 -101t-139 -33q-127 0 -219 61l16 25q86 -57 203 -57q70 0 113.5 26.5t43.5 75.5
q-2 33 -12.5 52t-35.5 31t-44 18l-28 7q-6 2 -32.5 9.5t-34.5 9.5q-94 25 -130 51q-36 27 -36 76q0 65 49.5 100t130.5 35zM249 -171q17 14 33 -2t0 -32q-9 -10 -22 -5.5t-16.5 16t5.5 23.5z" />
    <glyph glyph-name="Tdotbelow" unicode="&#x1e6c;" horiz-adv-x="641" 
d="M595 700v-38h-253v-662h-44v662h-253v38h550zM302 -171q17 14 33 -2t0 -32q-9 -11 -21.5 -6.5t-16 16.5t4.5 24z" />
    <glyph glyph-name="tdotbelow" unicode="&#x1e6d;" horiz-adv-x="450" 
d="M167 653v-153h172v-32h-172v-300q0 -64 38.5 -104t97.5 -40q39 0 73 19l9 -29q-45 -24 -93 -24q-71 0 -118 47t-47 126v305h-99v32h99v153h40zM208 -171q17 15 34 -1t0 -33t-33 0t-1 34z" />
    <glyph glyph-name="Tlinebelow" unicode="&#x1e6e;" horiz-adv-x="641" 
d="M595 700v-38h-253v-662h-44v662h-253v38h550zM454 -136v-28h-269v28h269z" />
    <glyph glyph-name="tlinebelow" unicode="&#x1e6f;" horiz-adv-x="450" 
d="M167 653v-153h172v-32h-172v-300q0 -64 38.5 -104t97.5 -40q39 0 73 19l9 -29q-45 -24 -93 -24q-71 0 -118 47t-47 126v305h-99v32h99v153h40zM360 -136v-28h-269v28h269z" />
    <glyph glyph-name="Tcircumflexbelow" unicode="&#x1e70;" horiz-adv-x="641" 
d="M595 700v-38h-253v-662h-44v662h-253v38h550zM341 -62l121 -150h-37l-106 127l-106 -127h-37l121 150h44z" />
    <glyph glyph-name="tcircumflexbelow" unicode="&#x1e71;" horiz-adv-x="450" 
d="M167 653v-153h172v-32h-172v-300q0 -64 38.5 -104t97.5 -40q39 0 73 19l9 -29q-45 -24 -93 -24q-71 0 -118 47t-47 126v305h-99v32h99v153h40zM248 -62l120 -150h-37l-106 127l-106 -127h-36l120 150h45z" />
    <glyph glyph-name="Wgrave" unicode="&#x1e80;" horiz-adv-x="1100" 
d="M1054 700l-243 -700h-49l-213 640l-212 -640h-50l-242 700h47l221 -640l212 640h48l212 -640l221 640h48zM469 913l106 -150h-38l-116 150h48z" />
    <glyph glyph-name="wgrave" unicode="&#x1e81;" horiz-adv-x="817" 
d="M791 500l-183 -500h-46l-153 447l-153 -447h-46l-183 500h41l167 -457l155 457h38l156 -457l167 457h40zM328 713l106 -150h-38l-116 150h48z" />
    <glyph glyph-name="Wacute" unicode="&#x1e82;" horiz-adv-x="1100" 
d="M677 913l-116 -150h-37l106 150h47zM1054 700l-243 -700h-49l-213 640l-212 -640h-50l-242 700h47l221 -640l212 640h48l212 -640l221 640h48z" />
    <glyph glyph-name="wacute" unicode="&#x1e83;" horiz-adv-x="817" 
d="M536 713l-116 -150h-37l105 150h48zM791 500l-183 -500h-46l-153 447l-153 -447h-46l-183 500h41l167 -457l155 457h38l156 -457l167 457h40z" />
    <glyph glyph-name="Wdieresis" unicode="&#x1e84;" horiz-adv-x="1100" 
d="M1054 700l-243 -700h-49l-213 640l-212 -640h-50l-242 700h47l221 -640l212 640h48l212 -640l221 640h48zM428 864q10 10 23.5 6t17 -16t-6.5 -24q-7 -6 -17 -6t-17 6q-6 7 -6 17.5t6 16.5zM637 864q10 10 23.5 6t17 -16t-6.5 -24q-7 -6 -17 -6t-17 6q-6 7 -6 17.5
t6 16.5z" />
    <glyph glyph-name="wdieresis" unicode="&#x1e85;" horiz-adv-x="817" 
d="M304 671q15 0 21.5 -14.5t-5.5 -26.5q-10 -10 -24.5 -4t-14.5 21q0 24 23 24zM496 664q10 10 23 5.5t16 -16t-6 -23.5q-6 -6 -16 -6t-17 6q-6 7 -6 17.5t6 16.5zM791 500l-183 -500h-46l-153 447l-153 -447h-46l-183 500h41l167 -457l155 457h38l156 -457l167 457h40z
" />
    <glyph glyph-name="Zdotbelow" unicode="&#x1e92;" horiz-adv-x="687" 
d="M613 700v-35l-491 -626h501v-39h-559v36l489 625h-471v39h531zM328 -171q17 15 34 -1t0 -33t-33 0t-1 34z" />
    <glyph glyph-name="zdotbelow" unicode="&#x1e93;" horiz-adv-x="538" 
d="M458 500v-31l-356 -435h368v-34h-420v31l356 435h-335v34h387zM294 -188q0 -10 -7 -17t-17 -7q-15 0 -21 15t4 26q11 10 26 4t15 -21z" />
    <glyph glyph-name="Adotbelow" unicode="&#x1ea0;" horiz-adv-x="793" 
d="M423 700l323 -700h-50l-93 200h-415l-93 -200h-50l322 700h56zM395 654l-194 -418h389zM418 -188q0 -10 -6.5 -17t-16.5 -7q-17 0 -22.5 15t4.5 26q12 10 26.5 4t14.5 -21z" />
    <glyph glyph-name="adotbelow" unicode="&#x1ea1;" horiz-adv-x="612" 
d="M317 510q95 0 149.5 -47.5t54.5 -139.5v-323h-40v65q-97 -75 -238 -75q-78 0 -129 45q-50 45 -50 118q0 72 53.5 110t146.5 38h217v19q0 79 -46 118t-126 39q-105 0 -192 -66l-15 27q98 72 215 72zM481 88v191h-205q-82 0 -127 -31.5t-45 -91.5q0 -63 42.5 -101
t109.5 -38q133 0 225 71zM294 -171q17 14 33 -2t0 -32q-9 -10 -22 -5.5t-16.5 16t5.5 23.5z" />
    <glyph glyph-name="Ahookabove" unicode="&#x1ea2;" horiz-adv-x="793" 
d="M400 1006q49 0 78.5 -22t29.5 -61q0 -35 -47 -71l-14 -11q-16 -12 -21 -17q-18 -18 -18 -45h-27q-1 16 4 32q5 15 16 26q21 18 42 34q19 15 27 25t8 26q0 27 -21.5 42.5t-58.5 15.5q-36 0 -60 -16.5t-27 -45.5l-28 3q4 39 36.5 62t80.5 23zM423 700l323 -700h-50l-93 200
h-415l-93 -200h-50l322 700h56zM395 654l-194 -418h389z" />
    <glyph glyph-name="ahookabove" unicode="&#x1ea3;" horiz-adv-x="612" 
d="M319 789q49 0 78.5 -22t29.5 -60q0 -36 -47 -71q-3 -2 -12 -9t-11 -8.5t-8.5 -7t-8 -8t-5.5 -8t-5 -9.5t-2 -10t-1 -13h-27q0 20 4 32q7 16 16 25q1 1 42 34q35 27 35 52q0 27 -21.5 42.5t-58.5 15.5q-36 0 -60 -16.5t-27 -45.5l-28 3q4 39 36.5 61.5t80.5 22.5zM317 510
q95 0 149.5 -47.5t54.5 -139.5v-323h-40v65q-97 -75 -238 -75q-78 0 -128.5 45t-50.5 118q0 71 52.5 109.5t147.5 38.5h217v19q0 77 -45.5 117t-126.5 40q-105 0 -192 -66l-15 27q98 72 215 72zM481 88v191h-205q-82 0 -127 -31.5t-45 -91.5q0 -63 42.5 -101t109.5 -38
q133 0 225 71z" />
    <glyph glyph-name="Acircumflexacute" unicode="&#x1ea4;" horiz-adv-x="793" 
d="M713 957l-117 -150h-37l106 150h48zM418 913l120 -150h-36l-106 126l-106 -126h-37l120 150h45zM423 700l323 -700h-50l-93 200h-415l-93 -200h-50l322 700h56zM395 654l-194 -418h389z" />
    <glyph glyph-name="acircumflexacute" unicode="&#x1ea5;" horiz-adv-x="612" 
d="M627 757l-116 -150h-37l105 150h48zM333 713l120 -150h-37l-106 126l-106 -126h-37l121 150h45zM317 510q95 0 149.5 -47.5t54.5 -139.5v-323h-40v65q-97 -75 -238 -75q-78 0 -129 45q-50 45 -50 118q0 71 52.5 109.5t147.5 38.5h217v19q0 77 -45.5 117t-126.5 40
q-105 0 -192 -66l-15 27q98 72 215 72zM481 88v191h-205q-82 0 -127 -31.5t-45 -91.5q0 -63 42.5 -101t109.5 -38q133 0 225 71z" />
    <glyph glyph-name="Acircumflexgrave" unicode="&#x1ea6;" horiz-adv-x="793" 
d="M418 913l120 -150h-36l-106 126l-106 -126h-37l120 150h45zM423 700l323 -700h-50l-93 200h-415l-93 -200h-50l322 700h56zM395 654l-194 -418h389zM520 957l106 -150h-38l-116 150h48z" />
    <glyph glyph-name="acircumflexgrave" unicode="&#x1ea7;" horiz-adv-x="612" 
d="M434 757l106 -150h-37l-116 150h47zM333 713l120 -150h-37l-106 126l-106 -126h-37l121 150h45zM317 510q95 0 149.5 -47.5t54.5 -139.5v-323h-40v65q-97 -75 -238 -75q-78 0 -129 45q-50 45 -50 118q0 71 52.5 109.5t147.5 38.5h217v19q0 77 -45.5 117t-126.5 40
q-105 0 -192 -66l-15 27q98 72 215 72zM481 88v191h-205q-82 0 -127 -31.5t-45 -91.5q0 -63 42.5 -101t109.5 -38q133 0 225 71z" />
    <glyph glyph-name="Acircumflexhookabove" unicode="&#x1ea8;" horiz-adv-x="793" 
d="M608 1034q49 0 79 -22.5t30 -60.5q0 -35 -48 -71l-14 -11q-12 -9 -21 -17q-18 -18 -18 -45h-27q0 20 4 32q8 18 16 26q21 18 42 34q35 27 35 51q0 27 -21.5 42.5t-57.5 15.5t-60.5 -17t-27.5 -45l-28 3q6 40 37.5 62.5t79.5 22.5zM418 913l120 -150h-36l-106 126
l-106 -126h-37l120 150h45zM423 700l323 -700h-50l-93 200h-415l-93 -200h-50l322 700h56zM395 654l-194 -418h389z" />
    <glyph glyph-name="acircumflexhookabove" unicode="&#x1ea9;" horiz-adv-x="612" 
d="M523 834q49 0 79 -22t30 -61q0 -35 -48 -71q-23 -17 -30.5 -23t-15 -19.5t-7.5 -30.5h-27q0 20 4 32q6 11 15 21.5t16.5 17t26.5 21.5q36 27 36 51q0 27 -22 42.5t-59 15.5q-36 0 -59.5 -16.5t-27.5 -45.5l-28 3q6 40 37.5 62.5t79.5 22.5zM333 713l120 -150h-36
l-106 126l-106 -126h-37l120 150h45zM317 510q95 0 149.5 -47.5t54.5 -139.5v-323h-40v65q-97 -75 -238 -75q-78 0 -129 45q-50 45 -50 118q0 71 52.5 109.5t147.5 38.5h217v19q0 77 -45.5 117t-126.5 40q-105 0 -192 -66l-15 27q98 72 215 72zM481 88v191h-205
q-82 0 -127 -31.5t-45 -91.5q0 -63 42.5 -101t109.5 -38q133 0 225 71z" />
    <glyph glyph-name="Acircumflextilde" unicode="&#x1eaa;" horiz-adv-x="793" 
d="M314 1037q32 -1 75 -34q44 -31 73 -34q28 -3 49 13.5t29 51.5l22 -4q-7 -44 -33.5 -68.5t-62.5 -22.5q-32 1 -81 36q-43 28 -56 30q-5 1 -11 2q-25 2 -42.5 -15t-23.5 -50l-23 4q5 45 28 69t57 22zM418 913l120 -150h-36l-106 126l-106 -126h-37l120 150h45zM423 700
l323 -700h-50l-93 200h-415l-93 -200h-50l322 700h56zM395 654l-194 -418h389z" />
    <glyph glyph-name="acircumflextilde" unicode="&#x1eab;" horiz-adv-x="612" 
d="M229 830q29 -1 75 -33q44 -32 73 -35q59 -6 78 65l22 -4q-7 -43 -33.5 -68t-62.5 -23q-36 4 -81 36q-45 29 -59 31q-4 1 -9 1q-50 6 -66 -64l-22 3q5 45 28 69t57 22zM333 713l120 -150h-37l-106 126l-106 -126h-37l121 150h45zM317 510q95 0 149.5 -47.5t54.5 -139.5
v-323h-40v65q-97 -75 -238 -75q-78 0 -128.5 45t-50.5 118q0 71 52.5 109.5t147.5 38.5h217v19q0 79 -46 118t-126 39q-105 0 -192 -66l-15 27q98 72 215 72zM481 88v191h-205q-82 0 -127 -31.5t-45 -91.5q0 -63 42.5 -101t109.5 -38q133 0 225 71z" />
    <glyph glyph-name="Acircumflexdotbelow" unicode="&#x1eac;" horiz-adv-x="793" 
d="M418 913l120 -150h-36l-106 126l-106 -126h-37l120 150h45zM423 700l323 -700h-50l-93 200h-415l-93 -200h-50l322 700h56zM395 654l-194 -418h389zM98 -171q17 14 33 -2t0 -32q-9 -11 -21.5 -6.5t-16 16.5t4.5 24z" />
    <glyph glyph-name="acircumflexdotbelow" unicode="&#x1ead;" horiz-adv-x="612" 
d="M333 713l120 -150h-37l-106 126l-106 -126h-37l121 150h45zM317 510q95 0 149.5 -47.5t54.5 -139.5v-323h-40v65q-97 -75 -238 -75q-78 0 -129 45q-50 45 -50 118q0 72 53.5 110t147.5 38h216v19q0 79 -46 118t-126 39q-105 0 -192 -66l-15 27q98 72 215 72zM481 88v191
h-205q-82 0 -127 -31.5t-45 -91.5q0 -63 42.5 -101t109.5 -38q133 0 225 71zM294 -171q17 14 33 -2t0 -32q-9 -10 -22 -5.5t-16.5 16t5.5 23.5z" />
    <glyph glyph-name="Abreveacute" unicode="&#x1eae;" horiz-adv-x="793" 
d="M523 1066l-116 -149h-37l105 149h48zM520 909l31 -1q-4 -62 -46.5 -98.5t-108.5 -36.5t-108.5 36.5t-46.5 98.5l31 1q3 -50 36.5 -78.5t87.5 -28.5t87.5 28.5t36.5 78.5zM423 700l323 -700h-50l-93 200h-415l-93 -200h-50l322 700h56zM395 654l-194 -418h389z" />
    <glyph glyph-name="abreveacute" unicode="&#x1eaf;" horiz-adv-x="612" 
d="M438 865l-116 -149h-38l106 149h48zM435 709l31 -1q-4 -61 -47 -98t-108 -37q-67 0 -109.5 36.5t-45.5 98.5l31 1q3 -50 36.5 -78.5t87.5 -28.5t87 28.5t37 78.5zM317 510q95 0 149.5 -47.5t54.5 -139.5v-323h-40v65q-97 -75 -238 -75q-78 0 -129 45q-50 45 -50 118
q0 71 52.5 109.5t147.5 38.5h217v19q0 77 -45.5 117t-126.5 40q-105 0 -192 -66l-15 27q98 72 215 72zM481 88v191h-205q-82 0 -127 -31.5t-45 -91.5q0 -63 42.5 -101t109.5 -38q133 0 225 71z" />
    <glyph glyph-name="Abrevegrave" unicode="&#x1eb0;" horiz-adv-x="793" 
d="M315 1066l106 -149h-38l-116 149h48zM520 909l31 -1q-4 -62 -46.5 -98.5t-108.5 -36.5t-108.5 36.5t-46.5 98.5l31 1q3 -50 36.5 -78.5t87.5 -28.5t87.5 28.5t36.5 78.5zM423 700l323 -700h-50l-93 200h-415l-93 -200h-50l322 700h56zM395 654l-194 -418h389z" />
    <glyph glyph-name="abrevegrave" unicode="&#x1eb1;" horiz-adv-x="612" 
d="M230 865l106 -149h-38l-116 149h48zM435 709l31 -1q-4 -62 -46.5 -98.5t-109.5 -36.5q-66 0 -108.5 36.5t-45.5 98.5l31 1q3 -50 36 -78.5t87 -28.5t87.5 28.5t37.5 78.5zM316 510q96 0 150.5 -47.5t54.5 -139.5v-323h-40v65q-97 -75 -238 -75q-78 0 -129 45
q-50 45 -50 118q0 72 53.5 110t146.5 38h217v19q0 77 -45.5 117t-126.5 40q-105 0 -192 -66l-15 27q98 72 214 72zM481 88v191h-205q-82 0 -127 -31.5t-45 -91.5q0 -63 42.5 -101t109.5 -38q133 0 225 71z" />
    <glyph glyph-name="Abrevehookabove" unicode="&#x1eb2;" horiz-adv-x="793" 
d="M400 1110q49 0 78.5 -22t29.5 -60q0 -35 -47 -71l-14 -11q-16 -12 -21 -17q-18 -18 -18 -45h-27q-1 16 4 32q3 9 9.5 17.5t11.5 13t18.5 15t18.5 14.5q35 28 35 51q0 27 -21.5 42.5t-58.5 15.5q-36 0 -60 -16.5t-27 -45.5l-28 3q5 39 37 61.5t80 22.5zM520 909l31 -1
q-4 -62 -46.5 -98.5t-108.5 -36.5t-108.5 36.5t-46.5 98.5l31 1q3 -50 36.5 -78.5t87.5 -28.5t87.5 28.5t36.5 78.5zM423 700l323 -700h-50l-93 200h-415l-93 -200h-50l322 700h56zM395 654l-194 -418h389z" />
    <glyph glyph-name="abrevehookabove" unicode="&#x1eb3;" horiz-adv-x="612" 
d="M315 910q49 0 78.5 -22t29.5 -60q0 -35 -48 -71l-14 -11q-12 -9 -21 -17q-18 -18 -18 -45h-27q0 17 5 32q2 6 5.5 12t6.5 9.5t9.5 9.5t10 9t12.5 10t13 10q36 27 36 51q0 27 -22 42.5t-58 15.5q-37 0 -60.5 -16.5t-27.5 -45.5l-28 3q6 39 37.5 61.5t80.5 22.5zM435 709
l31 -1q-4 -62 -46.5 -98.5t-109.5 -36.5q-66 0 -108.5 36.5t-45.5 98.5l31 1q3 -50 36 -78.5t87 -28.5t87.5 28.5t37.5 78.5zM317 510q95 0 149.5 -47.5t54.5 -139.5v-323h-40v65q-97 -75 -238 -75q-78 0 -128.5 45t-50.5 118q0 71 52.5 109.5t147.5 38.5h217v19
q0 77 -45.5 117t-126.5 40q-105 0 -192 -66l-15 27q98 72 215 72zM481 88v191h-205q-82 0 -127 -31.5t-45 -91.5q0 -63 42.5 -101t109.5 -38q133 0 225 71z" />
    <glyph glyph-name="Abrevetilde" unicode="&#x1eb4;" horiz-adv-x="793" 
d="M314 1020q33 -2 75 -34q44 -31 73 -34q58 -9 78 64l22 -4q-7 -43 -33.5 -68t-62.5 -22q-5 0 -9.5 0.5t-9 1.5t-8 2t-9 3.5t-7.5 3.5t-8.5 5t-8.5 5.5t-10.5 6.5t-10.5 7q-42 29 -67 33q-25 2 -42.5 -15t-23.5 -50l-23 3q5 45 28 69.5t57 22.5zM520 909l31 -1
q-4 -62 -46.5 -98.5t-108.5 -36.5t-108.5 36.5t-46.5 98.5l31 1q3 -50 36.5 -78.5t87.5 -28.5t87.5 28.5t36.5 78.5zM423 700l323 -700h-50l-93 200h-415l-93 -200h-50l322 700h56zM395 654l-194 -418h389z" />
    <glyph glyph-name="abrevetilde" unicode="&#x1eb5;" horiz-adv-x="612" 
d="M229 826q29 -1 75 -34q43 -31 73 -34q60 -6 78 65l22 -4q-7 -44 -33.5 -68.5t-62.5 -22.5q-32 1 -81 36q-45 29 -59 31q-4 1 -9 1q-24 2 -41.5 -15t-24.5 -50l-22 4q5 45 28 69t57 22zM435 709l31 -1q-4 -61 -47 -98t-108 -37q-67 0 -109.5 36.5t-45.5 98.5l31 1
q3 -50 36.5 -78.5t87.5 -28.5t87 28.5t37 78.5zM317 510q95 0 149.5 -47.5t54.5 -139.5v-323h-40v65q-97 -75 -238 -75q-78 0 -129 45q-50 45 -50 118q0 71 52.5 109.5t147.5 38.5h217v19q0 77 -45.5 117t-126.5 40q-105 0 -192 -66l-15 27q98 72 215 72zM481 88v191h-205
q-82 0 -127 -31.5t-45 -91.5q0 -63 42.5 -101t109.5 -38q133 0 225 71z" />
    <glyph glyph-name="Abrevedotbelow" unicode="&#x1eb6;" horiz-adv-x="793" 
d="M520 909l31 -1q-4 -62 -46.5 -98.5t-108.5 -36.5t-108.5 36.5t-46.5 98.5l31 1q3 -50 36.5 -78.5t87.5 -28.5t87.5 28.5t36.5 78.5zM423 700l323 -700h-50l-93 200h-415l-93 -200h-50l322 700h56zM395 654l-194 -418h389zM418 -188q0 -10 -6.5 -17t-16.5 -7
q-17 0 -22.5 15t4.5 26q12 10 26.5 4t14.5 -21z" />
    <glyph glyph-name="abrevedotbelow" unicode="&#x1eb7;" horiz-adv-x="612" 
d="M435 709l31 -1q-4 -61 -47 -98t-108 -37q-67 0 -109.5 36.5t-45.5 98.5l31 1q3 -50 36.5 -78.5t87.5 -28.5t87 28.5t37 78.5zM317 510q95 0 149.5 -47.5t54.5 -139.5v-323h-40v65q-97 -75 -238 -75q-78 0 -129 45q-50 45 -50 118q0 71 52.5 109.5t147.5 38.5h217v19
q0 77 -45.5 117t-126.5 40q-105 0 -192 -66l-15 27q98 72 215 72zM481 88v191h-205q-82 0 -127 -31.5t-45 -91.5q0 -63 42.5 -101t109.5 -38q133 0 225 71zM334 -188q0 -10 -6.5 -17t-16.5 -7q-16 0 -22 15t5 26q11 10 25.5 4.5t14.5 -21.5z" />
    <glyph glyph-name="Edotbelow" unicode="&#x1eb8;" horiz-adv-x="708" 
d="M632 700v-39h-461v-289h425v-37h-425v-296h472v-39h-515v700h504zM403 -188q0 -10 -6.5 -17t-17.5 -7q-15 0 -21 15t4 26q11 10 26 4t15 -21z" />
    <glyph glyph-name="edotbelow" unicode="&#x1eb9;" horiz-adv-x="648" 
d="M326 510q117 0 184 -75q69 -73 69 -185v-17h-468q4 -89 69 -150.5t153 -61.5q109 0 185 76l23 -21q-89 -86 -210 -86q-107 0 -183 76t-76 184q0 107 74 184q75 76 180 76zM326 479q-87 0 -152 -65q-63 -64 -63 -157h430q0 95 -58 158.5t-157 63.5zM306 -171
q17 15 33.5 -1.5t0.5 -32.5q-10 -11 -23 -6t-16.5 17t5.5 23z" />
    <glyph glyph-name="Ehookabove" unicode="&#x1eba;" horiz-adv-x="708" 
d="M382 1006q49 0 78.5 -22t29.5 -61q0 -36 -47 -71l-14 -11q-16 -12 -21 -17q-18 -18 -18 -45h-27q0 20 4 32q8 18 16 26q21 18 42 34q35 27 35 51q0 27 -21.5 42.5t-58.5 15.5q-36 0 -60 -16.5t-27 -45.5l-28 3q6 40 37.5 62.5t79.5 22.5zM632 700v-39h-461v-289h425v-37
h-425v-296h472v-39h-515v700h504z" />
    <glyph glyph-name="ehookabove" unicode="&#x1ebb;" horiz-adv-x="648" 
d="M331 789q49 0 79 -22t30 -60q0 -35 -48 -71q-5 -4 -15.5 -12.5t-13.5 -11t-9.5 -9t-8.5 -11.5t-4 -12.5t-2 -16.5h-27q0 20 4 32q7 16 17 25q8 8 11 10q9 9 30 24q36 27 36 52q0 27 -22 42.5t-59 15.5q-36 0 -59.5 -16.5t-27.5 -45.5l-28 3q6 39 37.5 61.5t79.5 22.5z
M326 510q117 0 184 -75q69 -73 69 -185v-17h-468q4 -89 69 -150.5t153 -61.5q109 0 185 76l23 -21q-89 -86 -210 -86q-107 0 -183 76t-76 184q0 107 74 184q75 76 180 76zM326 479q-87 0 -152 -65q-63 -64 -63 -157h430q0 96 -58 158q-58 64 -157 64z" />
    <glyph glyph-name="Etilde" unicode="&#x1ebc;" horiz-adv-x="708" 
d="M295 902q31 -1 75 -33q46 -32 73 -35q28 -3 49 14t29 51l22 -4q-7 -43 -33.5 -68t-62.5 -23q-36 4 -81 36q-45 29 -59 31q-3 1 -8 1q-25 3 -42.5 -14t-23.5 -50l-23 3q5 45 28 69t57 22zM632 700v-39h-461v-289h425v-37h-425v-296h472v-39h-515v700h504z" />
    <glyph glyph-name="etilde" unicode="&#x1ebd;" horiz-adv-x="648" 
d="M242 702q30 -1 76 -33q44 -32 72 -35q29 -3 50 14t28 51l23 -4q-7 -43 -34 -68t-63 -23q-35 4 -81 36q-46 31 -67 32q-24 3 -42 -14t-24 -50l-22 3q4 44 27 68.5t57 22.5zM326 510q117 0 184 -75q69 -73 69 -185v-17h-468q5 -91 68 -151q64 -61 154 -61q109 0 185 76
l23 -21q-89 -86 -210 -86q-107 0 -183 76t-76 184q-2 106 74.5 184t179.5 76zM326 479q-88 0 -151.5 -65t-63.5 -157h430q0 96 -58 158q-58 64 -157 64z" />
    <glyph glyph-name="Ecircumflexacute" unicode="&#x1ebe;" horiz-adv-x="708" 
d="M399 913l121 -150h-37l-106 126l-106 -126h-37l120 150h45zM632 700v-39h-461v-289h425v-37h-425v-296h472v-39h-515v700h504zM694 957l-116 -150h-38l106 150h48z" />
    <glyph glyph-name="ecircumflexacute" unicode="&#x1ebf;" horiz-adv-x="648" 
d="M641 757l-116 -150h-38l106 150h48zM346 713l121 -150h-37l-106 126l-106 -126h-37l120 150h45zM326 510q117 0 184 -75q69 -73 69 -185v-17h-468q4 -89 69 -150.5t153 -61.5q109 0 185 76l23 -21q-89 -86 -210 -86q-107 0 -183 76t-76 184q0 107 74 184q75 76 180 76z
M326 479q-87 0 -152 -65q-63 -64 -63 -157h430q0 96 -58 158q-58 64 -157 64z" />
    <glyph glyph-name="Ecircumflexgrave" unicode="&#x1ec0;" horiz-adv-x="708" 
d="M501 957l106 -150h-38l-116 150h48zM399 913l120 -150h-36l-106 126l-106 -126h-37l120 150h45zM632 700v-39h-461v-289h425v-37h-425v-296h472v-39h-515v700h504z" />
    <glyph glyph-name="ecircumflexgrave" unicode="&#x1ec1;" horiz-adv-x="648" 
d="M448 757l106 -150h-38l-116 150h48zM346 713l121 -150h-37l-106 126l-106 -126h-37l120 150h45zM326 510q116 0 184.5 -74t68.5 -186v-17h-468q5 -91 68 -151q64 -61 154 -61q109 0 185 76l23 -21q-89 -86 -210 -86q-107 0 -183 76t-76 184q-2 106 74.5 184t179.5 76z
M326 479q-86 2 -151.5 -65t-63.5 -157h430q0 95 -58 158.5t-157 63.5z" />
    <glyph glyph-name="Ecircumflexhookabove" unicode="&#x1ec2;" horiz-adv-x="708" 
d="M591 1034q49 0 79 -22t30 -61q0 -35 -48 -71l-14 -11q-12 -9 -21 -17q-18 -18 -18 -45h-27q0 20 4 32q8 18 16 26q21 18 42 34q35 27 35 51q0 27 -21 42.5t-58 15.5q-36 0 -60.5 -17t-27.5 -45l-28 3q6 40 37.5 62.5t79.5 22.5zM401 913l120 -150h-36l-106 126l-106 -126
h-37l120 150h45zM632 700v-39h-461v-289h425v-37h-425v-296h472v-39h-515v700h504z" />
    <glyph glyph-name="ecircumflexhookabove" unicode="&#x1ec3;" horiz-adv-x="648" 
d="M537 834q49 0 78.5 -22.5t29.5 -60.5q0 -35 -48 -71l-13 -11q-18 -14 -22 -17q-18 -18 -18 -45h-27q0 17 5 32t16 26l11 10q9 9 30 24q36 27 36 51q0 27 -22 42.5t-58 15.5q-37 0 -60.5 -16.5t-27.5 -45.5l-28 3q6 40 37.5 62.5t80.5 22.5zM346 713l121 -150h-37
l-106 126l-106 -126h-37l120 150h45zM326 510q117 0 184 -75q69 -73 69 -185v-17h-468q5 -91 68 -151q64 -61 154 -61q109 0 185 76l23 -21q-89 -86 -210 -86q-107 0 -183 76t-76 184q-2 106 74.5 184t179.5 76zM326 479q-87 0 -152 -65q-63 -64 -63 -157h430
q0 95 -58 158.5t-157 63.5z" />
    <glyph glyph-name="Ecircumflextilde" unicode="&#x1ec4;" horiz-adv-x="708" 
d="M295 1037q34 -4 75 -34q44 -31 73 -34q28 -4 49 13t29 51l22 -4q-7 -43 -33.5 -68t-62.5 -22q-32 1 -81 35q-42 29 -67 33q-25 2 -42.5 -15t-23.5 -50l-23 3q5 44 28 68.5t57 23.5zM399 913l120 -150h-36l-106 126l-106 -126h-37l120 150h45zM632 700v-39h-461v-289h425
v-37h-425v-296h472v-39h-515v700h504z" />
    <glyph glyph-name="ecircumflextilde" unicode="&#x1ec5;" horiz-adv-x="648" 
d="M242 832q30 -1 76 -33q44 -32 72 -35t49 13.5t29 51.5l23 -4q-7 -44 -34 -68.5t-63 -22.5q-35 2 -81 36l-18 12t-14.5 9.5t-9.5 5t-12 4t-13 1.5q-24 2 -42 -14.5t-24 -49.5l-22 3q4 44 27 68.5t57 22.5zM346 713l121 -150h-37l-106 126l-106 -126h-37l120 150h45z
M326 510q117 0 184 -75q69 -73 69 -185v-17h-468q5 -91 68 -151q64 -61 154 -61q109 0 185 76l23 -21q-89 -86 -210 -86q-107 0 -183 76t-76 184q0 107 74 184q75 76 180 76zM326 479q-86 2 -151.5 -65t-63.5 -157h430q0 96 -58 158q-58 64 -157 64z" />
    <glyph glyph-name="Ecircumflexdotbelow" unicode="&#x1ec6;" horiz-adv-x="708" 
d="M399 913l120 -150h-36l-106 126l-106 -126h-37l120 150h45zM632 700v-39h-461v-289h425v-37h-425v-296h472v-39h-515v700h504zM362 -171q17 15 34 -1t0 -33t-33 0t-1 34z" />
    <glyph glyph-name="ecircumflexdotbelow" unicode="&#x1ec7;" horiz-adv-x="648" 
d="M346 713l121 -150h-37l-106 126l-106 -126h-37l120 150h45zM326 510q117 0 184 -75q69 -73 69 -185v-17h-468q4 -89 69 -150.5t153 -61.5q109 0 185 76l23 -21q-89 -86 -210 -86q-107 0 -183 76t-76 184q0 107 74 184q75 76 180 76zM326 479q-87 0 -152 -65
q-63 -64 -63 -157h430q0 95 -58 158.5t-157 63.5zM306 -171q17 15 33.5 -1.5t0.5 -32.5q-10 -11 -23 -6t-16.5 17t5.5 23z" />
    <glyph glyph-name="Ihookabove" unicode="&#x1ec8;" horiz-adv-x="300" 
d="M155 1006q49 0 78.5 -22t29.5 -61q0 -36 -47 -71l-10 -7.5t-9 -6.5t-7.5 -6t-7 -6.5l-6 -6t-5 -6.5l-3.5 -7t-3 -8t-1.5 -8.5t-0.5 -10.5h-27q0 20 4 32q8 18 16 26q21 18 42 34q35 27 35 51q0 27 -21.5 42.5t-58.5 15.5q-36 0 -59.5 -16.5t-27.5 -45.5l-28 3
q6 40 37.5 62.5t79.5 22.5zM171 700v-700h-43v700h43z" />
    <glyph glyph-name="ihookabove" unicode="&#x1ec9;" horiz-adv-x="261" 
d="M139 789q49 0 79 -22t30 -60q0 -35 -48 -71q-3 -2 -13 -10t-12 -10t-9 -8t-8.5 -9.5t-5 -9.5t-4.5 -12t-1 -14h-27q0 20 4 32q7 16 17 25q8 8 11 10q9 9 30 24q36 27 36 52q0 27 -22 42.5t-58 15.5q-37 0 -60 -16.5t-28 -45.5l-28 3q6 39 37.5 61.5t79.5 22.5zM154 500
v-500h-40v500h40z" />
    <glyph glyph-name="Idotbelow" unicode="&#x1eca;" horiz-adv-x="300" 
d="M171 700v-700h-43v700h43zM132 -171q17 14 33 -2t0 -32q-9 -11 -21.5 -6.5t-16 16.5t4.5 24z" />
    <glyph glyph-name="idotbelow" unicode="&#x1ecb;" horiz-adv-x="261" 
d="M133 668q12 0 20 -7t8 -18q0 -16 -17 -22t-30 5t-6 26.5t25 15.5zM154 500v-500h-40v500h40zM116 -171q17 15 34 -1t0 -33t-33 0t-1 34z" />
    <glyph glyph-name="Odotbelow" unicode="&#x1ecc;" horiz-adv-x="918" 
d="M459 710q99 0 183.5 -48t133.5 -131q49 -82 49 -181t-49 -181q-49 -83 -133.5 -131t-184.5 -48q-97 -2 -182.5 47t-135.5 133t-48 180q0 149 107.5 254.5t259.5 105.5zM459 670q-131 3 -228.5 -93.5t-94.5 -226.5q0 -133 94 -227q94 -93 229 -93q133 0 228 93
q94 94 94 227t-94 226q-94 94 -228 94zM442 -171q17 14 33 -2t0 -32q-9 -10 -22 -5.5t-16.5 16t5.5 23.5z" />
    <glyph glyph-name="odotbelow" unicode="&#x1ecd;" 
d="M150 434q79 76 190 76q112 0 189 -76q79 -76 79 -184t-79 -184q-77 -76 -189 -76q-111 0 -190 76q-78 76 -78 184t78 184zM501 409q-67 66 -161 66t-162 -66q-67 -66 -67 -159t67 -159q68 -66 162 -66t161 66t67 159t-67 159zM323 -171q17 15 34 -1t0 -33t-33 0t-1 34z
" />
    <glyph glyph-name="Ohookabove" unicode="&#x1ece;" horiz-adv-x="918" 
d="M464 1006q49 0 78.5 -22t29.5 -61q0 -36 -47 -71l-14 -11q-16 -12 -21 -17q-18 -18 -18 -45h-27q0 20 4 32q8 18 16 26q21 18 42 34q35 27 35 51q0 27 -21.5 42.5t-58.5 15.5q-36 0 -59.5 -16.5t-27.5 -45.5l-28 3q5 39 37 62t80 23zM459 710q99 0 183.5 -48t133.5 -131
q49 -82 49 -181t-49 -181q-49 -83 -133.5 -131t-184.5 -48q-97 -2 -182.5 47t-135.5 133t-48 180q0 149 107.5 254.5t259.5 105.5zM459 670q-135 0 -229 -94q-94 -93 -94 -226t94 -227q94 -93 229 -93q133 0 228 93q94 94 94 227q3 130 -94 226.5t-228 93.5z" />
    <glyph glyph-name="ohookabove" unicode="&#x1ecf;" 
d="M345 789q49 0 78.5 -22t29.5 -60q0 -35 -48 -71q-6 -6 -13 -11q-11 -8 -22 -18q-17 -14 -17 -44h-28q0 17 5 32q4 13 16 25q1 1 42 34q35 28 35 52q0 27 -21.5 42.5t-58.5 15.5q-36 0 -60 -16.5t-28 -45.5l-27 3q4 39 36.5 61.5t80.5 22.5zM340 510q111 0 189.5 -76
t78.5 -184t-79 -184q-77 -76 -189 -76q-111 0 -190 76q-78 76 -78 184t78 184q79 76 190 76zM340 475q-94 0 -162 -66q-67 -66 -67 -159t67 -159q68 -66 162 -66t161 66t67 159q0 94 -66.5 159.5t-161.5 65.5z" />
    <glyph glyph-name="Ocircumflexacute" unicode="&#x1ed0;" horiz-adv-x="918" 
d="M777 957l-116 -150h-38l106 150h48zM482 913l120 -150h-36l-106 126l-106 -126h-37l120 150h45zM274 662q86 48 184 48q100 0 184.5 -48t133.5 -131q49 -82 49 -181q0 -98 -49 -181t-134 -131q-84 -48 -184 -48q-99 0 -183.5 48t-133.5 131q-49 82 -49 181q0 98 49 181
t133 131zM459 670q-135 0 -229 -94q-94 -93 -94 -226t94 -227q94 -93 229 -93q133 0 228 93q94 94 94 227q3 130 -94 226.5t-228 93.5z" />
    <glyph glyph-name="ocircumflexacute" unicode="&#x1ed1;" 
d="M657 757l-116 -150h-37l105 150h48zM363 713l120 -150h-37l-106 126l-106 -126h-37l121 150h45zM340 510q111 0 189.5 -76t78.5 -184t-79 -184q-77 -76 -189 -76q-111 0 -190 76q-78 76 -78 184t78 184q79 76 190 76zM340 475q-94 0 -162 -66q-67 -66 -67 -159t67 -159
q68 -66 162 -66q92 -2 161 66t67 159q0 94 -66.5 159.5t-161.5 65.5z" />
    <glyph glyph-name="Ocircumflexgrave" unicode="&#x1ed2;" horiz-adv-x="918" 
d="M584 957l106 -150h-38l-116 150h48zM482 913l120 -150h-36l-106 126l-107 -126h-36l120 150h45zM459 710q99 0 183.5 -48t133.5 -131q49 -82 49 -181t-49 -181q-49 -83 -133.5 -131t-184.5 -48q-97 -2 -182.5 47t-135.5 133t-48 180q0 149 107.5 254.5t259.5 105.5z
M459 670q-131 3 -228.5 -93.5t-94.5 -226.5q0 -133 94 -227q94 -93 229 -93q133 0 228 93q94 94 94 227t-94 226q-94 94 -228 94z" />
    <glyph glyph-name="ocircumflexgrave" unicode="&#x1ed3;" 
d="M464 757l106 -150h-37l-116 150h47zM363 713l120 -150h-37l-106 126l-106 -126h-37l121 150h45zM150 434q79 76 190 76q112 0 189 -76q79 -76 79 -184t-79 -184q-77 -76 -189 -76q-111 0 -190 76q-78 76 -78 184t78 184zM501 409q-67 66 -161 66t-162 -66
q-67 -66 -67 -159t67 -159q68 -66 162 -66t161 66t67 159t-67 159z" />
    <glyph glyph-name="Ocircumflexhookabove" unicode="&#x1ed4;" horiz-adv-x="918" 
d="M672 1034q49 0 78.5 -22t29.5 -61q0 -35 -48 -71q-18 -14 -23 -18t-15 -14t-12.5 -19t-2.5 -22h-27q0 17 5 32t16 26l11 10q9 9 30 24q36 27 36 51q0 27 -22 42.5t-58 15.5q-37 0 -60 -16.5t-28 -45.5l-28 3q6 40 37.5 62.5t80.5 22.5zM481 913l121 -150h-37l-106 126
l-106 -126h-37l120 150h45zM274 662q86 48 184 48q100 0 184.5 -48t133.5 -131q49 -82 49 -181q0 -98 -49 -181t-134 -131q-84 -48 -184 -48q-99 0 -183.5 48t-133.5 131q-49 82 -49 181q0 98 49 181t133 131zM136 350q-3 -130 94.5 -226.5t228.5 -93.5q133 0 228 93
q94 94 94 227t-94 226q-94 94 -228 94q-135 0 -229 -94q-94 -93 -94 -226z" />
    <glyph glyph-name="ocircumflexhookabove" unicode="&#x1ed5;" 
d="M553 834q49 0 78.5 -22t29.5 -61q0 -36 -47 -71q-4 -4 -15 -12t-14.5 -11t-10 -9.5t-8.5 -11.5t-3.5 -12.5t-1.5 -16.5h-27q-1 16 4 32q3 9 9.5 17.5t11.5 13t18.5 15t18.5 14.5q35 27 35 51q0 27 -21.5 42.5t-58.5 15.5q-36 0 -60 -16.5t-27 -45.5l-28 3q5 39 37 62
t80 23zM363 713l120 -150h-37l-106 126l-106 -126h-37l121 150h45zM340 510q111 0 189.5 -76t78.5 -184t-79 -184q-77 -76 -189 -76q-111 0 -190 76q-78 76 -78 184t78 184q79 76 190 76zM340 475q-94 0 -162 -66q-67 -66 -67 -159t67 -159q68 -66 162 -66q92 -2 161 66
t67 159q0 94 -66.5 159.5t-161.5 65.5z" />
    <glyph glyph-name="Ocircumflextilde" unicode="&#x1ed6;" horiz-adv-x="918" 
d="M377 1036q30 -1 76 -33q44 -32 72 -35t49 14t29 51l23 -4q-7 -43 -34 -68t-63 -23q-35 2 -81 36q-46 31 -67 32q-24 3 -42 -14t-24 -50l-22 3q4 44 27 68.5t57 22.5zM481 913l121 -150h-37l-106 126l-106 -126h-37l120 150h45zM459 710q99 0 183.5 -48t133.5 -131
q49 -82 49 -181t-49 -181q-49 -83 -133.5 -131t-184.5 -48q-97 -2 -182.5 47t-135.5 133t-48 180q0 149 107.5 254.5t259.5 105.5zM459 670q-135 0 -229 -94q-94 -93 -94 -226t94 -227q94 -93 229 -93q133 0 228 93q94 94 94 227q3 130 -94 226.5t-228 93.5z" />
    <glyph glyph-name="ocircumflextilde" unicode="&#x1ed7;" 
d="M259 833q29 -1 75 -33q44 -32 73 -35q59 -6 78 65l22 -4q-7 -44 -33.5 -68.5t-62.5 -22.5q-32 1 -81 36q-45 29 -59 31q-4 1 -9 1q-24 2 -41.5 -14.5t-24.5 -49.5l-22 3q5 45 28 69t57 22zM363 713l120 -150h-37l-106 126l-106 -126h-37l121 150h45zM340 510
q111 0 189.5 -76t78.5 -184t-79 -184q-77 -76 -189 -76q-111 0 -190 76q-78 76 -78 184t78 184q79 76 190 76zM340 475q-94 0 -162 -66q-67 -66 -67 -159t67 -159q68 -66 162 -66t161 66t67 159q0 94 -66.5 159.5t-161.5 65.5z" />
    <glyph glyph-name="Ocircumflexdotbelow" unicode="&#x1ed8;" horiz-adv-x="918" 
d="M481 913l121 -150h-37l-106 126l-106 -126h-37l120 150h45zM459 710q99 0 183.5 -48t133.5 -131q49 -82 49 -181t-49 -181q-49 -83 -133.5 -131t-184.5 -48q-97 -2 -182.5 47t-135.5 133t-48 180q0 149 107.5 254.5t259.5 105.5zM459 670q-131 3 -228.5 -93.5
t-94.5 -226.5q0 -133 94 -227q94 -93 229 -93q133 0 228 93q94 94 94 227t-94 226q-94 94 -228 94zM442 -171q17 14 33 -2t0 -32q-9 -10 -22 -5.5t-16.5 16t5.5 23.5z" />
    <glyph glyph-name="ocircumflexdotbelow" unicode="&#x1ed9;" 
d="M363 713l120 -150h-37l-106 126l-106 -126h-37l121 150h45zM150 434q79 76 190 76q112 0 189 -76q79 -76 79 -184t-79 -184q-77 -76 -189 -76q-111 0 -190 76q-78 76 -78 184t78 184zM501 409q-67 66 -161 66t-162 -66q-67 -66 -67 -159t67 -159q68 -66 162 -66t161 66
t67 159t-67 159zM323 -171q17 15 34 -1t0 -33t-33 0t-1 34z" />
    <glyph glyph-name="Ohornacute" unicode="&#x1eda;" horiz-adv-x="918" 
d="M586 913l-116 -150h-37l106 150h47zM866 736h39v-29q0 -60 -37.5 -107t-96.5 -62q54 -86 54 -188q0 -98 -49 -181t-134 -131q-84 -48 -184 -48q-98 0 -184 48q-84 48 -133 131t-49 181q-3 146 107.5 254.5t259.5 105.5q88 0 165.5 -39.5t128.5 -109.5q49 12 81 52t32 90
v33zM459 670q-131 3 -228.5 -93.5t-94.5 -226.5q-3 -130 94.5 -226.5t228.5 -93.5q133 0 228 93q94 94 94 227t-94 226q-94 94 -228 94z" />
    <glyph glyph-name="ohornacute" unicode="&#x1edb;" 
d="M468 713l-116 -150h-38l106 150h48zM633 546h40v-29q0 -48 -25 -88.5t-67 -63.5q27 -54 27 -115q0 -108 -79 -184q-77 -76 -189 -76q-111 0 -190 76q-78 76 -78 184t78 184q79 76 190 76q68 0 127 -32.5t95 -87.5q33 19 52 52t19 72v32zM501 409q-67 66 -161 66t-162 -66
q-67 -66 -67 -159t67 -159q68 -66 162 -66t161 66t67 159t-67 159z" />
    <glyph glyph-name="Ohorngrave" unicode="&#x1edc;" horiz-adv-x="918" 
d="M378 913l106 -150h-37l-116 150h47zM866 736h39v-29q0 -59 -38 -106.5t-96 -62.5q54 -86 54 -188q3 -146 -107.5 -255t-259.5 -105q-97 -2 -182.5 47t-135.5 133t-48 180q0 149 107.5 254.5t259.5 105.5q88 0 165.5 -39.5t128.5 -109.5q49 12 81 52t32 90v33zM459 670
q-135 0 -229 -94q-94 -93 -94 -226t94 -227q94 -93 229 -93q133 0 228 93q94 94 94 227q3 130 -94 226.5t-228 93.5z" />
    <glyph glyph-name="ohorngrave" unicode="&#x1edd;" 
d="M260 713l105 -150h-37l-116 150h48zM633 546h40v-29q0 -48 -25 -88.5t-67 -63.5q27 -54 27 -115q0 -108 -79 -184q-77 -76 -189 -76q-111 0 -190 76q-78 76 -78 184t78 184q79 76 190 76q68 0 127 -32.5t95 -87.5q33 19 52 52t19 72v32zM501 409q-67 66 -161 66t-162 -66
q-67 -66 -67 -159t67 -159q68 -66 162 -66t161 66t67 159t-67 159z" />
    <glyph glyph-name="Ohornhookabove" unicode="&#x1ede;" horiz-adv-x="918" 
d="M464 1006q49 0 78.5 -22t29.5 -61q0 -36 -47 -71l-14 -11q-16 -12 -21 -17q-18 -18 -18 -45h-27q0 20 4 32q8 18 16 26q21 18 42 34q35 27 35 51q0 27 -21.5 42.5t-58.5 15.5q-36 0 -59.5 -16.5t-27.5 -45.5l-28 3q5 39 37 62t80 23zM866 736h39v-29q0 -60 -37.5 -107
t-96.5 -62q54 -86 54 -188q0 -98 -49 -181t-134 -131q-84 -48 -184 -48q-98 0 -184 48q-84 48 -133 131t-49 181q-3 146 107.5 254.5t259.5 105.5q88 0 165.5 -39.5t128.5 -109.5q48 12 80.5 52t32.5 90v33zM459 670q-135 0 -229 -94t-94 -227q0 -132 94 -226
q94 -93 229 -93q133 0 228 93q94 94 94 227q3 130 -94 226.5t-228 93.5z" />
    <glyph glyph-name="ohornhookabove" unicode="&#x1edf;" 
d="M345 789q49 0 78.5 -22t29.5 -60q0 -35 -48 -71q-6 -6 -13 -11q-11 -8 -22 -18q-17 -14 -17 -44h-28q0 17 5 32q4 13 16 25q1 1 42 34q35 28 35 52q0 27 -21.5 42.5t-58.5 15.5q-36 0 -60 -16.5t-28 -45.5l-27 3q4 39 36.5 61.5t80.5 22.5zM633 546h40v-29
q0 -48 -25 -88.5t-67 -63.5q27 -54 27 -115q0 -108 -79 -184q-77 -76 -189 -76q-111 0 -190 76q-78 76 -78 184t78 184q79 76 190 76q68 0 127 -32.5t95 -87.5q32 17 51.5 51t19.5 73v32zM501 409q-67 66 -161 66t-162 -66q-67 -66 -67 -159t67 -159q68 -66 162 -66t161 66
t67 159t-67 159z" />
    <glyph glyph-name="Ohorntilde" unicode="&#x1ee0;" horiz-adv-x="918" 
d="M377 902q30 -1 76 -33q44 -32 72 -35t49 14t29 51l23 -4q-7 -44 -34 -68.5t-63 -22.5q-35 4 -81 36q-46 31 -67 32q-24 3 -42 -14t-24 -50l-22 3q4 44 27 68.5t57 22.5zM866 736h39v-29q0 -60 -37.5 -107t-96.5 -62q54 -86 54 -188q0 -98 -49 -181t-134 -131
q-84 -48 -184 -48q-98 0 -184 48q-84 48 -133 131t-49 181q-3 146 107.5 254.5t259.5 105.5q88 0 165.5 -39.5t128.5 -109.5q49 12 81 52t32 90v33zM459 670q-131 3 -228.5 -93.5t-94.5 -226.5q0 -133 94 -227q94 -93 229 -93q133 0 228 93q94 94 94 226q0 133 -94 227
t-228 94z" />
    <glyph glyph-name="ohorntilde" unicode="&#x1ee1;" 
d="M259 702q29 -1 75 -33q44 -32 73 -35q28 -3 48.5 13.5t29.5 51.5l22 -4q-7 -43 -33.5 -68t-62.5 -23q-36 4 -81 36q-45 29 -59 31q-4 1 -9 1q-24 2 -42 -14t-24 -50l-22 3q5 45 28 69t57 22zM633 546h40v-29q0 -48 -25 -88.5t-67 -63.5q27 -54 27 -115q0 -108 -79 -184
q-77 -76 -189 -76q-111 0 -190 76q-78 76 -78 184t78 184q79 76 190 76q68 0 127 -32.5t95 -87.5q33 19 52 52t19 72v32zM501 409q-67 66 -161 66t-162 -66q-67 -66 -67 -159t67 -159q68 -66 162 -66t161 66t67 159t-67 159z" />
    <glyph glyph-name="Ohorndotbelow" unicode="&#x1ee2;" horiz-adv-x="918" 
d="M866 736h39v-29q0 -60 -37.5 -107t-96.5 -62q54 -86 54 -188q0 -98 -49 -181t-134 -131q-84 -48 -184 -48q-98 0 -184 48q-84 48 -133 131t-49 181q-3 146 107.5 254.5t259.5 105.5q88 0 165.5 -39.5t128.5 -109.5q49 12 81 52t32 90v33zM459 670q-131 3 -228.5 -93.5
t-94.5 -226.5q-3 -130 94.5 -226.5t228.5 -93.5q133 0 228 93q94 94 94 227t-94 226q-94 94 -228 94zM442 -171q17 14 33 -2t0 -32q-9 -10 -22 -5.5t-16.5 16t5.5 23.5z" />
    <glyph glyph-name="ohorndotbelow" unicode="&#x1ee3;" 
d="M633 546h40v-29q0 -48 -25 -88.5t-67 -63.5q27 -54 27 -115q0 -108 -79 -184q-77 -76 -189 -76q-111 0 -190 76q-78 76 -78 184t78 184q79 76 190 76q68 0 127 -32.5t95 -87.5q33 19 52 52t19 72v32zM340 475q-94 0 -162 -66q-67 -66 -67 -159t67 -159q68 -66 162 -66
q92 -2 161 66t67 159q0 94 -66.5 159.5t-161.5 65.5zM323 -171q17 15 34 -1t0 -33t-33 0t-1 34z" />
    <glyph glyph-name="Udotbelow" unicode="&#x1ee4;" horiz-adv-x="848" 
d="M685 700h43v-393q0 -152 -82 -234q-83 -83 -218 -83t-218 83q-82 82 -82 234v393h43v-393q0 -132 70 -205q71 -72 187 -72t186 72q71 74 71 205v393zM448 -188q0 -10 -6.5 -17t-16.5 -7q-16 0 -22 15t5 26q11 10 25.5 4.5t14.5 -21.5z" />
    <glyph glyph-name="udotbelow" unicode="&#x1ee5;" horiz-adv-x="657" 
d="M566 500v-500h-41v82q-109 -92 -246 -92q-86 0 -137 52t-51 144v314h41v-305q0 -81 42.5 -126t116.5 -45q137 0 234 91v385h41zM312 -171q17 14 33 -2t0 -32q-9 -11 -21.5 -6.5t-16 16.5t4.5 24z" />
    <glyph glyph-name="Uhookabove" unicode="&#x1ee6;" horiz-adv-x="848" 
d="M429 1006q49 0 78.5 -22t29.5 -61q0 -35 -47 -71l-14 -11q-16 -12 -21 -17q-18 -18 -18 -45h-27q-1 16 4 32q3 8 6.5 14t10.5 12.5t10.5 9.5t15 12t15.5 12q35 28 35 51q0 27 -21.5 42.5t-58.5 15.5q-36 0 -60 -16.5t-27 -45.5l-28 3q4 39 36.5 62t80.5 23zM685 700h43
v-393q0 -152 -82 -234q-83 -83 -218 -83t-218 83q-82 82 -82 234v393h43v-393q0 -132 70 -205q71 -72 186 -72q118 0 188 73.5t70 203.5v393z" />
    <glyph glyph-name="uhookabove" unicode="&#x1ee7;" horiz-adv-x="657" 
d="M334 789q49 0 78.5 -22t29.5 -60q0 -35 -48 -71q-3 -2 -10.5 -8t-9.5 -8t-8 -6.5t-7.5 -7t-5.5 -7t-5.5 -7.5t-3 -8t-2.5 -10t-1 -11h-27q0 17 5 32q2 7 5.5 13t10.5 13t11 10t15.5 11.5t14.5 11.5q36 27 36 52q0 27 -21.5 42.5t-58.5 15.5q-36 0 -60 -16.5t-28 -45.5
l-28 3q6 39 38 61.5t80 22.5zM565 500v-500h-40v82q-109 -92 -246 -92q-86 0 -137 52t-51 144v314h41v-305q0 -81 42.5 -126t116.5 -45q137 0 234 91v385h40z" />
    <glyph glyph-name="Uhornacute" unicode="&#x1ee8;" horiz-adv-x="848" 
d="M551 913l-116 -150h-37l105 150h48zM841 736h37v-29q0 -64 -41.5 -111t-108.5 -59v-230q0 -150 -82.5 -233.5t-217.5 -83.5t-218 83q-82 82 -82 234v393h43v-393q0 -132 70 -205q71 -72 187 -72t186.5 72.5t70.5 204.5v393h43v-139q49 12 81 51.5t32 90.5v33z" />
    <glyph glyph-name="uhornacute" unicode="&#x1ee9;" horiz-adv-x="653" 
d="M456 713l-116 -150h-37l106 150h47zM656 546h33v-29q0 -58 -33 -101.5t-91 -61.5v-354h-40v82q-109 -92 -246 -92q-86 0 -137 52t-51 144v314h41v-305q0 -81 42.5 -126t116.5 -45q137 0 234 91v385h40v-121q41 17 66 53.5t25 81.5v32z" />
    <glyph glyph-name="Uhorngrave" unicode="&#x1eea;" horiz-adv-x="848" 
d="M343 913l106 -150h-38l-116 150h48zM841 736h37v-29q0 -64 -41.5 -111t-108.5 -59v-230q0 -150 -82.5 -233.5t-217.5 -83.5t-218 83q-82 82 -82 234v393h43v-393q0 -132 70 -205q71 -72 187 -72t186.5 72.5t70.5 204.5v393h43v-139q49 12 81 51.5t32 90.5v33z" />
    <glyph glyph-name="uhorngrave" unicode="&#x1eeb;" horiz-adv-x="657" 
d="M248 713l106 -150h-37l-116 150h47zM656 546h33v-29q0 -58 -33 -101.5t-91 -61.5v-354h-40v82q-109 -92 -246 -92q-86 0 -137 52t-51 144v314h41v-305q0 -81 42.5 -126t116.5 -45q137 0 234 91v385h40v-121q41 17 66 53.5t25 81.5v32z" />
    <glyph glyph-name="Uhornhookabove" unicode="&#x1eec;" horiz-adv-x="848" 
d="M429 1006q49 0 78.5 -22t29.5 -61q0 -35 -47 -71l-14 -11q-16 -12 -21 -17q-18 -18 -18 -45h-27q-1 16 4 32q3 8 6.5 14t10.5 12.5t10.5 9.5t15 12t15.5 12q35 28 35 51q0 27 -21.5 42.5t-58.5 15.5q-36 0 -60 -16.5t-27 -45.5l-28 3q4 39 36.5 62t80.5 23zM841 736h37
v-29q0 -64 -41.5 -111t-108.5 -59v-230q0 -152 -82 -234q-83 -83 -218 -83t-218 83q-82 82 -82 234v393h43v-393q0 -132 70 -205q71 -72 186 -72q118 0 188 73.5t70 203.5v393h43v-139q49 12 81 51.5t32 90.5v33z" />
    <glyph glyph-name="uhornhookabove" unicode="&#x1eed;" horiz-adv-x="657" 
d="M334 789q49 0 78.5 -22t29.5 -60q0 -35 -48 -71q-3 -2 -10.5 -8t-9.5 -8t-8 -6.5t-7.5 -7t-5.5 -7t-5.5 -7.5t-3 -8t-2.5 -10t-1 -11h-27q0 17 5 32q2 7 5.5 13t10.5 13t11 10t15.5 11.5t14.5 11.5q36 27 36 52q0 27 -21.5 42.5t-58.5 15.5q-36 0 -60 -16.5t-28 -45.5
l-28 3q6 39 38 61.5t80 22.5zM656 546h33v-29q0 -58 -33 -101.5t-91 -61.5v-354h-40v82q-109 -92 -246 -92q-86 0 -137 52t-51 144v314h41v-305q0 -81 42.5 -126t116.5 -45q137 0 234 91v385h40v-121q41 17 66 53.5t25 81.5v32z" />
    <glyph glyph-name="Uhorntilde" unicode="&#x1eee;" horiz-adv-x="848" 
d="M342 902q31 -1 75 -33q46 -32 73 -35q28 -3 49 14t29 51l22 -4q-6 -43 -33 -68t-63 -23q-36 4 -81 36q-45 29 -59 31q-3 1 -8 1q-25 3 -42.5 -14t-23.5 -50l-23 3q5 45 28 69t57 22zM841 736h37v-29q0 -64 -41.5 -111t-108.5 -59v-230q0 -152 -82 -234q-83 -83 -218 -83
t-218 83q-82 82 -82 234v393h43v-393q0 -132 70 -205q71 -72 187 -72t186 72q71 74 71 205v393h43v-139q49 12 81 51.5t32 90.5v33z" />
    <glyph glyph-name="uhorntilde" unicode="&#x1eef;" horiz-adv-x="657" 
d="M247 702q15 -1 27 -5.5t19 -8.5t30 -19q44 -32 72 -35t49 14t29 51l23 -4q-7 -43 -34 -68t-63 -23q-34 4 -81 36q-46 31 -67 32q-24 3 -42 -14t-24 -50l-22 3q4 44 27 68.5t57 22.5zM656 546h33v-29q0 -58 -33 -101.5t-91 -61.5v-354h-40v82q-109 -92 -246 -92
q-86 0 -137 52t-51 144v314h41v-305q0 -81 42.5 -126t116.5 -45q137 0 234 91v385h40v-121q41 17 66 53.5t25 81.5v32z" />
    <glyph glyph-name="Uhorndotbelow" unicode="&#x1ef0;" horiz-adv-x="848" 
d="M841 736h37v-29q0 -64 -41.5 -111t-108.5 -59v-230q0 -152 -82 -234q-83 -83 -218 -83q-136 0 -218 83t-82 234v393h43v-393q0 -132 70 -205q71 -72 187 -72t186 72q71 74 71 205v393h43v-139q49 12 81 51.5t32 90.5v33zM408 -171q17 14 33 -2t0 -32q-9 -10 -22 -5.5
t-16.5 16t5.5 23.5z" />
    <glyph glyph-name="uhorndotbelow" unicode="&#x1ef1;" horiz-adv-x="657" 
d="M656 546h33v-29q0 -58 -33 -101.5t-91 -61.5v-354h-40v82q-109 -92 -246 -92q-86 0 -137 52t-51 144v314h41v-305q0 -81 42.5 -126t116.5 -45q137 0 234 91v385h40v-121q41 17 66 53.5t25 81.5v32zM352 -188q0 -24 -23 -24q-15 0 -21 15t4 26q11 10 25.5 4.5t14.5 -21.5z
" />
    <glyph glyph-name="Ygrave" unicode="&#x1ef2;" horiz-adv-x="751" 
d="M704 700l-308 -440v-260h-43v259l-308 441h51l278 -395l279 395h51zM294 913l106 -150h-38l-116 150h48z" />
    <glyph glyph-name="ygrave" unicode="&#x1ef3;" horiz-adv-x="551" 
d="M197 713l106 -150h-37l-116 150h47zM72 500l209 -466l202 466h42l-240 -553q-36 -82 -77.5 -116.5t-99.5 -35.5q-40 0 -81 16l12 28q35 -13 66 -12q45 1 79 29.5t65 98.5l13 29l-233 516h43z" />
    <glyph glyph-name="Ydotbelow" unicode="&#x1ef4;" horiz-adv-x="751" 
d="M704 700l-308 -440v-260h-43v259l-308 441h51l278 -395l279 395h51zM357 -171q17 15 34 -1t0 -33t-33 0t-1 34z" />
    <glyph glyph-name="ydotbelow" unicode="&#x1ef5;" horiz-adv-x="551" 
d="M72 500l209 -466l202 466h42l-240 -553q-36 -82 -77.5 -116.5t-99.5 -35.5q-40 0 -81 16l12 28q35 -13 66 -12q45 1 79 29.5t65 98.5l13 29l-233 516h43zM433 -188q0 -10 -6.5 -17t-17.5 -7q-15 0 -21 15t4 26q11 10 26 4t15 -21z" />
    <glyph glyph-name="Yhookabove" unicode="&#x1ef6;" horiz-adv-x="751" 
d="M380 1006q49 0 78.5 -22t29.5 -61q0 -35 -48 -71q-6 -6 -13 -11q-18 -14 -22 -17q-13 -14 -18 -45h-27q0 17 5 32t16 26l11 10q21 15 30 24q36 27 36 51q0 27 -21.5 42.5t-58.5 15.5q-36 0 -60 -16.5t-28 -45.5l-28 3q6 40 38 62.5t80 22.5zM704 700l-308 -440v-260h-43
v259l-308 441h51l278 -395l279 395h51z" />
    <glyph glyph-name="yhookabove" unicode="&#x1ef7;" horiz-adv-x="551" 
d="M284 789q49 0 79 -22t30 -60q0 -35 -48 -71q-3 -2 -13 -10t-12 -10t-9 -8t-8.5 -9.5t-5 -9.5t-4.5 -12t-1 -14h-27q0 20 4 32q7 16 17 25q8 8 11 10q9 9 30 24q36 27 36 52q0 27 -22 42.5t-58 15.5q-37 0 -60 -16.5t-28 -45.5l-28 3q6 39 37.5 61.5t79.5 22.5zM72 500
l209 -466l202 466h42l-240 -553q-37 -85 -79 -118.5t-98 -33.5q-40 0 -81 16l12 28q35 -13 66 -12q45 1 79 29.5t65 98.5l13 29l-233 516h43z" />
    <glyph glyph-name="Ytilde" unicode="&#x1ef8;" horiz-adv-x="751" 
d="M293 902q29 -1 75 -33q44 -32 73 -35q59 -6 78 65l22 -4q-7 -43 -33.5 -68t-62.5 -23q-36 4 -81 36q-30 20 -39.5 24t-28.5 8q-24 3 -41.5 -14t-23.5 -50l-23 3q5 45 28 69t57 22zM704 700l-308 -440v-260h-43v259l-308 441h51l278 -395l279 395h51z" />
    <glyph glyph-name="ytilde" unicode="&#x1ef9;" horiz-adv-x="551" 
d="M197 702q29 -1 75 -33q44 -32 73 -35q28 -3 49 14t28 51l23 -4q-7 -43 -34 -68t-62 -23q-36 4 -82 36q-46 31 -67 32q-24 3 -42 -14t-24 -50l-22 3q5 45 28 69t57 22zM72 500l209 -466l202 466h42l-240 -553q-36 -82 -77.5 -116.5t-99.5 -35.5q-40 0 -81 16l12 28
q35 -13 66 -12q45 1 79 29.5t65 98.5l13 29l-233 516h43z" />
    <glyph glyph-name="endash" unicode="&#x2013;" horiz-adv-x="543" 
d="M497 277v-35h-450v35h450z" />
    <glyph glyph-name="emdash" unicode="&#x2014;" horiz-adv-x="712" 
d="M665 266v-12h-618v12h618z" />
    <glyph glyph-name="quoteleft" unicode="&#x2018;" horiz-adv-x="167" 
d="M123 760l16 -7l-52 -97q16 -6 16 -23q0 -25 -28 -25t-28 25q0 7 5 14z" />
    <glyph glyph-name="quoteright" unicode="&#x2019;" horiz-adv-x="167" 
d="M120 734q0 -7 -5 -14l-71 -113l-16 7l51 97q-15 6 -15 23q0 16 14 22.5t28 0t14 -22.5z" />
    <glyph glyph-name="quotesinglbase" unicode="&#x201a;" horiz-adv-x="167" 
d="M92 41q11 0 19.5 -7.5t8.5 -18.5q0 -7 -5 -14l-71 -114l-16 8l51 96q-15 7 -15 24q0 11 8 18.5t20 7.5z" />
    <glyph glyph-name="quotedblleft" unicode="&#x201c;" horiz-adv-x="297" 
d="M123 760l16 -7l-52 -97q16 -6 16 -23q0 -11 -8 -18.5t-20 -7.5q-11 0 -19.5 8t-8.5 18q0 7 5 14zM253 760l16 -7l-52 -97q16 -7 16 -23q0 -25 -28 -25t-28 25q0 9 4 14z" />
    <glyph glyph-name="quotedblright" unicode="&#x201d;" horiz-adv-x="297" 
d="M120 734q0 -7 -5 -14l-71 -113l-16 7l51 97q-15 6 -15 23q0 16 14 22.5t28 0t14 -22.5zM250 734q0 -7 -5 -14l-72 -113l-15 7l51 97q-15 6 -15 23q0 16 14 22.5t28 0t14 -22.5z" />
    <glyph glyph-name="quotedblbase" unicode="&#x201e;" horiz-adv-x="297" 
d="M250 15q0 -7 -5 -14l-72 -114l-15 8l51 96q-15 7 -15 24q0 25 28 25t28 -25zM120 15q0 -7 -5 -14l-71 -114l-16 8l51 96q-15 7 -15 24q0 25 28 25t28 -25z" />
    <glyph glyph-name="dagger" unicode="&#x2020;" horiz-adv-x="584" 
d="M310 710v-240h210v-33h-210v-590h-36v590h-210v33h210v240h36z" />
    <glyph glyph-name="daggerdbl" unicode="&#x2021;" horiz-adv-x="584" 
d="M310 710v-240h210v-33h-210v-317h210v-33h-210v-240h-36v240h-210v33h210v317h-210v33h210v240h36z" />
    <glyph glyph-name="bullet" unicode="&#x2022;" horiz-adv-x="285" 
d="M143 411q29 2 53 -16t34.5 -43.5t6 -55t-26.5 -49.5q-30 -28 -67.5 -28t-67.5 28t-28 68q0 39 28.5 67.5t67.5 28.5z" />
    <glyph glyph-name="ellipsis" unicode="&#x2026;" horiz-adv-x="602" 
d="M301 42q12 0 20 -7.5t8 -18.5q0 -16 -14 -22.5t-28 0t-14 22.5q0 11 8 18.5t20 7.5zM75 42q12 0 20 -7.5t8 -18.5q0 -16 -14 -22.5t-28 0t-14 22.5q0 10 8.5 18t19.5 8zM555 16q0 -16 -14 -22.5t-28 0t-14 22.5t14 22.5t28 0t14 -22.5z" />
    <glyph glyph-name="perthousand" unicode="&#x2030;" horiz-adv-x="1202" 
d="M693 717l-537 -734h-40l537 734h40zM351 528q0 -82 -41 -130.5t-112 -48.5t-112 48.5t-41 130.5q0 81 41 130t112 49t112 -49t41 -130zM286 637q-32 41 -88 41t-89 -41q-32 -41 -32 -109q0 -69 32 -110q33 -40 89 -40q57 0 88 40q33 40 33 110q0 68 -33 109zM504 302
q40 49 112 49q73 0 113 -49q41 -49 41 -130q0 -80 -41 -130q-41 -48 -113 -48t-112 48q-41 50 -41 130q0 81 41 130zM891 302q40 49 112 49t112 -49q41 -49 41 -130q0 -80 -41 -130q-41 -48 -112 -48t-112 48q-41 50 -41 130q0 81 41 130zM617 322q-56 0 -89 -40t-33 -110
q0 -69 33 -109.5t89 -40.5t88.5 40.5t32.5 109.5q0 70 -32.5 110t-88.5 40zM1003 322q-56 0 -89 -40q-32 -41 -32 -110t32 -110q33 -40 89 -40t88.5 40.5t32.5 109.5q0 70 -32.5 110t-88.5 40z" />
    <glyph glyph-name="guilsinglleft" unicode="&#x2039;" horiz-adv-x="258" 
d="M200 451l30 -18l-137 -168l137 -168l-30 -18l-153 186z" />
    <glyph glyph-name="guilsinglright" unicode="&#x203a;" horiz-adv-x="258" 
d="M58 451l153 -186l-153 -186l-30 18l137 168l-137 168z" />
    <glyph glyph-name="fraction" unicode="&#x2044;" horiz-adv-x="613" 
d="M510 717l-462 -734h-38l463 734h37z" />
    <glyph glyph-name="zerosuperior" unicode="&#x2070;" horiz-adv-x="398" 
d="M85 697q42 49 113 49q72 0 112 -49q42 -49 42 -130t-42 -130q-40 -49 -112 -49q-71 0 -113 49q-41 50 -41 130t41 130zM198 416q57 0 90 40.5t33 110.5q0 71 -33 111q-33 41 -90 41t-90 -41q-33 -40 -33 -111t33 -111t90 -40z" />
    <glyph glyph-name="foursuperior" unicode="&#x2074;" horiz-adv-x="323" 
d="M229 740v-222h67v-25h-67v-101h-30v101h-188l-2 24l188 223h32zM199 704l-157 -186h157v186z" />
    <glyph glyph-name="fivesuperior" unicode="&#x2075;" horiz-adv-x="303" 
d="M249 740v-24h-182v-128q34 25 81 25q51 0 87 -30t36 -79q0 -51 -38 -84t-93 -33q-79 0 -122 52l17 18q38 -44 101 -44q45 0 74.5 26t29.5 66q0 38 -27.5 62t-69.5 24q-55 0 -88 -36l-19 13l2 172h211z" />
    <glyph glyph-name="sixsuperior" unicode="&#x2076;" horiz-adv-x="343" 
d="M196 746q59 0 108 -38l-15 -21q-40 33 -91 33q-54 0 -83 -40.5t-30 -113.5v-2q33 54 110 54q52 0 86.5 -32t34.5 -81q0 -50 -35 -83.5t-90 -33.5q-41 0 -70 16.5t-42.5 44t-19.5 54t-6 56.5q0 88 37.5 138t105.5 49zM191 597q-42 0 -71 -20.5t-35 -55.5q13 -109 106 -109
q42 0 69 25.5t27 67.5t-26.5 67t-69.5 25z" />
    <glyph glyph-name="sevensuperior" unicode="&#x2077;" horiz-adv-x="273" 
d="M264 740v-24l-189 -324h-35l188 321h-218v27h254z" />
    <glyph glyph-name="eightsuperior" unicode="&#x2078;" horiz-adv-x="358" 
d="M300 658q0 -58 -64 -79q36 -10 56 -34t20 -57q0 -43 -37.5 -71.5t-96.5 -28.5t-96.5 29t-37.5 71q0 33 20 57t56 34q-64 23 -64 79q0 38 35 63t87 25t87 -25t35 -63zM178 723q-41 0 -67 -19.5t-26 -47.5q0 -32 25 -50t68 -18t68 18t25 50q0 28 -26 47.5t-67 19.5z
M178 568q-15 0 -30.5 -3t-33.5 -11t-29.5 -24.5t-11.5 -39.5q0 -33 29.5 -55.5t75.5 -22.5q47 0 76 22t29 56q0 36 -28 56.5t-77 21.5z" />
    <glyph glyph-name="ninesuperior" unicode="&#x2079;" horiz-adv-x="343" 
d="M151 746q40 0 69 -16t43 -43.5t20 -54.5t6 -57q0 -88 -37.5 -137.5t-105.5 -49.5q-61 0 -108 38l15 21q40 -33 91 -33q54 0 83 40.5t30 113.5v2q-33 -54 -110 -54q-53 0 -87 32t-34 81q0 51 35 84t90 33zM151 722q-42 0 -69 -25.5t-27 -67.5q0 -41 27 -66.5t69 -25.5
t71 21t35 56q-13 108 -106 108z" />
    <glyph glyph-name="zeroinferior" unicode="&#x2080;" horiz-adv-x="398" 
d="M198 211q71 0 112.5 -49t41.5 -130q0 -80 -42 -129q-40 -49 -112 -49q-71 0 -113 49q-41 50 -41 129q0 81 41.5 130t112.5 49zM198 184q-57 0 -90 -40.5t-33 -111.5q0 -70 33 -110.5t90 -40.5t90 40.5t33 110.5q0 71 -33 111.5t-90 40.5z" />
    <glyph glyph-name="oneinferior" unicode="&#x2081;" horiz-adv-x="176" 
d="M114 208v-348h-31v319l-70 -15l-4 25l81 19h24z" />
    <glyph glyph-name="twoinferior" unicode="&#x2082;" horiz-adv-x="306" 
d="M146 213q48 0 81.5 -28t33.5 -71q0 -25 -14 -47t-53 -58l-125 -123h201v-26h-247v24l152 145q32 30 43 47.5t11 36.5q0 32 -24 52.5t-60 20.5t-59.5 -14.5t-45.5 -47.5l-22 16q46 73 128 73z" />
    <glyph glyph-name="threeinferior" unicode="&#x2083;" horiz-adv-x="316" 
d="M256 207v-24l-125 -130q15 4 35 4q48 -2 77 -26.5t29 -63.5q0 -51 -37 -82t-96 -31q-62 0 -121 41l17 20q50 -35 101 -35q48 0 76 23t28 64q0 33 -24 51.5t-65 18.5q-30 0 -60 -12l-7 18l133 138h-178v26h217z" />
    <glyph glyph-name="fourinferior" unicode="&#x2084;" horiz-adv-x="323" 
d="M229 208v-223h67v-24h-67v-101h-30v101h-188l-2 23l188 224h32zM199 172l-157 -187h157v187z" />
    <glyph glyph-name="fiveinferior" unicode="&#x2085;" horiz-adv-x="303" 
d="M249 206v-24h-182v-127q35 24 81 24q52 0 87.5 -30t35.5 -79q0 -50 -38 -83q-37 -33 -93 -33q-78 0 -122 51l17 18q38 -44 101 -44q45 0 74.5 26t29.5 67q0 38 -28 61.5t-69 23.5q-55 0 -88 -36l-19 13l2 172h211z" />
    <glyph glyph-name="sixinferior" unicode="&#x2086;" horiz-adv-x="343" 
d="M196 211q61 0 108 -37l-15 -21q-41 33 -91 33q-54 0 -83 -40.5t-30 -114.5v-2q33 54 110 54q53 0 87 -31.5t34 -81.5t-35 -83t-90 -33q-41 0 -70 16t-42.5 43t-19.5 54t-6 58q0 88 37.5 137.5t105.5 48.5zM191 63q-42 0 -71 -21t-35 -56q13 -109 106 -109q42 0 69 26
t27 67q0 42 -27 67.5t-69 25.5z" />
    <glyph glyph-name="seveninferior" unicode="&#x2087;" horiz-adv-x="273" 
d="M264 208v-24l-189 -324h-35l188 321h-218v27h254z" />
    <glyph glyph-name="eightinferior" unicode="&#x2088;" horiz-adv-x="358" 
d="M178 212q52 0 87 -25.5t35 -62.5q0 -58 -64 -79q36 -10 56 -34t20 -57q0 -43 -37.5 -71.5t-96.5 -28.5t-96.5 28.5t-37.5 71.5q0 33 20 57t56 34q-64 21 -64 79q0 37 35 62.5t87 25.5zM178 188q-41 0 -67 -19t-26 -48q0 -31 25.5 -49t67.5 -18t67.5 18t25.5 49
q0 29 -26 48t-67 19zM178 34q-36 0 -70.5 -18t-34.5 -61q0 -33 29 -55t76 -22t76 22t29 55q0 36 -28 57t-77 22z" />
    <glyph glyph-name="nineinferior" unicode="&#x2089;" horiz-adv-x="343" 
d="M151 212q40 0 69 -16.5t43 -43.5t20 -54t6 -57q0 -88 -37.5 -137.5t-105.5 -49.5q-61 0 -108 38l15 21q41 -33 91 -33q54 0 83 40.5t30 113.5v2q-33 -54 -110 -54q-53 0 -87 32t-34 81q0 51 35 84t90 33zM151 188q-42 0 -69 -25.5t-27 -67.5q0 -41 27 -66.5t69 -25.5
t71 20.5t35 56.5q-13 108 -106 108z" />
    <glyph glyph-name="Euro" unicode="&#x20ac;" horiz-adv-x="776" 
d="M680 134l32 -21q-102 -123 -251 -123q-113 0 -201 73t-118 187h-96v25h90q-7 35 -7 75q0 28 5 63h-88v26h93q27 117 117.5 194t204.5 77q73 0 139 -33t112 -91l-32 -20q-85 106 -216 106q-100 0 -176 -66q-77 -65 -104 -167h336v-26h-341q-6 -31 -6 -63q0 -35 8 -75h339
v-25h-333q29 -99 105 -160q77 -62 172 -62q131 0 216 106z" />
    <glyph glyph-name="trademark" unicode="&#x2122;" horiz-adv-x="889" 
d="M327 700v-27h-134v-351h-31v351h-134v27h299zM841 700v-377h-31v332l-176 -297h-18l-176 297v-332h-31v377h38l178 -298l178 298h38z" />
    <glyph glyph-name="oneeighth" unicode="&#x215b;" horiz-adv-x="670" 
d="M512 717l-462 -734h-37l462 734h37zM121 700v-348h-31v320l-70 -16l-4 25l81 19h24zM612 264q0 -58 -64 -79q76 -22 76 -91q0 -43 -37.5 -71.5t-96.5 -28.5t-96.5 28.5t-37.5 71.5q0 69 76 91q-64 21 -64 79q0 37 35 62.5t87 25.5t87 -25.5t35 -62.5zM490 328
q-41 0 -67 -19t-26 -48q0 -31 25.5 -49t67.5 -18t68 18t26 49q0 29 -26.5 48t-67.5 19zM490 174q-36 0 -70.5 -18t-34.5 -61q0 -33 29 -55t76 -22t76 22t29 55q0 36 -28 57t-77 22z" />
    <glyph glyph-name="threeeighths" unicode="&#x215c;" horiz-adv-x="767" 
d="M606 717l-462 -734h-37l462 734h37zM256 700v-23l-125 -130q17 3 35 3q46 -2 76 -26.5t30 -63.5q0 -51 -37.5 -82t-95.5 -31q-63 0 -121 42l17 19q50 -35 101 -35q48 0 76 23.5t28 64.5q0 32 -24 50.5t-65 18.5q-30 0 -60 -12l-7 19l133 137h-178v26h217zM710 264
q0 -58 -64 -79q36 -10 56 -34t20 -57q0 -43 -37.5 -71.5t-96.5 -28.5t-96.5 28.5t-37.5 71.5q0 33 20 57t56 34q-64 21 -64 79q0 37 35 62.5t87 25.5t87 -25.5t35 -62.5zM588 328q-41 0 -67.5 -19t-26.5 -48q0 -31 26 -49t68 -18t67.5 18t25.5 49q0 29 -26 48t-67 19z
M588 174q-37 0 -71 -18t-34 -61q0 -33 29 -55t76 -22t76 22t29 55q0 36 -28 57t-77 22z" />
    <glyph glyph-name="fiveeighths" unicode="&#x215d;" horiz-adv-x="758" 
d="M596 717l-462 -734h-37l462 734h37zM249 700v-24h-182v-128q34 25 81 25q52 0 87.5 -30.5t35.5 -78.5q0 -51 -38 -84t-93 -33q-79 0 -122 52l17 18q38 -44 101 -44q45 0 74.5 26t29.5 66q0 38 -27.5 62t-69.5 24q-55 0 -88 -36l-19 13l2 172h211zM700 264q0 -58 -64 -79
q76 -22 76 -91q0 -43 -37.5 -71.5t-96.5 -28.5t-96.5 28.5t-37.5 71.5q0 33 20 57t56 34q-64 21 -64 79q0 37 35 62.5t87 25.5t87 -25.5t35 -62.5zM578 328q-41 0 -67 -19t-26 -48q0 -31 25.5 -49t67.5 -18t68 18t26 49q0 29 -26.5 48t-67.5 19zM578 174q-36 0 -70.5 -18
t-34.5 -61q0 -33 29 -55t76 -22t76 22t29 55q0 36 -28 57t-77 22z" />
    <glyph glyph-name="seveneighths" unicode="&#x215e;" horiz-adv-x="670" 
d="M509 717l-462 -734h-37l462 734h37zM270 700v-24l-189 -324h-35l188 321h-218v27h254zM613 264q0 -58 -63 -79q76 -23 76 -91q0 -43 -38 -71.5t-97 -28.5q-58 0 -96 28.5t-38 71.5q0 68 76 91q-30 10 -47 31t-17 48q0 37 35.5 62.5t86.5 25.5q52 0 87 -25.5t35 -62.5z
M491 328q-40 0 -66.5 -19t-26.5 -48q0 -31 25.5 -49t67.5 -18t68 18t26 49q0 29 -26.5 48t-67.5 19zM491 174q-36 0 -70 -18t-34 -61q0 -33 29.5 -55t74.5 -22q47 0 76 22t29 55q0 36 -28 57t-77 22z" />
    <glyph glyph-name="partialdiff" unicode="&#x2202;" horiz-adv-x="700" 
 />
    <glyph glyph-name="emptyset" unicode="&#x2205;" horiz-adv-x="700" 
 />
    <glyph glyph-name="product" unicode="&#x220f;" horiz-adv-x="700" 
 />
    <glyph glyph-name="summation" unicode="&#x2211;" horiz-adv-x="700" 
 />
    <glyph glyph-name="minus" unicode="&#x2212;" horiz-adv-x="572" 
d="M525 312v-34h-478v34h478z" />
    <glyph glyph-name="radical" unicode="&#x221a;" horiz-adv-x="700" 
 />
    <glyph glyph-name="infinity" unicode="&#x221e;" horiz-adv-x="700" 
 />
    <glyph glyph-name="integral" unicode="&#x222b;" horiz-adv-x="700" 
 />
    <glyph glyph-name="approxequal" unicode="&#x2248;" horiz-adv-x="600" 
d="M178 445q27 -1 52 -13q22 -10 63 -39q47 -33 64 -41q23 -12 48 -13q43 -5 75.5 21.5t45.5 79.5l25 -5q-11 -63 -50 -99t-91 -32q-30 2 -55.5 13.5t-65.5 41.5q-48 32 -62 39q-20 11 -44 12q-42 4 -71.5 -24t-39.5 -82l-25 4q8 68 43.5 104t87.5 33zM178 217q27 -1 52 -13
q22 -10 63 -39q47 -33 64 -41q20 -10 48 -13q43 -5 75.5 21.5t45.5 79.5l25 -4q-10 -65 -49.5 -100t-91.5 -32q-31 3 -56 14.5t-65 40.5q-48 32 -62 39q-20 11 -44 12q-42 4 -71.5 -23.5t-39.5 -81.5l-25 3q8 68 43.5 104t87.5 33z" />
    <glyph glyph-name="notequal" unicode="&#x2260;" horiz-adv-x="596" 
d="M550 368h-195l-77 -160h272v-34h-287l-92 -191h-38l91 191h-179v34h195l76 160h-271v33h287l91 192h39l-92 -192h180v-33z" />
    <glyph glyph-name="lessequal" unicode="&#x2264;" horiz-adv-x="571" 
d="M524 558v-40l-430 -181l430 -182v-39l-477 202v38zM524 20v-34h-477v34h477z" />
    <glyph glyph-name="greaterequal" unicode="&#x2265;" horiz-adv-x="571" 
d="M47 558l477 -202v-38l-477 -202v39l429 182l-429 181v40zM524 20v-34h-477v34h477z" />
    <glyph glyph-name="lozenge" unicode="&#x25ca;" horiz-adv-x="600" 
 />
    <glyph glyph-name="NULL" horiz-adv-x="0" 
 />
    <glyph glyph-name="CR" horiz-adv-x="333" 
 />
    <glyph glyph-name="A.sc" horiz-adv-x="565" 
d="M306 500l232 -500h-45l-66 141h-289l-66 -141h-45l231 500h48zM282 461l-134 -290h269z" />
    <glyph glyph-name="AE.sc" horiz-adv-x="704" 
d="M258 500h393v-31h-328v-201h302v-29h-302v-208h336v-31h-377v141h-144l-66 -141h-45zM282 461l-134 -290h134v290z" />
    <glyph glyph-name="Aacute.sc" horiz-adv-x="565" 
d="M410 713l-116 -150h-37l106 150h47zM306 500l232 -500h-45l-66 141h-289l-66 -141h-45l231 500h48zM282 461l-134 -290h269z" />
    <glyph glyph-name="Abreve.sc" horiz-adv-x="565" 
d="M407 709l31 -1q-3 -62 -45.5 -98.5t-109.5 -36.5q-66 0 -108.5 36.5t-46.5 98.5l31 1q4 -50 37 -78.5t87 -28.5t87.5 28.5t36.5 78.5zM306 500l232 -500h-45l-66 141h-289l-66 -141h-45l231 500h48zM282 461l-134 -290h269z" />
    <glyph glyph-name="Acaron.sc" horiz-adv-x="565" 
d="M425 713l-120 -150h-45l-120 150h37l106 -127l106 127h36zM306 500l232 -500h-45l-66 141h-289l-66 -141h-45l231 500h48zM282 461l-134 -290h269z" />
    <glyph glyph-name="Acircumflex.sc" horiz-adv-x="565" 
d="M305 713l120 -150h-36l-106 126l-106 -126h-37l120 150h45zM306 500l232 -500h-45l-66 141h-289l-66 -141h-45l231 500h48zM282 461l-134 -290h269z" />
    <glyph glyph-name="Acircumflexdotbelow.sc" horiz-adv-x="565" 
d="M305 713l120 -150h-36l-106 126l-106 -126h-37l120 150h45zM306 500l232 -500h-45l-66 141h-289l-66 -141h-45l231 500h48zM282 461l-134 -290h269zM306 -188q0 -10 -7 -17t-17 -7q-15 0 -21 15t4 26q11 10 26 4t15 -21z" />
    <glyph glyph-name="Adieresis.sc" horiz-adv-x="565" 
d="M306 500l232 -500h-45l-66 141h-289l-66 -141h-45l231 500h48zM282 461l-134 -290h269zM161 664q17 17 34 0t0 -34q-7 -6 -17 -6t-17 6q-6 7 -6 17.5t6 16.5zM370 664q17 17 34 0t0 -34q-7 -6 -17 -6t-17 6q-6 7 -6 17.5t6 16.5z" />
    <glyph glyph-name="Adieresismacron.sc" horiz-adv-x="571" 
d="M419 778v-28h-269v28h269zM163 664q10 10 23 5.5t16 -16t-6 -23.5q-6 -6 -16 -6t-17 6q-6 7 -6 17.5t6 16.5zM389 624q-10 0 -16.5 6.5t-6.5 16.5q0 16 14.5 22.5t24.5 -5.5q12 -10 5.5 -25t-21.5 -15zM308 500l232 -500h-45l-66 141h-289l-66 -141h-45l231 500h48z
M284 461l-134 -290h269z" />
    <glyph glyph-name="Agrave.sc" horiz-adv-x="565" 
d="M306 500l232 -500h-45l-66 141h-289l-66 -141h-45l231 500h48zM282 461l-134 -290h269zM202 713l106 -150h-38l-116 150h48z" />
    <glyph glyph-name="Amacron.sc" horiz-adv-x="565" 
d="M306 500l232 -500h-45l-66 141h-289l-66 -141h-45l231 500h48zM282 461l-134 -290h269zM417 662v-29h-269v29h269z" />
    <glyph glyph-name="Aogonek.sc" horiz-adv-x="571" 
d="M308 500l232 -500l-17 -3l-27 -34q-32 -43 -31 -78q1 -30 23 -49t54 -19q38 0 66 24l11 -21q-35 -29 -82 -29q-41 0 -69.5 22.5t-31.5 59.5q-4 43 35 96l24 31l-66 141h-289l-66 -141h-45l231 500h48zM284 461l-134 -290h269z" />
    <glyph glyph-name="Aring.sc" horiz-adv-x="565" 
d="M203 723q33 32 79.5 32t79.5 -32q33 -31 33 -78t-33 -78q-33 -32 -79.5 -32t-79.5 32q-33 31 -33 78t33 78zM283 731q-36 0 -61.5 -25.5t-25.5 -60.5t25.5 -60.5t61.5 -25.5t61.5 25.5t25.5 60.5q0 34 -26 60t-61 26zM306 500l232 -500h-45l-66 141h-289l-66 -141h-45
l231 500h48zM282 461l-134 -290h269z" />
    <glyph glyph-name="Atilde.sc" horiz-adv-x="565" 
d="M201 702q31 -1 75 -33q46 -32 73 -35q29 -3 50 14t28 51l23 -4q-7 -43 -34 -68t-63 -23q-34 4 -81 36q-45 29 -59 31q-3 1 -8 1q-24 2 -42 -14t-24 -50l-23 3q5 45 28 69t57 22zM306 500l232 -500h-45l-66 141h-289l-66 -141h-45l231 500h48zM282 461l-134 -290h269z" />
    <glyph glyph-name="B.sc" horiz-adv-x="551" 
d="M90 0v500h221q79 0 123 -31.5t44 -91.5q0 -89 -91 -114q60 -12 89 -46t29 -82q0 -60 -44 -97.5t-131 -37.5h-240zM130 470v-197h173q134 0 134 99q0 98 -134 98h-173zM130 246v-216h193q74 0 107.5 31t33.5 77q0 50 -35 79t-106 29h-193z" />
    <glyph glyph-name="Bdotbelow.sc" horiz-adv-x="551" 
d="M90 0v500h221q79 0 123 -31.5t44 -91.5q0 -89 -91 -114q60 -12 89 -46t29 -82q0 -60 -44 -97.5t-131 -37.5h-240zM130 470v-197h173q134 0 134 99q0 98 -134 98h-173zM130 246v-216h193q74 0 107.5 31t33.5 77q0 50 -35 79t-106 29h-193zM289 -188q0 -24 -23 -24
q-15 0 -21 15t4 26q11 10 25.5 4.5t14.5 -21.5z" />
    <glyph glyph-name="C.sc" horiz-adv-x="580" 
d="M329 510q60 0 114 -25t91 -70l-32 -20q-69 81 -173 81q-94 0 -160 -66t-66 -160t66 -160t160 -66q105 0 173 81l32 -20q-36 -44 -90.5 -69.5t-114.5 -25.5q-110 0 -189 76q-78 76 -78 184q0 106 78 183q80 77 189 77z" />
    <glyph glyph-name="Cacute.sc" horiz-adv-x="580" 
d="M445 713l-116 -150h-37l106 150h47zM329 510q60 0 114.5 -25.5t90.5 -69.5l-32 -20q-68 81 -173 81q-94 0 -160 -66t-66 -160t66 -160t160 -66q105 0 173 81l32 -20q-36 -44 -90.5 -69.5t-114.5 -25.5q-110 0 -189 76q-78 76 -78 184q0 106 78 183q80 77 189 77z" />
    <glyph glyph-name="Ccaron.sc" horiz-adv-x="580" 
d="M460 713l-120 -150h-45l-120 150h37l106 -127l106 127h36zM329 510q60 0 114 -25t91 -70l-32 -20q-69 81 -173 81q-94 0 -160 -66t-66 -160t66 -160t160 -66q105 0 173 81l32 -20q-36 -44 -90.5 -69.5t-114.5 -25.5q-110 0 -189 76q-78 76 -78 184q0 106 78 183
q80 77 189 77z" />
    <glyph glyph-name="Ccedilla.sc" horiz-adv-x="580" 
d="M329 510q60 0 114.5 -25.5t90.5 -69.5l-32 -20q-69 81 -173 81q-94 0 -160 -66t-66 -160t66 -160t160 -66q105 0 173 81l32 -20q-33 -41 -85.5 -66.5t-109.5 -27.5q-23 -1 -56 4l-23 -46q21 11 47 9q34 -1 58 -24t24 -56q0 -38 -30 -62.5t-75 -24.5q-55 0 -96 22l10 19
q34 -18 81 -18q35 0 58 19.5t23 47.5q0 27 -19 44.5t-47 17.5q-35 0 -57 -22l-12 10l33 68q-86 23 -141 93t-55 158q0 106 78 183q80 77 189 77z" />
    <glyph glyph-name="Cdotaccent.sc" horiz-adv-x="580" 
d="M341 647q0 -10 -6.5 -16.5t-16.5 -6.5q-15 0 -22 15t5 25q11 11 25.5 5t14.5 -22zM329 510q60 0 114 -25t91 -70l-32 -20q-69 81 -173 81q-94 0 -160 -66t-66 -160t66 -160t160 -66q105 0 173 81l32 -20q-36 -44 -90.5 -69.5t-114.5 -25.5q-110 0 -189 76q-78 76 -78 184
q0 106 78 183q80 77 189 77z" />
    <glyph glyph-name="D.sc" horiz-adv-x="609" 
d="M90 0v500h190q111 0 188 -73q78 -72 78 -177q0 -104 -78 -178q-78 -72 -188 -72h-190zM279 468h-149v-436h149q95 0 160 62q65 63 65 156t-65 155q-64 63 -160 63z" />
    <glyph glyph-name="Dcaron.sc" horiz-adv-x="609" 
d="M434 713l-121 -150h-44l-121 150h37l106 -127l106 127h37zM90 0v500h190q111 0 188 -73q78 -72 78 -177q0 -104 -78 -178q-78 -72 -188 -72h-190zM279 468h-149v-436h149q95 0 160 62q65 63 65 156t-65 155q-64 63 -160 63z" />
    <glyph glyph-name="Dcircumflexbelow.sc" horiz-adv-x="609" 
d="M90 0v500h190q111 0 188 -73q78 -72 78 -177q0 -104 -78 -178q-78 -72 -188 -72h-190zM279 468h-149v-436h149q95 0 160 62q65 63 65 156t-65 155q-64 63 -160 63zM302 -62l121 -150h-37l-106 127l-106 -127h-37l121 150h44z" />
    <glyph glyph-name="Dcroat.sc" horiz-adv-x="609" 
d="M92 264v236h190q111 0 188 -73q78 -72 78 -177q0 -104 -78 -178q-78 -72 -188 -72h-190v236h-92v28h92zM132 236v-204h149q95 0 160 62q65 63 65 156t-65 155q-64 63 -160 63h-149v-204h201v-28h-201z" />
    <glyph glyph-name="Ddotbelow.sc" horiz-adv-x="609" 
d="M90 0v500h190q111 0 188 -73q78 -72 78 -177q0 -104 -78 -178q-78 -72 -188 -72h-190zM279 468h-149v-436h149q95 0 160 62q65 63 65 156t-65 155q-64 63 -160 63zM263 -171q17 14 33 -2t0 -32q-9 -11 -21.5 -6.5t-16 16.5t4.5 24z" />
    <glyph glyph-name="Dlinebelow.sc" horiz-adv-x="609" 
d="M90 0v500h190q111 0 188 -73q78 -72 78 -177q0 -104 -78 -178q-78 -72 -188 -72h-190zM279 468h-149v-436h149q95 0 160 62q65 63 65 156t-65 155q-64 63 -160 63zM415 -136v-28h-269v28h269z" />
    <glyph glyph-name="E.sc" horiz-adv-x="512" 
d="M458 500v-31h-328v-201h302v-29h-302v-208h336v-31h-376v500h368z" />
    <glyph glyph-name="Eacute.sc" horiz-adv-x="512" 
d="M458 500v-31h-328v-201h302v-29h-302v-208h336v-31h-376v500h368zM405 713l-116 -150h-38l106 150h48z" />
    <glyph glyph-name="Ecaron.sc" horiz-adv-x="512" 
d="M420 713l-120 -150h-45l-120 150h36l106 -127l106 127h37zM458 500v-31h-328v-201h302v-29h-302v-208h336v-31h-376v500h368z" />
    <glyph glyph-name="Ecircumflex.sc" horiz-adv-x="512" 
d="M300 713l120 -150h-37l-106 126l-106 -126h-36l120 150h45zM458 500v-31h-328v-201h302v-29h-302v-208h336v-31h-376v500h368z" />
    <glyph glyph-name="Ecircumflexdotbelow.sc" horiz-adv-x="512" 
d="M300 713l120 -150h-37l-106 126l-106 -126h-36l120 150h45zM458 500v-31h-328v-201h302v-29h-302v-208h336v-31h-376v500h368zM238 -171q17 15 34 -1t0 -33t-33 0t-1 34z" />
    <glyph glyph-name="Edieresis.sc" horiz-adv-x="512" 
d="M156 664q10 10 23 5.5t16 -16t-6 -23.5q-6 -6 -16 -6t-17 6q-6 7 -6 17.5t6 16.5zM382 671q15 0 21.5 -14.5t-5.5 -26.5q-10 -10 -24.5 -4t-14.5 21q0 24 23 24zM458 500v-31h-328v-201h302v-29h-302v-208h336v-31h-376v500h368z" />
    <glyph glyph-name="Edotaccent.sc" horiz-adv-x="512" 
d="M260 664q17 17 34 0t0 -34q-7 -6 -17 -6t-17 6q-6 7 -6 17.5t6 16.5zM458 500v-31h-328v-201h302v-29h-302v-208h336v-31h-376v500h368z" />
    <glyph glyph-name="Edotbelow.sc" horiz-adv-x="512" 
d="M458 500v-31h-328v-201h302v-29h-302v-208h336v-31h-376v500h368zM238 -171q17 15 34 -1t0 -33t-33 0t-1 34z" />
    <glyph glyph-name="Egrave.sc" horiz-adv-x="512" 
d="M458 500v-31h-328v-201h302v-29h-302v-208h336v-31h-376v500h368zM197 713l106 -150h-38l-116 150h48z" />
    <glyph glyph-name="Emacron.sc" horiz-adv-x="512" 
d="M458 500v-31h-328v-201h302v-29h-302v-208h336v-31h-376v500h368zM412 662v-29h-269v29h269z" />
    <glyph glyph-name="Eogonek.sc" horiz-adv-x="512" 
d="M458 500v-31h-328v-201h302v-29h-302v-208h336v-31h-98l-22 -29q-31 -40 -30 -76q1 -30 23 -49t54 -19q37 0 65 24l12 -21q-37 -29 -83 -29q-42 0 -70 23t-30 59q-4 41 34 95l17 22h-248v500h368z" />
    <glyph glyph-name="Eth.sc" horiz-adv-x="609" 
d="M92 264v236h190q111 0 188 -73q78 -72 78 -177q0 -104 -78 -178q-78 -72 -188 -72h-190v236h-92v28h92zM132 236v-204h149q95 0 160 62q65 63 65 156t-65 155q-64 63 -160 63h-149v-204h201v-28h-201z" />
    <glyph glyph-name="Etilde.sc" horiz-adv-x="512" 
d="M196 702q29 -1 75 -33q44 -32 73 -35q60 -6 78 65l22 -4q-7 -43 -33.5 -68t-62.5 -23q-36 4 -81 36q-38 26 -67 32q-25 3 -42.5 -14t-23.5 -50l-23 3q5 45 28 69t57 22zM458 500v-31h-328v-201h302v-29h-302v-208h336v-31h-376v500h368z" />
    <glyph glyph-name="F.sc" horiz-adv-x="486" 
d="M440 500v-32h-310v-211h284v-30h-284v-227h-40v500h350z" />
    <glyph glyph-name="G.sc" horiz-adv-x="624" 
d="M331 510q107 0 183 -70l-25 -23q-68 59 -158 59q-95 0 -162 -66q-66 -66 -66 -160t66 -160t160 -66q99 0 170 62v137h-173v25h211v-179q-82 -79 -208 -79q-110 0 -189 76q-78 76 -78 184q0 109 79 184q79 76 190 76z" />
    <glyph glyph-name="Gbreve.sc" horiz-adv-x="624" 
d="M441 709l31 -1q-3 -62 -45.5 -98.5t-109.5 -36.5q-66 0 -108.5 36.5t-46.5 98.5l31 1q4 -50 37 -78.5t87 -28.5t87.5 28.5t36.5 78.5zM331 510q107 0 183 -70l-25 -23q-68 59 -158 59q-95 0 -162 -66q-66 -66 -66 -160t66 -160t160 -66q99 0 170 62v137h-173v25h211v-179
q-82 -79 -208 -79q-110 0 -189 76q-78 76 -78 184q0 109 79 184q79 76 190 76z" />
    <glyph glyph-name="Gcaron.sc" horiz-adv-x="624" 
d="M459 713l-120 -150h-45l-120 150h37l106 -127l106 127h36zM331 510q107 0 183 -70l-25 -23q-68 59 -158 59q-95 0 -162 -66q-66 -66 -66 -160t66 -160t160 -66q99 0 170 62v137h-173v25h211v-179q-85 -79 -208 -79q-110 0 -189 76q-78 76 -78 184q0 109 79 184
q79 76 190 76z" />
    <glyph glyph-name="Gcommaaccent.sc" horiz-adv-x="624" 
d="M331 510q107 0 183 -70l-25 -23q-68 59 -158 59q-95 0 -162 -66q-66 -66 -66 -160t66 -160t160 -66q99 0 170 62v137h-173v25h211v-179q-82 -79 -208 -79q-110 0 -189 76q-78 76 -78 184q0 109 79 184q79 76 190 76zM356 -102q0 -8 -4 -13l-69 -110l-15 7l51 94
q-15 6 -15 22q0 23 26 23t26 -23z" />
    <glyph glyph-name="Gdotaccent.sc" horiz-adv-x="624" 
d="M300 664q10 10 23 5.5t16 -16t-6 -23.5q-9 -9 -22.5 -4.5t-17 16t6.5 22.5zM331 510q107 0 183 -70l-25 -23q-68 59 -158 59q-95 0 -162 -66q-66 -66 -66 -160t66 -160t160 -66q99 0 170 62v137h-173v25h211v-179q-82 -79 -208 -79q-110 0 -189 76q-78 76 -78 184
q0 109 79 184q79 76 190 76z" />
    <glyph glyph-name="H.sc" horiz-adv-x="617" 
d="M526 500v-500h-41v236h-354v-236h-41v500h41v-230h354v230h41z" />
    <glyph glyph-name="Hbar.sc" horiz-adv-x="617" 
d="M617 405v-25h-90v-380h-41v236h-354v-236h-41v380h-91v25h91v95h41v-95h354v95h41v-95h90zM486 270v110h-354v-110h354z" />
    <glyph glyph-name="Hdotbelow.sc" horiz-adv-x="617" 
d="M526 500v-500h-41v236h-354v-236h-41v500h41v-230h354v230h41zM291 -171q17 15 34 -1t0 -33t-33 0t-1 34z" />
    <glyph glyph-name="I.sc" horiz-adv-x="222" 
d="M131 500v-500h-41v500h41z" />
    <glyph glyph-name="IJ.sc" horiz-adv-x="669" 
d="M131 500v-500h-41v500h41zM537 500h40v-327q0 -89 -45 -136t-125 -47q-99 0 -158 68l31 20q51 -53 126 -53q61 0 96 37.5t35 107.5v330z" />
    <glyph glyph-name="Iacute.sc" horiz-adv-x="222" 
d="M239 713l-116 -150h-38l106 150h48zM132 500v-500h-41v500h41z" />
    <glyph glyph-name="Icircumflex.sc" horiz-adv-x="222" 
d="M134 713l120 -150h-37l-106 126l-106 -126h-36l120 150h45zM132 500v-500h-41v500h41z" />
    <glyph glyph-name="Idieresis.sc" horiz-adv-x="222" 
d="M-9 664q10 10 23 5.5t16 -16t-6 -23.5q-9 -9 -22.5 -4.5t-17 16t6.5 22.5zM200 664q10 10 23 5.5t16 -16t-6 -23.5q-9 -9 -22.5 -4.5t-17 16t6.5 22.5zM133 500v-500h-41v500h41z" />
    <glyph glyph-name="Idieresisacute.sc" horiz-adv-x="222" 
d="M240 865l-116 -149h-38l106 149h48zM-9 638q10 10 23 5.5t16 -16t-6 -23.5q-9 -9 -22.5 -4.5t-17 16t6.5 22.5zM200 638q10 10 23 5.5t16 -16t-6 -23.5q-9 -9 -22.5 -4.5t-17 16t6.5 22.5zM133 500v-500h-41v500h41z" />
    <glyph glyph-name="Idotaccent.sc" horiz-adv-x="222" 
d="M93 664q17 17 34 0t0 -34q-7 -6 -17 -6t-17 6q-6 7 -6 17.5t6 16.5zM131 500v-500h-41v500h41z" />
    <glyph glyph-name="Igrave.sc" horiz-adv-x="222" 
d="M32 713l106 -150h-38l-116 150h48zM133 500v-500h-41v500h41z" />
    <glyph glyph-name="Imacron.sc" horiz-adv-x="222" 
d="M132 500v-500h-41v500h41zM246 662v-29h-269v29h269z" />
    <glyph glyph-name="Iogonek.sc" horiz-adv-x="222" 
d="M136 500v-504l-27 -33q-31 -42 -30 -78q0 -30 22 -49t55 -19q37 0 65 24l12 -21q-37 -29 -83 -29q-41 0 -70 23t-30 59q-5 44 34 96l17 22l-6 9v500h41z" />
    <glyph glyph-name="Itilde.sc" horiz-adv-x="222" 
d="M31 702q29 -1 75 -33q44 -32 73 -35q28 -3 48.5 13.5t29.5 51.5l22 -4q-7 -43 -33.5 -68t-62.5 -23q-36 4 -81 36q-45 29 -59 31q-4 1 -9 1q-24 3 -41.5 -14t-23.5 -50l-23 3q5 45 28 69t57 22zM133 500v-500h-41v500h41z" />
    <glyph glyph-name="J.sc" horiz-adv-x="446" 
d="M315 500h41v-327q0 -89 -45 -136t-125 -47q-100 0 -159 68l31 20q53 -53 126 -53q60 0 95.5 37.5t35.5 107.5v330z" />
    <glyph glyph-name="K.sc" horiz-adv-x="536" 
d="M494 500l-195 -195l209 -305h-49l-188 274l-140 -137v-137h-41v500h41v-307l311 307h52z" />
    <glyph glyph-name="Kcommaaccent.sc" horiz-adv-x="536" 
d="M494 500l-195 -195l209 -305h-49l-188 274l-140 -137v-137h-41v500h41v-307l311 307h52zM311 -102q0 -7 -3 -13l-70 -110l-15 7l51 94q-15 6 -15 22q0 23 26 23t26 -23z" />
    <glyph glyph-name="L.sc" horiz-adv-x="453" 
d="M131 500v-468h294v-32h-335v500h41z" />
    <glyph glyph-name="Lacute.sc" horiz-adv-x="453" 
d="M362 713l-116 -150h-38l106 150h48zM131 500v-468h294v-32h-335v500h41z" />
    <glyph glyph-name="Lcaron.sc" horiz-adv-x="453" 
d="M382 486q0 -7 -3 -13l-70 -110l-15 7l51 94q-15 6 -15 22q0 23 26 23t26 -23zM131 500v-468h294v-32h-335v500h41z" />
    <glyph glyph-name="Lcircumflexbelow.sc" horiz-adv-x="453" 
d="M268 -62l121 -150h-37l-106 127l-106 -127h-37l120 150h45zM131 500v-468h294v-32h-335v500h41z" />
    <glyph glyph-name="Lcommaaccent.sc" horiz-adv-x="453" 
d="M131 500v-468h294v-32h-335v500h41zM264 -78q11 0 18.5 -7t7.5 -17q0 -8 -4 -13l-69 -110l-15 7l51 94q-15 6 -15 22q0 10 7.5 17t18.5 7z" />
    <glyph glyph-name="Ldot.sc" horiz-adv-x="453" 
d="M131 500v-468h294v-32h-335v500h41zM336 300q0 -11 -8.5 -18.5t-19.5 -7.5q-17 0 -24.5 13t-0.5 26q11 17 32 12t21 -25z" />
    <glyph glyph-name="Lslash.sc" horiz-adv-x="453" 
d="M132 32h294v-32h-335v253l-92 -68v38l92 68v209h41v-178l114 84v-38l-114 -85v-251z" />
    <glyph glyph-name="M.sc" horiz-adv-x="758" 
d="M666 500v-500h-40v444l-238 -399h-25l-238 399v-444h-40v500h52l238 -399l239 399h52z" />
    <glyph glyph-name="Macute.sc" horiz-adv-x="758" 
d="M666 500v-500h-40v444l-238 -399h-25l-238 399v-444h-40v500h52l238 -399l239 399h52zM503 713l-116 -150h-38l106 150h48z" />
    <glyph glyph-name="N.sc" horiz-adv-x="607" 
d="M521 500v-500h-46l-350 440v-440h-40v500h46l349 -440v440h41z" />
    <glyph glyph-name="Nacute.sc" horiz-adv-x="607" 
d="M430 713l-116 -150h-37l105 150h48zM521 500v-500h-46l-350 440v-440h-40v500h46l349 -440v440h41z" />
    <glyph glyph-name="Ncaron.sc" horiz-adv-x="607" 
d="M445 713l-120 -150h-45l-120 150h36l106 -127l107 127h36zM521 500v-500h-46l-350 440v-440h-40v500h46l349 -440v440h41z" />
    <glyph glyph-name="Ncircumflexbelow.sc" horiz-adv-x="607" 
d="M521 500v-500h-46l-350 440v-440h-40v500h46l349 -440v440h41zM325 -62l120 -150h-36l-106 127l-106 -127h-37l120 150h45z" />
    <glyph glyph-name="Ncommaaccent.sc" horiz-adv-x="607" 
d="M521 500v-500h-46l-350 440v-440h-40v500h46l349 -440v440h41zM347 -102q0 -8 -4 -13l-70 -110l-14 7l50 94q-14 6 -14 22q0 23 26 23t26 -23z" />
    <glyph glyph-name="Ndotaccent.sc" horiz-adv-x="607" 
d="M326 647q0 -10 -6.5 -16.5t-16.5 -6.5q-15 0 -22 15t5 25q11 11 25.5 5t14.5 -22zM521 500v-500h-46l-350 440v-440h-40v500h46l349 -440v440h41z" />
    <glyph glyph-name="Ndotbelow.sc" horiz-adv-x="607" 
d="M521 500v-500h-46l-350 440v-440h-40v500h46l349 -440v440h41zM326 -188q0 -10 -6.5 -17t-16.5 -7q-16 0 -22 15t5 26q11 10 25.5 4.5t14.5 -21.5z" />
    <glyph glyph-name="Ntilde.sc" horiz-adv-x="607" 
d="M221 702q31 -1 75 -33q46 -32 73 -35q60 -6 78 65l22 -4q-7 -43 -33.5 -68t-62.5 -23q-36 4 -81 36q-45 29 -59 31q-3 1 -8 1q-24 3 -42 -14t-24 -50l-23 3q5 45 28 69t57 22zM521 500v-500h-46l-350 440v-440h-40v500h46l349 -440v440h41z" />
    <glyph glyph-name="O.sc" horiz-adv-x="658" 
d="M594 250q0 -108 -78 -184q-77 -76 -188 -76t-188 76q-78 76 -78 184q0 107 78 183.5t188 76.5t188 -76.5t78 -183.5zM487 410q-65 66 -159 66t-160 -66q-65 -67 -65 -160t65 -160q66 -66 160 -66t159 66q66 66 66 160t-66 160z" />
    <glyph glyph-name="OE.sc" horiz-adv-x="979" 
d="M328 510q78 0 140 -44q63 -43 88 -112v146h369v-31h-328v-201h302v-29h-302v-208h335v-31h-376v146q-26 -70 -88 -113q-61 -43 -140 -43q-111 0 -188 76q-78 76 -78 184q0 107 78 183.5t188 76.5zM487 410q-65 66 -159 66t-160 -66q-65 -67 -65 -160t65 -160
q66 -66 160 -66t159 66q66 66 66 160t-66 160z" />
    <glyph glyph-name="Oacute.sc" horiz-adv-x="658" 
d="M594 250q0 -108 -78 -184q-77 -76 -188 -76t-188 76q-78 76 -78 184q0 107 78 183.5t188 76.5t188 -76.5t78 -183.5zM487 410q-65 66 -159 66t-160 -66q-65 -67 -65 -160t65 -160q66 -66 160 -66t159 66q66 66 66 160t-66 160zM456 713l-116 -150h-38l106 150h48z" />
    <glyph glyph-name="Ocaron.sc" horiz-adv-x="658" 
d="M471 713l-120 -150h-45l-121 150h37l106 -127l106 127h37zM328 510q107 2 188 -77t78 -183q0 -108 -78 -184q-77 -76 -188 -76t-188 76q-78 76 -78 184q0 106 78 183q79 77 188 77zM487 410q-65 66 -159 66t-160 -66q-65 -67 -65 -160t65 -160q66 -66 160 -66t159 66
q66 66 66 160t-66 160z" />
    <glyph glyph-name="Ocircumflex.sc" horiz-adv-x="658" 
d="M351 713l120 -150h-37l-106 126l-106 -126h-36l120 150h45zM594 250q0 -108 -78 -184q-77 -76 -188 -76t-188 76q-78 76 -78 184q0 107 78 183.5t188 76.5t188 -76.5t78 -183.5zM487 410q-65 66 -159 66t-160 -66q-65 -67 -65 -160t65 -160q66 -66 160 -66t159 66
q66 66 66 160t-66 160z" />
    <glyph glyph-name="Ocircumflexdotbelow.sc" horiz-adv-x="658" 
d="M351 713l120 -150h-37l-106 126l-106 -126h-36l120 150h45zM594 250q0 -108 -78 -184q-77 -76 -188 -76t-188 76q-78 76 -78 184q0 107 78 183.5t188 76.5t188 -76.5t78 -183.5zM487 410q-65 66 -159 66t-160 -66q-65 -67 -65 -160t65 -160q66 -66 160 -66t159 66
q66 66 66 160t-66 160zM351 -188q0 -24 -23 -24q-15 0 -21 15t4 26q11 10 25.5 4.5t14.5 -21.5z" />
    <glyph glyph-name="Odieresis.sc" horiz-adv-x="658" 
d="M207 664q10 10 23 5.5t16 -16t-6 -23.5q-9 -9 -22.5 -4.5t-17 16t6.5 22.5zM433 624q-10 0 -17 6.5t-7 16.5q0 16 15 22t25 -5q12 -10 5.5 -25t-21.5 -15zM328 510q107 2 188 -77t78 -183q0 -108 -78 -184q-77 -76 -188 -76t-188 76q-78 76 -78 184q0 106 78 183
q79 77 188 77zM487 410q-65 66 -159 66t-160 -66q-65 -67 -65 -160t65 -160q66 -66 160 -66t159 66q66 66 66 160t-66 160z" />
    <glyph glyph-name="Odotbelow.sc" horiz-adv-x="658" 
d="M594 250q0 -108 -78 -184q-77 -76 -188 -76t-188 76q-78 76 -78 184q0 107 78 183.5t188 76.5t188 -76.5t78 -183.5zM487 410q-65 66 -159 66t-160 -66q-65 -67 -65 -160t65 -160q66 -66 160 -66t159 66q66 66 66 160t-66 160zM351 -188q0 -24 -23 -24q-15 0 -21 15t4 26
q11 10 25.5 4.5t14.5 -21.5z" />
    <glyph glyph-name="Ograve.sc" horiz-adv-x="658" 
d="M248 713l106 -150h-38l-116 150h48zM328 510q107 2 188 -77t78 -183q0 -108 -78 -184q-77 -76 -188 -76t-188 76q-78 76 -78 184q0 106 78 183q79 77 188 77zM487 410q-65 66 -159 66t-160 -66q-65 -67 -65 -160t65 -160q66 -66 160 -66t159 66q66 66 66 160t-66 160z
" />
    <glyph glyph-name="Ohungarumlaut.sc" horiz-adv-x="658" 
d="M383 713l-116 -150h-38l106 150h48zM555 713l-116 -150h-38l106 150h48zM594 250q0 -108 -78 -184q-77 -76 -188 -76t-188 76q-78 76 -78 184q0 107 78 183.5t188 76.5t188 -76.5t78 -183.5zM487 410q-65 66 -159 66t-160 -66q-65 -67 -65 -160t65 -160q66 -66 160 -66
t159 66q66 66 66 160t-66 160z" />
    <glyph glyph-name="Omacron.sc" horiz-adv-x="658" 
d="M594 250q0 -108 -78 -184q-77 -76 -188 -76t-188 76q-78 76 -78 184q0 107 78 183.5t188 76.5t188 -76.5t78 -183.5zM487 410q-65 66 -159 66t-160 -66q-65 -67 -65 -160t65 -160q66 -66 160 -66t159 66q66 66 66 160t-66 160zM463 662v-29h-269v29h269z" />
    <glyph glyph-name="Omacronacute.sc" horiz-adv-x="658" 
d="M456 865l-116 -149h-38l106 149h48zM463 662v-29h-269v29h269zM594 250q0 -108 -78 -184q-77 -76 -188 -76t-188 76q-78 76 -78 184q0 107 78 183.5t188 76.5t188 -76.5t78 -183.5zM487 410q-65 66 -159 66t-160 -66q-65 -67 -65 -160t65 -160q66 -66 160 -66t159 66
q66 66 66 160t-66 160z" />
    <glyph glyph-name="Omacrongrave.sc" horiz-adv-x="658" 
d="M248 865l106 -149h-38l-116 149h48zM463 662v-29h-269v29h269zM594 250q0 -108 -78 -184q-77 -76 -188 -76t-188 76q-78 76 -78 184q0 107 78 183.5t188 76.5t188 -76.5t78 -183.5zM487 410q-65 66 -159 66t-160 -66q-65 -67 -65 -160t65 -160q66 -66 160 -66t159 66
q66 66 66 160t-66 160z" />
    <glyph glyph-name="Oslash.sc" horiz-adv-x="658" 
d="M457 550h28l-33 -70q64 -33 103 -95.5t39 -134.5q0 -108 -78 -184q-77 -76 -188 -76q-53 0 -100 19l-29 -59h-28l33 70q-64 33 -103 95.5t-39 134.5q0 106 78 183q79 77 188 77q53 0 100 -19zM103 250q0 -63 31 -116t85 -82l194 407q-42 17 -85 17q-94 0 -160 -66
q-65 -67 -65 -160zM328 24q94 0 159 66q66 66 66 160q0 63 -31.5 116t-84.5 82l-194 -407q42 -17 85 -17z" />
    <glyph glyph-name="Oslashacute.sc" horiz-adv-x="658" 
d="M450 713l-116 -150h-37l105 150h48zM457 550h28l-33 -70q64 -33 103 -95.5t39 -134.5q0 -108 -78 -184q-77 -76 -188 -76q-53 0 -100 19l-29 -59h-28l33 70q-64 33 -103 95.5t-39 134.5q0 106 78 183q79 77 188 77q53 0 100 -19zM103 250q0 -63 31 -116t85 -82l194 407
q-42 17 -85 17q-94 0 -160 -66q-65 -67 -65 -160zM328 24q94 0 159 66q66 66 66 160q0 63 -31.5 116t-84.5 82l-194 -407q42 -17 85 -17z" />
    <glyph glyph-name="Otilde.sc" horiz-adv-x="658" 
d="M247 702q31 -2 75 -33q44 -32 73 -35q28 -3 48.5 13.5t29.5 51.5l22 -4q-7 -43 -33.5 -68t-62.5 -23q-36 4 -81 36q-30 20 -39.5 24t-28.5 8q-24 3 -41.5 -14t-23.5 -50l-23 3q5 45 28 69t57 22zM328 510q107 2 188 -77t78 -183q0 -108 -78 -184q-77 -76 -188 -76
t-188 76q-78 76 -78 184q0 106 78 183q79 77 188 77zM487 410q-65 66 -159 66t-160 -66q-65 -67 -65 -160t65 -160q66 -66 160 -66t159 66q66 66 66 160t-66 160z" />
    <glyph glyph-name="Otildeacute.sc" horiz-adv-x="658" 
d="M456 865l-116 -149h-38l106 149h48zM247 702q29 -1 75 -33q44 -32 73 -35q28 -3 48.5 13.5t29.5 51.5l22 -4q-7 -43 -33.5 -68t-62.5 -23q-23 1 -38.5 8.5t-42.5 27.5q-6 4 -15.5 10t-13 8.5t-10 6t-10 4.5t-8.5 2t-11 1q-24 3 -41.5 -14t-23.5 -50l-23 3q5 45 28 69
t57 22zM328 510q110 0 188 -76.5t78 -183.5q0 -108 -78 -184q-77 -76 -188 -76t-188 76q-78 76 -78 184q0 106 78 183q79 77 188 77zM487 410q-65 66 -159 66t-160 -66q-65 -67 -65 -160t65 -160q66 -66 160 -66t159 66q66 66 66 160t-66 160z" />
    <glyph glyph-name="P.sc" horiz-adv-x="552" 
d="M90 0v500h200q105 0 155.5 -41t50.5 -126q0 -164 -204 -164h-161v-169h-41zM291 467h-160v-267h161q85 0 124.5 31.5t39.5 100.5q0 71 -39 103t-126 32z" />
    <glyph glyph-name="Q.sc" horiz-adv-x="658" 
d="M328 510q109 0 188 -77q78 -77 78 -183q0 -111 -84 -189l82 -82l-18 -17l-83 83q-71 -55 -163 -55q-111 0 -188 76q-78 76 -78 184q0 107 78 183.5t188 76.5zM328 476q-92 2 -159.5 -66t-65.5 -160q0 -93 65 -160q66 -66 160 -66q77 0 137 48l-88 87l18 17l87 -87
q71 65 71 161q0 94 -66 160q-65 66 -159 66z" />
    <glyph glyph-name="R.sc" horiz-adv-x="556" 
d="M90 0v500h215q107 0 154.5 -36t47.5 -115q0 -63 -29.5 -98.5t-94.5 -47.5l145 -203h-47l-140 197q-13 -1 -42 -1h-168v-196h-41zM131 466v-240h175q87 0 123.5 28t36.5 93t-36.5 92t-123.5 27h-175z" />
    <glyph glyph-name="Racute.sc" horiz-adv-x="556" 
d="M90 0v500h215q107 0 154.5 -36t47.5 -115q0 -63 -29.5 -98.5t-94.5 -47.5l145 -203h-47l-140 197q-13 -1 -42 -1h-168v-196h-41zM131 466v-240h175q87 0 123.5 28t36.5 93t-36.5 92t-123.5 27h-175zM405 713l-116 -150h-38l106 150h48z" />
    <glyph glyph-name="Rcaron.sc" horiz-adv-x="556" 
d="M420 713l-121 -150h-44l-121 150h37l106 -127l106 127h37zM90 0v500h215q107 0 154.5 -36t47.5 -115q0 -63 -29.5 -98.5t-94.5 -47.5l145 -203h-47l-140 197q-13 -1 -42 -1h-168v-196h-41zM131 466v-240h175q87 0 123.5 28t36.5 93t-36.5 92t-123.5 27h-175z" />
    <glyph glyph-name="Rcommaaccent.sc" horiz-adv-x="556" 
d="M90 0v500h215q107 0 154.5 -36t47.5 -115q0 -63 -29.5 -98.5t-94.5 -47.5l145 -203h-47l-140 197q-13 -1 -42 -1h-168v-196h-41zM131 466v-240h175q87 0 123.5 28t36.5 93t-36.5 92t-123.5 27h-175zM321 -102q0 -8 -4 -13l-69 -110l-15 7l51 94q-15 6 -15 22q0 23 26 23
t26 -23z" />
    <glyph glyph-name="S.sc" horiz-adv-x="511" 
d="M247 510q115 0 195 -54l-16 -27q-80 50 -179 50q-63 0 -102 -26.5t-39 -75.5q0 -34 28 -55q29 -20 109 -42q3 0 7 -1t10.5 -3t10.5 -3l47 -13q51 -13 75 -27q39 -23 47 -41q17 -30 17 -66q0 -66 -56 -102q-56 -35 -138 -35q-128 2 -219 62l17 27q84 -56 200 -58
q69 0 112.5 26.5t43.5 75.5q0 51 -29 70q-22 17 -50 26q-31 10 -75 21l-30 8q-94 25 -131 52t-37 75q0 65 50.5 100.5t131.5 35.5z" />
    <glyph glyph-name="Sacute.sc" horiz-adv-x="511" 
d="M383 713l-116 -150h-37l106 150h47zM247 510q115 0 195 -54l-16 -27q-80 50 -179 50q-63 0 -102 -26.5t-39 -75.5q0 -34 28 -55q29 -20 109 -42q3 0 7 -1t10.5 -3t10.5 -3l47 -13q51 -13 75 -27q39 -23 47 -41q17 -30 17 -66q0 -66 -56 -102q-56 -35 -138 -35
q-128 2 -219 62l17 27q84 -56 200 -58q69 0 112.5 26.5t43.5 75.5q0 51 -29 70q-22 17 -50 26q-31 10 -75 21l-30 8q-94 25 -131 52t-37 75q0 65 50.5 100.5t131.5 35.5z" />
    <glyph glyph-name="Scaron.sc" horiz-adv-x="511" 
d="M398 713l-120 -150h-45l-120 150h37l106 -127l106 127h36zM247 510q115 0 195 -54l-16 -27q-77 50 -179 50q-63 0 -102 -26.5t-39 -75.5q0 -35 27.5 -55t109.5 -42q3 0 7 -1t10.5 -3t10.5 -3l47 -13q51 -13 75 -27q39 -23 47 -41q17 -30 17 -66q0 -66 -56 -102
q-56 -35 -138 -35q-128 2 -219 62l17 27q84 -56 200 -58q69 0 112.5 26.5t43.5 75.5q0 51 -29 70q-22 17 -50 26q-31 10 -75 21l-30 8q-95 25 -131.5 52t-36.5 75q0 65 50.5 100.5t131.5 35.5z" />
    <glyph glyph-name="Scedilla.sc" horiz-adv-x="511" 
d="M247 510q115 0 195 -54l-16 -27q-77 50 -179 50q-63 0 -102 -26.5t-39 -75.5q0 -34 28 -55q29 -20 109 -42l28 -7l47 -13q51 -13 75 -27q39 -23 47 -41q17 -30 17 -66q0 -66 -55 -100q-54 -34 -134 -36h-20l-21 -41q21 11 47 9q35 -1 58.5 -23.5t23.5 -56.5
q0 -39 -30 -63t-75 -24q-55 0 -95 22l9 19q35 -18 81 -18q35 0 58 19.5t23 47.5q0 27 -19 44.5t-47 17.5q-35 0 -57 -22l-12 10l30 61q-109 11 -178 59l17 27q84 -56 200 -58q69 0 112.5 26.5t43.5 75.5q0 51 -29 70q-22 17 -50 26q-31 10 -75 21l-30 8q-94 25 -131 52
t-37 75q0 65 50.5 100.5t131.5 35.5z" />
    <glyph glyph-name="Scommaaccent.sc" horiz-adv-x="511" 
d="M247 510q115 0 195 -54l-16 -27q-80 50 -179 50q-63 0 -102 -26.5t-39 -75.5q0 -34 28 -55q29 -20 109 -42q3 0 7 -1t10.5 -3t10.5 -3l47 -13q51 -13 75 -27q39 -23 47 -41q17 -30 17 -66q0 -66 -56 -102q-56 -35 -138 -35q-128 2 -219 62l17 27q84 -56 200 -58
q69 0 112.5 26.5t43.5 75.5q0 51 -29 70q-22 17 -50 26q-31 10 -75 21l-30 8q-94 25 -131 52t-37 75q0 65 50.5 100.5t131.5 35.5zM300 -102q0 -8 -4 -13l-69 -110l-15 7l50 94q-14 6 -14 22q0 23 26 23t26 -23z" />
    <glyph glyph-name="Sdotbelow.sc" horiz-adv-x="511" 
d="M247 510q115 0 195 -54l-16 -27q-80 50 -179 50q-63 0 -102 -26.5t-39 -75.5q0 -34 28 -55q29 -20 109 -42q3 0 7 -1t10.5 -3t10.5 -3l47 -13q51 -13 75 -27q39 -23 47 -41q17 -30 17 -66q0 -66 -56 -102q-56 -35 -138 -35q-128 2 -219 62l17 27q84 -56 200 -58
q69 0 112.5 26.5t43.5 75.5q0 51 -29 70q-22 17 -50 26q-31 10 -75 21l-30 8q-94 25 -131 52t-37 75q0 65 50.5 100.5t131.5 35.5zM239 -171q17 14 33 -2t0 -32q-9 -10 -22 -5.5t-16.5 16t5.5 23.5z" />
    <glyph glyph-name="T.sc" horiz-adv-x="458" 
d="M431 500v-31h-182v-469h-41v469h-181v31h404z" />
    <glyph glyph-name="T_h" horiz-adv-x="1253" 
d="M45 700h681v-282q109 92 246 92q86 0 137 -52t51 -144v-314h-40v305q0 81 -42.5 126t-116.5 45q-137 0 -235 -91v-385h-40v662h-344v-662h-44v662h-253v38z" />
    <glyph glyph-name="Tbar.sc" horiz-adv-x="458" 
d="M249 469v-186h114v-28h-114v-255h-41v255h-114v28h114v186h-181v31h404v-31h-182z" />
    <glyph glyph-name="Tcaron.sc" horiz-adv-x="458" 
d="M371 713l-120 -150h-45l-120 150h36l106 -127l107 127h36zM431 500v-31h-182v-469h-41v469h-181v31h404z" />
    <glyph glyph-name="Tcedilla.sc" horiz-adv-x="458" 
d="M431 500v-31h-182v-472l-10 -6l-23 -48q23 11 46 10q36 -2 59 -24.5t23 -55.5q0 -39 -29.5 -63.5t-74.5 -24.5q-56 0 -96 22l9 20q35 -18 81 -18q35 0 58 19.5t23 47.5q0 27 -18 43.5t-47 18.5q-36 0 -58 -22l-12 10l33 65l-5 9v469h-181v31h404z" />
    <glyph glyph-name="Tcircumflexbelow.sc" horiz-adv-x="458" 
d="M431 500v-31h-182v-469h-41v469h-181v31h404zM251 -62l120 -150h-36l-106 127l-106 -127h-37l120 150h45z" />
    <glyph glyph-name="Tdotbelow.sc" horiz-adv-x="458" 
d="M431 500v-31h-182v-469h-41v469h-181v31h404zM212 -171q17 14 33 -2t0 -32q-9 -10 -22 -5.5t-16.5 16t5.5 23.5z" />
    <glyph glyph-name="Thorn.sc" horiz-adv-x="552" 
d="M131 500v-62h159q105 0 155.5 -41.5t50.5 -125.5t-50.5 -124t-153.5 -40h-161v-107h-41v500h41zM291 405h-160v-268h161q85 0 124.5 32t39.5 101q0 70 -39 102.5t-126 32.5z" />
    <glyph glyph-name="Tlinebelow.sc" horiz-adv-x="458" 
d="M431 500v-31h-182v-469h-41v469h-181v31h404zM363 -136v-28h-269v28h269z" />
    <glyph glyph-name="U.sc" horiz-adv-x="616" 
d="M488 500h41v-281q0 -107 -59.5 -168t-160.5 -61q-100 0 -159.5 61t-59.5 168v281h41v-281q0 -92 48.5 -143.5t129.5 -51.5q82 0 130.5 51.5t48.5 143.5v281z" />
    <glyph glyph-name="Uacute.sc" horiz-adv-x="616" 
d="M435 713l-117 -150h-37l106 150h48zM488 500h41v-281q0 -107 -59.5 -168t-160.5 -61q-100 0 -159.5 61t-59.5 168v281h41v-281q0 -92 48.5 -143.5t129.5 -51.5q82 0 130.5 51.5t48.5 143.5v281z" />
    <glyph glyph-name="Ucaron.sc" horiz-adv-x="616" 
d="M450 713l-121 -150h-45l-120 150h37l106 -127l106 127h37zM488 500h41v-281q0 -107 -59.5 -168t-160.5 -61q-100 0 -159.5 61t-59.5 168v281h41v-281q0 -92 48.5 -143.5t129.5 -51.5q82 0 130.5 51.5t48.5 143.5v281z" />
    <glyph glyph-name="Ucircumflex.sc" horiz-adv-x="616" 
d="M329 713l121 -150h-37l-106 126l-106 -126h-37l120 150h45zM488 500h41v-281q0 -107 -59.5 -168t-160.5 -61q-100 0 -159.5 61t-59.5 168v281h41v-281q0 -92 48.5 -143.5t129.5 -51.5q82 0 130.5 51.5t48.5 143.5v281z" />
    <glyph glyph-name="Udieresis.sc" horiz-adv-x="616" 
d="M185 664q17 17 34 0t0 -34q-7 -6 -17 -6t-17 6q-6 7 -6 17.5t6 16.5zM411 671q15 0 22 -14.5t-5 -26.5q-11 -10 -25.5 -4t-14.5 21q0 10 6.5 17t16.5 7zM488 500h41v-281q0 -107 -59.5 -168t-160.5 -61q-100 0 -159.5 61t-59.5 168v281h41v-281q0 -92 48.5 -143.5
t129.5 -51.5q82 0 130.5 51.5t48.5 143.5v281z" />
    <glyph glyph-name="Udieresisacute.sc" horiz-adv-x="616" 
d="M435 865l-117 -149h-37l106 149h48zM185 638q17 17 34 0t0 -34q-7 -6 -17 -6t-17 6q-6 7 -6 17.5t6 16.5zM411 645q15 0 22 -14.5t-5 -26.5q-11 -10 -25.5 -4t-14.5 21q0 10 6.5 17t16.5 7zM488 500h41v-281q0 -107 -59.5 -168t-160.5 -61q-100 0 -159.5 61t-59.5 168
v281h41v-281q0 -92 48.5 -143.5t129.5 -51.5q82 0 130.5 51.5t48.5 143.5v281z" />
    <glyph glyph-name="Udieresiscaron.sc" horiz-adv-x="616" 
d="M450 865l-121 -149h-45l-120 149h37l106 -126l106 126h37zM185 638q17 17 34 0t0 -34q-7 -6 -17 -6t-17 6q-6 7 -6 17.5t6 16.5zM411 645q15 0 22 -14.5t-5 -26.5q-11 -10 -25.5 -4t-14.5 21q0 10 6.5 17t16.5 7zM488 500h41v-281q0 -107 -59.5 -168t-160.5 -61
q-100 0 -159.5 61t-59.5 168v281h41v-281q0 -92 48.5 -143.5t129.5 -51.5q82 0 130.5 51.5t48.5 143.5v281z" />
    <glyph glyph-name="Udieresisgrave.sc" horiz-adv-x="616" 
d="M226 865l106 -149h-37l-116 149h47zM185 638q17 17 34 0t0 -34q-7 -6 -17 -6t-17 6q-6 7 -6 17.5t6 16.5zM411 645q15 0 22 -14.5t-5 -26.5q-11 -10 -25.5 -4t-14.5 21q0 10 6.5 17t16.5 7zM488 500h41v-281q0 -107 -59.5 -168t-160.5 -61q-100 0 -159.5 61t-59.5 168
v281h41v-281q0 -92 48.5 -143.5t129.5 -51.5q82 0 130.5 51.5t48.5 143.5v281z" />
    <glyph glyph-name="Udieresismacron.sc" horiz-adv-x="616" 
d="M441 744v-28h-269v28h269zM185 638q17 17 34 0t0 -34q-7 -6 -17 -6t-17 6q-6 7 -6 17.5t6 16.5zM411 645q15 0 22 -14.5t-5 -26.5q-11 -10 -25.5 -4t-14.5 21q0 10 6.5 17t16.5 7zM488 500h41v-281q0 -107 -59.5 -168t-160.5 -61q-100 0 -159.5 61t-59.5 168v281h41v-281
q0 -92 48.5 -143.5t129.5 -51.5q82 0 130.5 51.5t48.5 143.5v281z" />
    <glyph glyph-name="Udotbelow.sc" horiz-adv-x="616" 
d="M488 500h41v-281q0 -107 -59.5 -168t-160.5 -61q-100 0 -159.5 61t-59.5 168v281h41v-281q0 -92 48.5 -143.5t129.5 -51.5q82 0 130.5 51.5t48.5 143.5v281zM333 -188q0 -10 -6.5 -17t-17.5 -7q-15 0 -21 15t4 26q11 10 26 4t15 -21z" />
    <glyph glyph-name="Ugrave.sc" horiz-adv-x="616" 
d="M226 713l106 -150h-37l-116 150h47zM488 500h41v-281q0 -107 -59.5 -168t-160.5 -61q-100 0 -159.5 61t-59.5 168v281h41v-281q0 -92 48.5 -143.5t129.5 -51.5q82 0 130.5 51.5t48.5 143.5v281z" />
    <glyph glyph-name="Uhungarumlaut.sc" horiz-adv-x="616" 
d="M361 713l-116 -150h-37l106 150h47zM533 713l-116 -150h-37l105 150h48zM488 500h41v-281q0 -107 -59.5 -168t-160.5 -61q-100 0 -159.5 61t-59.5 168v281h41v-281q0 -92 48.5 -143.5t129.5 -51.5q82 0 130.5 51.5t48.5 143.5v281z" />
    <glyph glyph-name="Umacron.sc" horiz-adv-x="616" 
d="M488 500h41v-281q0 -107 -59.5 -168t-160.5 -61q-100 0 -159.5 61t-59.5 168v281h41v-281q0 -92 48.5 -143.5t129.5 -51.5q82 0 130.5 51.5t48.5 143.5v281zM441 662v-29h-269v29h269z" />
    <glyph glyph-name="Uogonek.sc" horiz-adv-x="616" 
d="M488 500h41v-281q0 -157 -118 -209l-26 -33q-33 -41 -31 -78q0 -30 22 -49t55 -19q37 0 65 24l12 -21q-37 -29 -83 -29q-41 0 -70 23t-30 59q-4 42 32 92l15 19q-35 -8 -68 -8q-99 2 -156.5 62.5t-57.5 166.5v281h41v-281q0 -92 48.5 -143.5t129.5 -51.5q82 0 130.5 51.5
t48.5 143.5v281z" />
    <glyph glyph-name="Uring.sc" horiz-adv-x="616" 
d="M227 723q33 32 79.5 32t79.5 -32q33 -31 33 -78t-33 -78q-33 -32 -79.5 -32t-79.5 32q-33 31 -33 78t33 78zM307 731q-36 0 -61.5 -25.5t-25.5 -60.5t25.5 -60.5t61.5 -25.5q35 0 61 25.5t26 60.5t-25.5 60.5t-61.5 25.5zM488 500h41v-281q0 -107 -59.5 -168t-160.5 -61
q-100 0 -159.5 61t-59.5 168v281h41v-281q0 -92 48.5 -143.5t129.5 -51.5q82 0 130.5 51.5t48.5 143.5v281z" />
    <glyph glyph-name="Utilde.sc" horiz-adv-x="616" 
d="M225 702q30 -1 76 -33q44 -32 72 -35q29 -3 50 14t28 51l23 -4q-7 -43 -34 -68t-62 -23q-36 4 -82 36q-46 31 -67 32q-24 3 -42 -14t-24 -50l-22 3q4 45 27 69t57 22zM488 500h41v-281q0 -107 -59.5 -168t-160.5 -61q-100 0 -159.5 61t-59.5 168v281h41v-281
q0 -92 48.5 -143.5t129.5 -51.5q82 0 130.5 51.5t48.5 143.5v281z" />
    <glyph glyph-name="V.sc" horiz-adv-x="553" 
d="M526 500l-226 -500h-48l-225 500h45l204 -459l205 459h45z" />
    <glyph glyph-name="W.sc" horiz-adv-x="786" 
d="M759 500l-174 -500h-45l-147 442l-147 -442h-45l-174 500h44l153 -442l147 442h44l147 -442l153 442h44z" />
    <glyph glyph-name="Wacute.sc" horiz-adv-x="786" 
d="M520 713l-116 -150h-37l106 150h47zM759 500l-174 -500h-45l-147 442l-147 -442h-45l-174 500h44l153 -442l147 442h44l147 -442l153 442h44z" />
    <glyph glyph-name="Wcircumflex.sc" horiz-adv-x="786" 
d="M415 713l120 -150h-36l-106 126l-106 -126h-37l120 150h45zM759 500l-174 -500h-45l-147 442l-147 -442h-45l-174 500h44l153 -442l147 442h44l147 -442l153 442h44z" />
    <glyph glyph-name="Wdieresis.sc" horiz-adv-x="786" 
d="M312 647q0 -10 -7 -16.5t-17 -6.5q-15 0 -21.5 15t4.5 25q11 11 26 5t15 -22zM480 664q17 17 34 0t0 -34q-7 -6 -17 -6t-17 6q-6 7 -6 17.5t6 16.5zM759 500l-174 -500h-45l-147 442l-147 -442h-45l-174 500h44l153 -442l147 442h44l147 -442l153 442h44z" />
    <glyph glyph-name="Wgrave.sc" horiz-adv-x="786" 
d="M759 500l-174 -500h-45l-147 442l-147 -442h-45l-174 500h44l153 -442l147 442h44l147 -442l153 442h44zM312 713l106 -150h-38l-116 150h48z" />
    <glyph glyph-name="X.sc" horiz-adv-x="526" 
d="M490 500l-201 -245l210 -255h-49l-188 227l-186 -227h-49l210 257l-200 243h49l178 -215l177 215h49z" />
    <glyph glyph-name="Y.sc" horiz-adv-x="537" 
d="M510 500l-221 -315v-185h-41v184l-221 316h48l194 -276l194 276h47z" />
    <glyph glyph-name="Yacute.sc" horiz-adv-x="537" 
d="M396 713l-116 -150h-37l105 150h48zM510 500l-221 -315v-185h-41v184l-221 316h48l194 -276l194 276h47z" />
    <glyph glyph-name="Ycircumflex.sc" horiz-adv-x="537" 
d="M291 713l120 -150h-36l-106 126l-106 -126h-37l120 150h45zM510 500l-221 -315v-185h-41v184l-221 316h48l194 -276l194 276h47z" />
    <glyph glyph-name="Ydieresis.sc" horiz-adv-x="537" 
d="M147 664q10 10 23 5.5t16 -16t-6 -23.5q-6 -6 -16 -6t-17 6q-6 7 -6 17.5t6 16.5zM373 624q-10 0 -16.5 6.5t-6.5 16.5q0 16 14.5 22.5t24.5 -5.5q12 -10 5.5 -25t-21.5 -15zM510 500l-221 -315v-185h-41v184l-221 316h48l194 -276l194 276h47z" />
    <glyph glyph-name="Ygrave.sc" horiz-adv-x="537" 
d="M510 500l-221 -315v-185h-41v184l-221 316h48l194 -276l194 276h47zM188 713l106 -150h-38l-116 150h48z" />
    <glyph glyph-name="Z.sc" horiz-adv-x="498" 
d="M446 500l-1 -27l-347 -442h355v-31h-408l1 27l345 442h-333v31h388z" />
    <glyph glyph-name="Zacute.sc" horiz-adv-x="498" 
d="M383 713l-117 -150h-37l106 150h48zM446 500l-1 -27l-347 -442h355v-31h-408l1 27l345 442h-333v31h388z" />
    <glyph glyph-name="Zcaron.sc" horiz-adv-x="498" 
d="M398 713l-121 -150h-45l-120 150h37l106 -127l106 127h37zM446 500l-1 -27l-347 -442h355v-31h-408l1 27l345 442h-333v31h388z" />
    <glyph glyph-name="Zdotaccent.sc" horiz-adv-x="498" 
d="M238 664q10 10 23 5.5t16 -16t-6 -23.5q-9 -9 -22.5 -4.5t-17 16t6.5 22.5zM446 500l-1 -27l-347 -442h355v-31h-408l1 27l345 442h-333v31h388z" />
    <glyph glyph-name="a.ss01" horiz-adv-x="664" 
d="M522 500h40v-500h-40v76q-78 -86 -193 -86q-108 0 -183 76q-74 77 -74 184t74 184q75 76 183 76q113 0 193 -86v76zM340 475q-94 0 -161 -66t-67 -159t67 -159q68 -66 161 -66q113 0 182 90v270q-31 42 -79.5 66t-102.5 24z" />
    <glyph glyph-name="aacute.ss01" horiz-adv-x="664" 
d="M466 713l-117 -150h-37l106 150h48zM522 500h40v-500h-40v76q-78 -86 -193 -86q-108 0 -183 76q-74 77 -74 184t74 184q75 76 183 76q113 0 193 -86v76zM340 475q-94 0 -161 -66t-67 -159t67 -159q68 -66 161 -66q113 0 182 90v270q-31 42 -79.5 66t-102.5 24z" />
    <glyph glyph-name="abreve.ss01" horiz-adv-x="664" 
d="M463 709l31 -1q-4 -62 -46.5 -98.5t-109.5 -36.5q-66 0 -108.5 36.5t-46.5 98.5l31 1q4 -51 37.5 -79t86.5 -28q54 0 87.5 28.5t37.5 78.5zM522 500h40v-500h-40v76q-78 -86 -193 -86q-108 0 -183 76q-74 77 -74 184t74 184q75 76 183 76q113 0 193 -86v76zM340 475
q-94 0 -161 -66t-67 -159t67 -159q68 -66 161 -66q113 0 182 90v270q-69 90 -182 90z" />
    <glyph glyph-name="acaron.ss01" horiz-adv-x="664" 
d="M481 713l-121 -150h-45l-120 150h37l106 -127l106 127h37zM522 500h40v-500h-40v76q-78 -86 -193 -86q-108 0 -183 76q-74 77 -74 184t74 184q75 76 183 76q113 0 193 -86v76zM340 475q-94 0 -161 -66t-67 -159t67 -159q68 -66 161 -66q113 0 182 90v270q-32 42 -80 66
t-102 24z" />
    </font>
</defs>
</svg>
